<svg xmlns="http://www.w3.org/2000/svg" xmlns:xlink="http://www.w3.org/1999/xlink" width="65" height="65" viewBox="0 0 65 65">
  <defs>
    <clipPath id="clip-path">
      <circle id="타원_478" data-name="타원 478" cx="32.5" cy="32.5" r="32.5" fill="#ebeff5"/>
    </clipPath>
    <clipPath id="clip-path-2">
      <rect id="사각형_3449" data-name="사각형 3449" width="49" height="67" fill="none"/>
    </clipPath>
  </defs>
  <g id="마스크_그룹_186" data-name="마스크 그룹 186" clip-path="url(#clip-path)">
    <g id="그룹_1982" data-name="그룹 1982" transform="translate(8 6)">
      <g id="그룹_1981" data-name="그룹 1981" transform="translate(0 2)" clip-path="url(#clip-path-2)">
        <path id="패스_4130" data-name="패스 4130" d="M43.6,32.609V19.274a18.279,18.279,0,0,0-36.557,0V32.252c.011.083.017.167.025.25a6.268,6.268,0,1,0,4.777,10.61c.256,0,4.154.194,4.394.194,4.5,0,18.239.384,19.629.384a18.675,18.675,0,0,0,2.455-.14A6.276,6.276,0,1,0,43.6,32.609" transform="translate(-0.35 -0.351)" fill="#a9a9a9"/>
        <path id="패스_4131" data-name="패스 4131" d="M42.029,45.366a6.991,6.991,0,0,1-4.261-1.454,20.447,20.447,0,0,1-2.25.11c-.5,0-2.6-.05-5.253-.112-4.851-.115-11.494-.272-14.376-.272-.121,0-.786-.03-2.17-.1-.7-.033-1.526-.071-1.951-.089a6.96,6.96,0,1,1-5.76-11.927v-12.6a18.964,18.964,0,0,1,37.929,0v12.8a6.954,6.954,0,0,1-1.907,13.647m-4.056-2.852a.685.685,0,0,1,.443.162,5.592,5.592,0,1,0,4.7-9.746.683.683,0,0,1-.553-.671V18.923a17.593,17.593,0,0,0-35.186,0L7.4,32.079a.685.685,0,0,1-.655.755A5.584,5.584,0,1,0,11,42.285a.687.687,0,0,1,.494-.21c.132,0,.832.032,2.288.1,1,.046,1.974.093,2.106.094,2.9,0,9.55.157,14.407.272,2.644.062,4.732.112,5.221.112a17.972,17.972,0,0,0,2.364-.134.7.7,0,0,1,.091-.006" transform="translate(0 0)" fill="#96999c"/>
        <path id="패스_4132" data-name="패스 4132" d="M46.422,73.735A10.807,10.807,0,0,0,35.6,62.94h-15A10.806,10.806,0,0,0,9.779,73.735V87.652H46.422Z" transform="translate(-3.301 -21.337)" fill="#fff"/>
        <path id="패스_4133" data-name="패스 4133" d="M46.074,87.986H9.431a.685.685,0,0,1-.686-.684V73.384A11.506,11.506,0,0,1,20.252,61.905h15A11.506,11.506,0,0,1,46.76,73.384V87.3a.685.685,0,0,1-.686.684M10.116,86.618H45.388V73.384A10.135,10.135,0,0,0,35.253,63.273h-15A10.135,10.135,0,0,0,10.116,73.384Z" transform="translate(-2.952 -20.986)" fill="#96999c"/>
        <path id="패스_4134" data-name="패스 4134" d="M39.71,60.027v2.618c0,1.9-1.923,3.427-4.3,3.427s-4.3-1.532-4.3-3.427V59.893" transform="translate(-10.502 -20.304)" fill="#fff"/>
        <path id="패스_4135" data-name="패스 4135" d="M35.064,66.4c-2.749,0-4.984-1.844-4.984-4.111V59.542a.686.686,0,0,1,1.371,0v2.751c0,1.512,1.621,2.742,3.613,2.742s3.611-1.23,3.611-2.742V59.676a.686.686,0,0,1,1.371,0v2.618c0,2.267-2.235,4.111-4.983,4.111" transform="translate(-10.152 -19.953)" fill="#96999c"/>
        <path id="패스_4136" data-name="패스 4136" d="M42.645,24.562a39.376,39.376,0,0,1-18.112-7.638c-.81,2.575-2.807,6.566-7.493,7.626,0,.079-.008.153-.008.231v7.188a13.83,13.83,0,0,0,27.659,0V24.781Z" transform="translate(-5.749 -5.737)" fill="#fff"/>
        <path id="패스_4137" data-name="패스 4137" d="M30.514,46.1A14.515,14.515,0,0,1,16,31.618V24.43c0-.054,0-.107,0-.16l0-.082a.684.684,0,0,1,.534-.656c4.437-1,6.284-4.919,6.99-7.164a.686.686,0,0,1,1.06-.346A38.492,38.492,0,0,0,42.4,23.536l2.015.214a.685.685,0,0,1,.613.68v7.188A14.515,14.515,0,0,1,30.514,46.1M17.37,24.733v6.884a13.144,13.144,0,0,0,26.288,0V25.045l-1.435-.153A40.047,40.047,0,0,1,24.53,17.667a11.054,11.054,0,0,1-7.16,7.067" transform="translate(-5.4 -5.387)" fill="#96999c"/>
        <path id="패스_4138" data-name="패스 4138" d="M49.127,36.867A1.225,1.225,0,1,1,47.9,35.645a1.222,1.222,0,0,1,1.224,1.222" transform="translate(-15.754 -12.084)" fill="#96999c"/>
        <path id="패스_4139" data-name="패스 4139" d="M28.835,36.867a1.224,1.224,0,1,1-1.223-1.222,1.223,1.223,0,0,1,1.223,1.222" transform="translate(-8.906 -12.084)" fill="#96999c"/>
        <path id="패스_4140" data-name="패스 4140" d="M36.85,50.595A3.909,3.909,0,0,1,33.2,48.588a.514.514,0,0,1,.941-.414,2.929,2.929,0,0,0,2.707,1.394,2.94,2.94,0,0,0,2.687-1.348.514.514,0,0,1,.927.445,3.967,3.967,0,0,1-3.614,1.93" transform="translate(-11.191 -16.228)" fill="#96999c"/>
        <path id="패스_4141" data-name="패스 4141" d="M39.308,41.963H37.6a.514.514,0,0,1-.514-.513V37.179a.514.514,0,0,1,1.029,0v3.758h1.2a.513.513,0,1,1,0,1.027" transform="translate(-12.516 -12.43)" fill="#96999c"/>
        <path id="패스_4142" data-name="패스 4142" d="M42.917,60.183l-5.039,5.466,3.884,5.123,4.72-8.311Z" transform="translate(-12.784 -20.403)" fill="#fff"/>
        <path id="패스_4143" data-name="패스 4143" d="M41.414,71.106a.686.686,0,0,1-.547-.272l-3.884-5.123a.683.683,0,0,1,.042-.876l5.039-5.466a.688.688,0,0,1,.875-.113L46.5,61.534a.684.684,0,0,1,.227.914l-4.72,8.311a.685.685,0,0,1-.551.346h-.045m-2.992-5.765,2.91,3.838,3.886-6.843-2.534-1.619Z" transform="translate(-12.435 -20.052)" fill="#96999c"/>
        <path id="패스_4144" data-name="패스 4144" d="M27.99,60.183l5.034,5.466-3.88,5.123-4.72-8.311Z" transform="translate(-8.244 -20.403)" fill="#fff"/>
        <path id="패스_4145" data-name="패스 4145" d="M28.795,71.106H28.75a.687.687,0,0,1-.552-.345l-4.72-8.312a.684.684,0,0,1,.227-.913l3.566-2.278a.688.688,0,0,1,.874.114l5.034,5.466a.683.683,0,0,1,.042.876l-3.88,5.124a.687.687,0,0,1-.547.271m-3.8-8.769,3.885,6.841,2.906-3.838-4.257-4.622Z" transform="translate(-7.894 -20.052)" fill="#96999c"/>
        <path id="패스_4146" data-name="패스 4146" d="M38.617,77.971A1.37,1.37,0,1,1,37.247,76.6a1.368,1.368,0,0,1,1.369,1.368" transform="translate(-12.109 -25.969)" fill="#fff"/>
        <path id="패스_4147" data-name="패스 4147" d="M36.985,79.586a1.88,1.88,0,1,1,1.884-1.879,1.885,1.885,0,0,1-1.884,1.879m0-2.734a.854.854,0,1,0,.855.855.857.857,0,0,0-.855-.855" transform="translate(-11.847 -25.706)" fill="#96999c"/>
        <path id="패스_4148" data-name="패스 4148" d="M38.617,89.169A1.37,1.37,0,1,1,37.247,87.8a1.368,1.368,0,0,1,1.369,1.366" transform="translate(-12.109 -29.766)" fill="#fff"/>
        <path id="패스_4149" data-name="패스 4149" d="M36.985,90.784a1.879,1.879,0,1,1,1.884-1.879,1.885,1.885,0,0,1-1.884,1.879m0-2.732a.853.853,0,1,0,.855.853.856.856,0,0,0-.855-.853" transform="translate(-11.847 -29.503)" fill="#96999c"/>
      </g>
    </g>
  </g>
</svg>
