<svg xmlns="http://www.w3.org/2000/svg" xmlns:xlink="http://www.w3.org/1999/xlink" width="520" height="330" viewBox="0 0 520 330">
  <defs>
    <clipPath id="clip-path">
      <rect id="사각형_6686" data-name="사각형 6686" width="200" height="215" fill="#333"/>
    </clipPath>
    <clipPath id="clip-path-3">
      <rect id="사각형_6702" data-name="사각형 6702" width="189" height="276" fill="none"/>
    </clipPath>
    <clipPath id="clip-path-4">
      <rect id="사각형_6696" data-name="사각형 6696" width="140" height="126" fill="none"/>
    </clipPath>
  </defs>
  <g id="이미지_404" transform="translate(-700 -361)">
    <g id="그룹_4538" data-name="그룹 4538" transform="translate(700 451.431)">
      <g id="그룹_4537" data-name="그룹 4537" transform="translate(0 0)" clip-path="url(#clip-path)">
        <path id="패스_6567" data-name="패스 6567" d="M170.589,185.548c0,17.671-11.765,29.452-32.353,29.452s-32.353-11.781-32.353-29.452V167.876H32.353C11.765,167.876,0,156.1,0,138.424c0-14.727,11.765-29.452,11.765-29.452L64.706,38.581C82.648,14.725,97.059,0,129.412,0c23.53,0,41.176,17.671,41.176,38.287v70.685c17.646,0,29.411,11.781,29.411,29.452s-11.765,29.452-29.411,29.452Zm-64.706-76.576V73.629h-2.942l-25,32.4v2.946Z" transform="translate(0 0)" fill="#333"/>
      </g>
    </g>
    <g id="그룹_4550" data-name="그룹 4550" transform="translate(1020 451.431)">
      <g id="그룹_4537-2" data-name="그룹 4537" transform="translate(0 0)" clip-path="url(#clip-path)">
        <path id="패스_6567-2" data-name="패스 6567" d="M170.589,185.548c0,17.671-11.765,29.452-32.353,29.452s-32.353-11.781-32.353-29.452V167.876H32.353C11.765,167.876,0,156.1,0,138.424c0-14.727,11.765-29.452,11.765-29.452L64.706,38.581C82.648,14.725,97.059,0,129.412,0c23.53,0,41.176,17.671,41.176,38.287v70.685c17.646,0,29.411,11.781,29.411,29.452s-11.765,29.452-29.411,29.452Zm-64.706-76.576V73.629h-2.942l-25,32.4v2.946Z" transform="translate(0 0)" fill="#333"/>
      </g>
    </g>
    <g id="그룹_4559" data-name="그룹 4559" transform="translate(874 415)">
      <g id="그룹_4559-2" data-name="그룹 4559" clip-path="url(#clip-path-3)">
        <path id="패스_6646" data-name="패스 6646" d="M22.05,232.618c-.95-28.6,35.436-52.639,75.242-53.493s64.054,13.448,71.421,47.773" transform="translate(1.576 13.348)" fill="#0085c4"/>
        <path id="패스_6647" data-name="패스 6647" d="M22.05,232.618c-.95-28.6,35.436-52.639,75.242-53.493s64.054,13.448,71.421,47.773" transform="translate(1.576 13.348)" fill="none" stroke="#1a1818" stroke-width="5"/>
        <path id="패스_6648" data-name="패스 6648" d="M100.677,207.091l-5.655,6.889L67.546,191.295l12.016-1.637Z" transform="translate(4.831 14.136)" fill="#fff6f2"/>
        <path id="패스_6649" data-name="패스 6649" d="M100.677,207.091l-5.655,6.889L67.546,191.295l12.016-1.637Z" transform="translate(4.831 14.136)" fill="none" stroke="#191717" stroke-linecap="round" stroke-linejoin="round" stroke-width="3"/>
        <path id="패스_6677" data-name="패스 6677" d="M0,0,37.858-.052l-.012,8.908L-.012,8.908Z" transform="matrix(0.636, -0.772, 0.772, 0.636, 88.321, 230.338)" fill="#fff6f2"/>
        <path id="패스_6678" data-name="패스 6678" d="M0,0,37.858-.052l-.012,8.908L-.012,8.908Z" transform="matrix(0.636, -0.772, 0.772, 0.636, 88.321, 230.338)" fill="none" stroke="#191717" stroke-linecap="round" stroke-width="3"/>
        <path id="패스_6650" data-name="패스 6650" d="M78.76,189.846l27.951-2.715L94.09,202.5Z" transform="translate(5.633 13.947)" fill="#ffaf66"/>
        <path id="패스_6651" data-name="패스 6651" d="M78.76,189.846l27.951-2.715L94.09,202.5Z" transform="translate(5.633 13.947)" fill="none" stroke="#191717" stroke-linecap="round" stroke-linejoin="round" stroke-width="3"/>
        <path id="패스_6652" data-name="패스 6652" d="M92.062,219.641s4.06,1.087,6.224,7.575,3.59,12.109,3.59,12.109,10.8-2.615,11.022-11.629c0,0-11.7-16.276-19.833-16.06Z" transform="translate(6.584 15.774)" fill="#39b4ae"/>
        <path id="패스_6653" data-name="패스 6653" d="M92.062,219.641s4.06,1.087,6.224,7.575,3.59,12.109,3.59,12.109,10.8-2.615,11.022-11.629c0,0-11.7-16.276-19.833-16.06Z" transform="translate(6.584 15.774)" fill="none" stroke="#191717" stroke-linecap="round" stroke-linejoin="round" stroke-width="3"/>
        <path id="패스_6654" data-name="패스 6654" d="M87.57,211.3s-5.184-1.832-8.219,1.757-12.221,43.715-12.221,43.715l12.663,1.9,3.838-38.944Z" transform="translate(4.801 15.714)" fill="#39b4ae"/>
        <path id="패스_6655" data-name="패스 6655" d="M87.57,211.3s-5.184-1.832-8.219,1.757-12.221,43.715-12.221,43.715l12.663,1.9,3.838-38.944Z" transform="translate(4.801 15.714)" fill="none" stroke="#191717" stroke-linecap="round" stroke-linejoin="round" stroke-width="3"/>
        <path id="패스_6656" data-name="패스 6656" d="M92.832,222.538l-8.831-.9a1.647,1.647,0,0,1-1.47-1.805l.894-8.856a1.645,1.645,0,0,1,1.8-1.474l8.83.9a1.647,1.647,0,0,1,1.47,1.805l-.893,8.856a1.646,1.646,0,0,1-1.8,1.474" transform="translate(5.902 15.614)" fill="#39b4ae"/>
        <path id="사각형_6701" data-name="사각형 6701" d="M1.534,0h9.126a1.533,1.533,0,0,1,1.533,1.533v9.093a1.534,1.534,0,0,1-1.534,1.534H1.534A1.534,1.534,0,0,1,0,10.627V1.534A1.534,1.534,0,0,1,1.534,0Z" transform="translate(88.268 237.091) rotate(-84.222)" fill="none" stroke="#191717" stroke-linecap="round" stroke-linejoin="round" stroke-width="3"/>
        <path id="패스_6657" data-name="패스 6657" d="M186.04,129.787c-2.381,51.368-44.843,79.613-95.5,77.251S.221,172.6,2.6,121.236,47.977,30.14,98.632,32.5s89.788,45.918,87.407,97.286" transform="translate(0.179 2.415)" fill="#fff"/>
        <path id="패스_6658" data-name="패스 6658" d="M186.04,129.787c-2.381,51.368-44.843,79.613-95.5,77.251S.221,172.6,2.6,121.236,47.977,30.14,98.632,32.5,188.42,78.419,186.04,129.787Z" transform="translate(0.179 2.415)" fill="none" stroke="#1a1818" stroke-width="5"/>
        <path id="패스_6659" data-name="패스 6659" d="M35.308,90.2c11.609-3.215,23.048-7.482,32.479-14.282S84.521,59.518,86,48.811C89.108,60.038,98.906,69.285,110.659,74.3s25.257,6.132,38.211,4.884a76.193,76.193,0,0,0,17.22-3.528C150.567,49.513,118.009,33.224,83,36.977s-62.151,26.442-70.065,55.1c7.179,1.71,15.138.126,22.373-1.877" transform="translate(0.925 2.716)" fill="#040504"/>
        <path id="패스_6660" data-name="패스 6660" d="M18.146,97.17a32.623,32.623,0,0,1-6.095-.836,4.107,4.107,0,0,1-3.312-4.959c8.553-30.98,38.292-54.366,74-58.195s70.983,12.588,87.765,40.855a3.694,3.694,0,0,1,.24,3.359,4.392,4.392,0,0,1-2.669,2.389,81.2,81.2,0,0,1-18.386,3.779c-15.149,1.46-29.234-.36-40.728-5.27A51,51,0,0,1,87.157,61.207,52.339,52.339,0,0,1,71.031,79.4c-8.6,6.2-19.405,10.968-34.021,15.014-5.766,1.6-12.3,3.059-18.864,2.759m17.472-6.686h0ZM97.046,40.945a86.419,86.419,0,0,0-13.17.4c-30.2,3.239-55.627,22.135-64.738,47.624,5.01.128,10.329-1.1,15.088-2.413,13.455-3.726,23.285-8.032,30.939-13.549,9.292-6.7,15.32-15.6,16.535-24.42a4.434,4.434,0,0,1,4.329-3.6,4.612,4.612,0,0,1,4.782,3.133c2.619,9.444,10.9,17.952,22.163,22.759,9.928,4.24,22.27,5.794,35.693,4.5a78.684,78.684,0,0,0,10.879-1.78C146,54.288,122.371,42.1,97.046,40.945" transform="translate(0.615 2.432)" fill="#040504"/>
        <path id="패스_6661" data-name="패스 6661" d="M116.331,18.906q4.767,4.162,9.56,8.3c.336.289.689.553,1.049.808.524.373,1.069.716,1.628,1.036.21.12.421.241.633.357a32.492,32.492,0,0,0,6.83,2.749q1.413.4,2.861.686c.483.1.967.187,1.453.268,2.343.391,4.689.761,7.036,1.13,1.043.164,2.086.328,3.129.5a3.059,3.059,0,0,0,.606.063.826.826,0,0,0,.4-.115v0c.156-.482-.139-.911-.29-1.349q-3.415-9.885-6.849-19.769c-.3-.862-.612-1.722-.9-2.589a2.517,2.517,0,0,0-.363-.688,2.775,2.775,0,0,0-.775-.727,4.126,4.126,0,0,0-.418-.241,4.013,4.013,0,0,0-2.958-.273q-.215.061-.431.145c-3.711,1.441-7.443,2.839-11.166,4.256Q122.183,15.418,117,17.4a2.652,2.652,0,0,0-1.335.692c.092.421.415.6.662.819" transform="translate(8.273 0.662)" fill="#5a5b5e"/>
        <path id="패스_6662" data-name="패스 6662" d="M139.383,34.869q-.889-.143-1.758-.335a24.245,24.245,0,0,1-10.955-5.458c-9.113-8-18.289-15.931-27.441-23.889-.295-.258-.585-.525-.9-.765a.635.635,0,0,0-.48-.176.348.348,0,0,0-.183.1.713.713,0,0,0-.146.222,3.762,3.762,0,0,0-.188.531c-.65,2.406-1.292,4.813-1.947,7.217q-1.721,6.326-3.457,12.653c-.58,2.131-1.121,4.274-1.732,6.4-.27.935.092.984.825,1.037.6.043,1.2.07,1.794.1.181.011.368.019.549.031a97.953,97.953,0,0,1,13.362,1.877c1.16.246,2.318.506,3.47.8q2.75.693,5.463,1.552a94.091,94.091,0,0,1,9.735,3.692c.664.294,1.328.6,1.984.906,1.977.925,3.931,1.9,5.9,2.829.05.024.1.051.149.074a69.154,69.154,0,0,1,9.044,5.267q2.314,1.572,4.529,3.259A96.23,96.23,0,0,1,159.33,63.972c.231.25.473.5.727.725a.383.383,0,0,0,.529,0,1.343,1.343,0,0,0,.16-.162,3.034,3.034,0,0,0,.2-.263q2.425-3.462,4.844-6.931,1.475-2.115,2.954-4.232,3.322-4.76,6.623-9.535a16.154,16.154,0,0,0,1.3-1.88,4.422,4.422,0,0,0,.318-.8c-.616-.125-1.09-.239-1.57-.314-12.012-1.9-24.028-3.779-36.036-5.708" transform="translate(6.445 0.316)" fill="#5a5b5e"/>
        <path id="패스_6663" data-name="패스 6663" d="M181.584,39.889a2.552,2.552,0,0,0-1.472-1.653,4.177,4.177,0,0,0-.586-.219,8.736,8.736,0,0,0-1.137-.228l-3.041-.486c-2.512-.4-5.108-.819-7.666-1.206a41.815,41.815,0,0,1-5.818-1.2c-1.4-.423-2.637-.849-3.784-1.3a3.012,3.012,0,0,1-1.92-2.029c-1.481-4.4-3.032-8.861-4.528-13.173q-1.3-3.725-2.586-7.455a8.882,8.882,0,0,0-1.623-2.952A5.754,5.754,0,0,0,141.6,5.927a14.046,14.046,0,0,0-2.034.624l-4.191,1.587c-5.391,2.039-10.965,4.149-16.427,6.278a3.023,3.023,0,0,1-2.768-.228,39.7,39.7,0,0,1-6.638-4.558c-1.713-1.519-3.463-3.038-5.006-4.377l-1.045-.908c-1.339-1.166-2.727-2.373-4.123-3.534A2.742,2.742,0,0,0,96.4.219a2.865,2.865,0,0,0-1.5,2L94.449,3.9C94.1,5.2,93.757,6.5,93.4,7.8q-.669,2.46-1.345,4.917c-.89,3.252-1.811,6.616-2.692,9.934-.176.662-.389,1.324-.62,1.985L86.152,34.4l.039,0a96.693,96.693,0,0,1,23.184,2.379,82.011,82.011,0,0,1,10.247,2.781,60.108,60.108,0,0,1,9.832,4.043,26.06,26.06,0,0,0,2.392,1.172,50.839,50.839,0,0,1,8.251,4.9,106.861,106.861,0,0,1,16.948,14.365q2.7,2.837,5.068,5.867l4.452-6.314a27.657,27.657,0,0,1,2.466-4.14q.715-.983,1.41-1.979l8.627-12.382c.269-.386.539-.768.812-1.152.411-.579.824-1.158,1.226-1.746a2.725,2.725,0,0,0,.478-2.3m-62.469-21.83q5.174-1.987,10.358-3.948c3.724-1.416,7.456-2.814,11.166-4.255a4.427,4.427,0,0,1,.432-.145,4.107,4.107,0,0,1,3.375.513,2.765,2.765,0,0,1,.775.729,2.49,2.49,0,0,1,.364.688c.291.866.6,1.725.9,2.589q3.428,9.884,6.848,19.769c.151.437.447.865.291,1.349h0a.819.819,0,0,1-.4.116,3.02,3.02,0,0,1-.609-.064q-1.561-.25-3.128-.5c-2.346-.371-4.691-.74-7.035-1.131-.488-.081-.971-.17-1.453-.266-.964-.2-1.919-.421-2.862-.686a32.547,32.547,0,0,1-6.83-2.748c-.211-.117-.422-.237-.632-.359-.559-.32-1.1-.662-1.628-1.035-.36-.255-.714-.519-1.049-.809q-4.793-4.137-9.56-8.3c-.248-.216-.571-.4-.662-.82a2.65,2.65,0,0,1,1.335-.691m57.837,23.952a16.023,16.023,0,0,1-1.3,1.88q-3.292,4.782-6.623,9.535-1.479,2.116-2.954,4.232-2.417,3.469-4.844,6.931a2.835,2.835,0,0,1-.2.263,1.516,1.516,0,0,1-.159.162.4.4,0,0,1-.4.082.383.383,0,0,1-.131-.083c-.255-.23-.5-.475-.728-.725A96.247,96.247,0,0,0,147.288,53.1q-2.213-1.688-4.529-3.258a69.4,69.4,0,0,0-9.044-5.267c-.049-.024-.1-.05-.149-.074-1.971-.933-3.924-1.9-5.9-2.829q-.987-.463-1.986-.906a94.091,94.091,0,0,0-9.735-3.692q-2.713-.861-5.462-1.552c-1.152-.289-2.309-.549-3.471-.8a97.747,97.747,0,0,0-13.361-1.876c-.182-.013-.368-.021-.55-.032-.6-.033-1.2-.06-1.794-.1-.733-.053-1.094-.1-.825-1.037.612-2.122,1.152-4.266,1.733-6.4q1.723-6.328,3.456-12.652c.656-2.4,1.3-4.812,1.948-7.217a3.628,3.628,0,0,1,.186-.531.715.715,0,0,1,.147-.222.344.344,0,0,1,.183-.1.634.634,0,0,1,.48.175c.311.241.6.508.895.766,9.152,7.958,18.327,15.89,27.443,23.889a24.225,24.225,0,0,0,10.954,5.458q.868.192,1.757.335c12.01,1.929,24.025,3.806,36.036,5.708.48.075.954.189,1.57.314a4.344,4.344,0,0,1-.318.8" transform="translate(6.162 0)" fill="#1a1818"/>
        <path id="패스_6664" data-name="패스 6664" d="M63.128,138.347c-.027,6.749-8.164,12.189-18.176,12.15S26.845,144.953,26.871,138.2s8.165-12.189,18.176-12.15,18.108,5.543,18.081,12.293" transform="translate(1.922 9.395)" fill="#f7d5e6"/>
        <path id="패스_6665" data-name="패스 6665" d="M150.586,140.258c-.027,6.749-8.164,12.189-18.176,12.15s-18.107-5.544-18.081-12.293,8.165-12.19,18.176-12.15,18.108,5.543,18.081,12.293" transform="translate(8.177 9.538)" fill="#f7d5e6"/>
        <path id="패스_6666" data-name="패스 6666" d="M106.554,127.764c-.35,6.981-8.633,12.237-18.5,11.739s-17.578-6.563-17.228-13.544,8.633-12.237,18.5-11.739,17.578,6.563,17.228,13.544" transform="translate(5.065 8.511)" fill="#2ea974"/>
        <path id="패스_6667" data-name="패스 6667" d="M136.3,96.712,107.536,111l28.3,9.648" transform="translate(7.691 7.208)" fill="none" stroke="#191717" stroke-linecap="round" stroke-linejoin="round" stroke-width="5"/>
        <path id="패스_6668" data-name="패스 6668" d="M37.437,99.725l30.3,10.619-26.9,13.077" transform="translate(2.678 7.433)" fill="none" stroke="#191717" stroke-linecap="round" stroke-linejoin="round" stroke-width="5"/>
        <path id="패스_6669" data-name="패스 6669" d="M61.079,177.636c0-12.236,13.446-22.156,30.037-22.156s30.037,9.92,30.037,22.156Z" transform="translate(4.368 11.588)" fill="#191717"/>
        <path id="패스_6670" data-name="패스 6670" d="M61.079,177.636c0-12.236,13.446-22.156,30.037-22.156s30.037,9.92,30.037,22.156Z" transform="translate(4.368 11.588)" fill="none" stroke="#191717" stroke-width="2"/>
        <path id="패스_6671" data-name="패스 6671" d="M58.871,177.8a2.37,2.37,0,0,0,2.367,2.374h60.074a2.37,2.37,0,0,0,2.367-2.374c0-13.525-14.535-24.528-32.4-24.528s-32.4,11-32.4,24.528m32.4-19.782c14.122,0,25.671,7.629,27.336,17.409H63.939c1.664-9.779,13.214-17.409,27.336-17.409" transform="translate(4.21 11.424)" fill="#191717"/>
        <path id="패스_6672" data-name="패스 6672" d="M58.871,177.8a2.37,2.37,0,0,0,2.367,2.374h60.074a2.37,2.37,0,0,0,2.367-2.374c0-13.525-14.535-24.528-32.4-24.528S58.871,164.276,58.871,177.8Zm32.4-19.782c14.122,0,25.671,7.629,27.336,17.409H63.939C65.6,165.648,77.153,158.019,91.275,158.019Z" transform="translate(4.21 11.424)" fill="none" stroke="#191717" stroke-width="2"/>
        <path id="패스_6673" data-name="패스 6673" d="M69.8,163.932l40.8.348h-.113s-7.012-6.341-21.381-6.11c0,0-10.577-.231-19.311,5.762" transform="translate(4.992 11.788)" fill="#fff"/>
        <path id="패스_6674" data-name="패스 6674" d="M126.69,125.38c.044.074-3.28,6.494-3.454,7.148-.5,1.915-.895,4.126-.075,6.02,1.832,4.25,5.538,3.985,7.47.15,2.337-4.637-1.479-9.673-3.941-13.318" transform="translate(8.775 9.345)" fill="#191717"/>
        <path id="패스_6675" data-name="패스 6675" d="M126.69,144.862c.044.076-3.28,6.5-3.454,7.149-.5,1.918-.895,4.126-.075,6.022,1.832,4.25,5.538,3.982,7.47.15,2.337-4.639-1.479-9.674-3.941-13.321" transform="translate(8.775 10.797)" fill="#191717"/>
        <path id="패스_6676" data-name="패스 6676" d="M114.093,15.631C119.9,21.416,124.62,32.854,156.2,34.725" transform="translate(8.16 1.165)" fill="none" stroke="#040504" stroke-width="4"/>
      </g>
    </g>
    <g id="그룹_4560" data-name="그룹 4560" transform="translate(843 361)">
      <g id="그룹_4552" data-name="그룹 4552" clip-path="url(#clip-path-4)">
        <path id="패스_6634" data-name="패스 6634" d="M.675,68.622C-4.648,38.088,22.075,7.95,60.362,1.306S134,14.028,139.324,44.562s-21.4,60.673-59.687,67.317a88.874,88.874,0,0,1-8.976,1.092c2.393,5.172,4.409,9.75,5.419,12.07a.668.668,0,0,1-.871.9s-31.631-13.157-41.761-18.987C17.122,97.556,3.675,85.834.675,68.622" transform="translate(0 0)" fill="#26b2c8"/>
        <path id="패스_6635" data-name="패스 6635" d="M101.363,146.873c0,2.729-1.824,4.549-5.015,4.549s-5.015-1.82-5.015-4.549v-2.73h-11.4c-3.192,0-5.015-1.819-5.015-4.549a8.668,8.668,0,0,1,1.824-4.549l8.207-10.872c2.781-3.685,5.015-5.959,10.031-5.959a6.137,6.137,0,0,1,6.383,5.914v10.918a4.549,4.549,0,1,1,0,9.1ZM91.332,135.045v-5.459h-.456l-3.875,5v.455Z" transform="translate(-53.618 -84.682)" fill="#fff"/>
        <path id="패스_6636" data-name="패스 6636" d="M191.994,130.724c0-7.051,5.471-12.51,14.134-12.51s14.134,5.459,14.134,12.51v8.643c0,7.051-5.471,12.51-14.134,12.51s-14.134-5.459-14.134-12.51Zm18.01,0c0-2.957-1.824-4.776-3.875-4.776s-3.876,1.82-3.876,4.776v8.643c0,2.957,1.824,4.776,3.876,4.776S210,142.324,210,139.367Z" transform="translate(-137.409 -84.682)" fill="#fff"/>
        <path id="패스_6637" data-name="패스 6637" d="M325.892,146.873c0,2.729-1.824,4.549-5.015,4.549s-5.015-1.82-5.015-4.549v-2.73h-11.4c-3.191,0-5.015-1.819-5.015-4.549a8.668,8.668,0,0,1,1.824-4.549l8.207-10.872c2.781-3.685,5.015-5.959,10.031-5.959a6.137,6.137,0,0,1,6.383,5.914v10.918a4.549,4.549,0,1,1,0,9.1Zm-10.031-11.828v-5.459H315.4l-3.876,5v.455Z" transform="translate(-214.313 -84.682)" fill="#fff"/>
        <path id="패스_6638" data-name="패스 6638" d="M133.443,255.821v1.088H136.9a1.641,1.641,0,1,1,0,3.264h-3.453v1.088h5.088a1.822,1.822,0,1,1,0,3.627h-7.087a1.77,1.77,0,0,1-2-1.813v-9.066a1.77,1.77,0,0,1,2-1.813h6.906a1.822,1.822,0,1,1,0,3.627Z" transform="translate(-92.643 -180.657)" fill="#fff"/>
        <path id="패스_6639" data-name="패스 6639" d="M177.225,260.354v2.9a2.009,2.009,0,0,1-4,0v-9.247a1.77,1.77,0,0,1,2-1.813h3.817c3.816,0,5.452,1.632,5.452,4.08a3.213,3.213,0,0,1-2,2.992v.182l1.817,2.176a3.392,3.392,0,0,1,.727,1.632c0,1.088-.727,1.813-2.181,1.813a2.478,2.478,0,0,1-1.636-.907l-2.908-3.808Zm1.817-3.083c.818,0,1.272-.453,1.272-1s-.454-1-1.272-1h-1.817v1.994Z" transform="translate(-123.978 -180.657)" fill="#fff"/>
        <path id="패스_6640" data-name="패스 6640" d="M223.883,260.354v2.9a2.009,2.009,0,0,1-4,0v-9.247a1.77,1.77,0,0,1,2-1.813H225.7c3.817,0,5.452,1.632,5.452,4.08a3.213,3.213,0,0,1-2,2.992v.182l1.818,2.176a3.392,3.392,0,0,1,.727,1.632c0,1.088-.727,1.813-2.181,1.813a2.477,2.477,0,0,1-1.636-.907l-2.908-3.808Zm1.817-3.083c.818,0,1.272-.453,1.272-1s-.454-1-1.272-1h-1.817v1.994Z" transform="translate(-157.371 -180.657)" fill="#fff"/>
        <path id="패스_6641" data-name="패스 6641" d="M277.12,258.894c0,3.082-2.363,5.44-6.088,5.44s-6.088-2.357-6.088-5.44v-2.538c0-3.082,2.363-5.44,6.088-5.44s6.088,2.357,6.088,5.44Zm-4.089-2.538a2.026,2.026,0,1,0-4,0v2.538a2.026,2.026,0,1,0,4,0Z" transform="translate(-189.619 -179.742)" fill="#fff"/>
        <path id="패스_6642" data-name="패스 6642" d="M318.477,260.354v2.9a2.009,2.009,0,0,1-4,0v-9.247a1.77,1.77,0,0,1,2-1.813h3.817c3.817,0,5.452,1.632,5.452,4.08a3.213,3.213,0,0,1-2,2.992v.182l1.817,2.176a3.392,3.392,0,0,1,.727,1.632c0,1.088-.727,1.813-2.181,1.813a2.478,2.478,0,0,1-1.636-.907l-2.908-3.808Zm1.817-3.083c.818,0,1.272-.453,1.272-1s-.454-1-1.272-1h-1.817v1.994Z" transform="translate(-225.071 -180.657)" fill="#fff"/>
      </g>
    </g>
  </g>
</svg>
