<svg xmlns="http://www.w3.org/2000/svg" xmlns:xlink="http://www.w3.org/1999/xlink" width="500.001" height="330" viewBox="0 0 500.001 330">
  <defs>
    <clipPath id="clip-path">
      <rect id="사각형_6698" data-name="사각형 6698" width="180" height="215" fill="#333"/>
    </clipPath>
    <clipPath id="clip-path-2">
      <rect id="사각형_6706" data-name="사각형 6706" width="189" height="276" fill="none"/>
    </clipPath>
    <clipPath id="clip-path-3">
      <rect id="사각형_6707" data-name="사각형 6707" width="140" height="126" fill="none"/>
    </clipPath>
  </defs>
  <g id="이미지_500" transform="translate(-723.999 -361)">
    <g id="그룹_4558" data-name="그룹 4558" transform="translate(1044 451)">
      <g id="그룹_4556" data-name="그룹 4556" clip-path="url(#clip-path)">
        <path id="패스_6645" data-name="패스 6645" d="M0,79.9C0,34.865,34.837,0,90,0s90,34.864,90,79.9v55.2c0,45.033-34.839,79.9-90,79.9S0,180.135,0,135.1Zm114.675,0c0-18.885-11.611-30.507-24.676-30.507S65.321,61.014,65.321,79.9v55.2c0,18.885,11.613,30.5,24.678,30.5s24.676-11.618,24.676-30.5Z" transform="translate(0 0.001)" fill="#333"/>
      </g>
    </g>
    <g id="그룹_4564" data-name="그룹 4564" transform="translate(720.367 447.375)">
      <g id="그룹_4569" data-name="그룹 4569" transform="translate(3.632 3.625)">
        <path id="패스_6643" data-name="패스 6643" d="M78.014,76.293c48.373,0,83.986,19.951,83.986,68.516S123.123,217,76.826,217c-24.335,0-55.494-7.086-69.444-23.362a21.85,21.85,0,0,1,3.265-31.765c8.309-6.563,20.18-6.563,29.083-4.462,5.64,1.313,10.091,5.25,13.356,7.088,6.824,3.674,13.354,4.726,22.257,4.726,13.653,0,28.49-10.239,28.49-24.417s-13.354-24.15-32.051-24.15H50.711c-35.019,0-45.7-9.712-43.625-39.378l2.672-39.9C11.836,11.714,18.065,2,53.086,2h78.05c16.917,0,23.447,12.34,23.447,22.839s-6.233,22.051-23.447,22.051H72.673c-5.341,0-7.125.525-7.42,5.512L64.065,70.78c-.3,4.987,1.782,5.512,7.123,5.512Z" transform="translate(-2.001 -2)" fill="#333"/>
      </g>
    </g>
    <g id="그룹_4565" data-name="그룹 4565" transform="translate(866 415)">
      <g id="그룹_4562" data-name="그룹 4562" clip-path="url(#clip-path-2)">
        <path id="패스_6679" data-name="패스 6679" d="M22.05,232.618c-.95-28.6,35.436-52.639,75.242-53.493s64.054,13.448,71.421,47.773" transform="translate(1.576 13.348)" fill="#0085c4"/>
        <path id="패스_6680" data-name="패스 6680" d="M22.05,232.618c-.95-28.6,35.436-52.639,75.242-53.493s64.054,13.448,71.421,47.773" transform="translate(1.576 13.348)" fill="none" stroke="#1a1818" stroke-width="5"/>
        <path id="패스_6681" data-name="패스 6681" d="M100.677,207.091l-5.655,6.889L67.546,191.295l12.016-1.637Z" transform="translate(4.831 14.136)" fill="#fff6f2"/>
        <path id="패스_6682" data-name="패스 6682" d="M100.677,207.091l-5.655,6.889L67.546,191.295l12.016-1.637Z" transform="translate(4.831 14.136)" fill="none" stroke="#191717" stroke-linecap="round" stroke-linejoin="round" stroke-width="3"/>
        <path id="패스_6708" data-name="패스 6708" d="M0,0,37.858-.052l-.012,8.908L-.012,8.908Z" transform="matrix(0.636, -0.772, 0.772, 0.636, 88.321, 230.338)" fill="#fff6f2"/>
        <path id="패스_6709" data-name="패스 6709" d="M0,0,37.858-.052l-.012,8.908L-.012,8.908Z" transform="matrix(0.636, -0.772, 0.772, 0.636, 88.321, 230.338)" fill="none" stroke="#191717" stroke-linecap="round" stroke-width="3"/>
        <path id="패스_6683" data-name="패스 6683" d="M78.76,189.846l27.951-2.715L94.09,202.5Z" transform="translate(5.633 13.947)" fill="#ffaf66"/>
        <path id="패스_6684" data-name="패스 6684" d="M78.76,189.846l27.951-2.715L94.09,202.5Z" transform="translate(5.633 13.947)" fill="none" stroke="#191717" stroke-linecap="round" stroke-linejoin="round" stroke-width="3"/>
        <path id="패스_6685" data-name="패스 6685" d="M92.062,219.641s4.06,1.087,6.224,7.575,3.59,12.109,3.59,12.109,10.8-2.615,11.022-11.629c0,0-11.7-16.276-19.833-16.06Z" transform="translate(6.584 15.774)" fill="#39b4ae"/>
        <path id="패스_6686" data-name="패스 6686" d="M92.062,219.641s4.06,1.087,6.224,7.575,3.59,12.109,3.59,12.109,10.8-2.615,11.022-11.629c0,0-11.7-16.276-19.833-16.06Z" transform="translate(6.584 15.774)" fill="none" stroke="#191717" stroke-linecap="round" stroke-linejoin="round" stroke-width="3"/>
        <path id="패스_6687" data-name="패스 6687" d="M87.57,211.3s-5.184-1.832-8.219,1.757-12.221,43.715-12.221,43.715l12.663,1.9,3.838-38.944Z" transform="translate(4.801 15.714)" fill="#39b4ae"/>
        <path id="패스_6688" data-name="패스 6688" d="M87.57,211.3s-5.184-1.832-8.219,1.757-12.221,43.715-12.221,43.715l12.663,1.9,3.838-38.944Z" transform="translate(4.801 15.714)" fill="none" stroke="#191717" stroke-linecap="round" stroke-linejoin="round" stroke-width="3"/>
        <path id="패스_6689" data-name="패스 6689" d="M92.832,222.539l-8.831-.9a1.647,1.647,0,0,1-1.47-1.805l.894-8.856a1.645,1.645,0,0,1,1.8-1.474l8.83.9a1.647,1.647,0,0,1,1.47,1.805l-.893,8.856a1.646,1.646,0,0,1-1.8,1.474" transform="translate(5.902 15.614)" fill="#39b4ae"/>
        <path id="사각형_6705" data-name="사각형 6705" d="M1.534,0h9.126a1.533,1.533,0,0,1,1.533,1.533v9.093a1.534,1.534,0,0,1-1.534,1.534H1.534A1.534,1.534,0,0,1,0,10.627V1.534A1.534,1.534,0,0,1,1.534,0Z" transform="translate(88.268 237.091) rotate(-84.222)" fill="none" stroke="#191717" stroke-linecap="round" stroke-linejoin="round" stroke-width="3"/>
        <path id="패스_6690" data-name="패스 6690" d="M186.04,129.787c-2.381,51.368-44.843,79.613-95.5,77.251S.221,172.6,2.6,121.236,47.977,30.14,98.632,32.5s89.788,45.918,87.407,97.286" transform="translate(0.179 2.415)" fill="#fff"/>
        <path id="패스_6691" data-name="패스 6691" d="M186.04,129.787c-2.381,51.368-44.843,79.613-95.5,77.251S.221,172.6,2.6,121.236,47.977,30.14,98.632,32.5,188.42,78.419,186.04,129.787Z" transform="translate(0.179 2.415)" fill="none" stroke="#1a1818" stroke-width="5"/>
        <path id="패스_6692" data-name="패스 6692" d="M35.308,90.2c11.609-3.215,23.048-7.482,32.479-14.282S84.521,59.518,86,48.811C89.108,60.038,98.906,69.285,110.659,74.3s25.257,6.132,38.211,4.884a76.192,76.192,0,0,0,17.22-3.528C150.567,49.513,118.009,33.224,83,36.977s-62.151,26.442-70.065,55.1c7.179,1.71,15.138.126,22.373-1.877" transform="translate(0.925 2.716)" fill="#040504"/>
        <path id="패스_6693" data-name="패스 6693" d="M18.146,97.17a32.623,32.623,0,0,1-6.095-.836,4.107,4.107,0,0,1-3.312-4.959c8.553-30.98,38.292-54.366,74-58.195s70.983,12.588,87.765,40.855a3.694,3.694,0,0,1,.24,3.359,4.392,4.392,0,0,1-2.669,2.389,81.205,81.205,0,0,1-18.386,3.779c-15.149,1.46-29.234-.36-40.728-5.27A51,51,0,0,1,87.157,61.207,52.339,52.339,0,0,1,71.031,79.4c-8.6,6.2-19.405,10.968-34.021,15.014-5.766,1.6-12.3,3.059-18.864,2.759m17.472-6.686h0ZM97.046,40.945a86.419,86.419,0,0,0-13.17.4c-30.2,3.239-55.627,22.135-64.738,47.624,5.01.128,10.329-1.1,15.088-2.413,13.455-3.726,23.285-8.032,30.939-13.549,9.292-6.7,15.32-15.6,16.535-24.42a4.434,4.434,0,0,1,4.329-3.6,4.612,4.612,0,0,1,4.782,3.133c2.619,9.444,10.9,17.952,22.163,22.759,9.928,4.24,22.27,5.794,35.693,4.5a78.683,78.683,0,0,0,10.879-1.78C146,54.288,122.371,42.1,97.046,40.945" transform="translate(0.615 2.432)" fill="#040504"/>
        <path id="패스_6694" data-name="패스 6694" d="M116.331,18.906q4.767,4.162,9.56,8.3c.336.289.689.553,1.049.808.524.373,1.069.716,1.628,1.036.21.12.421.241.633.357a32.492,32.492,0,0,0,6.83,2.749q1.413.4,2.861.686c.483.1.967.187,1.453.268,2.343.391,4.689.761,7.036,1.13,1.043.164,2.086.328,3.129.5a3.059,3.059,0,0,0,.606.063.826.826,0,0,0,.4-.115v0c.156-.482-.139-.911-.29-1.349q-3.415-9.885-6.849-19.769c-.3-.862-.612-1.722-.9-2.589a2.517,2.517,0,0,0-.363-.688,2.775,2.775,0,0,0-.775-.727,4.126,4.126,0,0,0-.418-.241,4.013,4.013,0,0,0-2.958-.273q-.215.061-.431.145c-3.711,1.441-7.443,2.839-11.166,4.256Q122.183,15.418,117,17.4a2.652,2.652,0,0,0-1.335.692c.092.421.415.6.662.819" transform="translate(8.273 0.662)" fill="#5a5b5e"/>
        <path id="패스_6695" data-name="패스 6695" d="M139.383,34.869q-.889-.143-1.758-.335a24.245,24.245,0,0,1-10.955-5.458c-9.113-8-18.289-15.931-27.441-23.889-.295-.258-.585-.525-.9-.765a.635.635,0,0,0-.48-.176.348.348,0,0,0-.183.1.713.713,0,0,0-.146.222,3.762,3.762,0,0,0-.188.531c-.65,2.406-1.292,4.813-1.947,7.217q-1.721,6.326-3.457,12.653c-.58,2.131-1.121,4.274-1.732,6.4-.27.935.092.984.825,1.037.6.043,1.2.07,1.794.1.181.011.368.019.549.031a97.953,97.953,0,0,1,13.362,1.877c1.16.246,2.318.506,3.47.8q2.75.693,5.463,1.552a94.094,94.094,0,0,1,9.735,3.692c.664.294,1.328.6,1.984.906,1.977.925,3.931,1.9,5.9,2.829.05.024.1.051.149.074a69.154,69.154,0,0,1,9.044,5.267q2.314,1.572,4.529,3.259A96.232,96.232,0,0,1,159.33,63.972c.231.25.473.5.726.725a.383.383,0,0,0,.529,0,1.345,1.345,0,0,0,.16-.162,3.038,3.038,0,0,0,.2-.263q2.425-3.462,4.844-6.931,1.475-2.115,2.954-4.232,3.322-4.76,6.623-9.535a16.155,16.155,0,0,0,1.3-1.88,4.422,4.422,0,0,0,.318-.8c-.616-.125-1.09-.239-1.57-.314-12.012-1.9-24.028-3.779-36.036-5.708" transform="translate(6.445 0.316)" fill="#5a5b5e"/>
        <path id="패스_6696" data-name="패스 6696" d="M181.584,39.889a2.552,2.552,0,0,0-1.472-1.653,4.176,4.176,0,0,0-.586-.219,8.738,8.738,0,0,0-1.137-.228l-3.041-.486c-2.512-.4-5.108-.819-7.666-1.206a41.817,41.817,0,0,1-5.818-1.2c-1.4-.423-2.637-.849-3.784-1.3a3.012,3.012,0,0,1-1.92-2.029c-1.481-4.4-3.032-8.861-4.528-13.173q-1.3-3.725-2.586-7.455a8.882,8.882,0,0,0-1.623-2.952A5.754,5.754,0,0,0,141.6,5.927a14.046,14.046,0,0,0-2.034.624l-4.191,1.587c-5.391,2.039-10.965,4.149-16.427,6.278a3.023,3.023,0,0,1-2.768-.228,39.7,39.7,0,0,1-6.638-4.558c-1.713-1.519-3.463-3.038-5.006-4.377l-1.045-.908c-1.339-1.166-2.727-2.373-4.123-3.534A2.742,2.742,0,0,0,96.4.219a2.865,2.865,0,0,0-1.5,2L94.449,3.9C94.1,5.2,93.757,6.5,93.4,7.8q-.669,2.46-1.345,4.917c-.89,3.252-1.811,6.616-2.692,9.934-.176.662-.389,1.324-.62,1.985L86.152,34.4l.039,0a96.694,96.694,0,0,1,23.184,2.379,82.012,82.012,0,0,1,10.247,2.781,60.108,60.108,0,0,1,9.832,4.043,26.061,26.061,0,0,0,2.392,1.172,50.838,50.838,0,0,1,8.251,4.9,106.862,106.862,0,0,1,16.948,14.365q2.7,2.837,5.068,5.867l4.452-6.314a27.657,27.657,0,0,1,2.466-4.14q.715-.983,1.41-1.979l8.627-12.382c.269-.386.539-.768.812-1.152.411-.579.824-1.158,1.226-1.746a2.725,2.725,0,0,0,.478-2.3m-62.469-21.83q5.174-1.987,10.358-3.948c3.724-1.416,7.456-2.814,11.166-4.255a4.429,4.429,0,0,1,.432-.145,4.107,4.107,0,0,1,3.375.513,2.764,2.764,0,0,1,.775.729,2.489,2.489,0,0,1,.364.688c.291.866.6,1.725.9,2.589q3.428,9.884,6.848,19.769c.151.437.447.865.291,1.349h0a.819.819,0,0,1-.4.116,3.02,3.02,0,0,1-.609-.064q-1.561-.25-3.128-.5c-2.346-.371-4.691-.74-7.035-1.131-.488-.081-.971-.17-1.453-.266-.964-.2-1.919-.421-2.862-.686a32.546,32.546,0,0,1-6.83-2.748c-.211-.117-.422-.237-.632-.359-.559-.32-1.1-.662-1.628-1.035-.36-.255-.714-.519-1.049-.809q-4.793-4.137-9.56-8.3c-.248-.216-.571-.4-.662-.82a2.65,2.65,0,0,1,1.335-.691m57.837,23.952a16.023,16.023,0,0,1-1.3,1.88q-3.292,4.782-6.623,9.535-1.479,2.116-2.954,4.232-2.417,3.469-4.844,6.931a2.835,2.835,0,0,1-.2.263,1.516,1.516,0,0,1-.159.162.4.4,0,0,1-.4.082.383.383,0,0,1-.131-.083c-.255-.23-.5-.475-.728-.725A96.245,96.245,0,0,0,147.288,53.1q-2.213-1.688-4.529-3.258a69.4,69.4,0,0,0-9.044-5.267c-.049-.024-.1-.051-.149-.074-1.971-.933-3.924-1.9-5.9-2.829q-.987-.463-1.986-.906a94.093,94.093,0,0,0-9.735-3.692q-2.713-.861-5.462-1.552c-1.152-.289-2.309-.549-3.471-.8a97.745,97.745,0,0,0-13.361-1.876c-.182-.013-.368-.021-.55-.032-.6-.033-1.2-.06-1.794-.1-.733-.053-1.094-.1-.825-1.037.612-2.122,1.152-4.266,1.733-6.4q1.723-6.328,3.456-12.652c.656-2.4,1.3-4.812,1.948-7.217a3.628,3.628,0,0,1,.186-.531.715.715,0,0,1,.147-.222.344.344,0,0,1,.183-.1.634.634,0,0,1,.48.175c.311.241.6.508.895.766,9.152,7.958,18.327,15.89,27.443,23.889a24.225,24.225,0,0,0,10.954,5.458q.868.192,1.757.335c12.01,1.929,24.025,3.806,36.036,5.708.48.075.954.189,1.57.314a4.344,4.344,0,0,1-.318.8" transform="translate(6.162 0)" fill="#1a1818"/>
        <path id="패스_6697" data-name="패스 6697" d="M63.431,148.693c.33,6.742-7.509,12.605-17.51,13.1s-18.374-4.574-18.7-11.316,7.509-12.605,17.51-13.1,18.373,4.574,18.7,11.316" transform="translate(1.946 10.237)" fill="#f7d5e6"/>
        <path id="패스_6698" data-name="패스 6698" d="M150.867,145.973c.33,6.742-7.509,12.605-17.51,13.1s-18.374-4.574-18.7-11.316,7.509-12.605,17.51-13.1,18.373,4.574,18.7,11.316" transform="translate(8.199 10.034)" fill="#f7d5e6"/>
        <path id="패스_6699" data-name="패스 6699" d="M106.236,135.824c.018,6.991-7.975,12.678-17.853,12.7s-17.9-5.621-17.919-12.611,7.975-12.678,17.853-12.7,17.9,5.62,17.919,12.611" transform="translate(5.04 9.183)" fill="#2ea974"/>
        <path id="패스_6700" data-name="패스 6700" d="M114.093,15.631C119.9,21.416,124.62,32.854,156.2,34.725" transform="translate(8.16 1.165)" fill="none" stroke="#040504" stroke-width="4"/>
        <path id="패스_6701" data-name="패스 6701" d="M74.292,104.385c1.273,13.568-6.835,25.43-18.111,26.494s-21.446-9.073-22.719-22.641S40.3,82.807,51.573,81.743s21.446,9.073,22.719,22.641" transform="translate(2.384 6.087)" fill="#fff"/>
        <path id="패스_6702" data-name="패스 6702" d="M74.292,104.385c1.273,13.568-6.835,25.43-18.111,26.494s-21.446-9.073-22.719-22.641S40.3,82.807,51.573,81.743,73.019,90.817,74.292,104.385Z" transform="translate(2.384 6.087)" fill="none" stroke="#1a1818" stroke-width="5"/>
        <path id="패스_6703" data-name="패스 6703" d="M61.686,104.51c.537,5.718-2.88,10.715-7.631,11.163s-9.037-3.823-9.573-9.541,2.88-10.714,7.631-11.163,9.036,3.823,9.573,9.541" transform="translate(3.177 7.076)" fill="#1a1818"/>
        <path id="패스_6704" data-name="패스 6704" d="M144.054,111.181c-2.563,13.383-13.657,22.5-24.778,20.355s-18.059-14.726-15.5-28.111,13.657-22.5,24.778-20.355,18.06,14.728,15.5,28.111" transform="translate(7.384 6.168)" fill="#fff"/>
        <path id="패스_6705" data-name="패스 6705" d="M144.054,111.181c-2.563,13.383-13.657,22.5-24.778,20.355s-18.059-14.726-15.5-28.111,13.657-22.5,24.778-20.355S146.617,97.8,144.054,111.181Z" transform="translate(7.384 6.168)" fill="none" stroke="#1a1818" stroke-width="5"/>
        <path id="패스_6706" data-name="패스 6706" d="M131.6,107.953c-1.08,5.639-5.754,9.48-10.441,8.577s-7.609-6.205-6.53-11.845,5.754-9.48,10.441-8.577,7.61,6.205,6.53,11.845" transform="translate(8.182 7.153)" fill="#1a1818"/>
        <line id="선_157" data-name="선 157" x2="50.511" transform="translate(68.97 178.404)" fill="none" stroke="#1a1818" stroke-linecap="round" stroke-width="5"/>
        <path id="패스_6707" data-name="패스 6707" d="M158.832,100.7a2.385,2.385,0,0,0-1.871,1.325l-1.193,2.419a41.2,41.2,0,0,0-2.361,5c-.566,2.16-1.072,4.964.034,7.514,1.192,2.765,3.223,4.393,5.571,4.461,2.37.072,4.6-1.5,5.954-4.191,2.791-5.545-1.07-11.2-3.625-14.942l-.489-.719a2.209,2.209,0,0,0-2.022-.866M161,103.733c-.022.045-.028.1-.053.139.021-.052.032-.089.053-.139m-1.694,3.539c1.187,1.918,2.2,3.949,2.2,5.848a4.63,4.63,0,0,1-.484,2.11c-.624,1.235-1.392,1.773-1.877,1.758-.545-.015-1.177-.7-1.647-1.792a4.112,4.112,0,0,1-.3-1.634,12.192,12.192,0,0,1,.481-2.985c.009.013,1.038-2.1,1.628-3.3" transform="translate(7.927 10.505)" fill="#050605"/>
      </g>
    </g>
    <g id="그룹_4567" data-name="그룹 4567" transform="translate(840 361)">
      <g id="그룹_4566" data-name="그룹 4566" clip-path="url(#clip-path-3)">
        <path id="패스_6710" data-name="패스 6710" d="M.675,68.622C-4.648,38.088,22.075,7.95,60.362,1.306S134,14.028,139.324,44.562s-21.4,60.673-59.687,67.317a88.873,88.873,0,0,1-8.976,1.092c2.393,5.172,4.409,9.75,5.419,12.07a.668.668,0,0,1-.871.9s-31.631-13.157-41.761-18.987C17.122,97.556,3.675,85.834.675,68.622" transform="translate(0 0)" fill="#26b2c8"/>
        <path id="패스_6711" data-name="패스 6711" d="M142.443,255.821v1.088H145.9a1.641,1.641,0,1,1,0,3.264h-3.453v1.088h5.088a1.822,1.822,0,1,1,0,3.627h-7.087a1.77,1.77,0,0,1-2-1.813v-9.066a1.77,1.77,0,0,1,2-1.813h6.905a1.822,1.822,0,1,1,0,3.627Z" transform="translate(-99.084 -180.658)" fill="#fff"/>
        <path id="패스_6712" data-name="패스 6712" d="M186.225,260.354v2.9a2.009,2.009,0,0,1-4,0v-9.247a1.77,1.77,0,0,1,2-1.813h3.817c3.817,0,5.452,1.632,5.452,4.08a3.213,3.213,0,0,1-2,2.992v.182l1.817,2.176a3.392,3.392,0,0,1,.727,1.632c0,1.088-.727,1.813-2.181,1.813a2.478,2.478,0,0,1-1.636-.907l-2.908-3.808Zm1.817-3.082c.818,0,1.272-.453,1.272-1s-.454-1-1.272-1h-1.817v1.994Z" transform="translate(-130.419 -180.658)" fill="#fff"/>
        <path id="패스_6713" data-name="패스 6713" d="M232.883,260.354v2.9a2.009,2.009,0,0,1-4,0v-9.247a1.77,1.77,0,0,1,2-1.813H234.7c3.817,0,5.452,1.632,5.452,4.08a3.213,3.213,0,0,1-2,2.992v.182l1.818,2.176a3.392,3.392,0,0,1,.727,1.632c0,1.088-.727,1.813-2.181,1.813a2.477,2.477,0,0,1-1.636-.907l-2.908-3.808Zm1.817-3.082c.818,0,1.272-.453,1.272-1s-.454-1-1.272-1h-1.817v1.994Z" transform="translate(-163.812 -180.658)" fill="#fff"/>
        <path id="패스_6714" data-name="패스 6714" d="M286.121,258.894c0,3.083-2.363,5.44-6.088,5.44s-6.088-2.357-6.088-5.44v-2.538c0-3.082,2.363-5.44,6.088-5.44s6.088,2.357,6.088,5.44Zm-4.089-2.538a2.026,2.026,0,1,0-4,0v2.538a2.026,2.026,0,1,0,4,0Z" transform="translate(-196.06 -179.742)" fill="#fff"/>
        <path id="패스_6715" data-name="패스 6715" d="M327.477,260.354v2.9a2.009,2.009,0,0,1-4,0v-9.247a1.77,1.77,0,0,1,2-1.813h3.816c3.817,0,5.452,1.632,5.452,4.08a3.213,3.213,0,0,1-2,2.992v.182l1.817,2.176a3.392,3.392,0,0,1,.727,1.632c0,1.088-.727,1.813-2.181,1.813a2.478,2.478,0,0,1-1.636-.907l-2.908-3.808Zm1.817-3.082c.818,0,1.272-.453,1.272-1s-.454-1-1.272-1h-1.817v1.994Z" transform="translate(-231.512 -180.658)" fill="#fff"/>
        <path id="패스_6716" data-name="패스 6716" d="M111.022,128.618c7.279,0,12.638,3.017,12.638,10.362S117.81,149.9,110.843,149.9c-3.662,0-8.351-1.072-10.45-3.533a3.315,3.315,0,0,1,.491-4.8,5.239,5.239,0,0,1,4.376-.675,7.243,7.243,0,0,1,2.01,1.072,6.525,6.525,0,0,0,3.349.715c2.054,0,4.287-1.548,4.287-3.693s-2.009-3.652-4.823-3.652h-3.171c-5.27,0-6.877-1.469-6.565-5.955l.4-6.035c.313-4.486,1.25-5.955,6.52-5.955h11.745a3.312,3.312,0,0,1,3.528,3.454,3.2,3.2,0,0,1-3.528,3.335h-8.8c-.8,0-1.072.079-1.116.834l-.179,2.779c-.045.754.268.834,1.072.834Z" transform="translate(-71.271 -84.086)" fill="#fff"/>
        <path id="패스_6717" data-name="패스 6717" d="M111.022,128.618c7.279,0,12.638,3.017,12.638,10.362a10.007,10.007,0,0,1-4.851,8.936,15.125,15.125,0,0,1-7.966,1.982c-3.662,0-8.351-1.072-10.45-3.533a3.315,3.315,0,0,1,.491-4.8,5.239,5.239,0,0,1,4.376-.675,7.243,7.243,0,0,1,2.01,1.072,6.525,6.525,0,0,0,3.349.715c2.054,0,4.287-1.548,4.287-3.693s-2.009-3.652-4.823-3.652h-3.171c-5.27,0-6.877-1.469-6.565-5.955l.4-6.035c.313-4.486,1.25-5.955,6.52-5.955h11.745a3.312,3.312,0,0,1,3.528,3.454,3.2,3.2,0,0,1-3.528,3.335h-8.8c-.8,0-1.072.079-1.116.834l-.179,2.779c-.045.754.268.834,1.072.834Z" transform="translate(-71.271 -84.086)" fill="none"/>
        <path id="패스_6718" data-name="패스 6718" d="M195.909,127.87c0-7.051,5.471-12.51,14.134-12.51s14.134,5.459,14.134,12.51v8.643c0,7.051-5.471,12.51-14.134,12.51s-14.134-5.459-14.134-12.51Zm18.01,0c0-2.957-1.824-4.776-3.875-4.776s-3.876,1.82-3.876,4.776v8.643c0,2.957,1.824,4.776,3.876,4.776s3.875-1.819,3.875-4.776Z" transform="translate(-140.211 -82.637)" fill="#fff"/>
        <path id="패스_6719" data-name="패스 6719" d="M305.607,127.87c0-7.051,5.471-12.51,14.134-12.51s14.134,5.459,14.134,12.51v8.643c0,7.051-5.471,12.51-14.134,12.51s-14.134-5.459-14.134-12.51Zm18.01,0c0-2.957-1.824-4.776-3.875-4.776s-3.876,1.82-3.876,4.776v8.643c0,2.957,1.824,4.776,3.876,4.776s3.875-1.819,3.875-4.776Z" transform="translate(-218.721 -82.637)" fill="#fff"/>
      </g>
    </g>
  </g>
</svg>
