<svg xmlns="http://www.w3.org/2000/svg" xmlns:xlink="http://www.w3.org/1999/xlink" width="30" height="22" viewBox="0 0 30 22">
  <defs>
    <clipPath id="clip-path">
      <rect id="사각형_5008" data-name="사각형 5008" width="22" height="6.6" fill="none"/>
    </clipPath>
  </defs>
  <g id="그룹_3782" data-name="그룹 3782" transform="translate(-480 -559)">
    <g id="사각형_5520" data-name="사각형 5520" transform="translate(480 559)" fill="#fff" stroke="#000" stroke-width="1">
      <rect width="30" height="18" rx="2" stroke="none"/>
      <rect x="0.5" y="0.5" width="29" height="17" rx="1.5" fill="none"/>
    </g>
    <g id="사각형_5521" data-name="사각형 5521" transform="translate(490 576)" fill="#fff" stroke="#000" stroke-width="1">
      <rect width="10" height="5" stroke="none"/>
      <rect x="0.5" y="0.5" width="9" height="4" fill="none"/>
    </g>
    <g id="사각형_5522" data-name="사각형 5522" transform="translate(485 580)" fill="#fff" stroke="#000" stroke-width="1">
      <rect width="20" height="1" stroke="none"/>
      <rect x="0.5" y="0.5" width="19" fill="none"/>
    </g>
    <g id="그룹_3784" data-name="그룹 3784" transform="translate(484 565)">
      <g id="그룹_3059" data-name="그룹 3059" clip-path="url(#clip-path)">
        <path id="패스_5888" data-name="패스 5888" d="M3.419,31.328a2.271,2.271,0,0,1,.036-.4H1.707a.609.609,0,0,1-.453-.2.628.628,0,0,1-.163-.423l.142-1.564a2.081,2.081,0,0,0-.805-.158A2.186,2.186,0,0,0,.15,28.6L0,30.208l0,.049v.049a1.746,1.746,0,0,0,.1.566,1.711,1.711,0,0,0,1.612,1.168H3.535a2.209,2.209,0,0,1-.116-.711" transform="translate(0 -25.439)" fill="#3e3938"/>
        <path id="패스_5889" data-name="패스 5889" d="M9.694,4.769,9.582,3.538,9.413,1.673a1.771,1.771,0,0,0-.041-.32A1.715,1.715,0,0,0,7.707,0H3.226a1.714,1.714,0,0,0-1.65,1.3,1.737,1.737,0,0,0-.055.376l-.135,1.49a2.178,2.178,0,0,1,.277-.018,2.084,2.084,0,0,1,.805.158l.087-.964.055-.6a.621.621,0,0,1,.616-.626H7.707a.616.616,0,0,1,.567.381.631.631,0,0,1,.049.244l.172,1.89.113,1.243a.621.621,0,0,1-.616.626H4.69a2.272,2.272,0,0,0-.036.4A2.206,2.206,0,0,0,4.77,6.6H7.991A1.723,1.723,0,0,0,9.7,4.866V4.817Z" transform="translate(-1.235)" fill="#43a986"/>
        <path id="패스_5890" data-name="패스 5890" d="M199.074,47.021a.247.247,0,1,1-.247-.251.249.249,0,0,1,.247.251" transform="translate(-177.074 -41.625)" fill="#3e3938"/>
        <path id="패스_5891" data-name="패스 5891" d="M146.106,23.876h1.335v1.708h-1.335Zm.395,1.334h.546V24.25H146.5Zm2.148-.008h-.406v1.614h-.4v-3.25h.4v1.244h.406Z" transform="translate(-130.283 -20.975)" fill="#3e3938"/>
        <path id="패스_5892" data-name="패스 5892" d="M175.817,36.029h-2.351v-.37h2.351Zm-1.662,1.226h1.429v.356h-1.826v-.87h1.359v-.176h-1.362v-.349h1.756v.852h-1.356Z" transform="translate(-154.679 -31.737)" fill="#3e3938"/>
        <path id="패스_5893" data-name="패스 5893" d="M178.388,23.534c-.455,0-.719.2-.719.588s.264.588.719.588.722-.206.722-.588-.264-.588-.722-.588m0,.876c-.223,0-.352-.1-.352-.288s.129-.288.352-.288.354.1.354.288-.129.288-.354.288" transform="translate(-158.427 -20.945)" fill="#3e3938"/>
        <path id="패스_5894" data-name="패스 5894" d="M118.5,25.293a1,1,0,0,1-.6-.541,1.085,1.085,0,0,1-.636.645l-.189-.334a.959.959,0,0,0,.622-.914h-.524v-.344h1.427v.344h-.516a.842.842,0,0,0,.6.813Zm1.147-1v.388h-.37V25.5h-.4V23.535h.4V24.3Z" transform="translate(-104.391 -20.946)" fill="#3e3938"/>
        <path id="패스_5895" data-name="패스 5895" d="M124.621,42c-.479,0-.756.213-.756.618s.277.618.756.618.759-.217.759-.618S125.1,42,124.621,42m0,.921c-.234,0-.37-.106-.37-.3s.136-.3.37-.3.372.1.372.3-.136.3-.372.3" transform="translate(-110.45 -37.376)" fill="#3e3938"/>
        <path id="패스_5896" data-name="패스 5896" d="M92.586,25.28v.367H91.6v.406h-.4v-.406H90.146V25.28Zm-.131-1.237H90.264v-.356h.9V23.4h.4v.284h.891ZM90.838,26.3h1.47v.367h-1.87v-.823h.4Z" transform="translate(-80.383 -20.829)" fill="#3e3938"/>
        <path id="패스_5897" data-name="패스 5897" d="M95.575,29.776c-.443,0-.7.182-.7.528s.256.528.7.528.7-.185.7-.528-.256-.528-.7-.528m0,.787c-.217,0-.342-.091-.342-.259s.125-.259.342-.259.344.089.344.259-.126.259-.344.259" transform="translate(-84.601 -26.501)" fill="#3e3938"/>
      </g>
    </g>
  </g>
</svg>
