<svg id="그룹_3787" data-name="그룹 3787" xmlns="http://www.w3.org/2000/svg" width="39" height="22" viewBox="0 0 39 22">
  <g id="사각형_5529" data-name="사각형 5529" fill="#fff" stroke="#000" stroke-width="1">
    <rect width="39" height="22" rx="2" stroke="none"/>
    <rect x="0.5" y="0.5" width="38" height="21" rx="1.5" fill="none"/>
  </g>
  <g id="그룹_3062" data-name="그룹 3062" transform="translate(12.5 5.5)">
    <g id="그룹_3063" data-name="그룹 3063">
      <path id="패스_5899" data-name="패스 5899" d="M5.375,23.3a3.451,3.451,0,0,1,.056-.614H2.683a.971.971,0,0,1-.968-.968L1.938,19.3a3.316,3.316,0,0,0-1.266-.244,3.534,3.534,0,0,0-.436.029L.007,21.57,0,21.645v.076A2.693,2.693,0,0,0,2.683,24.4H5.557a3.368,3.368,0,0,1-.182-1.1" transform="translate(0 -13.658)" fill="#3e3938"/>
      <path id="패스_5900" data-name="패스 5900" d="M14.677,7.764l-.185-2-.28-3.037A2.828,2.828,0,0,0,11.388,0H3.972A2.834,2.834,0,0,0,1.149,2.723L.925,5.149a3.673,3.673,0,0,1,.459-.03,3.5,3.5,0,0,1,1.333.257l.145-1.57.091-.984A1.019,1.019,0,0,1,3.972,1.8h7.416a1.018,1.018,0,0,1,1.02,1.019L12.691,5.9l.187,2.023a1.019,1.019,0,0,1-1.02,1.019H6.395a3.63,3.63,0,0,0-.059.646,3.541,3.541,0,0,0,.191,1.158h5.331a2.827,2.827,0,0,0,2.825-2.823v-.08Z" transform="translate(-0.689)" fill="#43a986"/>
    </g>
  </g>
</svg>
