<svg xmlns="http://www.w3.org/2000/svg" width="40" height="22" viewBox="0 0 40 22">
  <g id="그룹_3968" data-name="그룹 3968" transform="translate(-987 -559)">
    <g id="패스_6310" data-name="패스 6310" transform="translate(987 559)" fill="#fff">
      <path d="M 38 21.5 L 2 21.5 C 1.172899961471558 21.5 0.5 20.82710075378418 0.5 20 L 0.5 2 C 0.5 1.172899961471558 1.172899961471558 0.5 2 0.5 L 38 0.5 C 38.82709884643555 0.5 39.5 1.172899961471558 39.5 2 L 39.5 20 C 39.5 20.82710075378418 38.82709884643555 21.5 38 21.5 Z" stroke="none"/>
      <path d="M 2 1 C 1.448600769042969 1 1 1.448600769042969 1 2 L 1 20 C 1 20.55139923095703 1.448600769042969 21 2 21 L 38 21 C 38.55139923095703 21 39 20.55139923095703 39 20 L 39 2 C 39 1.448600769042969 38.55139923095703 1 38 1 L 2 1 M 2 0 L 38 0 C 39.10456848144531 0 40 0.8954296112060547 40 2 L 40 20 C 40 21.10457038879395 39.10456848144531 22 38 22 L 2 22 C 0.8954315185546875 22 0 21.10457038879395 0 20 L 0 2 C 0 0.8954296112060547 0.8954315185546875 0 2 0 Z" stroke="none" fill="#000"/>
    </g>
    <path id="패스_6311" data-name="패스 6311" d="M1002.75,576H992V564h6.266l4.484,3.633" fill="#31b5ca" opacity="0.3"/>
    <path id="패스_6071" data-name="패스 6071" d="M0,0,4.5,3.609H0Z" transform="translate(998.25 564)" fill="#31b5ca" opacity="0.3"/>
    <text id="_10" data-name="10" transform="translate(1011.6 574)" font-size="10" font-family="Pretendard-Medium, Pretendard" font-weight="500"><tspan x="0" y="0">10</tspan></text>
    <g id="X" transform="translate(1005.6 568)">
      <path id="Vector_Stroke_" data-name="Vector (Stroke)" d="M0,.575.575,0,2.5,1.925,4.425,0,5,.575,3.075,2.5,5,4.425,4.425,5,2.5,3.075.575,5,0,4.425,1.925,2.5Z" fill="rgba(0,0,0,0.9)"/>
    </g>
    <g id="눈" transform="translate(-3.474 -1.6)">
      <path id="패스_6324" data-name="패스 6324" d="M1000.172,574.713s1.96-2.363,3.447-2.431,3.92,2.431,3.92,2.431a4.032,4.032,0,0,1-6.916.858Z" transform="translate(0.098 0.079)" fill="#fff"/>
      <path id="browse" d="M4.039,5.383A4.44,4.44,0,0,1,.067,2.829L0,2.692l.067-.138A4.445,4.445,0,0,1,4.039,0,4.439,4.439,0,0,1,8.006,2.554l.068.138-.068.138A4.434,4.434,0,0,1,4.039,5.383ZM4.039.6A3.884,3.884,0,0,0,.64,2.692a3.885,3.885,0,0,0,3.4,2.093,3.885,3.885,0,0,0,3.4-2.093A3.9,3.9,0,0,0,4.039.6Z" transform="translate(999.95 572.101)" fill="rgba(0,0,0,0.9)" stroke="#141414" stroke-width="0.2"/>
      <circle id="타원_615" data-name="타원 615" cx="1.442" cy="1.442" r="1.442" transform="translate(1002.545 573.326)"/>
    </g>
  </g>
</svg>
