<svg xmlns="http://www.w3.org/2000/svg" width="71" height="92" viewBox="0 0 71 92">
  <g id="그룹_3275" data-name="그룹 3275" transform="translate(-608 -292)">
    <ellipse id="타원_169" data-name="타원 169" cx="30" cy="7.5" rx="30" ry="7.5" transform="translate(614 369)" fill="rgba(0,0,0,0.05)"/>
    <g id="그룹_1229" data-name="그룹 1229" transform="translate(608 292)">
      <g id="그룹_1216" data-name="그룹 1216" transform="translate(0 2.314)">
        <path id="패스_1330" data-name="패스 1330" d="M3851.336,340.815l-.008,0a.057.057,0,0,1,0,.009Z" transform="translate(-3826.982 -310.347)" fill="#fff"/>
        <path id="패스_1331" data-name="패스 1331" d="M3879.214,350.244a5.447,5.447,0,0,0,1.961.909,9.083,9.083,0,0,0,2.169.266,11.473,11.473,0,0,0,2.651-.295,5.288,5.288,0,0,0,2.073-.967,3.172,3.172,0,0,0,.639-.625,1.358,1.358,0,0,0,.219-1.27,3.768,3.768,0,0,0-.622-1.183,5.492,5.492,0,0,0-4.711-2.123,7.25,7.25,0,0,0-1.583.209,5.16,5.16,0,0,0-3.348,2.382,3.032,3.032,0,0,0-.344.755,1.394,1.394,0,0,0,.246,1.327A3.36,3.36,0,0,0,3879.214,350.244Z" transform="translate(-3847.678 -313.559)" fill="#44aa54"/>
        <path id="패스_1332" data-name="패스 1332" d="M4015.716,482.128h0l.012-.027-.011.02Z" transform="translate(-3953.187 -418.888)" fill="#fff"/>
        <path id="패스_1333" data-name="패스 1333" d="M3881.357,406.634c-.1-.042-.2-.082-.3-.116a15.351,15.351,0,0,0-3.884-.75c-1.213-.079-2.431-.1-3.218-.13-1.41,0-2.392-.01-3.374,0-.532.008-1.064.068-1.6.088a15.729,15.729,0,0,0-4.262.8,1.1,1.1,0,0,0-.229.112.119.119,0,0,0-.047.164,1.224,1.224,0,0,0,.2.245,7.828,7.828,0,0,0,2.009,1.355,11.959,11.959,0,0,0,3.943,1.027c.743.077,1.486.143,2.23.206a3.876,3.876,0,0,0,.574,0c.213-.013.424-.057.636-.067a19.535,19.535,0,0,0,2.415-.266,10.683,10.683,0,0,0,2.86-.9,7.884,7.884,0,0,0,1.857-1.241c.079-.071.154-.148.227-.226C3881.516,406.811,3881.5,406.7,3881.357,406.634Z" transform="translate(-3837.096 -360.169)" fill="#f1878d"/>
        <path id="패스_1334" data-name="패스 1334" d="M3832.068,489.045a29.708,29.708,0,0,1-9.5,5.573,19.954,19.954,0,0,1-6.908,1.226,14.964,14.964,0,0,1-4.383-.639,1.253,1.253,0,0,0-.864,0,1.264,1.264,0,0,1-.12.041,15.481,15.481,0,0,1-4.013.571,19.58,19.58,0,0,1-2.03-.092,20.67,20.67,0,0,1-4.163-.85,27.092,27.092,0,0,1-4.9-2.1,30.22,30.22,0,0,1-8.647-6.955c-.706-.827-1.361-1.693-1.99-2.58-.07-.1-.106-.235-.251-.267-.069.116.023.206.057.3.423,1.117.84,2.236,1.285,3.345a79.894,79.894,0,0,0,4.294,9.073,25.837,25.837,0,0,0,2.166,3.317,13.7,13.7,0,0,0,2.907,2.849,6.044,6.044,0,0,0,1.811.911,2.876,2.876,0,0,0,1.441.1,1.179,1.179,0,0,0,.974-.892,2.057,2.057,0,0,0,.085-.5,5.972,5.972,0,0,0-.051-.958c-.114-.716-.261-1.428-.389-2.142a9.731,9.731,0,0,1-.209-1.522,2.207,2.207,0,0,1,.044-.507.325.325,0,0,1,.312-.274c.212-.011.424-.014.635-.014q5.5,0,11,0,5.816,0,11.632-.016c.191,0,.382,0,.572,0,.325.011.47.133.5.449a2.164,2.164,0,0,1-.006.51c-.052.381-.117.76-.185,1.138-.115.63-.242,1.258-.353,1.888a5.567,5.567,0,0,0-.073,1.723,1.193,1.193,0,0,0,1.072,1.095,3.208,3.208,0,0,0,1.322-.087,6.411,6.411,0,0,0,1.975-1.005,14.1,14.1,0,0,0,2.922-2.926,29.826,29.826,0,0,0,2.573-4.116,89.826,89.826,0,0,0,5.254-12.006c.056-.157.089-.322.132-.483-.115.149-.241.292-.344.45A30.031,30.031,0,0,1,3832.068,489.045Z" transform="translate(-3775.459 -419.206)" fill="#fff"/>
        <path id="패스_1335" data-name="패스 1335" d="M3875.256,380.967c-.171,0-.341.011-.511.022-.49.03-.98.065-1.47.093-.32.018-.64.028-.96.041-1.472.061-2.944.158-4.416.176-3.8.048-7.6.1-11.4-.1-.426-.022-.852-.057-1.278-.08-.448-.024-.9-.045-1.345-.058a.29.29,0,0,0-.314.257,1.029,1.029,0,0,0-.026.125,4.95,4.95,0,0,0,.051,1.72,11.753,11.753,0,0,0,1.511,3.581,1.666,1.666,0,0,0,.112.156.215.215,0,0,0,.281.071c.02-.009.041-.014.061-.021a16.3,16.3,0,0,1,5.147-.905c.683-.015,1.367-.007,2.05,0,.555.008,1.11.035,1.557.05.492,0,.877.013,1.261,0a32.231,32.231,0,0,1,4.032.049,16.417,16.417,0,0,1,2.4.376,11.559,11.559,0,0,1,1.656.486.209.209,0,0,0,.279-.072c.1-.139.194-.281.281-.428a12.792,12.792,0,0,0,.983-2.081,8.777,8.777,0,0,0,.434-1.6,3.755,3.755,0,0,0-.093-1.648A.263.263,0,0,0,3875.256,380.967Z" transform="translate(-3828.711 -341.228)" fill="#ae0721"/>
        <path id="패스_1336" data-name="패스 1336" d="M3819.35,241.024a45.478,45.478,0,0,0-1.439-6.357,31.089,31.089,0,0,0-2.329-5.747,29.538,29.538,0,0,0-9.26-10.294,33.213,33.213,0,0,0-7.9-4.044,43.839,43.839,0,0,0-8.875-2.2,20.325,20.325,0,0,0-3.043-.226c-.806.01-1.613.011-2.42.02-.425.005-.851,0-1.273.033a34.443,34.443,0,0,0-3.594.487,44.958,44.958,0,0,0-7.945,2.244,31.862,31.862,0,0,0-12.509,8.592,27.523,27.523,0,0,0-4.5,6.881,39.669,39.669,0,0,0-2.811,9.251c-.19,1.016-.345,2.04-.477,3.066a11.337,11.337,0,0,0-.164,2.18c.118-.235.168-.346.228-.452a2.917,2.917,0,0,1,1.572-1.32,2.288,2.288,0,0,1,1.5-.08,4.5,4.5,0,0,1,1.71.945.1.1,0,0,1,.035.052c.005.037.016.089,0,.108a.118.118,0,0,1-.108.01c-.115-.054-.227-.116-.336-.18a4.54,4.54,0,0,0-1.307-.485,2.579,2.579,0,0,0-2.836,1.223c-.115.187-.147.434-.44.492-.111.022-.1.219-.1.344a19.791,19.791,0,0,0,.132,3.668c.1.923.213,1.846.34,2.766.094.69.2,1.38.338,2.061.411,1.985.907,3.951,1.459,5.9a62.44,62.44,0,0,0,4.471,11.568,29.239,29.239,0,0,0,10.434,11.552,27.687,27.687,0,0,0,7.069,3.287,20.4,20.4,0,0,0,4.633.788,15.755,15.755,0,0,0,3.361-.218,11.013,11.013,0,0,0,3.753-1.336,6.924,6.924,0,0,0,1.231-.9,5.356,5.356,0,0,0,1.212-1.538,2.777,2.777,0,0,0-.065-2.784,7.276,7.276,0,0,0-1.75-1.994,14.777,14.777,0,0,0-3.718-2.3c-.111-.046-.252-.062-.28-.218-.016-.089.154-.151.38-.118a3.561,3.561,0,0,1,.5.112,13.607,13.607,0,0,1,2.918,1.243c.11.063.219.131.332.186.026.013.073-.011.107-.026a.064.064,0,0,0,.02-.055,1.185,1.185,0,0,0-.044-.247,4.228,4.228,0,0,0-.678-1.213,8.232,8.232,0,0,0-4.256-2.858,13.964,13.964,0,0,0-1.867-.387,8.312,8.312,0,0,1-2.426-.728,34.042,34.042,0,0,1-6.756-4.272,35.885,35.885,0,0,1-4.383-4.233,46.441,46.441,0,0,1-3.92-5.07,63.141,63.141,0,0,1-4.182-7.393c-.443-.912-.85-1.842-1.27-2.765-.061-.134-.11-.274-.158-.414-.019-.055-.035-.127.04-.153.022-.008.079.031.1.062.395.748.777,1.5,1.178,2.245q1.174,2.178,2.494,4.272c1.077,1.7,2.222,3.35,3.391,4.985a47.072,47.072,0,0,0,3.053,3.817,34.228,34.228,0,0,0,7.406,6.351,30.793,30.793,0,0,0,3.507,1.931,6.818,6.818,0,0,0,1.69.545c.313.055.628.1.941.157a10.166,10.166,0,0,1,3.415,1.158.545.545,0,0,1,.054.033.5.5,0,0,0,.59-.01,7.957,7.957,0,0,1,2.053-.842,14.687,14.687,0,0,1,1.553-.335,9.082,9.082,0,0,0,3.129-1.012c.056-.03.113-.058.17-.087a33.362,33.362,0,0,0,7.338-5.1,42.348,42.348,0,0,0,4.931-5.464c1.133-1.48,2.175-3.023,3.219-4.565q1.6-2.365,2.976-4.871c.51-.925.995-1.865,1.491-2.8.069-.13.139-.261.216-.387.012-.02.063-.018.1-.026.009.039.037.085.024.115-.184.449-.364.9-.564,1.343q-1.168,2.569-2.523,5.046a50.568,50.568,0,0,1-5.977,8.731,35.938,35.938,0,0,1-7.774,6.888,33.866,33.866,0,0,1-3.88,2.176,7.662,7.662,0,0,1-2.243.681c-.483.066-.963.159-1.438.265a8.1,8.1,0,0,0-2.2.807c-.115.064-.125.16-.02.25a9.445,9.445,0,0,1,1.558,1.666c.11.155.178.16.385.084.238-.088.477-.176.717-.259a1.139,1.139,0,0,1,.564-.058c.06.01.131.03.12.116,0,.039-.015.1-.042.111-.146.085-.3.158-.448.238-.224.12-.45.237-.669.364a.264.264,0,0,0-.127.327,4.183,4.183,0,0,1,.169.8c.023.23-.106.481.026.682a4.972,4.972,0,0,0,.485.5c.253.284.509.568.736.873a4.968,4.968,0,0,1,.785,1.583,3.726,3.726,0,0,1-.173,2.659,5.092,5.092,0,0,1-1.822,2.155c-.333.225-.69.414-1.039.617-.128.075-.263.137-.39.214-.068.041-.165.082-.132.184a.222.222,0,0,0,.133.114,6.069,6.069,0,0,0,.8.218,12.412,12.412,0,0,0,1.265.141,18.394,18.394,0,0,0,5.059-.421,23.6,23.6,0,0,0,4.917-1.706,29.359,29.359,0,0,0,10.769-8.517,31.843,31.843,0,0,0,3.737-6.1,65.687,65.687,0,0,0,3.815-10.13c.624-2.194,1.152-4.412,1.669-6.633a23.412,23.412,0,0,0,.682-3.734c.056-.843.119-1.685.165-2.528a23.819,23.819,0,0,0-.086-2.659C3819.632,243.5,3819.534,242.258,3819.35,241.024Zm-39.726,4.887a4.117,4.117,0,0,1,.5-1.019,5.664,5.664,0,0,1,3.717-2.45,9.878,9.878,0,0,1,3.794-.009,5.5,5.5,0,0,1,3.736,2.615,3.013,3.013,0,0,1,.493,1.486,2.131,2.131,0,0,1-.393,1.373,3.6,3.6,0,0,1-1.5,1.237,10.911,10.911,0,0,1-4.24.86,21.008,21.008,0,0,1-2.566-.188,5.7,5.7,0,0,1-2.4-.954,3.778,3.778,0,0,1-.736-.7A2.234,2.234,0,0,1,3779.624,245.911Zm-9.366-1.537a5.46,5.46,0,0,0-1.58-.133,7.78,7.78,0,0,0-4.07,1.294,7.348,7.348,0,0,0-1.16.986,2.437,2.437,0,0,1-.712.525,1.611,1.611,0,0,1-.992.136.6.6,0,0,1-.543-.6,1.869,1.869,0,0,1,.1-.748,4.073,4.073,0,0,1,.413-.855,11,11,0,0,1,3.672-3.628,7.531,7.531,0,0,1,4.126-1.095,7.313,7.313,0,0,1,3.282.9c.354.19.687.421,1.03.63.087.053.178.1.268.148a.622.622,0,0,0-.173-.39c-.255-.337-.52-.667-.782-1a2.7,2.7,0,0,1-.2-.243.257.257,0,0,1-.013-.177c.014-.062.152-.1.223-.072.115.052.232.1.342.167a6.076,6.076,0,0,1,1.069.8,7.285,7.285,0,0,1,1.524,2.015,14.753,14.753,0,0,1,.771,1.805,6.059,6.059,0,0,1,.283,1.3,2.489,2.489,0,0,1-.077.942,1.107,1.107,0,0,1-.868.836,1.38,1.38,0,0,1-1.354-.356,3.652,3.652,0,0,1-.448-.534,7.259,7.259,0,0,0-2.111-1.9A6.46,6.46,0,0,0,3770.258,244.374Zm28,7.082a.656.656,0,0,1-.088.091,1.876,1.876,0,0,0-.652,1.194c-.1.475-.188.953-.313,1.421a11.463,11.463,0,0,1-1.617,3.559,8.4,8.4,0,0,1-3.721,2.973,11.824,11.824,0,0,1-2.871.8,26.333,26.333,0,0,1-3.37.288c-.348-.025-.9-.059-1.447-.109-.612-.055-1.226-.106-1.834-.192a11.341,11.341,0,0,1-3.687-1.14,8.266,8.266,0,0,1-3.444-3.284,11.56,11.56,0,0,1-1.3-3.285c-.08-.371-.129-.748-.206-1.12a4.441,4.441,0,0,0-.187-.669.651.651,0,0,0-.441-.413.524.524,0,0,1-.374-.7,1.045,1.045,0,0,1,.151-.344,1.467,1.467,0,0,1,.877-.589.593.593,0,0,1,.6.117,1.358,1.358,0,0,0,.995.342c1.1.048,2.2.14,3.307.134,2.377-.012,4.753-.009,7.13-.028,1.188-.01,2.376-.062,3.564-.085,1.888-.038,3.775-.128,5.664-.1.3,0,.594-.015.891-.016a.9.9,0,0,0,.692-.265.927.927,0,0,1,.992-.249,1.223,1.223,0,0,1,.839.72A.853.853,0,0,1,3798.258,251.455Zm11.66-4.711a.649.649,0,0,1-.585.646,1.5,1.5,0,0,1-.693-.048,2.163,2.163,0,0,1-.819-.475c-.14-.129-.271-.268-.409-.4a7.3,7.3,0,0,0-4.506-1.989,7.09,7.09,0,0,0-1.586,0,6.741,6.741,0,0,0-4.423,2.509c-.175.212-.337.435-.51.649a1.489,1.489,0,0,1-.864.5,1.284,1.284,0,0,1-1.483-.892,3.376,3.376,0,0,1-.041-1.133,3.927,3.927,0,0,1,.139-.683,11.219,11.219,0,0,1,1.327-2.936,6.564,6.564,0,0,1,2.019-1.993,3.546,3.546,0,0,1,.45-.231.189.189,0,0,1,.233.039.175.175,0,0,1-.019.231c-.1.112-.2.217-.293.334-.246.318-.49.638-.726.962a.873.873,0,0,0-.088.224c.135.013.226-.079.33-.141.383-.227.756-.471,1.15-.676a7.337,7.337,0,0,1,2.926-.8,7.1,7.1,0,0,1,2.756.4,8.307,8.307,0,0,1,2.35,1.246,11.669,11.669,0,0,1,2.7,2.848,4.425,4.425,0,0,1,.592,1.188A1.782,1.782,0,0,1,3809.918,246.744Zm8.735-2.9a.113.113,0,0,1-.1.025,1.142,1.142,0,0,1-.219-.124,3.1,3.1,0,0,0-1.911-.562,4.957,4.957,0,0,0-1.436.219c-.028.009-.094-.022-.1-.042a.137.137,0,0,1,.039-.111,1.428,1.428,0,0,1,.261-.176,3.583,3.583,0,0,1,1.364-.38,2.281,2.281,0,0,1,2,.82.95.95,0,0,1,.125.218A.129.129,0,0,1,3818.653,243.847Z" transform="translate(-3749.742 -211.505)" fill="#fff"/>
        <path id="패스_1337" data-name="패스 1337" d="M3949.891,341.384l.026-.037,0-.008h-.013Z" transform="translate(-3902.617 -310.752)" fill="#fff"/>
        <path id="패스_1338" data-name="패스 1338" d="M3817.393,240.005q-.225-1.794-.592-3.564a40.6,40.6,0,0,0-1.82-6.4,30.313,30.313,0,0,0-14.6-16.373,34.857,34.857,0,0,0-5.868-2.433,39.233,39.233,0,0,0-7.132-1.58,17.346,17.346,0,0,0-2.156-.18c-.658,0-1.314-.028-1.971-.075a11.833,11.833,0,0,0-1.718.009c-.53.04-1.059.081-1.59.076a24.616,24.616,0,0,0-3.614.3,37.181,37.181,0,0,0-5.159,1.106,36.4,36.4,0,0,0-8.367,3.5,31.949,31.949,0,0,0-7.449,6,30.187,30.187,0,0,0-6.509,11.372,47.5,47.5,0,0,0-2.126,11.445,16.183,16.183,0,0,0-.006,2.411c.1,1.222.222,2.442.342,3.663.035.357.1.712.146,1.068.11.774.187,1.551.368,2.315.5,2.1.986,4.2,1.583,6.271a76.007,76.007,0,0,0,2.679,7.525c.628,1.548,1.272,3.089,1.8,4.674q.343,1.022.712,2.035a93.438,93.438,0,0,0,4.691,10.889c.648,1.262,1.321,2.51,2.077,3.711a21.929,21.929,0,0,0,2.031,2.76,13.182,13.182,0,0,0,2.958,2.585,6.614,6.614,0,0,0,1.675.759,3.523,3.523,0,0,0,2.008.064,2.078,2.078,0,0,0,1.51-1.566,3.712,3.712,0,0,0,.068-1.574c-.166-.958-.342-1.914-.515-2.871-.154-.853-.109-.8.691-.8h10.766v-.041h1.337l9.428.016c.148,0,.3.009.445.018a.182.182,0,0,1,.142.179c-.047.314-.091.628-.148.939-.127.686-.264,1.37-.39,2.055a5.659,5.659,0,0,0-.057,1.707,2.087,2.087,0,0,0,1.542,1.9,2.974,2.974,0,0,0,1.2.111,5.914,5.914,0,0,0,2.382-.84,11.706,11.706,0,0,0,2.243-1.765,19.027,19.027,0,0,0,2.305-2.788,41.043,41.043,0,0,0,2.582-4.444,91.454,91.454,0,0,0,4.726-10.943c.38-1.054.763-2.108,1.1-3.175.473-1.492.979-2.971,1.566-4.422a66.361,66.361,0,0,0,2.239-6.337c.828-2.843,1.531-5.716,2.083-8.625.126-.664.234-1.332.338-2,.049-.313.071-.63.1-.946a28.454,28.454,0,0,0,.2-2.973c0-.953-.044-1.9-.111-2.853C3817.516,241.268,3817.472,240.634,3817.393,240.005Zm-8.134,32.61h0c-.043.159-.076.323-.132.478a88.394,88.394,0,0,1-5.265,11.882,29.422,29.422,0,0,1-2.58,4.074,14.017,14.017,0,0,1-2.927,2.9,6.461,6.461,0,0,1-1.979.995,3.253,3.253,0,0,1-1.324.086,1.187,1.187,0,0,1-1.074-1.084,5.446,5.446,0,0,1,.073-1.7c.111-.624.239-1.245.354-1.869.068-.375.134-.75.185-1.126a2.1,2.1,0,0,0,.007-.505c-.033-.313-.179-.434-.5-.445-.191-.006-.382,0-.573,0q-5.829.008-11.658.016-5.51,0-11.02,0c-.212,0-.425,0-.636.014a.325.325,0,0,0-.313.271,2.19,2.19,0,0,0-.044.5,9.452,9.452,0,0,0,.209,1.506c.127.707.275,1.411.389,2.12a5.794,5.794,0,0,1,.05.948,1.993,1.993,0,0,1-.084.5,1.176,1.176,0,0,1-.977.883,2.914,2.914,0,0,1-1.444-.1,6.086,6.086,0,0,1-1.815-.9,13.669,13.669,0,0,1-2.913-2.82,25.524,25.524,0,0,1-2.17-3.282,78.558,78.558,0,0,1-4.3-8.979c-.445-1.1-.863-2.2-1.288-3.31-.034-.089-.126-.179-.057-.294.146.032.182.168.252.265.63.877,1.287,1.735,1.994,2.553a30.224,30.224,0,0,0,8.666,6.883,27.337,27.337,0,0,0,4.914,2.076,20.934,20.934,0,0,0,4.171.841,19.916,19.916,0,0,0,2.035.091,15.688,15.688,0,0,0,4.022-.565c.041-.011.082-.025.121-.04a1.271,1.271,0,0,1,.866,0,15.174,15.174,0,0,0,4.393.633,20.226,20.226,0,0,0,6.923-1.213,30.4,30.4,0,0,0,15.113-11.823c.1-.156.229-.3.345-.445l0-.009.011-.02Zm7.465-27.3c-.046.844-.109,1.688-.165,2.532a23.553,23.553,0,0,1-.682,3.739c-.518,2.224-1.046,4.445-1.67,6.642a65.78,65.78,0,0,1-3.816,10.143,31.869,31.869,0,0,1-3.737,6.11,29.371,29.371,0,0,1-10.771,8.528,23.578,23.578,0,0,1-4.918,1.708,18.37,18.37,0,0,1-5.06.421,12.366,12.366,0,0,1-1.265-.141,6.092,6.092,0,0,1-.8-.218.222.222,0,0,1-.133-.114c-.034-.1.064-.143.131-.184.127-.077.262-.14.39-.214.348-.2.706-.393,1.039-.618a5.1,5.1,0,0,0,1.822-2.158,3.729,3.729,0,0,0,.172-2.663,4.976,4.976,0,0,0-.784-1.585c-.228-.305-.483-.59-.736-.874a4.981,4.981,0,0,1-.486-.5c-.132-.2,0-.452-.026-.683a4.155,4.155,0,0,0-.169-.8.265.265,0,0,1,.127-.327c.22-.128.446-.245.67-.365.149-.079.3-.153.448-.238.028-.016.038-.072.042-.111.01-.086-.06-.106-.12-.116a1.136,1.136,0,0,0-.564.058c-.24.083-.479.171-.717.259-.207.076-.275.072-.385-.084a9.447,9.447,0,0,0-1.559-1.668c-.1-.091-.095-.187.02-.251a8.089,8.089,0,0,1,2.2-.808c.476-.107.956-.2,1.439-.266a7.66,7.66,0,0,0,2.244-.681,33.862,33.862,0,0,0,3.88-2.179,35.954,35.954,0,0,0,7.776-6.9,50.658,50.658,0,0,0,5.978-8.742q1.355-2.481,2.524-5.053c.2-.442.38-.895.565-1.345.012-.03-.015-.077-.024-.116-.033.008-.084.006-.1.026-.077.126-.146.257-.216.387-.5.934-.982,1.875-1.491,2.8q-1.379,2.5-2.977,4.877c-1.044,1.543-2.087,3.089-3.221,4.571a42.334,42.334,0,0,1-4.932,5.471,33.36,33.36,0,0,1-7.339,5.111c-.056.029-.114.057-.17.087a9.08,9.08,0,0,1-3.13,1.014,14.665,14.665,0,0,0-1.553.336,7.957,7.957,0,0,0-2.053.843.5.5,0,0,1-.59.01.616.616,0,0,0-.054-.033,10.171,10.171,0,0,0-3.417-1.16c-.312-.056-.627-.1-.94-.158a6.816,6.816,0,0,1-1.69-.546,30.757,30.757,0,0,1-3.508-1.934,34.244,34.244,0,0,1-7.407-6.359,47.188,47.188,0,0,1-3.053-3.822c-1.169-1.638-2.315-3.292-3.391-4.992q-1.326-2.094-2.494-4.277c-.4-.745-.785-1.5-1.178-2.248-.017-.031-.074-.07-.1-.062-.075.027-.059.1-.04.153.048.14.1.28.158.414.421.924.828,1.855,1.271,2.768a63.322,63.322,0,0,0,4.183,7.4,46.488,46.488,0,0,0,3.92,5.077,36,36,0,0,0,4.384,4.239,34.025,34.025,0,0,0,6.758,4.278,8.3,8.3,0,0,0,2.425.729,13.926,13.926,0,0,1,1.868.387,8.233,8.233,0,0,1,4.257,2.862,4.242,4.242,0,0,1,.678,1.214,1.2,1.2,0,0,1,.044.247.063.063,0,0,1-.021.055c-.033.015-.08.039-.107.026-.113-.056-.221-.123-.332-.186a13.605,13.605,0,0,0-2.919-1.245,3.515,3.515,0,0,0-.495-.112c-.226-.033-.4.029-.38.118.028.156.169.172.28.218a14.787,14.787,0,0,1,3.719,2.3,7.293,7.293,0,0,1,1.75,2,2.786,2.786,0,0,1,.065,2.788,5.376,5.376,0,0,1-1.212,1.54,6.965,6.965,0,0,1-1.231.9,11.012,11.012,0,0,1-3.754,1.337,15.747,15.747,0,0,1-3.362.218,20.38,20.38,0,0,1-4.633-.789,27.683,27.683,0,0,1-7.071-3.292,29.266,29.266,0,0,1-10.436-11.567,62.663,62.663,0,0,1-4.471-11.583c-.552-1.953-1.047-3.922-1.459-5.909-.141-.682-.243-1.373-.338-2.064-.126-.922-.235-1.846-.339-2.77a19.864,19.864,0,0,1-.131-3.673c.009-.125-.007-.322.1-.344.293-.057.325-.305.44-.492a2.578,2.578,0,0,1,2.837-1.225,4.539,4.539,0,0,1,1.307.486c.11.064.221.126.336.18a.12.12,0,0,0,.109-.01c.019-.02.009-.071,0-.108a.1.1,0,0,0-.035-.052,4.492,4.492,0,0,0-1.71-.946,2.286,2.286,0,0,0-1.5.08,2.916,2.916,0,0,0-1.572,1.322c-.06.106-.11.217-.229.452a11.363,11.363,0,0,1,.164-2.183c.132-1.027.287-2.052.477-3.07a39.728,39.728,0,0,1,2.812-9.263,27.561,27.561,0,0,1,4.5-6.89,31.863,31.863,0,0,1,12.511-8.6,44.917,44.917,0,0,1,7.947-2.247,34.4,34.4,0,0,1,3.594-.488c.423-.035.849-.028,1.274-.033.807-.009,1.614-.01,2.421-.02a20.315,20.315,0,0,1,3.044.226,43.8,43.8,0,0,1,8.876,2.2,33.212,33.212,0,0,1,7.9,4.05,29.563,29.563,0,0,1,9.261,10.308,31.087,31.087,0,0,1,2.329,5.755,45.489,45.489,0,0,1,1.44,6.366c.185,1.236.282,2.479.353,3.724A23.942,23.942,0,0,1,3816.724,245.314Z" transform="translate(-3746.672 -209.377)"/>
        <path id="패스_1339" data-name="패스 1339" d="M3870.325,374.578a.929.929,0,0,0-1,.252.905.905,0,0,1-.7.268c-.3,0-.6.021-.9.016-1.9-.029-3.8.063-5.7.1-1.2.024-2.392.076-3.589.086-2.393.02-4.787.016-7.18.029-1.113.006-2.221-.086-3.331-.135a1.364,1.364,0,0,1-1-.346.594.594,0,0,0-.6-.118,1.478,1.478,0,0,0-.883.6,1.055,1.055,0,0,0-.152.348.53.53,0,0,0,.376.7.656.656,0,0,1,.444.418,4.482,4.482,0,0,1,.189.677c.078.376.126.758.208,1.133a11.734,11.734,0,0,0,1.31,3.324,8.339,8.339,0,0,0,3.468,3.323,11.373,11.373,0,0,0,3.712,1.154c.613.086,1.231.138,1.848.194.552.05,1.107.084,1.457.11a26.4,26.4,0,0,0,3.394-.291,11.863,11.863,0,0,0,2.891-.807,8.462,8.462,0,0,0,3.747-3.008,11.624,11.624,0,0,0,1.628-3.6c.125-.474.218-.957.315-1.438a1.9,1.9,0,0,1,.657-1.208.692.692,0,0,0,.089-.092.867.867,0,0,0,.149-.959A1.233,1.233,0,0,0,3870.325,374.578Zm-3.6,8.54c-.073.078-.148.154-.227.226a7.889,7.889,0,0,1-1.857,1.241,10.685,10.685,0,0,1-2.86.9,19.531,19.531,0,0,1-2.415.266c-.213.01-.424.053-.637.067a3.872,3.872,0,0,1-.573,0c-.744-.063-1.488-.129-2.231-.206a11.956,11.956,0,0,1-3.942-1.027,7.823,7.823,0,0,1-2.009-1.355,1.224,1.224,0,0,1-.2-.245.119.119,0,0,1,.047-.164,1.113,1.113,0,0,1,.228-.112,15.732,15.732,0,0,1,4.263-.8c.533-.02,1.065-.08,1.6-.088.981-.014,1.963,0,3.374,0,.788.03,2,.051,3.219.13a15.347,15.347,0,0,1,3.884.75c.1.034.2.074.3.116C3866.821,382.877,3866.837,382.993,3866.72,383.118Zm2.614-5.217a8.839,8.839,0,0,1-.434,1.6,12.8,12.8,0,0,1-.983,2.081c-.087.147-.182.289-.281.428a.209.209,0,0,1-.278.072,11.554,11.554,0,0,0-1.656-.486,16.418,16.418,0,0,0-2.4-.376,32.216,32.216,0,0,0-4.032-.049c-.384.015-.769,0-1.261,0-.447-.015-1-.041-1.557-.05-.683-.01-1.367-.018-2.051,0a16.3,16.3,0,0,0-5.147.905c-.02.007-.042.012-.061.021a.214.214,0,0,1-.281-.071,1.5,1.5,0,0,1-.112-.156,11.748,11.748,0,0,1-1.512-3.581,4.95,4.95,0,0,1-.05-1.72,1.079,1.079,0,0,1,.026-.125.29.29,0,0,1,.314-.257c.449.014.9.034,1.344.058.427.023.852.058,1.279.08,3.8.194,7.6.144,11.4.1,1.473-.018,2.944-.115,4.417-.176.32-.014.64-.023.96-.041.49-.028.98-.063,1.47-.093.171-.011.341-.02.511-.022a.264.264,0,0,1,.279.215A3.748,3.748,0,0,1,3869.334,377.9Z" transform="translate(-3822.418 -336.318)"/>
        <path id="패스_1340" data-name="패스 1340" d="M3952.193,338.251a11.78,11.78,0,0,0-2.714-2.881,8.352,8.352,0,0,0-2.367-1.261,7.118,7.118,0,0,0-2.775-.4,7.357,7.357,0,0,0-2.946.814c-.4.208-.773.455-1.158.684-.1.063-.2.156-.333.142l0,.008-.026.037.015-.046h.013a.918.918,0,0,1,.088-.227c.238-.328.484-.652.731-.973.091-.118.2-.225.3-.338a.178.178,0,0,0,.019-.233.189.189,0,0,0-.235-.04,3.625,3.625,0,0,0-.454.234,6.637,6.637,0,0,0-2.033,2.017,11.377,11.377,0,0,0-1.335,2.971,3.882,3.882,0,0,0-.14.691,3.423,3.423,0,0,0,.041,1.146,1.292,1.292,0,0,0,1.493.9,1.5,1.5,0,0,0,.871-.506c.174-.216.338-.441.513-.656a6.781,6.781,0,0,1,4.454-2.539,7.1,7.1,0,0,1,1.6,0,7.328,7.328,0,0,1,4.537,2.013c.14.132.271.273.412.4a2.173,2.173,0,0,0,.824.48,1.5,1.5,0,0,0,.7.049.655.655,0,0,0,.589-.653,1.806,1.806,0,0,0-.078-.633A4.473,4.473,0,0,0,3952.193,338.251Z" transform="translate(-3892.665 -304.771)"/>
        <path id="패스_1341" data-name="패스 1341" d="M3809.177,339.7a3.691,3.691,0,0,0,.451.541,1.385,1.385,0,0,0,1.363.36,1.117,1.117,0,0,0,.874-.846,2.527,2.527,0,0,0,.078-.953,6.182,6.182,0,0,0-.285-1.313,15.063,15.063,0,0,0-.777-1.827,7.377,7.377,0,0,0-1.535-2.039,6.122,6.122,0,0,0-1.076-.805c-.11-.064-.228-.116-.344-.169-.071-.032-.21.01-.224.073a.261.261,0,0,0,.013.179,2.749,2.749,0,0,0,.2.245c.265.336.531.669.788,1.011a.632.632,0,0,1,.174.395l.008,0-.008,0a.056.056,0,0,0,0-.009c-.091-.05-.182-.1-.27-.15-.346-.212-.68-.445-1.037-.638a7.335,7.335,0,0,0-3.3-.915,7.556,7.556,0,0,0-4.155,1.108,11.1,11.1,0,0,0-3.7,3.67,4.118,4.118,0,0,0-.416.865,1.9,1.9,0,0,0-.1.757.605.605,0,0,0,.546.611,1.617,1.617,0,0,0,1-.138,2.459,2.459,0,0,0,.717-.531,7.4,7.4,0,0,1,1.169-1,7.8,7.8,0,0,1,4.1-1.31,5.473,5.473,0,0,1,1.591.134,6.484,6.484,0,0,1,2.031.758A7.326,7.326,0,0,1,3809.177,339.7Z" transform="translate(-3784.469 -304.102)"/>
        <path id="패스_1342" data-name="패스 1342" d="M3875.83,348.869a5.722,5.722,0,0,0,2.414.965,21.05,21.05,0,0,0,2.583.19,10.94,10.94,0,0,0,4.27-.87,3.631,3.631,0,0,0,1.506-1.252,2.163,2.163,0,0,0,.4-1.39,3.056,3.056,0,0,0-.5-1.5,5.541,5.541,0,0,0-3.762-2.646,9.9,9.9,0,0,0-3.821.009,5.7,5.7,0,0,0-3.742,2.479,4.172,4.172,0,0,0-.508,1.031,2.268,2.268,0,0,0,.42,2.282A3.8,3.8,0,0,0,3875.83,348.869Zm-.36-2.69a3.023,3.023,0,0,1,.344-.755,5.161,5.161,0,0,1,3.348-2.382,7.252,7.252,0,0,1,1.583-.209,5.492,5.492,0,0,1,4.711,2.123,3.779,3.779,0,0,1,.622,1.183,1.357,1.357,0,0,1-.22,1.27,3.156,3.156,0,0,1-.638.625,5.287,5.287,0,0,1-2.073.967,11.481,11.481,0,0,1-2.651.295,9.083,9.083,0,0,1-2.169-.266,5.449,5.449,0,0,1-1.961-.909,3.367,3.367,0,0,1-.65-.613A1.393,1.393,0,0,1,3875.47,346.178Z" transform="translate(-3844.83 -311.433)"/>
        <path id="패스_1343" data-name="패스 1343" d="M4030.415,344.926a2.291,2.291,0,0,0-2.012-.83,3.6,3.6,0,0,0-1.373.385,1.451,1.451,0,0,0-.263.178.14.14,0,0,0-.04.113c0,.02.071.051.1.042a4.972,4.972,0,0,1,1.446-.221,3.114,3.114,0,0,1,1.925.568,1.12,1.12,0,0,0,.22.125.115.115,0,0,0,.105-.025.134.134,0,0,0,.019-.114A1,1,0,0,0,4030.415,344.926Z" transform="translate(-3961.618 -312.875)"/>
      </g>
      <g id="그룹_1217" data-name="그룹 1217" transform="translate(0 2.314)">
        <path id="패스_1344" data-name="패스 1344" d="M3917.781,442.4a34.391,34.391,0,0,1-9.206,6.466,7.684,7.684,0,0,1-2.259.689c-.486.067-.97.161-1.448.268a8.123,8.123,0,0,0-2.217.816c-.115.065-.126.162-.02.253a9.559,9.559,0,0,1,1.57,1.686c.111.157.179.162.387.085.24-.089.48-.178.722-.262a1.142,1.142,0,0,1,.568-.059c.06.01.131.03.121.117,0,.04-.015.1-.043.112-.147.086-.3.16-.451.24-.225.121-.452.239-.673.368a.268.268,0,0,0-.128.33,4.221,4.221,0,0,1,.17.813c.023.233-.107.486.026.69a4.993,4.993,0,0,0,.489.5c.255.288.512.575.741.883a5.021,5.021,0,0,1,.79,1.6,3.784,3.784,0,0,1-.173,2.691,5.141,5.141,0,0,1-1.835,2.18c-.335.227-.7.419-1.045.624-.129.076-.265.139-.393.217-.068.041-.167.083-.133.186a.223.223,0,0,0,.134.115,6.1,6.1,0,0,0,.8.22,12.466,12.466,0,0,0,1.274.142,18.435,18.435,0,0,0,5.095-.426,23.692,23.692,0,0,0,4.951-1.726,29.585,29.585,0,0,0,10.844-8.617,32.224,32.224,0,0,0,3.763-6.174q.662-1.408,1.257-2.843a16.016,16.016,0,0,1-4.751.707A14.131,14.131,0,0,1,3917.781,442.4Z" transform="translate(-3866.531 -388.713)" fill="none"/>
        <path id="패스_1345" data-name="패스 1345" d="M4015.716,482.128h0l.012-.027-.011.02Z" transform="translate(-3953.187 -418.888)" fill="none"/>
        <path id="패스_1346" data-name="패스 1346" d="M3832.068,489.045a29.708,29.708,0,0,1-9.5,5.573,19.954,19.954,0,0,1-6.908,1.226,14.964,14.964,0,0,1-4.383-.639,1.253,1.253,0,0,0-.864,0,1.264,1.264,0,0,1-.12.041,15.481,15.481,0,0,1-4.013.571,19.58,19.58,0,0,1-2.03-.092,20.67,20.67,0,0,1-4.163-.85,27.092,27.092,0,0,1-4.9-2.1,30.22,30.22,0,0,1-8.647-6.955c-.706-.827-1.361-1.693-1.99-2.58-.07-.1-.106-.235-.251-.267-.069.116.023.206.057.3.423,1.117.84,2.236,1.285,3.345a79.894,79.894,0,0,0,4.294,9.073,25.837,25.837,0,0,0,2.166,3.317,13.7,13.7,0,0,0,2.907,2.849,6.044,6.044,0,0,0,1.811.911,2.876,2.876,0,0,0,1.441.1,1.179,1.179,0,0,0,.974-.892,2.057,2.057,0,0,0,.085-.5,5.972,5.972,0,0,0-.051-.958c-.114-.716-.261-1.428-.389-2.142a9.731,9.731,0,0,1-.209-1.522,2.207,2.207,0,0,1,.044-.507.325.325,0,0,1,.312-.274c.212-.011.424-.014.635-.014q5.5,0,11,0,5.816,0,11.632-.016c.191,0,.382,0,.572,0,.325.011.47.133.5.449a2.164,2.164,0,0,1-.006.51c-.052.381-.117.76-.185,1.138-.115.63-.242,1.258-.353,1.888a5.567,5.567,0,0,0-.073,1.723,1.193,1.193,0,0,0,1.072,1.095,3.208,3.208,0,0,0,1.322-.087,6.411,6.411,0,0,0,1.975-1.005,14.1,14.1,0,0,0,2.922-2.926,29.826,29.826,0,0,0,2.573-4.116,89.826,89.826,0,0,0,5.254-12.006c.056-.157.089-.322.132-.483-.115.149-.241.292-.344.45A30.031,30.031,0,0,1,3832.068,489.045Z" transform="translate(-3775.459 -419.206)" fill="none"/>
        <path id="패스_1347" data-name="패스 1347" d="M3819.35,241.024a45.478,45.478,0,0,0-1.439-6.357,31.089,31.089,0,0,0-2.329-5.747,29.538,29.538,0,0,0-9.26-10.294,33.213,33.213,0,0,0-7.9-4.044,43.841,43.841,0,0,0-8.875-2.2,20.329,20.329,0,0,0-3.043-.226c-.806.01-1.613.011-2.42.02-.425.005-.851,0-1.273.033a34.455,34.455,0,0,0-3.594.487,44.959,44.959,0,0,0-7.945,2.244,31.862,31.862,0,0,0-12.509,8.592,27.523,27.523,0,0,0-4.5,6.881,39.669,39.669,0,0,0-2.811,9.251c-.19,1.016-.345,2.04-.477,3.066a11.337,11.337,0,0,0-.164,2.18c.118-.235.168-.346.228-.452a2.917,2.917,0,0,1,1.572-1.32,2.288,2.288,0,0,1,1.5-.08,4.5,4.5,0,0,1,1.71.945.1.1,0,0,1,.035.052c.005.037.016.089,0,.108a.118.118,0,0,1-.108.01c-.115-.054-.227-.116-.336-.18a4.54,4.54,0,0,0-1.307-.485,2.579,2.579,0,0,0-2.836,1.223c-.115.187-.147.434-.44.492-.111.022-.1.219-.1.344a19.791,19.791,0,0,0,.132,3.668c.1.923.213,1.846.34,2.766.094.69.2,1.38.338,2.061.411,1.985.907,3.951,1.459,5.9a62.44,62.44,0,0,0,4.471,11.568,29.239,29.239,0,0,0,10.434,11.552,27.687,27.687,0,0,0,7.069,3.287,20.394,20.394,0,0,0,4.633.788,15.755,15.755,0,0,0,3.361-.218,11.013,11.013,0,0,0,3.753-1.336,6.924,6.924,0,0,0,1.231-.9,5.355,5.355,0,0,0,1.212-1.538,2.777,2.777,0,0,0-.065-2.784,7.277,7.277,0,0,0-1.75-1.994,14.777,14.777,0,0,0-3.718-2.3c-.111-.046-.252-.062-.28-.218-.016-.089.154-.151.38-.118a3.561,3.561,0,0,1,.5.112,13.607,13.607,0,0,1,2.918,1.243c.11.063.219.131.332.186.026.013.073-.011.107-.026a.064.064,0,0,0,.02-.055,1.185,1.185,0,0,0-.044-.247,4.228,4.228,0,0,0-.678-1.213,8.232,8.232,0,0,0-4.256-2.858,13.959,13.959,0,0,0-1.867-.387,8.314,8.314,0,0,1-2.426-.728,34.042,34.042,0,0,1-6.756-4.272c-.652-.524-1.278-1.074-1.884-1.645a14.423,14.423,0,0,1-8.319,2.446,15.684,15.684,0,0,1-5.59-1h0a37.442,37.442,0,0,1-.8-7.727c0-.04,0-.08,0-.12q.007-.361.022-.722a39.248,39.248,0,0,1,.623-5.507,15.213,15.213,0,0,1,4.178-.984q-.367-.716-.72-1.439c-.443-.912-.85-1.842-1.27-2.765-.061-.134-.11-.274-.158-.414-.019-.055-.035-.127.04-.153.022-.008.079.031.1.062.395.748.777,1.5,1.178,2.245q.661,1.226,1.368,2.425c.34-.021.682-.035,1.03-.035a15.16,15.16,0,0,1,6.9,1.582,9.456,9.456,0,0,1,3.741,3.268,6.021,6.021,0,0,1,.961,3.216,6.753,6.753,0,0,1-2.633,5.116,33.027,33.027,0,0,0,4.976,3.854,30.788,30.788,0,0,0,3.507,1.931,6.818,6.818,0,0,0,1.69.545c.313.055.628.1.941.157a10.166,10.166,0,0,1,3.415,1.158.551.551,0,0,1,.054.033.5.5,0,0,0,.59-.01,7.957,7.957,0,0,1,2.053-.842,14.687,14.687,0,0,1,1.553-.335,9.082,9.082,0,0,0,3.129-1.012c.056-.03.113-.058.17-.087a33.363,33.363,0,0,0,7.338-5.1c.264-.243.523-.49.779-.74a6.532,6.532,0,0,1-2.138-4.663,6.065,6.065,0,0,1,1.075-3.39,9.424,9.424,0,0,1,3.354-2.947,15.028,15.028,0,0,1,7.173-1.729l.069,0c.277-.474.55-.951.815-1.433.51-.925.995-1.865,1.491-2.8.069-.13.139-.261.216-.387.012-.02.063-.018.1-.026.009.039.037.085.024.115-.184.449-.364.9-.564,1.343q-.735,1.618-1.548,3.2a15.464,15.464,0,0,1,5.191,1.064h0q.266,1.316.428,2.653a29.279,29.279,0,0,1,.057,6.263c-.063.675-.145,1.347-.234,2.017q.682-1.927,1.243-3.9c.624-2.194,1.152-4.412,1.669-6.633a23.412,23.412,0,0,0,.682-3.734c.056-.843.119-1.685.165-2.528a23.819,23.819,0,0,0-.086-2.659C3819.632,243.5,3819.534,242.258,3819.35,241.024Z" transform="translate(-3749.742 -211.505)" fill="none"/>
        <path id="패스_1348" data-name="패스 1348" d="M3960.252,386.838a9.494,9.494,0,0,0-3.377,2.981,6.155,6.155,0,0,0-1.082,3.43,6.622,6.622,0,0,0,2.153,4.718,44.307,44.307,0,0,0,4.181-4.779c1.141-1.5,2.19-3.059,3.242-4.619q1.147-1.7,2.176-3.479l-.069,0A15.075,15.075,0,0,0,3960.252,386.838Z" transform="translate(-3907.211 -344.438)" fill="#f1878d"/>
        <path id="패스_1349" data-name="패스 1349" d="M3804.886,393.25a6.111,6.111,0,0,0-.968-3.254,9.533,9.533,0,0,0-3.767-3.306,15.209,15.209,0,0,0-6.948-1.6c-.35,0-.695.015-1.037.036q.552.942,1.134,1.868c1.084,1.718,2.237,3.389,3.414,5.044a47.58,47.58,0,0,0,3.074,3.862q1.169,1.327,2.446,2.527A6.843,6.843,0,0,0,3804.886,393.25Z" transform="translate(-3781.511 -344.441)" fill="#f1878d"/>
        <path id="패스_1350" data-name="패스 1350" d="M3817.561,241.9c-.045-.633-.089-1.267-.168-1.9q-.225-1.794-.592-3.564a40.6,40.6,0,0,0-1.82-6.4,30.313,30.313,0,0,0-14.6-16.373,34.857,34.857,0,0,0-5.868-2.433,39.233,39.233,0,0,0-7.132-1.58,17.346,17.346,0,0,0-2.156-.18c-.658,0-1.314-.028-1.971-.075a11.833,11.833,0,0,0-1.718.009c-.53.04-1.059.081-1.59.076a24.616,24.616,0,0,0-3.614.3,37.181,37.181,0,0,0-5.159,1.106,36.4,36.4,0,0,0-8.367,3.5,31.949,31.949,0,0,0-7.449,6,30.187,30.187,0,0,0-6.509,11.372,47.5,47.5,0,0,0-2.126,11.445,16.183,16.183,0,0,0-.006,2.411c.1,1.222.222,2.442.342,3.663.035.357.1.712.146,1.068.11.774.187,1.551.368,2.315.5,2.1.986,4.2,1.583,6.271a76.007,76.007,0,0,0,2.679,7.525c.628,1.548,1.272,3.089,1.8,4.674q.343,1.022.712,2.035a93.438,93.438,0,0,0,4.691,10.889c.648,1.262,1.321,2.51,2.077,3.711a21.929,21.929,0,0,0,2.031,2.76,13.182,13.182,0,0,0,2.958,2.585,6.614,6.614,0,0,0,1.675.759,3.523,3.523,0,0,0,2.008.064,2.078,2.078,0,0,0,1.51-1.566,3.712,3.712,0,0,0,.068-1.574c-.166-.958-.342-1.914-.515-2.871-.154-.853-.109-.8.691-.8h10.766v-.041h1.337l9.428.016c.148,0,.3.009.445.018a.182.182,0,0,1,.142.179c-.047.314-.091.628-.148.939-.127.686-.264,1.37-.39,2.055a5.659,5.659,0,0,0-.057,1.707,2.087,2.087,0,0,0,1.542,1.9,2.974,2.974,0,0,0,1.2.111,5.914,5.914,0,0,0,2.382-.84,11.706,11.706,0,0,0,2.243-1.765,19.027,19.027,0,0,0,2.305-2.788,41.043,41.043,0,0,0,2.582-4.444,91.454,91.454,0,0,0,4.726-10.943c.38-1.054.763-2.108,1.1-3.175.473-1.492.979-2.971,1.566-4.422a66.361,66.361,0,0,0,2.239-6.337c.828-2.843,1.531-5.716,2.083-8.625.126-.664.234-1.332.338-2,.049-.313.071-.63.1-.946a28.454,28.454,0,0,0,.2-2.973C3817.671,243.8,3817.628,242.85,3817.561,241.9Zm-8.3,30.715h0c-.043.159-.076.323-.132.478a88.394,88.394,0,0,1-5.265,11.882,29.422,29.422,0,0,1-2.58,4.074,14.017,14.017,0,0,1-2.927,2.9,6.461,6.461,0,0,1-1.979.995,3.253,3.253,0,0,1-1.324.086,1.187,1.187,0,0,1-1.074-1.084,5.446,5.446,0,0,1,.073-1.7c.111-.624.239-1.245.354-1.869.068-.375.134-.75.185-1.126a2.1,2.1,0,0,0,.007-.505c-.033-.313-.179-.434-.5-.445-.191-.006-.382,0-.573,0q-5.829.008-11.658.016-5.51,0-11.02,0c-.212,0-.425,0-.636.014a.325.325,0,0,0-.313.271,2.19,2.19,0,0,0-.044.5,9.452,9.452,0,0,0,.209,1.506c.127.707.275,1.411.389,2.12a5.794,5.794,0,0,1,.05.948,1.993,1.993,0,0,1-.084.5,1.176,1.176,0,0,1-.977.883,2.914,2.914,0,0,1-1.444-.1,6.086,6.086,0,0,1-1.815-.9,13.669,13.669,0,0,1-2.913-2.82,25.524,25.524,0,0,1-2.17-3.282,78.558,78.558,0,0,1-4.3-8.979c-.445-1.1-.863-2.2-1.288-3.31-.034-.089-.126-.179-.057-.294.146.032.182.168.252.265.63.877,1.287,1.735,1.994,2.553a30.224,30.224,0,0,0,8.666,6.883,27.337,27.337,0,0,0,4.914,2.076,20.934,20.934,0,0,0,4.171.841,19.916,19.916,0,0,0,2.035.091,15.688,15.688,0,0,0,4.022-.565c.041-.011.082-.025.121-.04a1.271,1.271,0,0,1,.866,0,15.174,15.174,0,0,0,4.393.633,20.226,20.226,0,0,0,6.923-1.213,30.4,30.4,0,0,0,15.113-11.823c.1-.156.229-.3.345-.445l0-.009.011-.02Zm7.465-27.3c-.046.844-.109,1.688-.165,2.532a23.553,23.553,0,0,1-.682,3.739c-.518,2.224-1.046,4.445-1.67,6.642q-.56,1.974-1.243,3.9-.613,1.732-1.323,3.427-.593,1.419-1.249,2.813a31.869,31.869,0,0,1-3.737,6.11,29.371,29.371,0,0,1-10.771,8.528,23.578,23.578,0,0,1-4.918,1.708,18.37,18.37,0,0,1-5.06.421,12.366,12.366,0,0,1-1.265-.141,6.092,6.092,0,0,1-.8-.218.222.222,0,0,1-.133-.114c-.034-.1.064-.143.131-.184.127-.077.262-.14.39-.214.348-.2.706-.393,1.039-.618a5.1,5.1,0,0,0,1.822-2.158,3.729,3.729,0,0,0,.172-2.663,4.976,4.976,0,0,0-.784-1.585c-.228-.305-.483-.59-.736-.874a4.981,4.981,0,0,1-.486-.5c-.132-.2,0-.452-.026-.683a4.155,4.155,0,0,0-.169-.8.265.265,0,0,1,.127-.327c.22-.128.446-.245.67-.365.149-.079.3-.153.448-.238.028-.016.038-.072.042-.111.01-.086-.06-.106-.12-.116a1.136,1.136,0,0,0-.564.058c-.24.083-.479.171-.717.259-.207.076-.275.072-.385-.084a9.447,9.447,0,0,0-1.559-1.668c-.1-.091-.095-.187.02-.251a8.089,8.089,0,0,1,2.2-.808c.476-.107.956-.2,1.439-.266a7.66,7.66,0,0,0,2.244-.681,34.138,34.138,0,0,0,9.143-6.4q1.312-1.276,2.513-2.677a50.658,50.658,0,0,0,5.978-8.742c.334-.612.657-1.23.975-1.851q.81-1.583,1.549-3.2c.2-.442.38-.895.565-1.345.012-.03-.015-.077-.024-.116-.033.008-.084.006-.1.026-.077.126-.146.257-.216.387-.5.934-.982,1.875-1.491,2.8q-.4.723-.815,1.434-1.025,1.755-2.161,3.443c-1.044,1.543-2.087,3.089-3.221,4.571a43.751,43.751,0,0,1-4.152,4.73c-.256.25-.515.5-.779.741a33.36,33.36,0,0,1-7.339,5.111c-.056.029-.114.057-.17.087a9.08,9.08,0,0,1-3.13,1.014,14.665,14.665,0,0,0-1.553.336,7.957,7.957,0,0,0-2.053.843.5.5,0,0,1-.59.01.616.616,0,0,0-.054-.033,10.171,10.171,0,0,0-3.417-1.16c-.312-.056-.627-.1-.94-.158a6.816,6.816,0,0,1-1.69-.546,30.757,30.757,0,0,1-3.508-1.934,33.107,33.107,0,0,1-4.978-3.859q-1.268-1.188-2.429-2.5a47.188,47.188,0,0,1-3.053-3.822c-1.169-1.638-2.315-3.292-3.391-4.992q-.58-.915-1.126-1.849-.708-1.2-1.369-2.429c-.4-.745-.785-1.5-1.178-2.248-.017-.031-.074-.07-.1-.062-.075.027-.059.1-.04.153.048.14.1.28.158.414.421.924.828,1.855,1.271,2.768q.353.725.721,1.441a61.035,61.035,0,0,0,3.462,5.961,46.488,46.488,0,0,0,3.92,5.077q1.2,1.353,2.5,2.591c.606.572,1.232,1.123,1.884,1.647a34.025,34.025,0,0,0,6.758,4.278,8.3,8.3,0,0,0,2.425.729,13.926,13.926,0,0,1,1.868.387,8.233,8.233,0,0,1,4.257,2.862,4.242,4.242,0,0,1,.678,1.214,1.2,1.2,0,0,1,.044.247.063.063,0,0,1-.021.055c-.033.015-.08.039-.107.026-.113-.056-.221-.123-.332-.186a13.605,13.605,0,0,0-2.919-1.245,3.515,3.515,0,0,0-.495-.112c-.226-.033-.4.029-.38.118.028.156.169.172.28.218a14.787,14.787,0,0,1,3.719,2.3,7.293,7.293,0,0,1,1.75,2,2.786,2.786,0,0,1,.065,2.788,5.376,5.376,0,0,1-1.212,1.54,6.965,6.965,0,0,1-1.231.9,11.012,11.012,0,0,1-3.754,1.337,15.747,15.747,0,0,1-3.362.218,20.38,20.38,0,0,1-4.633-.789,27.683,27.683,0,0,1-7.071-3.292,29.266,29.266,0,0,1-10.436-11.567,62.663,62.663,0,0,1-4.471-11.583c-.552-1.953-1.047-3.922-1.459-5.909-.141-.682-.243-1.373-.338-2.064-.126-.922-.235-1.846-.339-2.77a19.864,19.864,0,0,1-.131-3.673c.009-.125-.007-.322.1-.344.293-.057.325-.305.44-.492a2.578,2.578,0,0,1,2.837-1.225,4.539,4.539,0,0,1,1.307.486c.11.064.221.126.336.18a.12.12,0,0,0,.109-.01c.019-.02.009-.071,0-.108a.1.1,0,0,0-.035-.052,4.492,4.492,0,0,0-1.71-.946,2.286,2.286,0,0,0-1.5.08,2.916,2.916,0,0,0-1.572,1.322c-.06.106-.11.217-.229.452a11.363,11.363,0,0,1,.164-2.183c.132-1.027.287-2.052.477-3.07a39.728,39.728,0,0,1,2.812-9.263,27.561,27.561,0,0,1,4.5-6.89,31.863,31.863,0,0,1,12.511-8.6,44.917,44.917,0,0,1,7.947-2.247,34.4,34.4,0,0,1,3.594-.488c.423-.035.849-.028,1.274-.033.807-.009,1.614-.01,2.421-.02a20.315,20.315,0,0,1,3.044.226,43.8,43.8,0,0,1,8.876,2.2,33.212,33.212,0,0,1,7.9,4.05,29.563,29.563,0,0,1,9.261,10.308,31.087,31.087,0,0,1,2.329,5.755,45.489,45.489,0,0,1,1.44,6.366c.185,1.236.282,2.479.353,3.724A23.942,23.942,0,0,1,3816.724,245.314Z" transform="translate(-3746.672 -209.377)"/>
      </g>
      <g id="그룹_1218" data-name="그룹 1218" transform="translate(37.6)">
        <path id="패스_1351" data-name="패스 1351" d="M3936.239,212.8a6.08,6.08,0,0,1-2.048-1.182c-2.337-2.045-4.69-4.073-7.036-6.108,2.346,2.035,4.7,4.063,7.036,6.108A6.08,6.08,0,0,0,3936.239,212.8Z" transform="translate(-3922.968 -204.098)" fill="none"/>
        <path id="패스_1352" data-name="패스 1352" d="M3981.872,237.6l.8.127a.786.786,0,0,0,.156.016.782.782,0,0,1-.156-.016Z" transform="translate(-3964.869 -228.677)" fill="none"/>
        <path id="패스_1353" data-name="패스 1353" d="M3961.277,231.935l.162.092a8.336,8.336,0,0,0,1.751.7,8.379,8.379,0,0,1-1.751-.7Z" transform="translate(-3949.098 -224.338)" fill="none"/>
        <path id="패스_1354" data-name="패스 1354" d="M3926,204.713c-.076-.066-.15-.134-.229-.2a.164.164,0,0,0-.124-.045.163.163,0,0,1,.123.045C3925.851,204.579,3925.925,204.647,3926,204.713Z" transform="translate(-3921.814 -203.306)" fill="none"/>
        <path id="패스_1355" data-name="패스 1355" d="M3947.324,212.48q1.223,1.064,2.452,2.122c.086.074.177.142.269.207.135.1.274.183.417.265l.162.092a8.379,8.379,0,0,0,1.751.7q.363.1.734.175c.124.025.248.048.373.068.6.1,1.2.195,1.8.289l.8.127a.782.782,0,0,0,.156.016.209.209,0,0,0,.1-.03h0c.04-.123-.036-.233-.075-.345q-.876-2.528-1.756-5.055c-.077-.221-.157-.441-.232-.662a.626.626,0,0,0-.094-.176.714.714,0,0,0-.2-.186,1.072,1.072,0,0,0-.108-.062,1.029,1.029,0,0,0-.758-.07c-.037.01-.074.023-.111.037-.951.368-1.908.726-2.863,1.088q-1.328.5-2.656,1.009a.686.686,0,0,0-.343.177C3947.179,212.378,3947.261,212.425,3947.324,212.48Z" transform="translate(-3938.283 -207.476)" fill="#4d4d4d"/>
        <path id="패스_1356" data-name="패스 1356" d="M3927.267,212.3c-.152-.024-.3-.053-.451-.086a7.009,7.009,0,0,1-.761-.213,6.078,6.078,0,0,1-2.048-1.182c-2.337-2.045-4.69-4.073-7.036-6.108-.076-.066-.15-.134-.23-.2a.164.164,0,0,0-.124-.045.091.091,0,0,0-.047.026.186.186,0,0,0-.037.057.971.971,0,0,0-.048.136c-.167.615-.332,1.23-.5,1.845l-.017.062.008,0-2.121,8.111c3.123,8.228,16.929,7.923,17,7.887s5.515-7.895,5.515-7.895h0l.122-.175a4.165,4.165,0,0,0,.333-.481,1.109,1.109,0,0,0,.082-.206c-.158-.032-.28-.061-.4-.08C3933.426,213.275,3930.346,212.8,3927.267,212.3Z" transform="translate(-3912.784 -203.306)" fill="#4d4d4d"/>
        <path id="패스_1357" data-name="패스 1357" d="M3934.507,209.7a.652.652,0,0,0-.377-.423,1.056,1.056,0,0,0-.15-.056,2.243,2.243,0,0,0-.292-.059l-.78-.124c-.644-.1-1.31-.209-1.966-.308a10.819,10.819,0,0,1-1.491-.307c-.359-.108-.676-.217-.97-.332a.771.771,0,0,1-.492-.519c-.38-1.125-.778-2.265-1.161-3.368q-.333-.953-.663-1.906a2.273,2.273,0,0,0-.416-.755,1.479,1.479,0,0,0-1.493-.528,3.634,3.634,0,0,0-.522.16l-1.074.406c-1.382.522-2.811,1.061-4.212,1.605a.778.778,0,0,1-.71-.058,10.205,10.205,0,0,1-1.7-1.166c-.439-.388-.888-.776-1.283-1.119l-.268-.232c-.343-.3-.7-.607-1.057-.9a.7.7,0,0,0-.762-.152.733.733,0,0,0-.386.511l-.115.43q-.133.5-.268,1-.172.629-.345,1.257c-.228.832-.465,1.692-.69,2.54-.045.169-.1.338-.159.508l-.58,2.178-.814,2.7a.761.761,0,0,0,.017.49c3.241,8.562,17.391,8.66,17.992,8.66a1.066,1.066,0,0,0,.535-.085c.188-.094.242-.123,1.965-2.8l.839-1.186a7.055,7.055,0,0,1,.632-1.059q.184-.252.362-.506l2.212-3.166.208-.294c.105-.148.211-.3.314-.446A.693.693,0,0,0,3934.507,209.7Zm-16.017-5.582q1.326-.508,2.656-1.009c.955-.362,1.912-.719,2.863-1.088.037-.014.074-.027.111-.037a1.03,1.03,0,0,1,.759.07,1.015,1.015,0,0,1,.107.062.706.706,0,0,1,.2.186.631.631,0,0,1,.093.176c.074.221.155.441.232.662q.879,2.527,1.756,5.055c.038.112.115.221.075.345h0a.21.21,0,0,1-.1.03.787.787,0,0,1-.156-.016l-.8-.127c-.6-.095-1.2-.189-1.8-.289q-.187-.031-.373-.068-.371-.074-.734-.175a8.357,8.357,0,0,1-1.751-.7l-.162-.092c-.143-.082-.283-.169-.417-.265-.092-.065-.183-.133-.269-.207q-1.229-1.058-2.451-2.122c-.063-.055-.146-.1-.17-.209A.687.687,0,0,1,3918.49,204.114Zm14.83,6.124a4.135,4.135,0,0,1-.333.481l-.122.175h0s-5.442,7.858-5.515,7.895-13.879.341-17-7.887l-.311,1.189.308-1.2,0,.008,2.121-8.111-.008,0,.017-.062c.168-.615.333-1.23.5-1.845a.97.97,0,0,1,.048-.136.187.187,0,0,1,.038-.057.091.091,0,0,1,.046-.026.164.164,0,0,1,.124.045c.08.061.154.13.23.2,2.346,2.035,4.7,4.063,7.036,6.108a6.072,6.072,0,0,0,2.048,1.182,6.977,6.977,0,0,0,.76.213q.223.049.451.086c3.079.493,6.16.973,9.24,1.46.123.019.244.048.4.08A1.092,1.092,0,0,1,3933.319,210.239Z" transform="translate(-3909.276 -199.497)"/>
        <path id="패스_1358" data-name="패스 1358" d="M3912.529,249.358l.311-1.189,0-.008Z" transform="translate(-3911.767 -236.765)" fill="#4d4d4d"/>
      </g>
    </g>
  </g>
</svg>
