<svg xmlns="http://www.w3.org/2000/svg" xmlns:xlink="http://www.w3.org/1999/xlink" width="24" height="24" viewBox="0 0 24 24">
  <defs>
    <clipPath id="clip-path">
      <rect id="사각형_5877" data-name="사각형 5877" width="24" height="24" fill="none"/>
    </clipPath>
  </defs>
  <g id="그룹_3928" data-name="그룹 3928" clip-path="url(#clip-path)">
    <path id="패스_6283" data-name="패스 6283" d="M7.827,3.513A12.039,12.039,0,0,0,2.04,10l4.4,1.22a6.76,6.76,0,0,1,3.256-3.6Z" transform="translate(-1.279 -2.203)" fill="#e3b328"/>
    <path id="패스_6284" data-name="패스 6284" d="M10.607,34.07a7.459,7.459,0,0,1-5.792-9.349L.445,23.5a11.993,11.993,0,0,0,9.712,15.089Z" transform="translate(0 -14.737)" fill="#2c33a8"/>
    <path id="패스_6285" data-name="패스 6285" d="M24.508,0a11.961,11.961,0,0,0-4.559.9l1.89,4.131a7.463,7.463,0,1,1,2.669,14.433c-.106,0-.213,0-.318-.007l-.265,4.509a5.379,5.379,0,0,0,.583.035,12,12,0,1,0,0-24" transform="translate(-12.508 0)" fill="#e86658"/>
  </g>
</svg>
