<svg xmlns="http://www.w3.org/2000/svg" width="170" height="140" viewBox="0 0 170 140">
  <g id="그룹_3913" data-name="그룹 3913" transform="translate(-981 -2614)">
    <path id="다각형_362" data-name="다각형 362" d="M121.873,0a10,10,0,0,1,8.548,4.81l36.429,60a10,10,0,0,1,0,10.38l-36.429,60a10,10,0,0,1-8.548,4.81H48.127a10,10,0,0,1-8.548-4.81l-36.429-60a10,10,0,0,1,0-10.38l36.429-60A10,10,0,0,1,48.127,0Z" transform="translate(981 2614)" fill="#606ab7" opacity="0.1"/>
    <path id="다각형_366" data-name="다각형 366" d="M106.958,0a10,10,0,0,1,8.48,4.7l31.25,50a10,10,0,0,1,0,10.6l-31.25,50a10,10,0,0,1-8.48,4.7H43.042a10,10,0,0,1-8.48-4.7l-31.25-50a10,10,0,0,1,0-10.6l31.25-50A10,10,0,0,1,43.042,0Z" transform="translate(991 2624)" fill="#606ab7"/>
  </g>
</svg>
