<svg id="그룹_3086" data-name="그룹 3086" xmlns="http://www.w3.org/2000/svg" xmlns:xlink="http://www.w3.org/1999/xlink" width="18" height="18" viewBox="0 0 18 18">
  <defs>
    <clipPath id="clip-path">
      <rect id="사각형_2413" data-name="사각형 2413" width="18" height="18" fill="#fff"/>
    </clipPath>
  </defs>
  <g id="그룹_1435" data-name="그룹 1435" clip-path="url(#clip-path)">
    <path id="패스_1926" data-name="패스 1926" d="M2,0A1.993,1.993,0,0,0,0,2V16a2,2,0,0,0,2,2H16a2,2,0,0,0,2-2V9H16v7H2V2H9V0ZM14.78,1a.691.691,0,0,0-.48.2L13.08,2.41l2.5,2.5L16.8,3.7a.676.676,0,0,0,0-.95L15.25,1.2a.668.668,0,0,0-.47-.2M12.37,3.12,5,10.5V13H7.5l7.37-7.38Z" fill="#fff"/>
  </g>
</svg>
