<svg xmlns="http://www.w3.org/2000/svg" xmlns:xlink="http://www.w3.org/1999/xlink" width="16" height="18" viewBox="0 0 16 18">
  <defs>
    <clipPath id="clip-path">
      <rect id="사각형_3841" data-name="사각형 3841" width="16" height="18" fill="none"/>
    </clipPath>
  </defs>
  <g id="그룹_2943" data-name="그룹 2943" transform="translate(0 0)">
    <g id="그룹_2304" data-name="그룹 2304" transform="translate(0 0)" clip-path="url(#clip-path)">
      <line id="선_21" data-name="선 21" x1="16" transform="translate(0 1.022)" fill="none" stroke="#c3cad4" stroke-width="2"/>
      <line id="선_22" data-name="선 22" x2="16" transform="translate(0 16.977)" fill="none" stroke="#c3cad4" stroke-width="2"/>
      <path id="패스_4867" data-name="패스 4867" d="M1.815,15.758C1.815,12.265,4.931,9.927,8,8.8c3.07,1.123,6.185,3.461,6.185,6.954" transform="translate(0 0.198)" fill="none" stroke="#c3cad4" stroke-width="2"/>
      <path id="패스_4868" data-name="패스 4868" d="M7.658,10.405c-2.078.759-4.36,2.566-4.36,4.93h8.72c0-2.365-2.282-4.171-4.36-4.93" transform="translate(0.342 0.619)" fill="#c3cad4"/>
      <path id="패스_4869" data-name="패스 4869" d="M1.815,2C1.815,5.5,4.931,7.835,8,8.957,11.07,7.835,14.185,5.5,14.185,2" transform="translate(0 0.045)" fill="none" stroke="#c3cad4" stroke-width="2"/>
    </g>
  </g>
</svg>
