<svg xmlns="http://www.w3.org/2000/svg" xmlns:xlink="http://www.w3.org/1999/xlink" width="91" height="91" viewBox="0 0 91 91">
  <defs>
    <clipPath id="clip-path">
      <circle id="타원_191" data-name="타원 191" cx="45.5" cy="45.5" r="45.5" fill="#fff"/>
    </clipPath>
    <clipPath id="clip-path-2">
      <rect id="사각형_4360" data-name="사각형 4360" width="84.259" height="95.047" fill="none"/>
    </clipPath>
  </defs>
  <g id="그룹_3261" data-name="그룹 3261" transform="translate(-1050 -452)">
    <circle id="타원_192" data-name="타원 192" cx="45.5" cy="45.5" r="45.5" transform="translate(1050 452)" fill="#fff"/>
    <g id="마스크_그룹_3" data-name="마스크 그룹 3" transform="translate(1050 452)" clip-path="url(#clip-path)">
      <g id="그룹_3094" data-name="그룹 3094" transform="translate(2.996 7.101)">
        <g id="그룹_3091" data-name="그룹 3091">
          <g id="그룹_3090" data-name="그룹 3090" clip-path="url(#clip-path-2)">
            <path id="패스_5562" data-name="패스 5562" d="M27.613,252.316a4.218,4.218,0,0,1-5.175,2.906,4.51,4.51,0,0,1,2.987-8.426,4.213,4.213,0,0,1,2.188,5.515" transform="translate(-16.659 -205.852)" fill="#fff"/>
            <path id="패스_5563" data-name="패스 5563" d="M27.613,252.316a4.218,4.218,0,0,1-5.175,2.906,4.51,4.51,0,0,1,2.987-8.426A4.218,4.218,0,0,1,27.613,252.316Z" transform="translate(-16.659 -205.852)" fill="none" stroke="#131212" stroke-linecap="round" stroke-linejoin="round" stroke-width="2"/>
            <path id="패스_5564" data-name="패스 5564" d="M161.615,306.9c.044-11.279-5.911-23.325-22.913-23.391s-23.051,11.931-23.1,23.211q0,.44.013.861c.093,2.657.071,5.31-.036,7.966q-.013.328-.014.659c-.027,6.833,3.485,12.385,22.956,12.461s23.026-5.448,23.053-12.28q0-.333-.01-.66c-.088-2.656-.088-5.31.026-7.964.012-.282.019-.57.02-.862" transform="translate(-96.473 -236.665)" fill="#38825f"/>
            <path id="패스_5565" data-name="패스 5565" d="M161.615,306.9c.044-11.279-5.911-23.325-22.913-23.391s-23.051,11.931-23.1,23.211q0,.44.013.861c.093,2.657.071,5.31-.036,7.966q-.013.328-.014.659c-.027,6.833,3.485,12.385,22.956,12.461s23.026-5.448,23.053-12.28q0-.333-.01-.66c-.088-2.656-.088-5.31.026-7.964Q161.614,307.341,161.615,306.9Z" transform="translate(-96.473 -236.665)" fill="none" stroke="#131212" stroke-linecap="round" stroke-linejoin="round" stroke-width="2"/>
            <path id="패스_5566" data-name="패스 5566" d="M28.224,286.026l-2.818,1.49s-14.664,7.635-9.975-7.249l-8.361-1.562s-10,25.592,17.954,26.258" transform="translate(-4.45 -232.654)" fill="#38825f"/>
            <path id="패스_5567" data-name="패스 5567" d="M28.224,286.026l-2.818,1.49s-14.664,7.635-9.975-7.249l-8.361-1.562s-10,25.592,17.954,26.258" transform="translate(-4.45 -232.654)" fill="none" stroke="#131212" stroke-linecap="round" stroke-linejoin="round" stroke-width="2"/>
            <path id="패스_5568" data-name="패스 5568" d="M18.989,280.267l-.829,3.563L9.593,282.3l1.035-3.6Z" transform="translate(-8.008 -232.653)" fill="#fef3ee"/>
            <path id="패스_5569" data-name="패스 5569" d="M18.989,280.267l-.829,3.563L9.593,282.3l1.035-3.6Z" transform="translate(-8.008 -232.653)" fill="none" stroke="#131212" stroke-linecap="round" stroke-linejoin="round" stroke-width="2"/>
            <path id="패스_5570" data-name="패스 5570" d="M198,446.807l-3.449,19.724s22.066,3.559,30.4-6.5" transform="translate(-162.408 -372.98)" fill="#38825f"/>
            <path id="패스_5571" data-name="패스 5571" d="M198,446.807l-3.449,19.724s22.066,3.559,30.4-6.5" transform="translate(-162.408 -372.98)" fill="none" stroke="#131212" stroke-linecap="round" stroke-linejoin="round" stroke-width="2"/>
            <path id="패스_5572" data-name="패스 5572" d="M366.181,287.759l2.8,1.515s14.6,7.749,10.031-7.17l8.373-1.5s9.8,25.666-18.157,26.113" transform="translate(-305.676 -234.241)" fill="#38825f"/>
            <path id="패스_5573" data-name="패스 5573" d="M366.181,287.759l2.8,1.515s14.6,7.749,10.031-7.17l8.373-1.5s9.8,25.666-18.157,26.113" transform="translate(-305.676 -234.241)" fill="none" stroke="#131212" stroke-linecap="round" stroke-linejoin="round" stroke-width="2"/>
            <path id="패스_5574" data-name="패스 5574" d="M190.206,374.281l-3.218,3.193L174.22,364.6l6.175-.213Z" transform="translate(-145.433 -304.18)" fill="#fef3ee"/>
            <path id="패스_5575" data-name="패스 5575" d="M190.206,374.281l-3.218,3.193L174.22,364.6l6.175-.213Z" transform="translate(-145.433 -304.18)" fill="none" stroke="#131212" stroke-linecap="round" stroke-linejoin="round" stroke-width="2"/>
            <rect id="사각형_4357" data-name="사각형 4357" width="19.254" height="4.533" transform="matrix(0.71, -0.704, 0.704, 0.71, 35.596, 73.828)" fill="#fef3ee"/>
            <rect id="사각형_4358" data-name="사각형 4358" width="19.254" height="4.533" transform="matrix(0.71, -0.704, 0.704, 0.71, 35.596, 73.828)" fill="none" stroke="#131212" stroke-linecap="round" stroke-linejoin="round" stroke-width="2"/>
            <path id="패스_5576" data-name="패스 5576" d="M211.56,364.384l14.308.056-7.183,7.125Z" transform="translate(-176.603 -304.176)" fill="#fff"/>
            <path id="패스_5577" data-name="패스 5577" d="M211.56,364.384l14.308.056-7.183,7.125Z" transform="translate(-176.603 -304.176)" fill="none" stroke="#131212" stroke-linecap="round" stroke-linejoin="round" stroke-width="2"/>
            <path id="패스_5578" data-name="패스 5578" d="M239.644,443.631s1.821,1.126,1.925,4.6-.025,6.418-.025,6.418,5.651.317,7.082-4.035c0,0-3.319-9.638-7.319-10.729Z" transform="translate(-200.047 -367.201)" fill="#8497a0"/>
            <path id="패스_5579" data-name="패스 5579" d="M239.644,443.631s1.821,1.126,1.925,4.6-.025,6.418-.025,6.418,5.651.317,7.082-4.035c0,0-3.319-9.638-7.319-10.729Z" transform="translate(-200.047 -367.201)" fill="none" stroke="#131212" stroke-linecap="round" stroke-linejoin="round" stroke-width="2"/>
            <path id="패스_5580" data-name="패스 5580" d="M144.532,427.92s-2.259-1.654-4.267-.352S127.9,447.031,127.9,447.031l5.9,2.788,7.585-18.378Z" transform="translate(-106.763 -356.502)" fill="#8497a0"/>
            <path id="패스_5581" data-name="패스 5581" d="M144.532,427.92s-2.259-1.654-4.267-.352S127.9,447.031,127.9,447.031l5.9,2.788,7.585-18.378Z" transform="translate(-106.763 -356.502)" fill="none" stroke="#131212" stroke-linecap="round" stroke-linejoin="round" stroke-width="2"/>
            <path id="패스_5582" data-name="패스 5582" d="M214.084,433.246l-3.228-1.341a1.351,1.351,0,0,1-.73-1.765h0l1.341-3.233a1.351,1.351,0,0,1,1.766-.729l3.229,1.345a1.351,1.351,0,0,1,.729,1.765l-1.341,3.229a1.351,1.351,0,0,1-1.765.729" transform="translate(-175.32 -355.672)" fill="#8497a0"/>
            <path id="사각형_4359" data-name="사각형 4359" d="M3.1,0h0A3.1,3.1,0,0,1,6.2,3.1v0A3.1,3.1,0,0,1,3.1,6.2h0A3.1,3.1,0,0,1,0,3.1v0A3.1,3.1,0,0,1,3.1,0Z" transform="translate(34.289 75.714) rotate(-67.439)" fill="none" stroke="#131212" stroke-linecap="round" stroke-linejoin="round" stroke-width="2"/>
            <path id="패스_5583" data-name="패스 5583" d="M137.39,93.186c-.8,15.888-14.008,24.579-29.724,23.782S79.692,106.206,80.493,90.317a28.487,28.487,0,0,1,56.932,2.167q-.013.351-.035.7" transform="translate(-67.162 -52.518)" fill="#fff"/>
            <path id="패스_5584" data-name="패스 5584" d="M137.39,93.186c-.8,15.888-14.008,24.579-29.724,23.782S79.692,106.206,80.493,90.317a28.487,28.487,0,0,1,56.932,2.167Q137.412,92.836,137.39,93.186Z" transform="translate(-67.162 -52.518)" fill="none" stroke="#141313" stroke-width="2"/>
            <path id="패스_5585" data-name="패스 5585" d="M108.636,87.8a31.582,31.582,0,0,0,10.093-4.381c2.934-2.092,5.211-5.052,5.681-8.365.952,3.477,3.981,6.349,7.621,7.917a24.537,24.537,0,0,0,11.847,1.558,23.76,23.76,0,0,0,5.347-1.071c-4.785-8.108-14.865-13.187-25.731-12.063s-19.313,8.1-21.8,16.955a14.364,14.364,0,0,0,6.943-.554" transform="translate(-84.89 -59.466)" fill="#131210"/>
            <path id="패스_5586" data-name="패스 5586" d="M95.97,83.446a10.191,10.191,0,0,1-1.89-.264,1.27,1.27,0,0,1-1.036-1.467c0-.023.009-.047.014-.07,2.693-9.576,11.948-16.778,23.031-17.915S138.1,67.71,143.267,76.475a1.145,1.145,0,0,1,.071,1.04,1.362,1.362,0,0,1-.831.736A25.288,25.288,0,0,1,136.8,79.4a26.1,26.1,0,0,1-12.628-1.68,15.814,15.814,0,0,1-6.744-5.312A16.2,16.2,0,0,1,112.4,78.01a32.53,32.53,0,0,1-10.572,4.6,19.038,19.038,0,0,1-5.855.831m24.545-17.3a26.917,26.917,0,0,0-4.087.108c-9.374.969-17.284,6.78-20.141,14.654a16.587,16.587,0,0,0,4.684-.728,29.677,29.677,0,0,0,9.613-4.152,11.79,11.79,0,0,0,5.16-7.534,1.375,1.375,0,0,1,1.347-1.109,1.43,1.43,0,0,1,1.479.976c.8,2.924,3.361,5.567,6.849,7.067a22.915,22.915,0,0,0,11.067,1.436,24.5,24.5,0,0,0,3.377-.538c-4.176-5.991-11.493-9.788-19.348-10.179" transform="translate(-77.655 -53.068)" fill="#131210"/>
            <path id="패스_5587" data-name="패스 5587" d="M307.116,21.278q1.474,1.293,2.956,2.579a4.077,4.077,0,0,0,.324.252c.162.116.331.223.5.322.065.038.13.075.2.111a10.143,10.143,0,0,0,2.113.859q.441.124.888.215c.149.031.3.059.45.088.727.124,1.454.241,2.181.358.323.053.647.1.969.158a.98.98,0,0,0,.188.02.248.248,0,0,0,.125-.035c.049-.15-.042-.283-.088-.418q-1.045-3.065-2.1-6.128c-.088-.264-.187-.534-.277-.8a.78.78,0,0,0-.112-.213.852.852,0,0,0-.24-.225,1.085,1.085,0,0,0-.129-.075,1.242,1.242,0,0,0-.917-.088c-.045.012-.088.027-.135.044-1.153.44-2.312.869-3.469,1.3l-3.219,1.209a.826.826,0,0,0-.415.212c.028.13.128.188.2.254" transform="translate(-256.199 -15.198)" fill="#47494b"/>
            <path id="패스_5588" data-name="패스 5588" d="M270.672,18.065c-.185-.03-.366-.065-.546-.106a7.522,7.522,0,0,1-3.391-1.7c-2.818-2.486-5.655-4.95-8.485-7.424-.088-.08-.176-.163-.276-.238a.2.2,0,0,0-.149-.055.111.111,0,0,0-.057.031.216.216,0,0,0-.045.069,1.322,1.322,0,0,0-.06.164q-.3,1.115-.612,2.23-.542,1.955-1.088,3.91c-.181.659-.352,1.321-.545,1.977-.088.289.028.3.255.322.185.014.37.023.556.034l.17.01a30.607,30.607,0,0,1,4.138.6c.36.077.718.159,1.076.251q.852.217,1.692.486a29.327,29.327,0,0,1,3.016,1.154c.206.088.41.187.616.283.612.289,1.217.592,1.827.881.017.008.031.016.048.023a21.69,21.69,0,0,1,2.8,1.64q.716.49,1.4,1.014a29.966,29.966,0,0,1,3.811,3.475c.071.078.145.154.224.225a.11.11,0,0,0,.041.026.121.121,0,0,0,.123-.025.452.452,0,0,0,.051-.049c.021-.026.043-.054.063-.082q.755-1.067,1.51-2.138l.922-1.3q1.036-1.469,2.067-2.943a5.277,5.277,0,0,0,.405-.579,1.409,1.409,0,0,0,.1-.248c-.191-.04-.338-.075-.487-.1L270.67,18.065" transform="translate(-213.19 -7.129)" fill="#47494b"/>
            <path id="패스_5589" data-name="패스 5589" d="M277.018,12.465a.793.793,0,0,0-.455-.513,1.248,1.248,0,0,0-.181-.069,2.61,2.61,0,0,0-.352-.071l-.943-.154c-.778-.128-1.585-.264-2.377-.382a13.034,13.034,0,0,1-1.8-.379c-.433-.133-.817-.264-1.173-.406a.931.931,0,0,1-.592-.63c-.454-1.364-.93-2.746-1.39-4.081q-.4-1.153-.792-2.31a2.76,2.76,0,0,0-.5-.915,1.788,1.788,0,0,0-1.806-.645,4.338,4.338,0,0,0-.631.19l-1.3.486c-1.673.624-3.406,1.27-5.107,1.922a.94.94,0,0,1-.859-.074,12.288,12.288,0,0,1-2.046-1.419c-.528-.472-1.071-.944-1.548-1.36l-.323-.283c-.414-.362-.843-.735-1.275-1.1a.853.853,0,0,0-.92-.188.89.89,0,0,0-.469.616l-.141.519q-.164.6-.329,1.2-.21.761-.423,1.52c-.28,1-.57,2.044-.847,3.07-.056.205-.122.409-.195.616l-.816,3.018h.012a30.122,30.122,0,0,1,7.189.764,25.59,25.59,0,0,1,3.175.873,18.669,18.669,0,0,1,3.046,1.263,8.023,8.023,0,0,0,.741.366,15.741,15.741,0,0,1,2.553,1.525,33.167,33.167,0,0,1,5.241,4.464c.556.587,1.075,1.2,1.565,1.822l1.39-1.948a8.461,8.461,0,0,1,.77-1.279c.149-.2.295-.406.44-.61l2.692-3.82c.088-.119.168-.237.254-.352.128-.176.257-.357.382-.539a.841.841,0,0,0,.151-.711M257.665,5.635q1.608-.607,3.218-1.21c1.156-.433,2.316-.861,3.469-1.3a1.379,1.379,0,0,1,.134-.044,1.275,1.275,0,0,1,1.046.165.846.846,0,0,1,.239.226.764.764,0,0,1,.113.213c.088.264.185.535.276.8q1.051,3.062,2.1,6.124c.047.136.138.264.088.417a.25.25,0,0,1-.125.035.871.871,0,0,1-.188-.02l-.969-.157c-.727-.118-1.455-.235-2.181-.358q-.225-.04-.45-.088-.449-.088-.887-.216a10.093,10.093,0,0,1-2.113-.859c-.065-.036-.131-.074-.2-.112a5.918,5.918,0,0,1-.5-.322c-.112-.079-.221-.161-.325-.251Q258.929,7.4,257.453,6.1c-.076-.067-.176-.123-.2-.254a.832.832,0,0,1,.416-.213m17.914,7.484a5.061,5.061,0,0,1-.4.58q-1.028,1.471-2.068,2.942l-.921,1.3q-.754,1.072-1.512,2.139a.813.813,0,0,1-.063.081.53.53,0,0,1-.049.05.125.125,0,0,1-.124.025.136.136,0,0,1-.04-.026c-.078-.072-.153-.148-.225-.225a29.739,29.739,0,0,0-3.81-3.475q-.684-.528-1.4-1.014a21.469,21.469,0,0,0-2.8-1.64l-.046-.024c-.611-.29-1.216-.594-1.828-.881q-.3-.144-.616-.283a28.947,28.947,0,0,0-3.016-1.153q-.837-.271-1.688-.488c-.352-.088-.716-.176-1.075-.25a30.336,30.336,0,0,0-4.138-.6l-.171-.011c-.185-.011-.371-.02-.556-.034-.227-.017-.339-.033-.254-.321.192-.656.363-1.321.545-1.977q.542-1.957,1.088-3.91c.206-.743.408-1.486.616-2.229a1.041,1.041,0,0,1,.058-.165.232.232,0,0,1,.046-.069.111.111,0,0,1,.057-.03.2.2,0,0,1,.149.055c.1.075.185.157.276.239,2.829,2.472,5.666,4.938,8.484,7.423a7.528,7.528,0,0,0,3.383,1.7q.269.061.545.106c3.724.612,7.448,1.207,11.173,1.81.149.024.295.059.486.1a1.4,1.4,0,0,1-.1.248" transform="translate(-206.537 -0.023)" fill="#141313"/>
            <path id="패스_5590" data-name="패스 5590" d="M186.892,208.255a28.342,28.342,0,0,0-.676-7.731c-7.462,18.583-20.125,28.421-45.531,24.629a30.691,30.691,0,0,0,17.563,6.147c15.145.768,27.871-7.65,28.643-23.048" transform="translate(-117.439 -167.391)" fill="#e7e6e3"/>
            <path id="패스_5591" data-name="패스 5591" d="M140.587,255c-.017,2.088-2.547,3.761-5.654,3.736s-5.61-1.737-5.594-3.824,2.547-3.762,5.654-3.737,5.611,1.737,5.594,3.825" transform="translate(-107.968 -209.671)" fill="#edc8de"/>
            <path id="패스_5592" data-name="패스 5592" d="M316.523,259.534c-.017,2.088-2.548,3.761-5.654,3.736s-5.61-1.736-5.594-3.824,2.547-3.762,5.654-3.737,5.611,1.737,5.594,3.825" transform="translate(-254.834 -213.457)" fill="#edc8de"/>
            <path id="패스_5593" data-name="패스 5593" d="M263.222,284.51l-2.129.363c-1.968,8.149-5.636,16.52-14.594,18.708a18.739,18.739,0,0,1-2.257.4c-.69.081-1.4.137-2.144.15a28,28,0,0,1-7.212,14.648,31.059,31.059,0,0,1-16.239,8.857c1.557.1,3.244.15,5.074.157,11.513.042,17.434-1.786,20.358-4.636.014-.017.031-.032.045-.048l.009-.008a9.285,9.285,0,0,0,2.547-6.956q0-.314-.009-.626c-.072-2.1-.066-4.2,0-6.3,25.941-1.285,16.554-24.718,16.554-24.718" transform="translate(-182.519 -237.498)" fill="#33775c"/>
            <path id="패스_5594" data-name="패스 5594" d="M442.678,253.94a3.942,3.942,0,1,0,2.231-5.5,4.214,4.214,0,0,0-2.231,5.5" transform="translate(-369.299 -207.231)" fill="#fff"/>
            <path id="패스_5595" data-name="패스 5595" d="M442.678,253.94a3.942,3.942,0,1,0,2.231-5.5A4.214,4.214,0,0,0,442.678,253.94Z" transform="translate(-369.299 -207.231)" fill="none" stroke="#131212" stroke-linecap="round" stroke-linejoin="round" stroke-width="2"/>
            <path id="패스_5596" data-name="패스 5596" d="M443.872,282.07l.8,3.569,8.582-1.459-1.013-3.609Z" transform="translate(-370.529 -234.211)" fill="#fef3ee"/>
            <path id="패스_5597" data-name="패스 5597" d="M443.872,282.07l.8,3.569,8.582-1.459-1.013-3.609Z" transform="translate(-370.529 -234.211)" fill="none" stroke="#131212" stroke-linecap="round" stroke-linejoin="round" stroke-width="2"/>
          </g>
        </g>
        <g id="그룹_3093" data-name="그룹 3093">
          <g id="그룹_3092" data-name="그룹 3092" clip-path="url(#clip-path-2)">
            <path id="패스_5598" data-name="패스 5598" d="M229.7,221.134c-.125,2.448-3.062,4.291-6.56,4.117s-6.234-2.3-6.108-4.751,3.062-4.291,6.561-4.117,6.234,2.3,6.108,4.751" transform="translate(-181.167 -180.62)" fill="#36925c"/>
            <path id="패스_5599" data-name="패스 5599" d="M307.657,181.517l-10.2,5.012,10.038,3.383" transform="translate(-248.306 -151.525)" fill="none" stroke="#131212" stroke-linecap="round" stroke-linejoin="round" stroke-width="2"/>
            <path id="패스_5600" data-name="패스 5600" d="M145.238,188.386l10.747,3.724-9.539,4.587" transform="translate(-121.24 -157.258)" fill="none" stroke="#131212" stroke-linecap="round" stroke-linejoin="round" stroke-width="2"/>
            <path id="패스_5601" data-name="패스 5601" d="M226.216,294.966c-1.96,3.038-5.137,3.038-7.1,0-1.96,3.038-5.137,3.038-7.1,0" transform="translate(-176.99 -246.228)" fill="none" stroke="#131212" stroke-linecap="round" stroke-linejoin="round" stroke-width="2"/>
            <path id="패스_5602" data-name="패스 5602" d="M228.329,294.966c-1.426,2.211-3.495,2.8-5.272,1.8l1.812,6.7a3.585,3.585,0,0,0,6.921,0l1.812-6.7c-1.777,1.006-3.846.413-5.272-1.8" transform="translate(-186.201 -246.228)" fill="#e16049"/>
            <path id="패스_5603" data-name="패스 5603" d="M228.329,294.966c-1.426,2.211-3.495,2.8-5.272,1.8l1.812,6.7a3.585,3.585,0,0,0,6.921,0l1.812-6.7C231.824,297.774,229.755,297.18,228.329,294.966Z" transform="translate(-186.201 -246.228)" fill="none" stroke="#131212" stroke-linecap="round" stroke-linejoin="round" stroke-width="2"/>
          </g>
        </g>
      </g>
    </g>
  </g>
</svg>
