<svg xmlns="http://www.w3.org/2000/svg" width="61" height="22" viewBox="0 0 61 22">
  <g id="그룹_3786" data-name="그룹 3786" transform="translate(-482 -559)">
    <g id="그룹_3780" data-name="그룹 3780" transform="translate(-8)">
      <g id="사각형_5524" data-name="사각형 5524" transform="translate(533 559)" fill="#fff" stroke="#000" stroke-width="1">
        <rect width="18" height="22" rx="2" stroke="none"/>
        <rect x="0.5" y="0.5" width="17" height="21" rx="1.5" fill="none"/>
      </g>
      <rect id="사각형_5525" data-name="사각형 5525" width="10" height="10" rx="1" transform="translate(537 563)" fill="#31b5ca" opacity="0.3"/>
      <g id="사각형_5526" data-name="사각형 5526" transform="translate(539 576)" fill="#fff" stroke="#000" stroke-width="1">
        <rect width="6" height="1" stroke="none"/>
        <rect x="0.5" y="0.5" width="5" fill="none"/>
      </g>
    </g>
    <g id="그룹_3778" data-name="그룹 3778" transform="translate(-3)">
      <rect id="사각형_5527" data-name="사각형 5527" width="7" height="1" transform="translate(516 570)" fill="#9a9a9a"/>
      <rect id="사각형_5528" data-name="사각형 5528" width="1" height="7" transform="translate(519 567)" fill="#9a9a9a"/>
    </g>
    <g id="그룹_3781" data-name="그룹 3781">
      <g id="사각형_5520" data-name="사각형 5520" transform="translate(482 559)" fill="#fff" stroke="#000" stroke-width="1">
        <rect width="26" height="18" rx="2" stroke="none"/>
        <rect x="0.5" y="0.5" width="25" height="17" rx="1.5" fill="none"/>
      </g>
      <g id="사각형_5521" data-name="사각형 5521" transform="translate(490 576)" fill="#fff" stroke="#000" stroke-width="1">
        <rect width="10" height="5" stroke="none"/>
        <rect x="0.5" y="0.5" width="9" height="4" fill="none"/>
      </g>
      <g id="사각형_5522" data-name="사각형 5522" transform="translate(485 580)" fill="#fff" stroke="#000" stroke-width="1">
        <rect width="20" height="1" stroke="none"/>
        <rect x="0.5" y="0.5" width="19" fill="none"/>
      </g>
      <rect id="사각형_5523" data-name="사각형 5523" width="18" height="10" rx="1" transform="translate(486 563)" fill="#31b5ca" opacity="0.3"/>
    </g>
  </g>
</svg>
