<svg xmlns="http://www.w3.org/2000/svg" xmlns:xlink="http://www.w3.org/1999/xlink" width="18" height="17" viewBox="0 0 18 17">
  <defs>
    <clipPath id="clip-path">
      <rect id="사각형_4172" data-name="사각형 4172" width="18" height="17" fill="#8c9197"/>
    </clipPath>
  </defs>
  <g id="그룹_3090" data-name="그룹 3090" transform="translate(0 0)" opacity="0.5">
    <g id="그룹_3089" data-name="그룹 3089" transform="translate(0 0)" clip-path="url(#clip-path)">
      <path id="패스_5738" data-name="패스 5738" d="M16.618,17H1.382A1.381,1.381,0,0,1,0,15.623V1.377A1.381,1.381,0,0,1,1.382,0H11.807a2.9,2.9,0,0,1,1.841.761l3.59,3.577A2.889,2.889,0,0,1,18,6.173v9.45A1.381,1.381,0,0,1,16.618,17M1.382,1.033a.35.35,0,0,0-.345.344V15.623a.35.35,0,0,0,.345.345H16.618a.35.35,0,0,0,.346-.345V6.173a1.891,1.891,0,0,0-.459-1.1l-3.59-3.577a1.893,1.893,0,0,0-1.108-.458Z" transform="translate(0 0)" fill="#8c9197"/>
      <path id="패스_5739" data-name="패스 5739" d="M13,15.832H3.745a.518.518,0,0,1-.518-.516V7.38a.517.517,0,0,1,.518-.516H13a.516.516,0,0,1,.518.516v7.935a.517.517,0,0,1-.518.516M4.264,14.8h8.222V7.9H4.264Z" transform="translate(0.561 1.168)" fill="#8c9197"/>
      <path id="패스_5740" data-name="패스 5740" d="M10.165,3.507H2.794a.632.632,0,0,1-.587-.665V.665A.632.632,0,0,1,2.794,0h7.371a.632.632,0,0,1,.587.665V2.842a.632.632,0,0,1-.587.665" transform="translate(0.384 0)" fill="#8c9197"/>
    </g>
  </g>
</svg>
