<svg xmlns="http://www.w3.org/2000/svg" xmlns:xlink="http://www.w3.org/1999/xlink" width="24" height="24" viewBox="0 0 24 24">
  <defs>
    <clipPath id="clip-path">
      <rect id="사각형_5824" data-name="사각형 5824" width="24" height="24" fill="none" stroke="rgba(255,87,87,0)" stroke-width="1"/>
    </clipPath>
  </defs>
  <g id="그룹_3909" data-name="그룹 3909" transform="translate(-88 -2271)">
    <path id="패스_6274" data-name="패스 6274" d="M12,0A12,12,0,1,1,0,12,12,12,0,0,1,12,0Z" transform="translate(88 2271)" fill="#94fdd1"/>
    <g id="그룹_3908" data-name="그룹 3908" transform="translate(88 2271)">
      <g id="그룹_3908-2" data-name="그룹 3908" clip-path="url(#clip-path)">
        <circle id="타원_611" data-name="타원 611" cx="11.2" cy="11.2" r="11.2" transform="translate(0.8 0.8)" fill="none" stroke="#333" stroke-linecap="round" stroke-linejoin="round" stroke-width="1.5"/>
        <path id="패스_6271" data-name="패스 6271" d="M15.6,15.323a5.794,5.794,0,0,1-8.122.071" transform="translate(0.499 1.022)" fill="none" stroke="#333" stroke-linecap="round" stroke-linejoin="round" stroke-width="1.5"/>
        <path id="패스_6272" data-name="패스 6272" d="M8.875,9.426A1.357,1.357,0,1,1,7.516,8.068,1.359,1.359,0,0,1,8.875,9.426" transform="translate(0.411 0.538)" fill="#333" stroke="rgba(0,0,0,0)" stroke-width="1"/>
        <path id="패스_6273" data-name="패스 6273" d="M16.511,9.426a1.357,1.357,0,1,1-1.358-1.358,1.358,1.358,0,0,1,1.358,1.358" transform="translate(0.92 0.538)" fill="#333" stroke="rgba(0,0,0,0)" stroke-width="1"/>
      </g>
    </g>
  </g>
</svg>
