<svg xmlns="http://www.w3.org/2000/svg" width="100" height="31.004" viewBox="0 0 100 31.004">
  <g id="그룹_1334" data-name="그룹 1334" transform="translate(-112.326 -402.495)">
    <path id="패스_11" data-name="패스 11" d="M128.641,443.971a10.513,10.513,0,0,1,.171-1.864H120.47a2.946,2.946,0,0,1-2.939-2.939l.677-7.349a10.061,10.061,0,0,0-3.841-.741,10.565,10.565,0,0,0-1.324.087l-.7,7.545-.021.228v.23a8.173,8.173,0,0,0,8.144,8.144h8.724a10.234,10.234,0,0,1-.553-3.341" transform="translate(0 -13.813)" fill="#fff"/>
    <path id="패스_12" data-name="패스 12" d="M153.354,424.9l-.532-5.782-.807-8.762a8.168,8.168,0,0,0-8.14-7.858H122.5a8.172,8.172,0,0,0-8.139,7.858l-.646,7a10.541,10.541,0,0,1,1.324-.087,10.076,10.076,0,0,1,3.841.741l.417-4.529.262-2.838a2.939,2.939,0,0,1,2.939-2.94h21.38a2.937,2.937,0,0,1,2.939,2.94l.819,8.877.539,5.839a2.94,2.94,0,0,1-2.942,2.939H129.48a10.519,10.519,0,0,0-.171,1.864,10.234,10.234,0,0,0,.553,3.341H145.23a8.154,8.154,0,0,0,8.146-8.144v-.23Z" transform="translate(-0.669 0)" fill="#fff"/>
    <path id="패스_13" data-name="패스 13" d="M258.433,427.515h6.37v8.024h-6.37Zm1.882,6.268h2.606V429.27h-2.606Zm10.251-.037h-1.94v7.583h-1.912V426.062h1.912V431.9h1.94Z" transform="translate(-71.46 -11.389)" fill="#fff"/>
    <path id="패스_14" data-name="패스 14" d="M297.008,439.893H285.792v-1.739h11.216Zm-7.93,5.759h6.817v1.672h-8.712v-4.087h6.482v-.827h-6.5v-1.638h8.379v4h-6.47Z" transform="translate(-84.682 -17.233)" fill="#fff"/>
    <path id="패스_15" data-name="패스 15" d="M293.425,426.029c-2.17,0-3.43.951-3.43,2.761,0,1.792,1.259,2.761,3.43,2.761s3.443-.969,3.443-2.761c0-1.81-1.258-2.761-3.443-2.761m0,4.115c-1.064,0-1.682-.475-1.682-1.354s.617-1.353,1.682-1.353,1.687.466,1.687,1.353-.617,1.354-1.687,1.354" transform="translate(-86.713 -11.373)" fill="#fff"/>
    <path id="패스_16" data-name="패스 16" d="M236.221,434.289a4.768,4.768,0,0,1-2.885-2.542,5.141,5.141,0,0,1-3.036,3.03l-.9-1.568a4.505,4.505,0,0,0,2.968-4.293h-2.5V427.3h6.811v1.614h-2.462a3.963,3.963,0,0,0,2.872,3.82Zm5.472-4.68v1.824h-1.766v3.833h-1.911v-9.237h1.911v3.58Z" transform="translate(-57.158 -11.373)" fill="#fff"/>
    <path id="패스_17" data-name="패스 17" d="M239.8,444.49c-2.284,0-3.607,1-3.607,2.9,0,1.885,1.323,2.9,3.607,2.9s3.62-1.018,3.62-2.9c0-1.9-1.324-2.9-3.62-2.9m0,4.326c-1.119,0-1.767-.5-1.767-1.424s.649-1.422,1.767-1.422,1.773.489,1.773,1.422-.647,1.424-1.773,1.424" transform="translate(-60.442 -20.295)" fill="#fff"/>
    <path id="패스_18" data-name="패스 18" d="M214.116,434.714v1.722h-4.7v1.908h-1.91v-1.908h-5.034v-1.722Zm-.623-5.81H203.036v-1.672h4.3V425.9h1.91v1.334h4.251Zm-7.721,10.621h7.013v1.723h-8.924v-3.867h1.91Z" transform="translate(-44.009 -11.31)" fill="#fff"/>
    <path id="패스_19" data-name="패스 19" d="M210.536,432.27c-2.111,0-3.334.854-3.334,2.48,0,1.61,1.223,2.48,3.334,2.48s3.344-.87,3.344-2.48c0-1.626-1.223-2.48-3.344-2.48m0,3.7c-1.034,0-1.634-.427-1.634-1.215s.6-1.215,1.634-1.215,1.639.418,1.639,1.215-.6,1.215-1.639,1.215" transform="translate(-46.294 -14.389)" fill="#fff"/>
  </g>
</svg>
