<svg xmlns="http://www.w3.org/2000/svg" xmlns:xlink="http://www.w3.org/1999/xlink" width="83" height="112.647" viewBox="0 0 83 112.647">
  <defs>
    <clipPath id="clip-path">
      <rect id="사각형_4048" data-name="사각형 4048" width="83" height="112.647" fill="none"/>
    </clipPath>
  </defs>
  <g id="그룹_2709" data-name="그룹 2709" transform="translate(-1350 -837)">
    <g id="그룹_2708" data-name="그룹 2708" transform="translate(1350 837)">
      <g id="그룹_2707" data-name="그룹 2707" clip-path="url(#clip-path)">
        <path id="패스_3105" data-name="패스 3105" d="M80.08,41.718,47.858,34.929,60.222,4.269a3.423,3.423,0,0,1,3.884-2.046l14.715,3.1a3.372,3.372,0,0,1,2.7,3.431Z" transform="matrix(0.996, 0.087, -0.087, 0.996, -20.734, -6.3)" fill="#3e3e3e"/>
        <path id="패스_3106" data-name="패스 3106" d="M78.913,41.784c-.03,0-.061-.009-.091-.015L46.6,34.981a1.128,1.128,0,0,1-.76-.564,1.1,1.1,0,0,1-.054-.936L58.151,2.822A4.552,4.552,0,0,1,63.32.1L78.036,3.2a4.476,4.476,0,0,1,3.587,4.568L80.186,40.729a1.109,1.109,0,0,1-.437.833,1.141,1.141,0,0,1-.837.223M48.38,33.079l29.607,6.238L79.366,7.671a2.248,2.248,0,0,0-1.8-2.3l-14.715-3.1a2.272,2.272,0,0,0-2.6,1.368Z" transform="matrix(0.996, 0.087, -0.087, 0.996, -19.807, -5.178)" fill="#181613"/>
        <path id="패스_3107" data-name="패스 3107" d="M68.782,54.578c-1.412,7.047-17.451,8.516-35.824,3.282S.835,42.67,2.247,35.623,19.7,27.106,38.071,32.341s32.123,15.19,30.711,22.237" transform="translate(5.985 -14.09)" fill="#3e3e3e"/>
        <path id="패스_3108" data-name="패스 3108" d="M42.172,60.191A87.322,87.322,0,0,1,31.705,57.9c-9.029-2.558-17.259-6.312-23.174-10.57-6.21-4.472-9.2-9.091-8.407-13.008s5.214-6.438,12.459-7.1c6.9-.628,15.671.434,24.7,2.992S54.543,36.53,60.458,40.789c6.21,4.472,9.2,9.091,8.407,13.008-1.387,6.882-13.36,8.442-26.693,6.393M26.3,30.066a57.047,57.047,0,0,0-13.576-.619c-6.273.571-10.2,2.538-10.776,5.4s2.178,6.717,7.555,10.589c5.752,4.142,13.791,7.8,22.636,10.308,19.467,5.515,33.761,3.18,34.9-2.458.576-2.857-2.178-6.717-7.555-10.589-5.752-4.142-13.791-7.8-22.636-10.308A87.919,87.919,0,0,0,26.3,30.066" transform="translate(7.005 -13.05)" fill="#181613"/>
        <path id="패스_3109" data-name="패스 3109" d="M56.19,198q.566,2.444,1.11,4.891a.919.919,0,0,1,0,.6,1.127,1.127,0,0,1-.443.4,13.792,13.792,0,0,0-2.316,1.845.42.42,0,0,0-.168.306c.02.209.322.273.556.282q4.163.157,8.332.024a1.8,1.8,0,0,0,.835-.162,1.429,1.429,0,0,0,.546-1.227l.586-7.478" transform="translate(-25.817 -95.273)" fill="#fff"/>
        <path id="패스_3110" data-name="패스 3110" d="M54.8,197.507q.343,1.48.677,2.962.17.753.338,1.506l.074.329c.013.056.025.113.037.17,0,.017.019.143.006.035.016.129.034.009.034-.049,0,.012-.092.063-.043.038s-.1.062-.117.073a15.312,15.312,0,0,0-2.25,1.749,2.386,2.386,0,0,0-.473.532.957.957,0,0,0,.061,1.042,1.574,1.574,0,0,0,1.308.486q3.123.113,6.249.062.794-.012,1.587-.036a3.26,3.26,0,0,0,1.475-.254c.915-.489.925-1.568.995-2.461q.271-3.448.541-6.9a.743.743,0,0,0-.745-.734.758.758,0,0,0-.745.734q-.225,2.865-.45,5.73l-.11,1.408c-.009.113-.017.227-.027.34,0,.044-.008.088-.012.132,0,.009-.015.12,0,.036s-.005.027-.007.037c-.009.044-.017.089-.028.132s-.024.086-.037.129c-.018.064-.035.071,0,.008-.021.038-.041.076-.066.112.007-.01.06-.092.013-.023-.059.086.082-.053-.007.011-.055.04-.011.019.01.008a.967.967,0,0,1-.148.043s-.124.024-.056.013-.082.005-.1.006c-.066,0-.132.006-.2.009-.479.017-.958.027-1.438.037q-2.9.057-5.8-.025l-.694-.022c-.116,0-.231-.007-.347-.012-.013,0-.183-.012-.072,0s-.086-.011-.082-.023.1.055.1.057c.209.149-.117.834.113.655a2.942,2.942,0,0,0,.212-.208q.235-.224.481-.437a11.191,11.191,0,0,1,.914-.72,6.5,6.5,0,0,0,1.1-.787,1.672,1.672,0,0,0,.234-1.626q-.173-.777-.348-1.553-.355-1.576-.72-3.15a.756.756,0,0,0-.917-.513.746.746,0,0,0-.52.9" transform="translate(-25.149 -94.588)" fill="#181613"/>
        <path id="패스_3111" data-name="패스 3111" d="M69.984,199.5q.566,2.444,1.11,4.891a.919.919,0,0,1,0,.6,1.127,1.127,0,0,1-.443.4,13.792,13.792,0,0,0-2.316,1.845.419.419,0,0,0-.168.306c.02.209.322.273.556.282q4.163.157,8.332.024a1.8,1.8,0,0,0,.835-.162,1.429,1.429,0,0,0,.546-1.227l.586-7.478" transform="translate(-32.367 -95.998)" fill="#fff"/>
        <path id="패스_3112" data-name="패스 3112" d="M68.6,199.009q.343,1.48.677,2.962.17.753.338,1.506l.074.329c.013.056.025.113.037.17,0,.017.019.143.006.035.016.129.034.009.034-.049,0,.012-.092.063-.043.038s-.1.062-.117.073a15.31,15.31,0,0,0-2.25,1.749,2.387,2.387,0,0,0-.473.532.957.957,0,0,0,.061,1.042,1.574,1.574,0,0,0,1.308.486q3.123.113,6.249.062.794-.012,1.587-.036a3.259,3.259,0,0,0,1.475-.254c.915-.489.925-1.568.995-2.462q.271-3.448.541-6.9a.743.743,0,0,0-.745-.734.758.758,0,0,0-.745.734q-.225,2.865-.45,5.73l-.11,1.408c-.009.113-.017.227-.027.34,0,.044-.008.088-.012.132,0,.009-.015.12,0,.036s-.005.027-.007.037c-.009.044-.017.089-.028.132s-.024.086-.037.129c-.018.064-.035.071,0,.008-.021.038-.041.076-.066.112.007-.01.06-.092.013-.023-.059.086.082-.053-.007.011-.055.04-.011.019.011.008a.967.967,0,0,1-.148.043s-.124.024-.056.013-.082.005-.1.006c-.066,0-.132.006-.2.009-.479.017-.958.027-1.438.037q-2.9.057-5.8-.025l-.694-.022c-.116,0-.231-.007-.347-.012-.013,0-.183-.012-.072,0s-.086-.011-.082-.023.1.055.1.057c.209.149-.117.834.113.655a2.946,2.946,0,0,0,.212-.208q.235-.224.481-.437a11.2,11.2,0,0,1,.914-.72,6.5,6.5,0,0,0,1.1-.787,1.672,1.672,0,0,0,.234-1.626q-.173-.777-.348-1.553-.355-1.576-.72-3.15a.756.756,0,0,0-.917-.513.746.746,0,0,0-.52.9" transform="translate(-31.699 -95.313)" fill="#181613"/>
        <path id="패스_3113" data-name="패스 3113" d="M66.521,136.768l-2.373.122a7.908,7.908,0,0,0,1.246-4.94A40.406,40.406,0,0,0,63.325,120.5l-9.949,1.3.023-1.055c-1.476-.317-2.5.517-3.351,1.488l-.43.056c-.108.275-.208.552-.311.829a26.275,26.275,0,0,1-3.529,3.525c-.773.636-2.022,1.2-2.668.435a5.292,5.292,0,0,0-.46-.647c-.49-.427-1.248-.052-1.777.326l-3.06,2.186a2.717,2.717,0,0,0-.815.773,2.658,2.658,0,0,0-.235,1.409,12.965,12.965,0,0,0,.45,3.819,7.153,7.153,0,0,0,6.383,4.711,7.356,7.356,0,0,0,2.975-.513q-1.111,6.341-2.224,12.682a56.243,56.243,0,0,0-1.1,9.219,2.855,2.855,0,0,0,.223,1.357c.474.91,1.684,1.106,2.719,1.192l6.579.546c4.631.385,9.329.767,13.9-.068a3.421,3.421,0,0,0,1.18-.379c.928-.567,1.135-1.79,1.223-2.863a65.01,65.01,0,0,0-2.553-24.052" transform="translate(-17.456 -58.133)" fill="#c1e2f1"/>
        <path id="패스_3114" data-name="패스 3114" d="M65.844,135.346l-2.373.122.644,1.106a9.243,9.243,0,0,0,1.316-6.057,41.6,41.6,0,0,0-.988-7.079Q64,121.5,63.368,119.614a.754.754,0,0,0-.719-.539l-3.351.436-5.37.7-1.227.159.745.735q.012-.528.023-1.055a.742.742,0,0,0-.547-.708,3.657,3.657,0,0,0-2.422.3,5.74,5.74,0,0,0-1.654,1.374l.527-.215-.43.056a.8.8,0,0,0-.718.539c-.107.275-.209.552-.312.828l.192-.324a26.706,26.706,0,0,1-2.485,2.617q-.313.286-.634.563-.169.146-.341.288c.029-.025-.189.152-.1.083.049-.038-.127.09-.15.106a4.6,4.6,0,0,1-.559.317c-.2.1.124-.032-.083.033-.044.013-.087.03-.131.043s-.108.029-.163.042c-.032.008-.065.014-.1.02q.136-.016.006,0c-.038,0-.086,0-.125,0-.176.017.122.048-.043,0-.037-.011-.077-.021-.114-.032.146.04.032.021-.011-.012-.091-.07.112.131-.022-.013-.029-.032-.063-.06-.09-.094.086.109-.045-.089-.047-.091-.038-.062-.072-.126-.113-.187a1.639,1.639,0,0,0-1.724-.734,3.751,3.751,0,0,0-1.492.745l-1.569,1.121c-.532.38-1.074.749-1.594,1.147a2.467,2.467,0,0,0-1.014,1.524,9.214,9.214,0,0,0-.048,1.872,16.382,16.382,0,0,0,.168,1.937,7.571,7.571,0,0,0,3.323,5.157,7.918,7.918,0,0,0,7.242.8l-.917-.9q-.695,3.964-1.39,7.927c-.46,2.624-.951,5.245-1.36,7.877-.206,1.327-.385,2.66-.493,4q-.076.954-.1,1.911a4.6,4.6,0,0,0,.208,1.862,3.1,3.1,0,0,0,2.585,1.7c1.265.192,2.559.243,3.834.348,2.651.22,5.3.471,7.958.623a44.725,44.725,0,0,0,7.867-.132c.692-.083,1.386-.179,2.07-.314a3.335,3.335,0,0,0,1.618-.739,4.35,4.35,0,0,0,1.143-2.9,56.732,56.732,0,0,0,.21-7.558,65.982,65.982,0,0,0-2.253-15.18q-.243-.9-.512-1.787a.761.761,0,0,0-.917-.513.743.743,0,0,0-.521.9,64.2,64.2,0,0,1,2.608,14.4,64.835,64.835,0,0,1,.056,7.376q-.045.9-.115,1.807c-.02.255-.04.51-.071.764.016-.129,0-.008,0,.016-.011.07-.022.14-.035.21-.021.116-.045.231-.074.346s-.06.225-.1.335c-.015.044-.032.086-.047.13-.072.2.068-.112-.033.075-.048.089-.093.178-.148.262-.03.047-.06.093-.095.137.092-.119-.046.043-.056.052-.039.04-.08.077-.122.114-.091.081.142-.081-.038.028-.044.026-.086.054-.13.079.013-.007-.226.1-.122.062a4.362,4.362,0,0,1-.808.2c-4.972.913-10.154.336-15.174-.08l-3.878-.322c-.569-.047-1.142-.079-1.708-.151.165.021-.065-.011-.08-.013l-.139-.024c-.114-.021-.229-.046-.342-.075s-.221-.061-.329-.1c-.043-.015-.085-.031-.127-.048.141.058-.035-.021-.064-.036a2.08,2.08,0,0,1-.276-.17c.111.083.02.014,0-.006-.044-.046-.091-.09-.135-.136-.024-.025-.07-.109,0,0-.03-.046-.059-.092-.086-.14-.059-.106.044.154-.036-.078-.027-.077-.045-.155-.064-.234a1.472,1.472,0,0,1-.032-.292c-.006-.123-.006-.246-.006-.37,0-.333.011-.666.024-1,.05-1.239.176-2.5.339-3.712.339-2.519.824-5.022,1.264-7.526l1.339-7.638.329-1.874a.758.758,0,0,0-.192-.715.741.741,0,0,0-.725-.189,7.868,7.868,0,0,1-1.672.445,6.32,6.32,0,0,1-.874.048q-.187,0-.375-.013c-.072,0-.143-.01-.215-.018-.031,0-.237-.028-.087-.008a6.867,6.867,0,0,1-1.357-.331q-.152-.054-.3-.113c.139.055-.079-.035-.086-.038l-.13-.06q-.325-.152-.633-.336c-.205-.122-.4-.256-.6-.394-.015-.011-.111-.084-.02-.014-.047-.037-.093-.074-.139-.112q-.152-.124-.3-.256-.25-.227-.477-.478-.108-.119-.21-.241c.01.012-.134-.17-.074-.092.029.037.02.024-.028-.038-.028-.038-.056-.076-.083-.114q-.184-.259-.343-.535c-.059-.1-.114-.206-.168-.311-.021-.042-.041-.084-.062-.127s-.04-.085-.059-.128c.023.056.025.061.005.013a7.112,7.112,0,0,1-.435-1.59,13.977,13.977,0,0,1-.132-1.729q-.013-.429-.018-.858c0-.122,0-.244,0-.366,0,.028.018-.237.008-.144-.008.044-.005.024.01-.061.01-.052.022-.1.036-.155a1.235,1.235,0,0,1,.049-.151c-.04.092.038-.055.049-.075.07-.115-.1.1.053-.074.036-.039.074-.078.112-.114a5.27,5.27,0,0,1,.635-.483l1.53-1.093c.5-.355.983-.743,1.5-1.062a2.987,2.987,0,0,1,.338-.182c-.093.041.134-.038.173-.052l.07-.016c-.082.007-.079.007.009,0,.078-.058.068.09,0-.011l.065.014c-.064-.033-.072-.037-.025-.012s.04.02-.008-.017q.089.1.027.012c.165.2.263.439.434.635a1.751,1.751,0,0,0,.724.477,2.3,2.3,0,0,0,1.516-.052,8.951,8.951,0,0,0,3.013-2.228q.722-.7,1.389-1.448a9.071,9.071,0,0,0,.667-.784,5.143,5.143,0,0,0,.445-1.079l-.719.539a1.9,1.9,0,0,0,.882-.214,4.69,4.69,0,0,0,.466-.477c.142-.142.291-.275.446-.4.092-.076-.08.056.015-.013.038-.027.076-.054.114-.08.076-.052.154-.1.234-.146s.161-.086.244-.126-.084.025.045-.018l.131-.044c.089-.027.18-.047.271-.068.057-.013.092-.016.013-.007.048-.006.1-.009.145-.012a2.734,2.734,0,0,1,.338,0c.014,0,.15.015.1.007s.145.029.142.028l-.547-.709q-.012.528-.023,1.055a.742.742,0,0,0,.745.734l3.351-.436,5.37-.7,1.227-.16L61.93,120a40.7,40.7,0,0,1,1.612,6.621c.166,1.07.286,2.177.361,3.284a15.614,15.614,0,0,1-.008,3.125c0-.034.017-.108-.007.046-.013.08-.026.16-.04.24q-.036.2-.082.4a7.256,7.256,0,0,1-.221.769,3.783,3.783,0,0,1-.265.621,5.43,5.43,0,0,1-.452.725.739.739,0,0,0,.643,1.106l2.373-.122a.734.734,0,1,0,0-1.469" transform="translate(-16.78 -57.444)" fill="#181613"/>
        <path id="패스_3115" data-name="패스 3115" d="M58.159,160.115a68.727,68.727,0,0,0-.308,7.655,7.047,7.047,0,0,0,2.7.048.306.306,0,0,0,.3-.375,61.009,61.009,0,0,0-.282-7.317" transform="translate(-27.466 -77.246)" fill="#c1e2f1"/>
        <path id="패스_3116" data-name="패스 3116" d="M56.741,159.43a69.628,69.628,0,0,0-.308,7.655.747.747,0,0,0,.547.708,8.094,8.094,0,0,0,3,.064,1.074,1.074,0,0,0,.944-1.1c.025-.5.015-1,.014-1.494q-.009-2.917-.3-5.823a.756.756,0,0,0-.745-.734.748.748,0,0,0-.745.734q.252,2.567.29,5.148.009.651,0,1.3c0,.193,0,.386-.007.579a1.4,1.4,0,0,0-.008.35c-.057-.2.521-.382.245-.395a5.4,5.4,0,0,0-.546.065q-.28.019-.562.016a5.887,5.887,0,0,1-1.2-.129l.547.709a69.63,69.63,0,0,1,.307-7.655.742.742,0,0,0-.745-.734.76.76,0,0,0-.745.734" transform="translate(-26.793 -76.561)" fill="#181613"/>
        <path id="패스_3117" data-name="패스 3117" d="M66.053,160.645a21.59,21.59,0,0,0,.568,3.848c.107.441.145,1.048-.287,1.2a1.108,1.108,0,0,1-.49.01,3.4,3.4,0,0,0-1.561.2" transform="translate(-30.524 -77.502)" fill="#c1e2f1"/>
        <path id="패스_3118" data-name="패스 3118" d="M64.632,159.96a23.45,23.45,0,0,0,.584,4c.013.055.023.111.037.165.035.136,0-.065.006.023,0,.052.009.105.01.158,0,0,0,.2,0,.086s-.019.055-.019.075c.04-.08.048-.1.022-.049s-.014.033.039-.041l.068-.047q-.113.057.033,0c.18-.053-.029-.023-.083-.027a4.582,4.582,0,0,0-1.925.211.736.736,0,1,0,.4,1.417,2.813,2.813,0,0,1,.922-.193,6.035,6.035,0,0,0,1.05,0,1.4,1.4,0,0,0,.972-1.6c-.066-.7-.284-1.379-.4-2.068a20.244,20.244,0,0,1-.23-2.116.745.745,0,0,0-1.49,0" transform="translate(-29.85 -76.817)" fill="#181613"/>
        <path id="패스_3119" data-name="패스 3119" d="M62.073,125.387a7.472,7.472,0,0,1,.933,1.868,9.459,9.459,0,0,0,.506,1.423,1.765,1.765,0,0,0,1.118.96,2.334,2.334,0,0,0,1.75-.569,13.747,13.747,0,0,0,3.477-3.531" transform="translate(-29.475 -60.492)" fill="#fff"/>
        <path id="패스_3120" data-name="패스 3120" d="M60.752,125.075a7.855,7.855,0,0,1,1.03,2.246,3.385,3.385,0,0,0,1.458,2.144,2.615,2.615,0,0,0,2.7-.347,13.916,13.916,0,0,0,2.016-1.644,14.854,14.854,0,0,0,1.871-2.249.736.736,0,0,0-.267-1.005.766.766,0,0,0-1.02.263,13.245,13.245,0,0,1-2.9,3.045,5.785,5.785,0,0,1-.946.607,1.314,1.314,0,0,1-.184.068c-.025.007-.211.051-.133.04a.935.935,0,0,1-.252,0c.091.014-.2-.079-.065-.017a1.028,1.028,0,0,1-.507-.478,4.013,4.013,0,0,1-.369-.949,9,9,0,0,0-1.141-2.469.77.77,0,0,0-1.02-.263.736.736,0,0,0-.267,1.005" transform="translate(-28.798 -59.809)" fill="#181613"/>
        <path id="패스_3121" data-name="패스 3121" d="M63.465,139.7a29.63,29.63,0,0,0,1.064,8.02.242.242,0,0,1-.01.218.239.239,0,0,1-.1.061,3.821,3.821,0,0,1-3.264-.163,1.848,1.848,0,0,1-.754-.678,2.066,2.066,0,0,1-.208-.9,7.233,7.233,0,0,1,.2-2.127" transform="translate(-28.579 -67.397)" fill="#c1e2f1"/>
        <path id="패스_3122" data-name="패스 3122" d="M62.046,139.014a30.481,30.481,0,0,0,.283,4.236c.1.7.212,1.4.355,2.1q.1.508.227,1.013.061.252.127.5c.024.09.044.185.073.274l.025.091c0-.1-.006-.107-.012-.025l.1-.371c.113-.222.37-.238.133-.154-.065.023-.13.044-.2.064-.132.039-.266.067-.4.094a1.724,1.724,0,0,1-.294.028,3.772,3.772,0,0,1-.412,0,3.05,3.05,0,0,1-1.334-.425c-.045-.028-.091-.056-.133-.088.074.055-.1-.09-.093-.087a.513.513,0,0,1-.161-.235c.025.063-.01-.055-.012-.061s-.049-.219-.036-.137a3.268,3.268,0,0,1-.027-.393,6.5,6.5,0,0,1,.176-1.792.745.745,0,0,0-.52-.9.759.759,0,0,0-.917.513,8.383,8.383,0,0,0-.235,1.856,3.27,3.27,0,0,0,.361,1.8,3.776,3.776,0,0,0,3.012,1.424,4.366,4.366,0,0,0,1.655-.253,1.1,1.1,0,0,0,.794-.683,2,2,0,0,0-.137-1.016,28.894,28.894,0,0,1-.665-3.37,29.668,29.668,0,0,1-.251-4,.745.745,0,0,0-1.49,0" transform="translate(-27.905 -66.712)" fill="#181613"/>
        <path id="패스_3123" data-name="패스 3123" d="M59.419,138.037a12.8,12.8,0,0,0-1.75,5.137,3.475,3.475,0,0,0,.417,2.832,2.794,2.794,0,0,0,2.581.862l0-4.364a4.528,4.528,0,0,1,.619-2.788" transform="translate(-27.332 -66.595)" fill="#c1e2f1"/>
        <path id="패스_3124" data-name="패스 3124" d="M58.1,136.983a12.868,12.868,0,0,0-1.742,4.812,7.908,7.908,0,0,0-.183,2.358,3.07,3.07,0,0,0,1.289,2.2,3.677,3.677,0,0,0,2.726.539.741.741,0,0,0,.547-.709q0-1.914,0-3.83c0-.555-.007-1.11.043-1.663,0-.026.006-.053.009-.08-.007.049-.007.048,0,0s.022-.132.036-.2a3.682,3.682,0,0,1,.1-.387c.017-.051.034-.1.054-.151-.029.077.032-.068.039-.082a2.9,2.9,0,0,1,.236-.387.735.735,0,0,0-.267-1,.767.767,0,0,0-1.02.264,5.823,5.823,0,0,0-.721,3.5l0,4.024.547-.708c-.135.023.037,0-.1.011-.075,0-.15.008-.225.007s-.175-.006-.263-.014,0,0,.012,0c-.049-.008-.1-.018-.148-.028a3.054,3.054,0,0,1-.427-.124c.1.038-.092-.045-.122-.06q-.112-.057-.217-.125c-.03-.02-.162-.124-.076-.051-.053-.046-.1-.091-.154-.14a1.394,1.394,0,0,1-.137-.151c.025.033.038.063-.022-.041-.025-.045-.054-.086-.078-.131-.014-.025-.088-.19-.051-.1-.027-.07-.05-.141-.07-.212s-.036-.144-.051-.217c0,0-.023-.123-.01-.05s-.012-.13-.012-.125a5.085,5.085,0,0,1,.03-.95c0-.017.02-.172.01-.092s.008-.052.008-.052c.012-.078.024-.156.036-.233q.043-.271.092-.541a16.233,16.233,0,0,1,.528-2.143,9.027,9.027,0,0,1,1.041-2.193.738.738,0,0,0-.267-1.005.764.764,0,0,0-1.02.263" transform="translate(-26.66 -65.912)" fill="#181613"/>
        <path id="패스_3125" data-name="패스 3125" d="M61.406,136.23c-.582-3.2,2.01-2.8,4.357-2.674.49.026.983.052,1.468.126a7.647,7.647,0,0,1,2.2.682,1.358,1.358,0,0,1,.6.46,1.3,1.3,0,0,1,.142.68,5.981,5.981,0,0,1-.329,1.987,1.694,1.694,0,0,1-1.057,1.211,1.982,1.982,0,0,1-1.173-.224l-3.529-1.469a.351.351,0,0,0-.236-.039c-.1.031-.144.134-.2.219a1.1,1.1,0,0,1-1.4.3,1.75,1.75,0,0,1-.838-1.262" transform="translate(-29.119 -64.392)" fill="#c1e2f1"/>
        <path id="패스_3126" data-name="패스 3126" d="M61.457,135.336c-.009-.05-.017-.1-.025-.15,0,.031.013.127,0-.019-.008-.079-.016-.157-.021-.235a4.077,4.077,0,0,1,0-.481c.011-.191-.024.083,0-.042.015-.064.026-.128.044-.192s.039-.1.051-.154c.02-.091-.074.128-.023.053.02-.028.033-.064.05-.095s.064-.133.091-.139c-.045.01-.113.128,0,.01.033-.034.069-.063.1-.1.083-.084-.042.044-.056.04.014,0,.072-.049.084-.056.04-.025.081-.049.124-.071.024-.012.05-.023.075-.036.1-.052-.049.048-.062.024,0,0,.306-.1.335-.1.052-.012.1-.023.157-.034.026,0,.243-.034.111-.02s.059-.005.1-.009c.075-.007.15-.012.225-.016.274-.014.548-.012.822,0,.638.02,1.277.064,1.915.105a7.84,7.84,0,0,1,2.515.537,4.6,4.6,0,0,1,.521.253,1.017,1.017,0,0,1,.13.083c-.067-.056.018.026.02.034s-.026-.039-.029-.047c-.024-.045.033.107.038.131-.022-.1.006.167.006.2,0,.107,0,.215-.007.322a4.284,4.284,0,0,1-.071.626,6.084,6.084,0,0,1-.167.669c-.029.092-.061.183-.094.274-.04.112.043-.089-.007.022-.025.054-.051.108-.08.161a2.386,2.386,0,0,1-.13.213c-.066.1.066-.068-.013.017-.031.034-.063.066-.1.1-.058.057.006,0,.019-.007a1.249,1.249,0,0,1-.115.071c-.034.021-.118.033-.011.005-.1.025-.01.013-.081.017a3.362,3.362,0,0,1-1.127-.375l-1.357-.565-1.583-.659a1.143,1.143,0,0,0-1.087-.031,1.1,1.1,0,0,0-.364.377c-.011.018-.08.129-.026.055s-.058.056-.065.063c.018-.017.11-.1,0-.009-.057.047-.061.02.008,0l-.12.034c-.145.039.048.02-.022,0a.439.439,0,0,0-.128,0c-.082.007.132.043-.023-.009-.04-.014-.081-.022-.121-.039.075.032.059.024,0-.012-.12-.076-.049-.029-.023-.008a1.175,1.175,0,0,1-.128-.121c-.012-.012-.1-.126-.055-.062s-.063-.107-.06-.1c-.024-.041-.046-.084-.067-.127.035.07.007.02-.007-.023a2.913,2.913,0,0,1-.092-.345.745.745,0,0,0-1.437.391,2.364,2.364,0,0,0,1.564,1.856,1.928,1.928,0,0,0,1.174-.037,1.745,1.745,0,0,0,.59-.348,1.69,1.69,0,0,0,.241-.284,1.132,1.132,0,0,0,.067-.1q.107-.161-.1.1l-.377.1a.2.2,0,0,1-.049-.024.85.85,0,0,0,.181.076l.317.132.679.282,1.357.565c.927.386,1.949,1,2.963.561a2.892,2.892,0,0,0,1.4-2.05,6.956,6.956,0,0,0,.217-1.466,2.245,2.245,0,0,0-.281-1.389,2.513,2.513,0,0,0-1.144-.809,8.726,8.726,0,0,0-1.356-.469,14.5,14.5,0,0,0-2.645-.307,8.437,8.437,0,0,0-3.236.146,2.324,2.324,0,0,0-1.389,1.142,3.788,3.788,0,0,0-.171,2.332.745.745,0,0,0,1.437-.391" transform="translate(-28.452 -63.694)" fill="#181613"/>
        <path id="패스_3127" data-name="패스 3127" d="M65.321,132.77a5.627,5.627,0,0,0-.223,4.045.745.745,0,0,0,1.437-.39c-.064-.279-.124-.559-.169-.843-.007-.043-.014-.087-.02-.13.012.086.013.086,0,0-.006-.066-.014-.131-.019-.2-.012-.142-.018-.284-.018-.426s.006-.267.018-.4c0-.03.005-.226,0-.049a1.082,1.082,0,0,1,.04-.212,3.263,3.263,0,0,1,.109-.384c.019-.055.069-.17.016-.052.034-.075.071-.147.111-.219a.741.741,0,0,0-.267-1.005.763.763,0,0,0-1.02.263" transform="translate(-30.786 -63.882)" fill="#181613"/>
        <path id="패스_3128" data-name="패스 3128" d="M55.2,135.515q.414,1.847.827,3.694a.745.745,0,0,0,1.437-.391q-.413-1.847-.827-3.694a.745.745,0,0,0-1.437.391" transform="translate(-26.202 -64.928)" fill="#181613"/>
        <path id="패스_3129" data-name="패스 3129" d="M77.689,130.933a17.84,17.84,0,0,1-1.728,1.762.732.732,0,0,0,0,1.039.77.77,0,0,0,1.054,0,17.841,17.841,0,0,0,1.728-1.762.781.781,0,0,0,.218-.519.742.742,0,0,0-.218-.52.755.755,0,0,0-.527-.215.737.737,0,0,0-.527.215" transform="translate(-35.967 -63.063)" fill="#181613"/>
        <path id="패스_3130" data-name="패스 3130" d="M56.859,128.3a1.28,1.28,0,0,0-.044,1.161c.116.323.248.641.391.953a9.977,9.977,0,0,0,.885,1.548.766.766,0,0,0,1.019.264.738.738,0,0,0,.268-1.005,10.028,10.028,0,0,1-.8-1.358,2.41,2.41,0,0,0-.153-.334l.013.031c-.014-.032-.027-.065-.04-.1-.026-.065-.052-.13-.077-.2-.043-.111-.086-.224-.121-.337-.02-.065-.031-.245-.019-.021,0-.081-.005-.058-.017.069-.056.109-.064.129-.022.063a.734.734,0,0,0-.267-1.005.769.769,0,0,0-1.02.263" transform="translate(-26.923 -61.726)" fill="#181613"/>
        <path id="패스_3131" data-name="패스 3131" d="M69.429,170.173a1.467,1.467,0,0,1-1.439-1.424c-.061-1.9-.174-3.9-.336-5.943a2.982,2.982,0,0,1-.485.04,2.786,2.786,0,0,1-1.829-.67,2.606,2.606,0,0,1-.878-2.091,16.418,16.418,0,0,1,.166-1.866,22.927,22.927,0,0,1,.426-2.282c-1.566.08-3.141.121-4.7.121-2.09,0-4.2-.073-6.277-.217a1.466,1.466,0,0,1-1.414-1.411,1.411,1.411,0,0,1,.411-1.035,1.435,1.435,0,0,1,1.018-.446l.091,0c1.362.1,2.734.159,4.078.192.717.018,1.443.026,2.159.026a88.183,88.183,0,0,0,12.111-.832,1.841,1.841,0,0,1,.26-.019,1.45,1.45,0,0,1,1.451,1.048,1.491,1.491,0,0,1-.208,1.21,1.3,1.3,0,0,1-.91.587c-.267.037-.541.074-.824.111a5.007,5.007,0,0,1,1.654,2.7,4.311,4.311,0,0,1-.041,2.1,2.527,2.527,0,0,1-.663,1.185,1.815,1.815,0,0,1-1.1.473l1.071,3.638a1.4,1.4,0,0,1-.132,1.095,1.476,1.476,0,0,1-.89.694,1.445,1.445,0,0,1-.382.051,1.493,1.493,0,0,1-.972-.362q.045.939.074,1.858a1.466,1.466,0,0,1-1.434,1.469l-.061,0" transform="translate(-25.007 -73.485)" fill="#c4381f"/>
        <path id="패스_3132" data-name="패스 3132" d="M72.12,152.367a.7.7,0,0,1,.733.508.715.715,0,0,1-.5.876c-1,.14-2.007.259-3.013.368a5.591,5.591,0,0,1,1.325.655,4.448,4.448,0,0,1,1.893,2.669,3.568,3.568,0,0,1-.03,1.743,1.829,1.829,0,0,1-.455.85,1.069,1.069,0,0,1-.735.278,1.292,1.292,0,0,1-.422-.072A3.048,3.048,0,0,1,70.4,160q.72,2.442,1.439,4.884a.72.72,0,0,1-.5.875.709.709,0,0,1-.184.025.741.741,0,0,1-.7-.522q-.706-2.4-1.413-4.8c.229,2.519.393,5.044.474,7.572a.727.727,0,0,1-.722.712h-.028a.731.731,0,0,1-.694-.713c-.075-2.313-.218-4.623-.416-6.929a2.3,2.3,0,0,1-1.15.315,2.052,2.052,0,0,1-1.342-.491,1.879,1.879,0,0,1-.62-1.522,15.724,15.724,0,0,1,.16-1.784,21.814,21.814,0,0,1,.667-3.171q-2.836.178-5.679.178-3.114,0-6.224-.216a.735.735,0,0,1-.722-.712.725.725,0,0,1,.684-.713h.038q2.054.143,4.113.194,1.087.026,2.176.026a88.692,88.692,0,0,0,12.216-.839,1.143,1.143,0,0,1,.156-.011m-6.1,7.413h0c-.014-.038-.015-.052-.011-.052s.056.082.044.082h0a1.157,1.157,0,0,1,.091.086c.039.025.079.048.121.071l0,0a1.806,1.806,0,0,0,.194.048.386.386,0,0,1,.053,0l.1,0c.038-.011.078-.018.116-.03s.075-.029.083-.033c.03-.016.061-.031.09-.049s.059-.037.088-.057.037-.029.044-.036c.061-.06.123-.119.179-.184l.028-.038c.025-.039.051-.078.075-.118q.052-.089.1-.182l.008-.025c.016-.05.028-.1.043-.151q-.135-1.332-.3-2.662a6.829,6.829,0,0,0-.543-1.159,19.726,19.726,0,0,0-.5,2.425c-.066.492-.111.986-.139,1.481-.007.127-.014.254-.009.381a.494.494,0,0,0,.043.2m5.111-1c.016-.058.033-.116.047-.176l.009-.039c0-.037.008-.075.01-.112a2.831,2.831,0,0,0,0-.378c0-.008,0-.036,0-.061s-.02-.127-.019-.127a3.481,3.481,0,0,0-.166-.57A.07.07,0,0,1,71,157.3h0l-.019-.037c-.027-.053-.052-.106-.08-.158q-.076-.141-.162-.276a1.742,1.742,0,0,0-.305-.387,3.312,3.312,0,0,0-1-.732,3.123,3.123,0,0,0-.445-.2c.269.564.542,1.126.832,1.678.1.2.214.394.333.583.056.089.114.177.175.263l.067.091.032.04a3.781,3.781,0,0,0,.455.459l.019.017.023.014c.038.025.075.051.113.075s.063.034.095.052m.247.116s.006,0,0,0h0m-.359.18a.293.293,0,0,0,.041-.07c-.033.022-.052.046-.042.069h0m-3.622.256s0-.009.012-.036a.277.277,0,0,0-.012.036m-1.076.655a.319.319,0,0,0-.051-.018.262.262,0,0,0,.051.018m5.8-9.09a2.7,2.7,0,0,0-.364.025,87.3,87.3,0,0,1-12.008.824c-.71,0-1.43-.008-2.139-.025-1.328-.032-2.689-.1-4.044-.19-.048,0-.1-.005-.143-.005a2.188,2.188,0,0,0-1.557.672,2.143,2.143,0,0,0-.617,1.576,2.214,2.214,0,0,0,2.106,2.111c2.092.146,4.221.219,6.329.219,1.249,0,2.509-.026,3.767-.077q-.137.7-.233,1.408a16.9,16.9,0,0,0-.173,1.948,3.325,3.325,0,0,0,1.136,2.662,3.573,3.573,0,0,0,2.112.843c.132,1.786.226,3.528.28,5.2a2.212,2.212,0,0,0,2.184,2.135l.095,0A2.208,2.208,0,0,0,71,167.994q-.012-.371-.026-.745c.059,0,.119.007.18.007a2.207,2.207,0,0,0,1.922-1.12,2.118,2.118,0,0,0,.2-1.659l-.719-2.442-.141-.479a2.535,2.535,0,0,0,.679-.449,3.223,3.223,0,0,0,.87-1.521,5.04,5.04,0,0,0,.053-2.453,5.5,5.5,0,0,0-.943-2.071,2.1,2.1,0,0,0,.918-.769,2.228,2.228,0,0,0,.3-1.808,2.176,2.176,0,0,0-2.17-1.588" transform="translate(-24.333 -72.8)" fill="#181613"/>
        <path id="패스_3133" data-name="패스 3133" d="M82.966,134.664q1.3,3.077,2.705,6.109c.494,1.065,1.126,2.607,2.168,3.245a3.118,3.118,0,0,0,2.129.331,5.369,5.369,0,0,0,4.046-3.743,8.153,8.153,0,0,0-.5-5.619,19.145,19.145,0,0,0-3.239-4.767c-1.412-1.627-3.723-5.217-6.3-4.208-2.175.852-2.734,2.366-2.037,4.532" transform="translate(-38.772 -60.709)" fill="#c1e2f1"/>
        <path id="패스_3134" data-name="패스 3134" d="M81.588,134.186q1.157,2.741,2.395,5.449c.327.714.641,1.439,1,2.138a6.17,6.17,0,0,0,1.3,1.818,4.256,4.256,0,0,0,4.869.2,6.4,6.4,0,0,0,2.884-3.561,8.442,8.442,0,0,0-.157-5.305,15.742,15.742,0,0,0-2.716-4.665c-.461-.581-.956-1.132-1.424-1.707-.385-.474-.763-.953-1.162-1.416a8.148,8.148,0,0,0-3.183-2.5,4.019,4.019,0,0,0-3.9.907,3.686,3.686,0,0,0-1.176,3.534,6.51,6.51,0,0,0,.236.987.763.763,0,0,0,.917.513.741.741,0,0,0,.52-.9,6.989,6.989,0,0,1-.227-.924c0-.013-.016-.119,0-.027s0-.033-.005-.056c-.006-.07-.012-.14-.015-.21a3.591,3.591,0,0,1,0-.4c0-.03.022-.234.009-.124s.012-.063.018-.091a2.781,2.781,0,0,1,.106-.385c.009-.024.02-.049.028-.074.029-.1-.064.117-.013.031.026-.045.046-.095.071-.141a3.174,3.174,0,0,1,.216-.334c-.085.117-.008.013.04-.04s.076-.081.116-.121.1-.092.147-.136.206-.157.081-.069a4.954,4.954,0,0,1,.79-.456c.029-.013.19-.082.087-.04.07-.028.14-.055.212-.079s.132-.04.2-.056.256-.044.085-.025a2.573,2.573,0,0,1,.363-.016c.065,0,.129.011.194.013-.166-.006,0,0,.076.018a2.939,2.939,0,0,1,.351.1c.058.02.2.077.061.018q.107.046.211.1a5.629,5.629,0,0,1,.718.444c.114.081-.061-.053.048.037l.172.14q.185.155.36.32c.223.209.436.428.643.653.775.841,1.463,1.757,2.2,2.626a18.463,18.463,0,0,1,2.67,3.893,8.235,8.235,0,0,1,.85,4.465,6.559,6.559,0,0,1-.236,1.052q-.071.22-.159.436c.047-.115-.042.089-.056.119-.041.086-.085.171-.131.256q-.112.2-.239.4c-.046.07-.093.139-.142.208-.02.03-.042.058-.063.087-.133.184.044-.052-.038.05a5.614,5.614,0,0,1-.7.718c-.063.054-.128.108-.193.158.088-.068-.053.036-.079.054a5.016,5.016,0,0,1-.453.281,4.429,4.429,0,0,1-.415.2c.119-.05-.087.03-.121.041q-.134.047-.272.085a4.535,4.535,0,0,1-.455.1s-.128.017-.063.009-.091.007-.1.008c-.109.008-.219.011-.328.009-.082,0-.164-.006-.246-.012-.134-.01.088.017-.045,0-.04-.006-.08-.014-.12-.022a2.767,2.767,0,0,1-.274-.071c-.039-.012-.077-.024-.115-.038.069.025-.027-.011-.045-.02a2.47,2.47,0,0,1-.241-.134c-.037-.023-.187-.139-.087-.055a3.567,3.567,0,0,1-.341-.323c-.055-.059-.107-.121-.159-.183-.075-.092.058.079-.013-.018l-.063-.086q-.147-.206-.276-.423a17.518,17.518,0,0,1-.882-1.763c-.747-1.621-1.482-3.248-2.188-4.886q-.249-.58-.494-1.161a.772.772,0,0,0-.917-.513.738.738,0,0,0-.52.9" transform="translate(-38.113 -60.035)" fill="#181613"/>
        <path id="패스_3135" data-name="패스 3135" d="M59.592,175.7q.208,5.489.228,10.983.006,1.556,0,3.111a.746.746,0,0,0,1.491,0q.033-5.493-.121-10.985-.044-1.555-.1-3.109a.745.745,0,0,0-1.49,0" transform="translate(-28.296 -84.409)" fill="#181613"/>
        <path id="패스_3136" data-name="패스 3136" d="M49.888,140.8l.039-.032-.329.189a.505.505,0,0,1-.551-.161q-.046-.123-.016-.026c.017.1.056.2.081.293.044.168.084.336.121.506a9.469,9.469,0,0,1,.168,1q.061.56.068,1.124c0,.173,0,.347,0,.52,0,.086-.012.173-.012.26-.01.105-.008.115.006.03q.2-.268.069-.154l.329-.189-.038.013h.4l-.035-.007.329.189-.03-.031a.761.761,0,0,0-1.054,0,.74.74,0,0,0,0,1.039.844.844,0,0,0,1.212-.024,1.424,1.424,0,0,0,.314-1.039,11.67,11.67,0,0,0-.07-1.817,13.015,13.015,0,0,0-.343-1.854,1.7,1.7,0,0,0-.435-.861.927.927,0,0,0-1.269-.008.729.729,0,0,0,0,1.039.775.775,0,0,0,1.054,0" transform="translate(-23.085 -67.307)" fill="#78b5cc"/>
        <path id="패스_3137" data-name="패스 3137" d="M70.311,173.74l1.823,10.7.515,3.024a.745.745,0,0,0,1.437-.391l-1.823-10.7-.515-3.024a.745.745,0,0,0-1.437.391" transform="translate(-33.38 -83.373)" fill="#78b5cc"/>
        <path id="패스_3138" data-name="패스 3138" d="M78.879,189.517a37.745,37.745,0,0,1,1.582,5.547.745.745,0,0,0,1.437-.39,37.771,37.771,0,0,0-1.582-5.548.767.767,0,0,0-.917-.513.739.739,0,0,0-.52.9" transform="translate(-37.439 -90.982)" fill="#78b5cc"/>
        <path id="패스_3139" data-name="패스 3139" d="M72.423,66.887c0,11.536-9.785,20.888-21.855,20.888S28.713,78.423,28.713,66.887,38.5,46,50.568,46c5.414,0,8.827,4.919,12.644,8.036a75.088,75.088,0,0,1,9.211,12.853" transform="translate(-13.634 -22.192)" fill="#fff"/>
        <path id="패스_3140" data-name="패스 3140" d="M72.423,66.887a20.357,20.357,0,0,1-4.341,12.5,22.053,22.053,0,0,1-17.514,8.392c-12.07,0-21.855-9.352-21.855-20.888S38.5,46,50.568,46c5.414,0,8.827,4.919,12.644,8.036A75.088,75.088,0,0,1,72.423,66.887Z" transform="translate(-13.634 -22.192)" fill="none" stroke="#181613" stroke-width="1.5"/>
        <path id="패스_3141" data-name="패스 3141" d="M43.717,99.023c-.008,1.416-1.747,2.554-3.884,2.543s-3.864-1.169-3.856-2.585,1.747-2.554,3.885-2.543,3.863,1.169,3.855,2.585" transform="translate(-17.083 -46.526)" fill="#f8d5e6"/>
        <path id="패스_3142" data-name="패스 3142" d="M81.809,99.918c-.008,1.416-1.747,2.554-3.884,2.543s-3.864-1.169-3.856-2.585,1.747-2.554,3.885-2.543,3.863,1.169,3.855,2.585" transform="translate(-35.171 -46.957)" fill="#f8d5e6"/>
        <path id="패스_3143" data-name="패스 3143" d="M45.836,82.738c-.641,2.933-3.17,4.884-5.65,4.358s-3.97-3.33-3.331-6.263,3.17-4.884,5.65-4.358,3.971,3.33,3.331,6.263" transform="translate(-17.43 -36.854)" fill="#181613"/>
        <path id="패스_3144" data-name="패스 3144" d="M48.669,80.906a.889.889,0,0,1-.627,1.1.906.906,0,0,1-1.115-.617.889.889,0,0,1,.627-1.1.905.905,0,0,1,1.114.617" transform="translate(-22.267 -38.719)" fill="#fff"/>
        <path id="패스_3145" data-name="패스 3145" d="M71.741,84.415c.641,2.933,3.17,4.884,5.65,4.358s3.971-3.33,3.331-6.263-3.17-4.884-5.65-4.358-3.971,3.33-3.331,6.263" transform="translate(-33.995 -37.663)" fill="#181613"/>
        <path id="패스_3146" data-name="패스 3146" d="M76.912,83.115a.889.889,0,0,1-.627,1.1.906.906,0,0,1-1.115-.617.889.889,0,0,1,.627-1.1.905.905,0,0,1,1.114.617" transform="translate(-35.678 -39.784)" fill="#fff"/>
        <path id="패스_3147" data-name="패스 3147" d="M62.754,94.155c-.077,1.465-1.847,2.564-3.953,2.456s-3.75-1.383-3.673-2.848,1.847-2.564,3.953-2.456,3.75,1.382,3.673,2.847" transform="translate(-26.176 -44.047)" fill="#2ea974"/>
        <path id="패스_3148" data-name="패스 3148" d="M63.5,108.244c-.116,2.049-2.22,3.6-4.7,3.462s-4.393-1.909-4.277-3.957,9.092-1.554,8.975.495" transform="translate(-25.889 -51.35)" fill="#e82218"/>
        <path id="패스_3149" data-name="패스 3149" d="M63.5,108.244c-.116,2.049-2.22,3.6-4.7,3.462s-4.393-1.909-4.277-3.957S63.617,106.2,63.5,108.244Z" transform="translate(-25.889 -51.35)" fill="none" stroke="#181613" stroke-width="1.5"/>
        <path id="패스_3150" data-name="패스 3150" d="M74.7,67.327a22.586,22.586,0,0,0-4.8-8.934,128.471,128.471,0,0,0-29.468-4.476,22.933,22.933,0,0,0-7.348,7.152A128.335,128.335,0,0,1,74.7,67.327" transform="translate(-15.712 -26.012)" fill="#2a2a2a"/>
        <path id="패스_3151" data-name="패스 3151" d="M73.538,67.393a1.138,1.138,0,0,1-.209-.047,126.66,126.66,0,0,0-41.244-6.2,1.133,1.133,0,0,1-1-.569,1.1,1.1,0,0,1,.032-1.141,24.17,24.17,0,0,1,7.708-7.5,1.143,1.143,0,0,1,.633-.166,129.714,129.714,0,0,1,29.731,4.516,1.136,1.136,0,0,1,.554.346A23.83,23.83,0,0,1,74.774,66a1.1,1.1,0,0,1-.315,1.1,1.14,1.14,0,0,1-.921.294M50.49,59.943a128.7,128.7,0,0,1,21.446,4.625,21.68,21.68,0,0,0-3.688-6.231A127.351,127.351,0,0,0,39.723,54a22.015,22.015,0,0,0-5.464,4.9,129.313,129.313,0,0,1,16.231,1.04" transform="translate(-14.691 -24.974)" fill="#181613"/>
        <path id="패스_3152" data-name="패스 3152" d="M76.55,55.237a23.194,23.194,0,0,0-29.468-4.476A128.471,128.471,0,0,1,76.55,55.237" transform="translate(-22.357 -22.856)" fill="#181613"/>
        <path id="패스_3153" data-name="패스 3153" d="M75.383,54.325a1.118,1.118,0,0,1-.158-.032A127.315,127.315,0,0,0,46.02,49.857a1.13,1.13,0,0,1-1.052-.827,1.107,1.107,0,0,1,.5-1.233,24.334,24.334,0,0,1,30.918,4.7,1.1,1.1,0,0,1,.1,1.323,1.135,1.135,0,0,1-1.1.508M58.058,48.6A129.51,129.51,0,0,1,71.63,51.074a22.123,22.123,0,0,0-21.2-3.22q3.825.26,7.632.746" transform="translate(-21.335 -21.346)" fill="#181613"/>
        <path id="패스_3154" data-name="패스 3154" d="M53.775,59.953l-.249.738a.793.793,0,0,0,.652,1.035l11.334,1.561a.8.8,0,0,0,.9-.642l.16-.862a.794.794,0,0,0-.687-.929L54.641,59.418a.8.8,0,0,0-.867.536" transform="translate(-25.397 -28.662)" fill="#5d4f4a"/>
        <path id="패스_3155" data-name="패스 3155" d="M90.763,75.116c.563,8.572-.226,17.647-4.82,24.871a3.906,3.906,0,0,0,3.307-1.754,11.549,11.549,0,0,0,1.557-3.619c1.849-6.224,3.431-12.608,3.509-19.1" transform="translate(-40.809 -36.239)" fill="#181613"/>
        <path id="패스_3156" data-name="패스 3156" d="M89.074,74.446c.045.694.088,1.589.112,2.391q.038,1.247.029,2.494c-.013,1.681-.1,3.363-.265,5.035A36.035,36.035,0,0,1,86.8,93.808a26.253,26.253,0,0,1-2.4,4.808.928.928,0,0,0,.679,1.434,4.908,4.908,0,0,0,4.239-2.33,17.262,17.262,0,0,0,1.943-5.036,87.976,87.976,0,0,0,2.61-11.433,49.077,49.077,0,0,0,.546-6.535.9.9,0,1,0-1.8-.123,54.085,54.085,0,0,1-1.35,10.875c-.4,1.794-.854,3.574-1.348,5.343q-.369,1.325-.763,2.644a18.058,18.058,0,0,1-.816,2.33,4.941,4.941,0,0,1-1.375,1.832c-.048.038-.1.075-.147.112-.088.063-.1.071-.035.024-.051.033-.1.065-.156.1a3.36,3.36,0,0,1-.571.27c.043-.015.131-.032-.034.006-.116.027-.229.058-.347.078-.013,0-.3.031-.112.021a2.952,2.952,0,0,1-.358-.008l.679,1.434c3.682-5.815,5-12.789,5.124-19.61.035-1.99-.035-3.977-.164-5.962a.9.9,0,0,0-1.06-.716.95.95,0,0,0-.707,1.086" transform="translate(-40.003 -35.384)" fill="#181613"/>
        <path id="패스_3157" data-name="패스 3157" d="M108.587,78.529a2.7,2.7,0,1,1-2.332-2.983,2.695,2.695,0,0,1,2.332,2.983" transform="translate(-49.006 -36.436)" fill="#ebc9a1"/>
        <path id="패스_3158" data-name="패스 3158" d="M104.394,80.895a3.777,3.777,0,1,1,4.292-3.259,3.791,3.791,0,0,1-4.292,3.259m.695-5.282a1.55,1.55,0,1,0,1.357,1.736,1.571,1.571,0,0,0-1.357-1.736" transform="translate(-47.985 -35.399)" fill="#181613"/>
        <path id="패스_3159" data-name="패스 3159" d="M17.664,127.369c-1.858-.571-2.643-2.229-2.874-4.012a2.485,2.485,0,0,1,.152-1.453c.475-.931,3.845-1.407,4.876-1.637.9-.2,1.63-.109,1.821.813a21.852,21.852,0,0,0,.733,3.141.793.793,0,0,0,.222.372.829.829,0,0,0,.614.09,47.164,47.164,0,0,0,11.928-3.559,2.067,2.067,0,0,0,1.167-.837c.167-.334.137-.735.281-1.08.529-1.254,2.425-.514,2.417.684a3,3,0,0,1-1.539,2.2,21.645,21.645,0,0,1-5.407,2.535,71.39,71.39,0,0,1-10.081,2.675,9.059,9.059,0,0,1-4.309.063" transform="translate(-7.004 -57.197)" fill="#6b4e3d"/>
        <path id="패스_3160" data-name="패스 3160" d="M17.192,125.975c-.058-.019-.116-.037-.173-.057-.03-.011-.175-.068-.054-.017-.085-.035-.169-.076-.25-.119q-.15-.078-.291-.169c-.037-.024-.073-.049-.11-.073-.173-.115.1.091-.057-.043a4.318,4.318,0,0,1-.417-.4l-.083-.1c-.133-.154.051.073-.021-.027s-.135-.192-.2-.292a5.235,5.235,0,0,1-.272-.514c-.012-.025-.052-.13,0,0-.016-.041-.033-.081-.048-.122-.039-.1-.075-.207-.109-.312-.06-.191-.111-.386-.154-.582-.024-.11-.046-.222-.065-.333-.008-.045-.015-.089-.022-.134-.037-.225.016.175-.012-.09a3.074,3.074,0,0,1-.015-.745c-.013.094.011-.039.013-.047.019-.066.033-.132.057-.2.043-.109,0,.048.019-.039s.133-.031-.045.046c.033-.014.067-.073.095-.1s.049-.038.07-.06c.061-.064-.164.1-.04.034s.24-.145.368-.206c.045-.022.269-.112.074-.037.074-.029.148-.058.223-.086.168-.061.339-.116.51-.167.363-.109.732-.2,1.1-.283.619-.139,1.243-.248,1.863-.374.132-.027.264-.052.4-.081.2-.043-.095,0,.025-.006.051,0,.1-.01.153-.012.1-.005.193,0,.289,0-.211,0,.044.032.088.032.08,0-.135-.086-.016-.006a.859.859,0,0,0,.085.051c-.123-.063-.077-.062-.035-.02.108.111-.03-.1,0-.009a.812.812,0,0,0,.07.12c-.064-.11-.006-.016.014.053.154.523.212,1.083.32,1.617a10.881,10.881,0,0,0,.445,1.656,1.523,1.523,0,0,0,.565.811,1.457,1.457,0,0,0,.919.2c.6-.053,1.2-.155,1.789-.26a40.193,40.193,0,0,0,6.712-1.9c1.1-.4,2.183-.827,3.265-1.262a6.19,6.19,0,0,0,1.479-.712,2.125,2.125,0,0,0,.8-1.427,2.689,2.689,0,0,1,.09-.39c-.038.115.037-.057.059-.1.07-.13-.072.04,0,.007a.5.5,0,0,0,.089-.084c-.011.01-.13.115-.035.033a.646.646,0,0,1,.062-.034q.076-.038-.071.027c.018-.024.269-.063.127-.04-.127.02.1.006.137.005.145,0-.06-.006-.055-.009s.1.021.119.026c.04.01.078.026.118.036.138.035-.128-.075,0,0l.174.1c.108.061-.012-.01-.029-.026.031.028.064.054.094.083.057.054.15.214.064.057.039.072.087.139.125.213-.092-.183,0,.052.014.108-.007-.027,0-.168-.011-.043,0,.041,0,.085,0,.127,0,.222.02-.064-.006.06-.013.06-.027.118-.045.176s-.03.093-.048.138c.049-.119-.05.085-.051.088a2.424,2.424,0,0,1-.184.281c-.082.109.112-.114-.051.058-.035.037-.068.076-.1.113q-.121.126-.252.242c-.048.043-.1.085-.148.127-.016.013-.18.143-.093.077a11.41,11.41,0,0,1-1.357.866,20.691,20.691,0,0,1-2.96,1.337A66.729,66.729,0,0,1,25.5,124.94q-1.717.437-3.455.789a16.621,16.621,0,0,1-3.32.459,4.976,4.976,0,0,1-1.534-.213.736.736,0,1,0-.4,1.417,8.67,8.67,0,0,0,3.807.093c1.246-.191,2.484-.462,3.712-.745a71.661,71.661,0,0,0,7.268-2.086,32.438,32.438,0,0,0,3.424-1.365,11.683,11.683,0,0,0,2.977-1.891,2.72,2.72,0,0,0,.942-2.917,2.262,2.262,0,0,0-2.053-1.345,1.793,1.793,0,0,0-1.251.508,1.932,1.932,0,0,0-.426.683,6.053,6.053,0,0,0-.178.779c.006-.024-.068.214-.035.139s-.075.122-.066.11c.078-.111-.2.163-.092.085a2.282,2.282,0,0,1-.288.168c-.056.028-.113.054-.17.081-.136.064.054-.019-.1.041q-.865.349-1.733.69a52.531,52.531,0,0,1-6.992,2.292c-.6.143-1.21.269-1.821.375-.306.053-.612.1-.92.143-.038,0-.215.028-.3.037-.06.006-.12.009-.181.013-.135.009-.02,0,.036.032.022.012.068.072.081.077l.007.021c-.02-.053-.039-.106-.058-.159-.052-.148-.1-.3-.143-.448-.086-.295-.158-.594-.223-.894-.126-.588-.2-1.193-.35-1.776a1.76,1.76,0,0,0-.88-1.16,2.5,2.5,0,0,0-1.515-.158c-.624.093-1.25.237-1.868.364a14.05,14.05,0,0,0-2.257.608,2.438,2.438,0,0,0-1.716,1.543,4.225,4.225,0,0,0,0,1.808,6.636,6.636,0,0,0,.339,1.294,4.977,4.977,0,0,0,1.7,2.32,4.533,4.533,0,0,0,1.313.642.736.736,0,1,0,.4-1.417" transform="translate(-6.334 -56.511)" fill="#181613"/>
        <path id="패스_3161" data-name="패스 3161" d="M34.99,133.629a3.639,3.639,0,0,1-1.035-1.27,4.491,4.491,0,0,1,.225-4.6,1.956,1.956,0,0,1,.864-.73,1,1,0,0,1,1.068.2,1.527,1.527,0,0,1,.245,1.138,1.611,1.611,0,0,1,.92-.795,1.122,1.122,0,0,1,1.1.334c.853-1.14,1.9.065,2.017-.042a.35.35,0,0,0,.068-.14.78.78,0,0,1,1.051-.341,1.534,1.534,0,0,1,.728.959c1.128,3.5-4.181,7.566-7.251,5.292" transform="translate(-15.874 -61.249)" fill="#fdd9cb"/>
        <path id="패스_3162" data-name="패스 3162" d="M34.841,132.429a3.3,3.3,0,0,1-1.157-1.719,4.726,4.726,0,0,1-.128-.517c-.009-.05-.018-.1-.026-.15.008.07.007.06,0-.031s-.015-.151-.019-.227a4.653,4.653,0,0,1,0-.605,1.807,1.807,0,0,1,.057-.4,3.194,3.194,0,0,1,.338-.948,3.139,3.139,0,0,1,.288-.445c-.058.072.114-.122.134-.142s.172-.152.082-.083c.024-.018.254-.148.156-.106.046-.019.288-.047.136-.043.04,0,.227.024.074-.008a1,1,0,0,1,.13.035q-.112-.048,0,.012-.092-.075,0,.013c-.033-.042-.036-.042-.009,0s.024.042,0-.01a1.323,1.323,0,0,1,.038.142c-.006-.072-.006-.063,0,.028,0,.051.005.1.006.153,0,.1,0,.2-.009.3a.753.753,0,0,0,1.389.371c.019-.033.125-.2.1-.171s.088-.1.111-.12.053-.051.08-.075q-.084.057.025-.016c.025-.014.205-.1.084-.053.006,0,.224-.079.1-.033.091,0,.1,0,.025-.01l.072.016c.152.021-.031-.019.1.036.072.05.085.053.036.012a1.3,1.3,0,0,1,.112.1.757.757,0,0,0,1.054,0c.05-.064.1-.124.159-.184.088-.1.046-.048.011-.022a.484.484,0,0,0,.081-.051c.007-.03.019-.014-.042.009.026-.01.054-.018.081-.026s.14-.009.036-.011.014,0,.034.007.053,0,.078,0c-.014,0-.138-.036-.071,0a1.487,1.487,0,0,0,.171.05c.129.039-.109-.063,0,0,.053.032.11.057.164.088a2.527,2.527,0,0,0,.533.282.8.8,0,0,0,.62-.068.859.859,0,0,0,.276-.269c.027-.043.173-.269.143-.316.016.026-.122.2-.034.092,0,.006-.105.076-.034.033l.025-.014c-.08.03-.094.037-.042.02,0-.01.076-.018.087-.021l-.039.006c-.049.006-.053.007-.009.005.006-.008.08,0,.09,0-.137-.008,0,.026-.055-.01-.1-.062.137.088.075.041s.148.155.06.049a1.286,1.286,0,0,1,.119.184c.018.032.034.065.05.1.055.112-.044-.148.024.062.035.109.069.217.1.329.014.061.025.122.036.183.032.172,0-.086,0,.04a5.882,5.882,0,0,1-.008.707c0,.084.009-.063.009-.065-.007.035-.011.069-.017.1-.009.052-.02.1-.032.155-.027.121-.06.241-.1.359-.019.06-.04.119-.062.178-.009.025-.071.182-.033.088s-.042.091-.052.111c-.027.057-.056.115-.087.171a5.289,5.289,0,0,1-.4.638l-.1.136c.106-.139-.018.019-.045.05q-.129.153-.269.3a6.3,6.3,0,0,1-.574.526c-.048.039-.135.1-.032.027-.054.04-.109.08-.164.119-.11.078-.223.152-.338.222a6.039,6.039,0,0,1-.683.362c-.065.029-.152.061-.031.015l-.158.061c-.122.045-.246.086-.372.122q-.213.061-.43.1c-.062.012-.126.02-.189.032-.085.016.061-.008.064-.008l-.135.013a4,4,0,0,1-.4.016c-.062,0-.124,0-.186-.007-.043,0-.247-.011-.139-.009s-.074-.012-.11-.019c-.07-.013-.139-.028-.207-.045-.129-.033-.252-.083-.38-.12-.079-.022.05.022.054.024l-.1-.044c-.066-.031-.13-.064-.193-.1a3.5,3.5,0,0,1-.373-.24.757.757,0,0,0-1.02.263.746.746,0,0,0,.267,1.005c1.736,1.263,4.132.792,5.788-.362,1.728-1.2,3.063-3.212,2.657-5.369a2.417,2.417,0,0,0-1.224-1.811,1.62,1.62,0,0,0-1.218-.063,1.451,1.451,0,0,0-.582.37,1.4,1.4,0,0,0-.194.267c-.034.064-.056.136-.086.2s-.085.1,0-.008l.267-.263a.678.678,0,0,1,.671-.013l-.021-.01a1.008,1.008,0,0,0-.088-.052c-.067-.04-.132-.083-.2-.123a2.629,2.629,0,0,0-.689-.3,1.777,1.777,0,0,0-1.842.651h1.054a1.911,1.911,0,0,0-1.824-.523,2.37,2.37,0,0,0-1.365,1.133l1.389.371a2.591,2.591,0,0,0-.206-1.295,1.543,1.543,0,0,0-1.048-.8,2.279,2.279,0,0,0-2.289,1.087,5.094,5.094,0,0,0-.615,4.5,4.69,4.69,0,0,0,1.518,2.294.778.778,0,0,0,1.054,0,.731.731,0,0,0,0-1.039" transform="translate(-15.199 -60.568)" fill="#181613"/>
      </g>
    </g>
  </g>
</svg>
