<svg xmlns="http://www.w3.org/2000/svg" width="72" height="60.75" viewBox="0 0 72 60.75">
  <g id="그룹_2694" data-name="그룹 2694" transform="translate(-263 -487.25)">
    <ellipse id="타원_124" data-name="타원 124" cx="36" cy="8.5" rx="36" ry="8.5" transform="translate(263 531)" fill="rgba(0,0,0,0.05)"/>
    <g id="그룹_1018" data-name="그룹 1018" transform="translate(277 488)">
      <g id="그룹_935" data-name="그룹 935" transform="translate(5.618 4.396)">
        <path id="패스_1072" data-name="패스 1072" d="M155.532,552.569v-3.94A3.859,3.859,0,0,1,158.125,545H125.287c-7.021,0-6.319,7.747-6.319,7.747V593.6h31.422a5.114,5.114,0,0,0,5.142-5.087V552.746S155.531,552.682,155.532,552.569Z" transform="translate(-118.949 -545)" fill="#fff" stroke="#000" stroke-linecap="round" stroke-width="1.5"/>
      </g>
      <path id="패스_1073" data-name="패스 1073" d="M175.007,580.249" transform="translate(-148.035 -562.565)" fill="#ffeb02" stroke="#000" stroke-width="2"/>
      <path id="패스_1074" data-name="패스 1074" d="M175.007,580.249" transform="translate(-148.035 -562.565)" fill="#ffeb02" stroke="#000" stroke-width="2"/>
      <g id="그룹_936" data-name="그룹 936" transform="translate(13.571)">
        <path id="패스_1075" data-name="패스 1075" d="M166.611,573.608l.874-4.668,4.681.807-7.138-10.242-5.847,3.721Z" transform="translate(-151.768 -549.659)" fill="#afdae9" stroke="#000" stroke-linecap="round" stroke-linejoin="round" stroke-width="1.5"/>
        <path id="패스_1076" data-name="패스 1076" d="M145.127,573.537l-1.021-4.638-4.653.955,6.812-10.462,5.961,3.535Z" transform="translate(-139.453 -549.588)" fill="#afdae9" stroke="#000" stroke-linecap="round" stroke-linejoin="round" stroke-width="1.5"/>
        <path id="패스_1077" data-name="패스 1077" d="M152.056,550.638a8.668,8.668,0,1,1,8.668-8.667A8.676,8.676,0,0,1,152.056,550.638Z" transform="translate(-141.91 -533.303)" fill="#f6c500" stroke="#000" stroke-width="1.5"/>
        <path id="패스_1078" data-name="패스 1078" d="M159.88,553.752a3.957,3.957,0,1,1,3.957-3.957A3.962,3.962,0,0,1,159.88,553.752Z" transform="translate(-149.734 -541.127)" fill="none" stroke="#000" stroke-linecap="round" stroke-linejoin="round" stroke-width="1.5"/>
      </g>
      <g id="그룹_937" data-name="그룹 937" transform="translate(0 42.854)">
        <path id="패스_1079" data-name="패스 1079" d="M109.073,657.146h31.19a5.073,5.073,0,0,1-5.073-5.073V647H104v5.073A5.073,5.073,0,0,0,109.073,657.146Z" transform="translate(-104 -647)" fill="#afdae9" stroke="#000" stroke-linecap="round" stroke-linejoin="round" stroke-width="1.5"/>
      </g>
      <g id="그룹_938" data-name="그룹 938" transform="translate(10.825 27.577)">
        <line id="선_69" data-name="선 69" x2="26.436" transform="translate(0 0)" fill="#afdae9" stroke="#000" stroke-linecap="round" stroke-linejoin="round" stroke-width="1.5"/>
        <line id="선_70" data-name="선 70" x2="26.436" transform="translate(0 5.287)" fill="#afdae9" stroke="#000" stroke-linecap="round" stroke-linejoin="round" stroke-width="1.5"/>
        <line id="선_71" data-name="선 71" x2="26.436" transform="translate(0 10.574)" fill="#afdae9" stroke="#000" stroke-linecap="round" stroke-linejoin="round" stroke-width="1.5"/>
      </g>
      <path id="패스_1080" data-name="패스 1080" d="M221.764,555.693v-7.775a3.385,3.385,0,0,0-6.764,0v7.775Z" transform="translate(-172.764 -540.4)" fill="#afdae9" stroke="#000" stroke-linecap="round" stroke-linejoin="round" stroke-width="1.5"/>
    </g>
  </g>
</svg>
