<svg xmlns="http://www.w3.org/2000/svg" xmlns:xlink="http://www.w3.org/1999/xlink" width="57.216" height="120" viewBox="0 0 57.216 120">
  <defs>
    <clipPath id="clip-path">
      <rect id="사각형_4046" data-name="사각형 4046" width="52.216" height="113.041" fill="none"/>
    </clipPath>
  </defs>
  <g id="그룹_2706" data-name="그룹 2706" transform="translate(-1006.585 -840)">
    <ellipse id="타원_207" data-name="타원 207" cx="24.722" cy="9.5" rx="24.722" ry="9.5" transform="translate(1006.585 941)" fill="rgba(0,0,0,0.05)"/>
    <g id="그룹_2705" data-name="그룹 2705" transform="translate(1008.369 840)">
      <g id="그룹_2704" data-name="그룹 2704" transform="translate(3.216)" clip-path="url(#clip-path)">
        <path id="패스_3061" data-name="패스 3061" d="M23.632,189.619l1.246,7.208c.156.9.25,2-.439,2.592-.379.327-.971.475-1.107.963a.878.878,0,0,0,.553.972,2.432,2.432,0,0,0,1.187.085l8.022-.756a.923.923,0,0,0,.434-.115,1,1,0,0,0,.318-.769q.517-5.055.676-10.136" transform="translate(-10.832 -89.845)" fill="#181613"/>
        <path id="패스_3062" data-name="패스 3062" d="M22.317,189.173c.415,2.4.838,4.8,1.246,7.208.01.056.019.112.028.167,0,.032.026.179.009.052q.02.156.033.313a4.328,4.328,0,0,1,0,.692c-.011.127.037-.16-.006.044-.009.043-.017.086-.028.129s-.028.1-.045.155c-.012.036-.073.156-.011.038-.02.037-.039.075-.06.112,0,0-.115.162-.053.085s-.079.077-.073.072c-.018.017-.174.129-.048.045a3.544,3.544,0,0,0-1.107.873,1.422,1.422,0,0,0,.062,1.635c.811,1.095,2.356.7,3.523.595l3.724-.351,1.814-.171.907-.086a2.412,2.412,0,0,0,1-.216,1.83,1.83,0,0,0,.726-1.584q.092-.9.171-1.81.359-4.063.486-8.141a.72.72,0,0,0-.72-.708.729.729,0,0,0-.72.708q-.109,3.447-.381,6.886-.066.837-.142,1.672-.038.418-.079.836-.018.185-.036.371c-.007.077-.016.155-.024.232,0,.046-.009.093-.014.139-.009.076-.01.089,0,.041.014-.087-.06.238-.063.236s.058-.094.056-.092c-.089.122.044-.011.086-.034-.147.084.02.007-.069.022s-.153.015-.229.022l-.477.045-1.719.162-3.533.333-1.719.162c-.271.026-.543.06-.815.067-.058,0-.115,0-.173,0-.229,0,.022.015-.1-.006a.444.444,0,0,1-.29-.112c.057.045.018.03-.009-.024.048.095,0,0-.012-.019-.1-.133-.022-.024-.012-.013l-.018-.064c.006.068.009.077.008.024,0-.011,0-.022,0-.033-.009.074,0,.074.016,0-.006-.006-.049.166.006.016-.034.093-.053.053,0,.012.018-.014.165-.132.035-.039a5.114,5.114,0,0,0,1.025-.746,3.379,3.379,0,0,0,.518-2.78c-.172-1.225-.417-2.445-.628-3.665l-.671-3.881a.72.72,0,0,0-1.389.376" transform="translate(-10.213 -89.21)" fill="#181613"/>
        <path id="패스_3063" data-name="패스 3063" d="M46.85,190.962,48.1,198.17c.156.9.25,2-.439,2.592-.379.327-.971.475-1.107.963a.878.878,0,0,0,.553.972,2.432,2.432,0,0,0,1.187.085l8.022-.756a.921.921,0,0,0,.434-.115,1,1,0,0,0,.318-.769q.517-5.055.676-10.136" transform="translate(-21.623 -90.481)" fill="#181613"/>
        <path id="패스_3064" data-name="패스 3064" d="M45.536,190.516c.415,2.4.838,4.8,1.246,7.208.01.056.019.112.028.167,0,.032.026.179.009.052.013.1.025.208.033.313a4.329,4.329,0,0,1,0,.692c-.011.127.037-.16-.006.044-.009.043-.017.086-.028.129s-.028.1-.045.155c-.012.036-.073.156-.011.038-.02.037-.039.075-.06.112,0,0-.115.162-.053.085s-.079.077-.073.072c-.018.017-.174.129-.048.045a3.544,3.544,0,0,0-1.107.873,1.422,1.422,0,0,0,.062,1.635c.811,1.095,2.356.7,3.523.595l3.724-.351,1.814-.171.907-.086a2.412,2.412,0,0,0,1-.216,1.83,1.83,0,0,0,.726-1.584q.092-.9.171-1.81.359-4.063.486-8.141a.72.72,0,0,0-.72-.708.729.729,0,0,0-.72.708q-.109,3.447-.381,6.886-.066.837-.142,1.672-.038.418-.079.836-.018.185-.036.371c-.007.077-.016.155-.024.232,0,.046-.009.093-.014.139-.009.076-.01.089,0,.04.014-.087-.06.238-.063.236s.058-.094.056-.092c-.089.122.044-.011.086-.034-.147.084.02.007-.069.022s-.153.015-.229.022l-.477.045-1.719.162-3.533.333-1.719.162c-.271.025-.543.059-.815.066-.058,0-.115,0-.173,0-.229,0,.022.015-.1-.006a.444.444,0,0,1-.29-.112c.057.045.018.03-.009-.024.048.095,0,0-.012-.019-.1-.133-.022-.024-.012-.013l-.018-.064c.007.068.01.077.009.024,0-.011,0-.022,0-.033-.009.074,0,.074.016,0-.006-.006-.049.166.006.016-.034.093-.053.053,0,.012.018-.014.165-.132.035-.039a5.116,5.116,0,0,0,1.025-.746,3.379,3.379,0,0,0,.518-2.78c-.172-1.225-.417-2.445-.628-3.665l-.671-3.881a.72.72,0,0,0-1.389.376" transform="translate(-21.004 -89.847)" fill="#181613"/>
        <path id="패스_3065" data-name="패스 3065" d="M50.981,135.22C50.288,130.738,48,126.612,45.4,122.8c-5.949-8.729-21.252-10.592-27-.354-2.549,4.536-4.825,8.674-5.1,14-.131,2.539.317,5.382,2.429,6.979a5.673,5.673,0,0,0,1.068.63c-.1,1.958-.144,3.919-.124,5.879.017,1.739-.414,6.111,1.089,7.377,1.541,1.3,6.325.989,8.29,1.112a80.137,80.137,0,0,0,18.158-.926,2.216,2.216,0,0,0,2.1-2.36,91.629,91.629,0,0,0-.048-12.1,6.09,6.09,0,0,0,3.485-1.774c1.46-1.61,1.566-3.942,1.242-6.033" transform="translate(-6.169 -54.717)" fill="#e40047"/>
        <path id="패스_3066" data-name="패스 3066" d="M51.05,133.89a25.9,25.9,0,0,0-2.99-8.278c-.7-1.287-1.475-2.535-2.289-3.755a19.121,19.121,0,0,0-1.982-2.553,17.582,17.582,0,0,0-4.685-3.5,19.332,19.332,0,0,0-5.612-1.891,18.456,18.456,0,0,0-5.966-.064,14.968,14.968,0,0,0-5.414,1.941,14.009,14.009,0,0,0-4.37,4.18c-.72,1.07-1.312,2.233-1.923,3.365-.658,1.221-1.286,2.459-1.834,3.731a23.816,23.816,0,0,0-2.038,8.264c-.12,2.453.292,5.206,2.14,7.013A6.172,6.172,0,0,0,15.8,143.52l-.356-.611q-.088,1.748-.117,3.5c-.016.952.006,1.9-.011,2.856a32.732,32.732,0,0,0,.05,4.131c.145,1.338.45,2.879,1.734,3.612a5.934,5.934,0,0,0,1.891.622,19.123,19.123,0,0,0,2.407.257c1.371.071,2.745.022,4.114.105q3.492.214,7,.125t6.978-.485q1.775-.2,3.541-.478a4.446,4.446,0,0,0,2.463-.9,3.219,3.219,0,0,0,.9-2.2c.09-1.144.125-2.3.154-3.444q.088-3.5-.092-6.993-.044-.867-.1-1.734l-.529.682a6.632,6.632,0,0,0,3.948-2.124,6.778,6.778,0,0,0,1.448-4.072,12.48,12.48,0,0,0-.165-2.482.72.72,0,0,0-1.389.376c0,.031.031.205.016.1.012.084.022.168.032.253.018.157.033.315.045.473.024.317.036.635.032.952a8.857,8.857,0,0,1-.062.946.508.508,0,0,1-.014.1c-.014.083-.028.166-.045.248-.03.152-.065.3-.106.454s-.087.3-.139.443c-.024.067-.05.134-.075.2s0,.009,0-.005c-.019.044-.039.087-.059.129a5.525,5.525,0,0,1-.473.8c-.079.114-.04.056-.02.03-.022.029-.046.057-.07.085-.048.056-.1.112-.147.166A4.634,4.634,0,0,1,48.2,140c-.057.049-.114.1-.173.144s-.017.013,0,0c-.03.023-.061.044-.092.066-.145.1-.294.2-.448.283a6.275,6.275,0,0,1-2.048.7.712.712,0,0,0-.529.683q.233,3.4.224,6.8-.006,1.69-.076,3.379-.035.845-.086,1.688c-.007.122-.014.245-.025.367,0,.043-.01.085-.013.128.013-.139.005-.034,0,0a4.3,4.3,0,0,1-.132.525c-.013.042-.067.154,0,0-.014.031-.028.062-.044.093a2,2,0,0,1-.1.174c-.006.009-.1.144-.029.048s0,0-.021.023c-.062.066-.125.127-.192.188-.033.03-.1.06.028-.019-.028.018-.056.039-.083.057a2.045,2.045,0,0,1-.18.1c-.04.021-.083.036-.122.058-.092.053.162-.051-.01,0-.095.029-.187.062-.284.087a14.691,14.691,0,0,1-1.492.257c-.525.079-1.065.157-1.575.223q-3.353.433-6.735.581t-6.761.012c-.839-.034-1.677-.1-2.517-.119-.679-.015-1.358-.015-2.037-.029-.751-.016-1.5-.044-2.249-.114-.173-.016-.345-.035-.517-.056-.139-.016-.013,0,.013,0l-.147-.021c-.1-.014-.192-.029-.288-.046a8.148,8.148,0,0,1-.958-.218c-.134-.04-.265-.087-.4-.136-.15-.055.11.057.021.008-.027-.014-.056-.025-.083-.038-.067-.031-.132-.064-.2-.1s-.109-.063-.162-.1c-.022-.015-.044-.032-.067-.046-.1-.064.054.03.051.039s-.123-.109-.134-.12-.047-.049-.071-.074l-.027-.032q-.071-.086.034.045c-.065-.019-.157-.236-.189-.295s-.069-.137-.1-.206c-.019-.037-.04-.12.016.038-.017-.046-.036-.091-.053-.137A5.833,5.833,0,0,1,16.9,154c-.014-.073-.027-.147-.039-.22-.006-.042-.039-.273-.029-.188s0-.026-.005-.049c-.005-.048-.011-.1-.017-.145-.011-.1-.02-.2-.028-.294-.031-.358-.047-.718-.056-1.078-.017-.682,0-1.364.016-2.046.048-1.8.013-3.592.074-5.389q.029-.84.071-1.679a.69.69,0,0,0-.356-.611,4.712,4.712,0,0,1-1.521-1.049q-.142-.147-.273-.3c-.021-.026-.043-.052-.064-.079.009.012.057.075.009.01s-.093-.127-.138-.192a6.015,6.015,0,0,1-.44-.757c-.029-.061-.058-.122-.086-.184-.055-.118.013.041-.034-.08-.054-.137-.107-.275-.154-.415a8.431,8.431,0,0,1-.237-.86q-.044-.2-.08-.407c-.012-.068-.023-.137-.034-.206-.005-.034-.011-.069-.016-.1.011.076,0,.031,0-.019-.036-.3-.062-.6-.077-.9a17.306,17.306,0,0,1,.263-3.766,22.714,22.714,0,0,1,1.06-3.881,32.369,32.369,0,0,1,1.576-3.562c.621-1.227,1.29-2.43,1.964-3.63.262-.467.533-.927.838-1.368.138-.2.285-.392.43-.587.048-.065-.019.024-.024.03l.054-.068.109-.133c.085-.1.171-.2.259-.3a13.052,13.052,0,0,1,1-1.022q.255-.233.521-.452c.085-.07.17-.138.256-.206.02-.016.151-.115.079-.061s.077-.056.1-.075a13.318,13.318,0,0,1,2.376-1.385c.1-.045.2-.087.3-.13.117-.051-.108.043.051-.021l.174-.069q.313-.122.631-.229.65-.219,1.319-.377t1.353-.257l.092-.014c-.1.015.066-.008.093-.011q.175-.021.351-.039.352-.035.7-.055a17.514,17.514,0,0,1,2.79.067l.328.037c.074.009.155.02.027,0l.191.027c.237.034.473.073.708.116q.694.128,1.377.308t1.325.4q.34.117.677.247c.1.04.206.082.309.123.13.053-.1-.042.033.014l.178.076a18.164,18.164,0,0,1,2.489,1.318c.4.25.778.519,1.153.8-.1-.074-.021-.016.029.023l.13.1c.094.074.186.148.277.224q.275.227.54.466.519.468.993.979.233.251.454.511c.071.084.14.167.209.253l.119.149c-.088-.111,0,.006.039.051a36.32,36.32,0,0,1,2.141,3.238,28.88,28.88,0,0,1,3.412,7.636,20.433,20.433,0,0,1,.424,2.025.72.72,0,0,0,1.389-.376" transform="translate(-5.543 -53.845)" fill="#181613"/>
        <path id="패스_3067" data-name="패스 3067" d="M30.885,125.689a8.714,8.714,0,0,0-.286,4.036,5,5,0,0,0,1.446,2.953,6.39,6.39,0,0,0,2.928,1.3c7.075,1.585,12.343-4.056,11.64-10.884" transform="translate(-14.167 -58.323)" fill="#e40046"/>
        <path id="패스_3068" data-name="패스 3068" d="M29.566,124.863a9.366,9.366,0,0,0-.351,3.967,6.294,6.294,0,0,0,1.373,3.382,6.081,6.081,0,0,0,3.18,1.716,11.887,11.887,0,0,0,3.156.385,9.832,9.832,0,0,0,5.215-1.591,10.086,10.086,0,0,0,3.479-3.982,11.737,11.737,0,0,0,1.091-6.286.731.731,0,0,0-.72-.708.723.723,0,0,0-.72.708,11.785,11.785,0,0,1-.033,2.695c.022-.17-.006.036-.01.058-.006.041-.013.082-.02.123q-.025.152-.055.3-.064.331-.149.656a10.384,10.384,0,0,1-.391,1.2c-.018.046-.037.092-.056.138s-.068.159-.008.022c-.04.09-.08.18-.122.269-.092.195-.19.386-.294.575a9.718,9.718,0,0,1-.655,1.028c-.057.078-.115.154-.174.23.1-.13-.076.092-.1.125q-.2.242-.422.469a9.142,9.142,0,0,1-.886.808l-.09.071c-.15.119.12-.084-.036.027-.078.055-.155.112-.233.166q-.248.171-.507.324a9.086,9.086,0,0,1-1.057.534c.162-.069-.019.007-.043.017l-.137.053q-.137.051-.276.1-.295.1-.6.178t-.585.133q-.149.028-.3.052l-.181.027c.175-.025-.03,0-.052.005a9.8,9.8,0,0,1-1.321.057q-.326-.008-.651-.036c-.111-.009-.221-.022-.331-.034-.22-.024.145.024-.075-.009l-.2-.031a11.911,11.911,0,0,1-1.531-.35,4.93,4.93,0,0,1-1.411-.629,3.152,3.152,0,0,1-1.034-1.137,5.206,5.206,0,0,1-.548-1.621,8.039,8.039,0,0,1,.26-3.809.713.713,0,0,0-.5-.871.737.737,0,0,0-.886.495" transform="translate(-13.543 -57.685)" fill="#181613"/>
        <path id="패스_3069" data-name="패스 3069" d="M43.487,155.491a6.378,6.378,0,1,1-6.377-6.269,6.324,6.324,0,0,1,6.377,6.269" transform="translate(-14.284 -70.704)" fill="#ffbb2e"/>
        <path id="패스_3070" data-name="패스 3070" d="M35.407,124.107a8.835,8.835,0,0,0,1.043,6.722,1.5,1.5,0,0,0,.989.82,1.6,1.6,0,0,0,1.258-.707,21.326,21.326,0,0,0,3.4-5.173" transform="translate(-16.336 -58.804)" fill="#fff"/>
        <path id="패스_3071" data-name="패스 3071" d="M34.093,123.286A9.626,9.626,0,0,0,34.9,130a3.969,3.969,0,0,0,.948,1.318,1.7,1.7,0,0,0,1.9.194,4.583,4.583,0,0,0,1.279-1.211c.38-.455.745-.924,1.089-1.406a21.509,21.509,0,0,0,1.983-3.4.722.722,0,0,0-.259-.969.733.733,0,0,0-.985.254,20.143,20.143,0,0,1-3.337,5.086c-.078.085-.158.168-.244.246-.016.014-.139.117-.063.059-.04.031-.085.054-.126.083-.086.061-.073.044-.027.024.007,0-.207.052-.115.038l.024,0c-.089,0-.1,0-.025.009l-.067-.016c.065.034.059.032-.016-.007-.012,0-.121-.072-.025,0a.965.965,0,0,1-.1-.093c-.034-.033-.065-.068-.1-.1-.15-.162.033.052-.042-.054a6.02,6.02,0,0,1-.376-.62,6.878,6.878,0,0,1-.54-1.252,9.085,9.085,0,0,1-.343-1.425,8.225,8.225,0,0,1,.151-3.086.717.717,0,0,0-.5-.871.733.733,0,0,0-.886.495" transform="translate(-15.717 -58.172)" fill="#181613"/>
        <path id="패스_3072" data-name="패스 3072" d="M43.653,122.939a46.923,46.923,0,0,0-5.032,7.859,13.569,13.569,0,0,0,3.567.208,5.885,5.885,0,0,0,2.532-.666,5.833,5.833,0,0,0,2.447-3.487,18.932,18.932,0,0,0,.559-4.45" transform="translate(-17.95 -57.996)" fill="#fff"/>
        <path id="패스_3073" data-name="패스 3073" d="M42.53,121.8a48.235,48.235,0,0,0-5.145,8,.712.712,0,0,0,.43,1.04,14.575,14.575,0,0,0,3.484.25,7.048,7.048,0,0,0,3.171-.78,6.932,6.932,0,0,0,2.986-4.761,24.821,24.821,0,0,0,.376-3.787.72.72,0,0,0-.72-.708.729.729,0,0,0-.72.708,26.854,26.854,0,0,1-.231,2.892,10.954,10.954,0,0,1-.323,1.441q-.092.3-.207.6a4.5,4.5,0,0,1-.215.477c-.094.187-.2.369-.308.546-.052.082-.105.163-.162.243-.028.039-.056.079-.085.118s-.1.129-.042.057a4.8,4.8,0,0,1-.41.447c-.068.065-.138.128-.21.189l-.109.089c-.056.044.049-.029-.051.036a5.015,5.015,0,0,1-2.424.755,13.061,13.061,0,0,1-3.417-.179l.43,1.04a46.866,46.866,0,0,1,4.919-7.715.722.722,0,0,0,0-1,.734.734,0,0,0-1.019,0" transform="translate(-17.337 -57.358)" fill="#181613"/>
        <path id="패스_3074" data-name="패스 3074" d="M46.764,161.635H21.909a1.6,1.6,0,0,1-1.717-1.447v-.964a1.6,1.6,0,0,1,1.717-1.446H45.456Z" transform="translate(-9.384 -74.758)" fill="#ffe900"/>
        <path id="패스_3075" data-name="패스 3075" d="M46.139,161.7H21.284a2.312,2.312,0,0,1-2.437-2.155v-.965a2.312,2.312,0,0,1,2.437-2.155H44.831a.719.719,0,0,1,.683.484l1.309,3.858a.7.7,0,0,1-.1.638.725.725,0,0,1-.584.294m-24.855-3.858c-.54,0-1,.338-1,.739v.965c0,.4.457.739,1,.739H45.139l-.828-2.442Z" transform="translate(-8.759 -74.12)" fill="#181613"/>
        <path id="패스_3076" data-name="패스 3076" d="M60.743,135.39l1.822,7.086q.45,1.749.9,3.5a24.884,24.884,0,0,0,.827,2.937A4,4,0,0,0,66.3,151.3a.752.752,0,0,0,.985-.254.707.707,0,0,0-.259-.969,2.382,2.382,0,0,1-.506-.282c.109.081,0,0-.026-.027s-.078-.07-.116-.107a2.858,2.858,0,0,1-.212-.235c.082.1-.072-.107-.1-.142q-.08-.123-.152-.251c-.048-.087-.093-.175-.136-.265-.024-.05-.048-.1-.07-.152.05.113-.021-.053-.031-.079a23.539,23.539,0,0,1-.792-2.8q-.882-3.429-1.764-6.858-.5-1.931-.993-3.861a.732.732,0,0,0-.886-.495.717.717,0,0,0-.5.871" transform="translate(-28.221 -63.726)" fill="#181613"/>
        <path id="패스_3077" data-name="패스 3077" d="M22.366,135.524a7.512,7.512,0,0,0-.73,2.521q-.226,1.376-.431,2.754-.417,2.805-.75,5.621a.716.716,0,0,0,.72.708.735.735,0,0,0,.72-.708c.209-1.76.439-3.5.7-5.244q.2-1.333.416-2.662a7.119,7.119,0,0,1,.6-2.275.715.715,0,0,0-.259-.969.736.736,0,0,0-.985.254" transform="translate(-9.505 -64.049)" fill="#181613"/>
        <path id="패스_3078" data-name="패스 3078" d="M63.118,124.519a2.227,2.227,0,0,0,.669,3.293c.117.065.33.1.407.2l-.1-.167c.051.122-.042.361-.059.5a2.993,2.993,0,0,0-.022.479,3.483,3.483,0,0,0,.174.976,3.376,3.376,0,0,0,1.2,1.669,3.184,3.184,0,0,0,3.883-.229c.373-.321-.173-.853-.543-.534a2.372,2.372,0,0,1-3.4-.35,2.783,2.783,0,0,1-.536-1.874c.028-.346.216-.729-.071-1.024a1.1,1.1,0,0,0-.405-.225,1.4,1.4,0,0,1-.419-.273,1.526,1.526,0,0,1-.114-2.055.376.376,0,0,0-.138-.516.4.4,0,0,0-.526.135" transform="translate(-29.123 -58.911)" fill="#ffbb2e"/>
        <path id="패스_3079" data-name="패스 3079" d="M65.951,126.7a.761.761,0,0,0-.012.828,1.017,1.017,0,0,0,.794.46,1.886,1.886,0,0,1,.307.033c-.057-.021-.077-.046-.06-.076,0,.04,0,.079.006.119,0,.094.009.188.013.283.017.357.03.714.051,1.07a1.813,1.813,0,0,0,.241.909,1.449,1.449,0,0,0,.756.555,4.048,4.048,0,0,0,1.852.042.379.379,0,0,0,.268-.464.4.4,0,0,0-.473-.264,3.293,3.293,0,0,1-1.4-.026c-.5-.156-.476-.639-.5-1.081q-.022-.477-.044-.953c-.014-.306-.045-.61-.35-.776a1.042,1.042,0,0,0-.407-.106,1.1,1.1,0,0,1-.314-.038.229.229,0,0,1-.1-.1c.016.028-.03-.022.005,0-.008.037-.006.032.006-.013-.009.031,0,.025.02-.017a.377.377,0,0,0-.138-.516.4.4,0,0,0-.526.135" transform="translate(-30.592 -59.942)" fill="#ffbb2e"/>
        <path id="패스_3080" data-name="패스 3080" d="M24.514,128.251a2.183,2.183,0,0,1-.005.335c-.009.1.016-.079,0,.021,0,.025-.009.049-.014.074-.012.055-.025.109-.041.163s-.034.106-.055.158c-.014.036-.025.056,0,.008-.013.028-.026.056-.039.083a2.271,2.271,0,0,1-.173.289l-.045.062c-.027.036.041-.045-.007.008s-.081.092-.125.136-.073.072-.112.105l-.071.059c-.062.051.052-.033-.02.015a2.576,2.576,0,0,1-.277.166l-.07.033c-.08.038.055-.018-.022.009-.059.021-.117.041-.177.057a.382.382,0,0,0-.269.465.392.392,0,0,0,.473.264,2.517,2.517,0,0,0,1.825-2.509.384.384,0,0,0-.768,0" transform="translate(-10.675 -60.589)" fill="#ffbb2e"/>
        <path id="패스_3081" data-name="패스 3081" d="M20.547,135.495a1.189,1.189,0,0,1-.063.2l.039-.091a1.254,1.254,0,0,1-.159.269l.06-.077a1.323,1.323,0,0,1-.234.232l.078-.059a1.329,1.329,0,0,1-.286.164l.092-.038a1.234,1.234,0,0,1-.291.078l.1-.013-.03,0a.424.424,0,0,0-.272.111.373.373,0,0,0,0,.534.376.376,0,0,0,.272.111,1.756,1.756,0,0,0,.556-.152,1.592,1.592,0,0,0,.392-.263,1.551,1.551,0,0,0,.485-.807.384.384,0,0,0-.741-.2" transform="translate(-9.049 -64.07)" fill="#ffbb2e"/>
        <path id="패스_3082" data-name="패스 3082" d="M67.465,25.337l10.438,2.7,3.723-13.919a7.051,7.051,0,0,0-5.12-8.624l-.86-.222a2.725,2.725,0,0,0-3.323,1.906Z" transform="translate(-31.355 -2.455)" fill="#2c2d2d"/>
        <path id="패스_3083" data-name="패스 3083" d="M76.8,28.169l-.074-.016-10.437-2.7a1.026,1.026,0,0,1-.745-1.254l4.8-17.929a4.026,4.026,0,0,1,4.9-2.81A8.8,8.8,0,0,1,80.646,7.5a8.539,8.539,0,0,1,.917,6.615L78,27.42a1.045,1.045,0,0,1-1.2.749m-8.969-4.439L76.25,25.9l3.293-12.312a6.524,6.524,0,0,0-.7-5.057,6.727,6.727,0,0,0-4.133-3.088,1.928,1.928,0,0,0-2.345,1.346Z" transform="translate(-30.448 -1.578)" fill="#181613"/>
        <path id="패스_3084" data-name="패스 3084" d="M54.759,23.61l-10.668-1.6L46.3,7.78a7.167,7.167,0,0,1,8.185-5.913L55.368,2a2.681,2.681,0,0,1,2.278,3.048Z" transform="translate(-20.492 -0.846)" fill="#2c2d2d"/>
        <path id="패스_3085" data-name="패스 3085" d="M42.99,22.169a1.049,1.049,0,0,1-.649-.4A1.016,1.016,0,0,1,42.151,21L44.266,7.4a8.647,8.647,0,0,1,3.517-5.71A8.931,8.931,0,0,1,54.377.1a3.965,3.965,0,0,1,3.358,4.492l-2.85,18.326a1.043,1.043,0,0,1-1.191.86l-10.668-1.6-.035-.006M54.126,2.143l-.065-.011A6.826,6.826,0,0,0,49.02,3.35a6.605,6.605,0,0,0-2.688,4.366L44.374,20.3l8.6,1.293L55.669,4.283a1.894,1.894,0,0,0-1.543-2.14" transform="translate(-19.584 0)" fill="#181613"/>
        <path id="패스_3086" data-name="패스 3086" d="M17.845,48.071l39.438,5.6,2.155-14.658a18.024,18.024,0,0,0-15.48-20.359L40.709,18.2A18.236,18.236,0,0,0,20,33.413Z" transform="translate(-8.294 -8.533)" fill="#2c2d2d"/>
        <path id="패스_3087" data-name="패스 3087" d="M16.744,48.3a1.048,1.048,0,0,1-.644-.394,1.012,1.012,0,0,1-.2-.762l1.979-13.459A20.529,20.529,0,0,1,41.17,16.573l.811.116A20.288,20.288,0,0,1,59.389,39.583L57.41,53.042a1.042,1.042,0,0,1-1.183.869l-39.439-5.6-.043-.007M42.462,18.849c-.258-.048-.518-.09-.779-.128l-.812-.116A18.444,18.444,0,0,0,19.95,33.98L18.12,46.423l37.371,5.309,1.829-12.443a18.216,18.216,0,0,0-14.859-20.44" transform="translate(-7.386 -7.753)" fill="#181613"/>
        <path id="패스_3088" data-name="패스 3088" d="M49.53,66.1c0,12.645-10.752,22.9-24.015,22.9S1.5,78.744,1.5,66.1,12.252,43.2,25.515,43.2c5.949,0,9.7,5.392,13.894,8.808A82.293,82.293,0,0,1,49.53,66.1" transform="translate(-0.697 -20.471)" fill="#fff"/>
        <path id="패스_3089" data-name="패스 3089" d="M49.53,66.1c0,12.645-10.752,22.9-24.015,22.9S1.5,78.744,1.5,66.1,12.252,43.2,25.515,43.2c5.949,0,9.7,5.392,13.894,8.808A82.293,82.293,0,0,1,49.53,66.1Z" transform="translate(-0.697 -20.471)" fill="none" stroke="#181613" stroke-width="1.5"/>
        <path id="패스_3090" data-name="패스 3090" d="M17.836,100.416c-.009,1.552-1.92,2.8-4.268,2.787s-4.246-1.281-4.236-2.833,1.92-2.8,4.268-2.787,4.245,1.281,4.236,2.833" transform="translate(-4.337 -46.237)" fill="#f8d5e6"/>
        <path id="패스_3091" data-name="패스 3091" d="M58.9,101.381c-.009,1.552-1.92,2.8-4.268,2.787s-4.245-1.281-4.236-2.833,1.92-2.8,4.268-2.787,4.245,1.281,4.236,2.833" transform="translate(-23.424 -46.694)" fill="#f8d5e6"/>
        <path id="패스_3092" data-name="패스 3092" d="M38.36,95.173c-.085,1.605-2.03,2.811-4.343,2.692S29.9,96.349,29.98,94.744s2.03-2.81,4.343-2.692,4.121,1.515,4.036,3.121" transform="translate(-13.932 -43.612)" fill="#2ea974"/>
        <path id="패스_3093" data-name="패스 3093" d="M21.379,84.9c-.653,2.982-3.231,4.966-5.759,4.43s-4.047-3.385-3.394-6.367,3.231-4.965,5.759-4.43,4.047,3.385,3.394,6.367" transform="translate(-5.612 -37.169)" fill="#181613"/>
        <path id="패스_3094" data-name="패스 3094" d="M24.071,82.973a.9.9,0,0,1-.639,1.117.924.924,0,0,1-1.136-.628.9.9,0,0,1,.639-1.117.923.923,0,0,1,1.136.628" transform="translate(-10.347 -39.001)" fill="#fff"/>
        <path id="패스_3095" data-name="패스 3095" d="M47.112,86.576c.653,2.982,3.231,4.966,5.759,4.43s4.047-3.385,3.394-6.367-3.231-4.965-5.759-4.43-4.047,3.385-3.394,6.367" transform="translate(-21.825 -37.963)" fill="#181613"/>
        <path id="패스_3096" data-name="패스 3096" d="M52.314,85.182a.9.9,0,0,1-.639,1.117.924.924,0,0,1-1.136-.628.9.9,0,0,1,.639-1.117.923.923,0,0,1,1.136.628" transform="translate(-23.473 -40.047)" fill="#fff"/>
        <path id="패스_3097" data-name="패스 3097" d="M39.214,111.924c-.11,2.084-2.248,3.667-4.774,3.539s-4.486-1.923-4.376-4.006,9.26-1.616,9.15.468" transform="translate(-13.971 -52.171)" fill="#e82218"/>
        <path id="패스_3098" data-name="패스 3098" d="M39.214,111.924c-.11,2.084-2.248,3.667-4.774,3.539s-4.486-1.923-4.376-4.006S39.324,109.84,39.214,111.924Z" transform="translate(-13.971 -52.171)" fill="none" stroke="#181613" stroke-width="1.5"/>
        <path id="패스_3099" data-name="패스 3099" d="M41,42.48a19.72,19.72,0,0,0-9.8-4.307l-7.032-1A17.114,17.114,0,0,0,4.857,51.629l-.338,2.438a.232.232,0,0,0,.2.264,93.715,93.715,0,0,1,34.568,3.748l11.024,3.188" transform="translate(-2.099 -17.532)" fill="#2c2d2d"/>
        <path id="패스_3100" data-name="패스 3100" d="M3.607,54.414a1.288,1.288,0,0,1-.794-.491A1.236,1.236,0,0,1,2.578,53l.337-2.429A18.178,18.178,0,0,1,23.406,35.232l7.032,1a20.784,20.784,0,0,1,10.321,4.536,1.015,1.015,0,0,1,.13,1.447,1.056,1.056,0,0,1-1.471.127,18.714,18.714,0,0,0-9.278-4.078l-7.032-1A16.09,16.09,0,0,0,4.985,50.852l-.2,1.441A95.471,95.471,0,0,1,38.671,56.17l11.024,3.188a1.024,1.024,0,0,1,.708,1.275,1.045,1.045,0,0,1-1.3.7L38.082,58.14A92.775,92.775,0,0,0,3.905,54.429a1.07,1.07,0,0,1-.246-.006l-.052-.008m1.042-1.145,0,.013,0-.013" transform="translate(-1.192 -16.608)" fill="#181613"/>
        <path id="패스_3101" data-name="패스 3101" d="M35.981,54.09a.6.6,0,0,1-.2.465.679.679,0,0,1-.463.045l-2.239-.311c-.218-.031.085-4.528.176-4.947.449-2.079.453-4.2,1.408-6.122,1.089-2.19,2.4-4.574,4.709-5.739.485-.246,2.548-.407,2.905.212.368.638-.6,1.56-.986,1.988a17.331,17.331,0,0,0-4.027,6.9,55.084,55.084,0,0,0-1.28,7.51" transform="translate(-15.337 -17.655)" fill="#2c2d2d"/>
        <path id="패스_3102" data-name="패스 3102" d="M34.03,52.978c-.058.436-.088-.124.389-.274.379-.119.309.008.164-.037a4.385,4.385,0,0,0-.658-.092l-.658-.091a3.053,3.053,0,0,0-.791-.11c.222-.045.544.377.63.608-.041-.112.04.318.04.185,0-.047-.012-.1-.016-.144-.012-.143-.013-.287-.014-.431,0-.44.014-.88.034-1.32.005-.118.011-.237.017-.356.01-.186,0,.034,0,.06,0-.072.008-.143.012-.214q.02-.346.044-.692c.06-.87.2-1.686.335-2.547a16.65,16.65,0,0,1,1.188-4.913c.319-.638.649-1.271,1.015-1.884.09-.151.183-.3.278-.449.037-.059.076-.118.115-.177-.1.157.089-.129.088-.127.212-.3.436-.593.677-.872.217-.252.449-.486.687-.718s-.143.11.114-.1c.054-.044.108-.089.162-.132q.247-.2.512-.369c.148-.1.3-.185.455-.273.211-.122.032-.012-.013,0,.043-.015.085-.035.13-.047s.072-.018.107-.029c.2-.067-.248.034-.014,0,.136-.017.271-.039.408-.052s.271-.019.406-.022c.088,0,.427.019.173,0,.13.012.259.024.388.047.014,0,.209.05.21.048-.05.081-.2-.174-.025,0,.144.141-.162-.128-.061-.043.054.046-.139-.2-.154-.235.077.174.006-.079,0-.123-.032-.137-.016.017-.026.079.034-.207.043-.1,0-.04s-.08.15-.124.222c.1-.169.028-.041,0-.005-.065.08-.126.162-.193.241-.448.53-.928,1.031-1.363,1.574a23.224,23.224,0,0,0-1.568,2.209C34.946,44.819,34.5,49,34.03,52.978a1.044,1.044,0,0,0,2.054.379c.241-2.034.506-4.067.939-6.072a16.435,16.435,0,0,1,.755-2.68A15.675,15.675,0,0,1,39.1,42.081,20.446,20.446,0,0,1,40.745,39.9a12.464,12.464,0,0,0,1.424-1.751,1.78,1.78,0,0,0-.269-2.3,3.339,3.339,0,0,0-2.167-.53,4.191,4.191,0,0,0-1.879.394A8.289,8.289,0,0,0,35.8,37.254a16.046,16.046,0,0,0-2.77,4.133,11.959,11.959,0,0,0-1.013,2.719c-.219.939-.335,1.9-.483,2.847-.085.545-.221,1.083-.276,1.633-.044.435-.074.871-.1,1.308a20.357,20.357,0,0,0-.1,3.334,1.442,1.442,0,0,0,.227.71c.375.53,1.15.5,1.735.584a7.579,7.579,0,0,0,1.755.193,1.5,1.5,0,0,0,1.317-1.358,1.046,1.046,0,0,0-.834-1.2,1.058,1.058,0,0,0-1.22.82" transform="translate(-14.412 -16.733)" fill="#181613"/>
        <path id="패스_3103" data-name="패스 3103" d="M82.59,77.934c-.345,1.8-1.746,3.06-3.13,2.8s-2.226-1.926-1.881-3.73,1.746-3.06,3.13-2.8,2.226,1.926,1.881,3.73" transform="translate(-36.02 -35.144)" fill="#ffdcba"/>
        <path id="패스_3104" data-name="패스 3104" d="M78.331,80.825c-1.963-.363-3.191-2.589-2.737-4.962s2.42-4.008,4.383-3.646,3.191,2.588,2.737,4.961-2.42,4.009-4.383,3.646m1.249-6.534c-.773-.143-1.65.774-1.878,1.962s.252,2.356,1.025,2.5,1.65-.774,1.877-1.962-.252-2.356-1.024-2.5" transform="translate(-35.089 -34.194)" fill="#181613"/>
      </g>
    </g>
  </g>
</svg>
