<svg xmlns="http://www.w3.org/2000/svg" width="72" height="52.75" viewBox="0 0 72 52.75">
  <g id="그룹_2690" data-name="그룹 2690" transform="translate(-66 -637.25)">
    <ellipse id="타원_203" data-name="타원 203" cx="36" cy="8.5" rx="36" ry="8.5" transform="translate(66 673)" fill="rgba(0,0,0,0.05)"/>
    <g id="그룹_2689" data-name="그룹 2689" transform="translate(79 638)">
      <path id="패스_1061" data-name="패스 1061" d="M400.392,341.7c.121.76-.14,1.543-.8,1.543H371.612a1.955,1.955,0,0,1-1.6-1.543l-5.989-37.487A1.065,1.065,0,0,1,365.183,303h27.976a1.26,1.26,0,0,1,1.244,1.213Z" transform="translate(-364.006 -300.463)" fill="#afdae9" stroke="#000" stroke-linecap="round" stroke-linejoin="round" stroke-width="1.5"/>
      <path id="패스_1062" data-name="패스 1062" d="M414.712,335.225c0,.789-.4,1.6-1.1,1.6h-29.2a1.656,1.656,0,0,1-1.414-1.6V296.256A1.332,1.332,0,0,1,384.414,295h29.2c.694,0,1.1.466,1.1,1.256Z" transform="translate(-376.977 -295)" fill="#fff" stroke="#000" stroke-linecap="round" stroke-width="1.5"/>
      <rect id="사각형_1653" data-name="사각형 1653" width="34.883" height="19.027" rx="4" transform="translate(12.117 17.439)" fill="#fff" stroke="#000" stroke-linecap="round" stroke-width="1.5"/>
      <path id="패스_1063" data-name="패스 1063" d="M402.834,375.149H368.268A1.269,1.269,0,0,1,367,373.881V353.268A1.269,1.269,0,0,1,368.268,352H385.2a2.537,2.537,0,0,1,1.846.8l2.682,2.846a2.536,2.536,0,0,0,1.846.8h11.257a1.269,1.269,0,0,1,1.268,1.268v16.173A1.269,1.269,0,0,1,402.834,375.149Z" transform="translate(-366.05 -330.149)" fill="#ffeb02" stroke="#000" stroke-width="1.5"/>
      <line id="선_63" data-name="선 63" x2="12.685" transform="translate(22.876 4.122)" fill="#ffeb02" stroke="#000" stroke-width="1.5"/>
      <line id="선_64" data-name="선 64" x2="8.245" transform="translate(22.718 7.611)" fill="#ffeb02" stroke="#000" stroke-width="1.5"/>
      <line id="선_65" data-name="선 65" x2="10.465" transform="translate(22.792 12.115)" fill="#ffeb02" stroke="#000" stroke-width="1.5"/>
      <path id="패스_1118" data-name="패스 1118" d="M653.241,292.017a4.975,4.975,0,0,0-2.992-3.937.253.253,0,0,1-.024-.479,2.618,2.618,0,0,0,1.581-2.4,2.66,2.66,0,1,0-3.8,2.4c.27.128.261.417.028.479-1.72.486-2.983,2.881-2.983,3.937Z" transform="translate(-635.03 -279.05)" fill="#afdae9" stroke="#000" stroke-linecap="round" stroke-linejoin="round" stroke-width="1.5"/>
    </g>
  </g>
</svg>
