<svg xmlns="http://www.w3.org/2000/svg" xmlns:xlink="http://www.w3.org/1999/xlink" width="30" height="30" viewBox="0 0 30 30">
  <defs>
    <clipPath id="clip-path">
      <rect id="사각형_16028" data-name="사각형 16028" width="30" height="30" transform="translate(-0.233 -0.232)" fill="none"/>
    </clipPath>
  </defs>
  <g id="icon_상담현황" transform="translate(0.442 0.443)">
    <g id="그룹_21745" data-name="그룹 21745" transform="translate(-0.21 -0.21)">
      <g id="그룹_21744" data-name="그룹 21744" transform="translate(0 0)" clip-path="url(#clip-path)">
        <line id="선_1683" data-name="선 1683" y2="2.767" transform="translate(15.841 0.198)" fill="none" stroke="#000" stroke-width="1"/>
        <line id="선_1684" data-name="선 1684" x2="2.872" transform="translate(14.405 1.582)" fill="none" stroke="#000" stroke-width="1"/>
      </g>
    </g>
    <line id="선_1685" data-name="선 1685" y2="2.818" transform="translate(3.687 20.608)" fill="none" stroke="#000" stroke-width="1"/>
    <line id="선_1686" data-name="선 1686" x2="2.818" transform="translate(2.278 22.032)" fill="none" stroke="#000" stroke-width="1"/>
    <g id="그룹_21747" data-name="그룹 21747" transform="translate(-0.21 -0.21)">
      <g id="그룹_21746" data-name="그룹 21746" transform="translate(0 0)" clip-path="url(#clip-path)">
        <path id="패스_24780" data-name="패스 24780" d="M14.716,12.123h1.715V8.491A1.8,1.8,0,0,0,14.6,6.725H2.434A1.8,1.8,0,0,0,.6,8.491v9.258a1.8,1.8,0,0,0,1.834,1.768H5.86l2.656,4.429,2.655-4.429h1.712V13.889a1.8,1.8,0,0,1,1.833-1.766" transform="translate(0.11 -0.993)" fill="#18a4ea"/>
        <path id="패스_24781" data-name="패스 24781" d="M14.716,12.123h1.715V8.491A1.8,1.8,0,0,0,14.6,6.725H2.434A1.8,1.8,0,0,0,.6,8.491v9.258a1.8,1.8,0,0,0,1.834,1.768H5.86l2.656,4.429,2.655-4.429h1.712V13.889A1.8,1.8,0,0,1,14.716,12.123Z" transform="translate(0.11 -0.993)" fill="none" stroke="#000" stroke-linecap="round" stroke-linejoin="round" stroke-width="1"/>
        <path id="패스_24782" data-name="패스 24782" d="M28.976,13.284H16.811a1.8,1.8,0,0,0-1.833,1.766v9.257a1.8,1.8,0,0,0,1.833,1.767h3.427l2.656,4.43,2.655-4.43h3.427a1.8,1.8,0,0,0,1.833-1.767V15.05a1.8,1.8,0,0,0-1.833-1.766" transform="translate(-1.984 -2.154)" fill="#c6e7f6"/>
        <path id="패스_24783" data-name="패스 24783" d="M28.976,13.284H16.811a1.8,1.8,0,0,0-1.833,1.766v9.257a1.8,1.8,0,0,0,1.833,1.767h3.427l2.656,4.43,2.655-4.43h3.427a1.8,1.8,0,0,0,1.833-1.767V15.05A1.8,1.8,0,0,0,28.976,13.284Z" transform="translate(-1.984 -2.154)" fill="none" stroke="#000" stroke-width="1"/>
        <line id="선_1687" data-name="선 1687" x2="6.716" transform="translate(17.551 17.538)" fill="#fff"/>
        <line id="선_1688" data-name="선 1688" x2="6.716" transform="translate(17.551 17.538)" fill="none" stroke="#000" stroke-linecap="round" stroke-linejoin="round" stroke-width="1"/>
        <path id="패스_24784" data-name="패스 24784" d="M26.278,7.735a1.617,1.617,0,1,1-1.615-1.556,1.587,1.587,0,0,1,1.615,1.556" transform="translate(-3.16 -0.896)" fill="#fff"/>
        <path id="패스_24785" data-name="패스 24785" d="M26.278,7.735a1.617,1.617,0,1,1-1.615-1.556A1.587,1.587,0,0,1,26.278,7.735Z" transform="translate(-3.16 -0.896)" fill="none" stroke="#000" stroke-width="1"/>
      </g>
    </g>
  </g>
</svg>
