<svg xmlns="http://www.w3.org/2000/svg" xmlns:xlink="http://www.w3.org/1999/xlink" width="127" height="30" viewBox="0 0 127 30">
  <defs>
    <linearGradient id="linear-gradient" x1="0.989" y1="0.109" x2="0.016" y2="0.909" gradientUnits="objectBoundingBox">
      <stop offset="0" stop-color="#00a7a1"/>
      <stop offset="1" stop-color="#00c6bf"/>
    </linearGradient>
  </defs>
  <g id="Up_Plan_사용중" data-name="Up Plan 사용중" transform="translate(-794 -404)">
    <path id="다각형_1" data-name="다각형 1" d="M5,0l5,5H0Z" transform="translate(794 404)" fill="#1c1c1c"/>
    <path id="다각형_2" data-name="다각형 2" d="M5,0l5,5H0Z" transform="translate(911 404)" fill="#1c1c1c"/>
    <path id="사각형_12922" data-name="사각형 12922" d="M0,0H117a0,0,0,0,1,0,0V25a5,5,0,0,1-5,5H5a5,5,0,0,1-5-5V0A0,0,0,0,1,0,0Z" transform="translate(799 404)" fill="url(#linear-gradient)"/>
    <text id="Up_Plan_사용예정" data-name="Up Plan 사용예정" transform="translate(814 423)" fill="#fff" font-size="12" font-family="Pretendard-Bold, Pretendard" font-weight="700"><tspan x="0" y="0">Up Plan 사용예정</tspan></text>
  </g>
</svg>
