<svg xmlns="http://www.w3.org/2000/svg" xmlns:xlink="http://www.w3.org/1999/xlink" width="17" height="16" viewBox="0 0 17 16">
  <defs>
    <clipPath id="clip-path">
      <rect id="사각형_10995" data-name="사각형 10995" width="17" height="16" fill="#fff"/>
    </clipPath>
  </defs>
  <g id="icon_해지취소" transform="translate(0 0)">
    <g id="그룹_17843" data-name="그룹 17843" transform="translate(0 0)" clip-path="url(#clip-path)">
      <path id="패스_24461" data-name="패스 24461" d="M15.751,8.133a8.306,8.306,0,0,0-1.308-4.478A8.009,8.009,0,0,0,11.077.708a7.7,7.7,0,0,0-7.991.947A8.072,8.072,0,0,0,.68,4.777,8.231,8.231,0,0,0,.01,8.463a8.121,8.121,0,0,0,.9,3.363A7.927,7.927,0,0,0,2.9,14.288,7.434,7.434,0,0,0,7.864,16a7.2,7.2,0,0,0,3.754-1.183,6.8,6.8,0,0,0,1.8-1.726c.328-.47.437-.754.4-.779s-.231.2-.614.59a8.041,8.041,0,0,1-1.863,1.432,6.912,6.912,0,0,1-3.483.862A6.736,6.736,0,0,1,3.533,13.5,7.067,7.067,0,0,1,1.8,5.3,6.837,6.837,0,0,1,3.86,2.713a6.442,6.442,0,0,1,6.654-.722,6.668,6.668,0,0,1,2.77,2.45,6.883,6.883,0,0,1,1.071,3.691H13.1l.975,1.651.974,1.649.975-1.649L17,8.133Z" transform="translate(0 0)" fill="#fff"/>
    </g>
  </g>
</svg>
