<svg xmlns="http://www.w3.org/2000/svg" xmlns:xlink="http://www.w3.org/1999/xlink" width="23" height="20" viewBox="0 0 23 20">
  <defs>
    <clipPath id="clip-path">
      <rect id="사각형_12394" data-name="사각형 12394" width="23" height="20" transform="translate(0 0)" fill="none"/>
    </clipPath>
  </defs>
  <g id="그룹_20710" data-name="그룹 20710" transform="translate(0.604 0.44)">
    <g id="그룹_13961" data-name="그룹 13961" transform="translate(-0.604 -0.439)" clip-path="url(#clip-path)">
      <path id="패스_21437" data-name="패스 21437" d="M26.647,9.257A8.527,8.527,0,1,1,18.12.75a8.517,8.517,0,0,1,8.528,8.507" transform="translate(-4.484 -0.056)" fill="#cfcbef"/>
      <path id="패스_21438" data-name="패스 21438" d="M26.647,9.257A8.527,8.527,0,1,1,18.12.75,8.517,8.517,0,0,1,26.647,9.257Z" transform="translate(-4.484 -0.056)" fill="none" stroke="#5948b0" stroke-linecap="round" stroke-linejoin="round" stroke-width="1.5"/>
      <path id="패스_21439" data-name="패스 21439" d="M17.8,12.214A8.527,8.527,0,1,1,9.277,3.707,8.517,8.517,0,0,1,17.8,12.214" transform="translate(0.113 -1.597)" fill="#fff"/>
      <path id="패스_21440" data-name="패스 21440" d="M17.8,12.214A8.527,8.527,0,1,1,9.277,3.707,8.517,8.517,0,0,1,17.8,12.214Z" transform="translate(0.113 -1.597)" fill="none" stroke="#5948b0" stroke-width="1.5"/>
      <path id="패스_21441" data-name="패스 21441" d="M10.178,15.294l2.082,6.451L14.343,15.4,16.1,21.745l1.864-6.232" transform="translate(-4.788 -7.633)" fill="none" stroke="#5948b0" stroke-linecap="round" stroke-linejoin="round" stroke-width="1.5"/>
      <line id="선_1567" data-name="선 1567" x1="8.658" transform="translate(5.061 10.722)" fill="none" stroke="#5948b0" stroke-linecap="round" stroke-linejoin="round" stroke-width="1.5"/>
    </g>
  </g>
</svg>
