<svg xmlns="http://www.w3.org/2000/svg" xmlns:xlink="http://www.w3.org/1999/xlink" width="48" height="36" viewBox="0 0 48 36">
  <defs>
    <clipPath id="clip-path">
      <rect id="사각형_12663" data-name="사각형 12663" width="48" height="36" fill="none"/>
    </clipPath>
  </defs>
  <g id="아이콘" transform="translate(0 0)">
    <g id="그룹_20611" data-name="그룹 20611" transform="translate(0 0)" clip-path="url(#clip-path)">
      <path id="패스_24650" data-name="패스 24650" d="M21.9,30.642h6.286A2.914,2.914,0,0,0,30.82,28.1H43.075V3.585A2.837,2.837,0,0,0,40.235.75H9.858A2.838,2.838,0,0,0,7.016,3.585V28.1H19.274A2.911,2.911,0,0,0,21.9,30.642" transform="translate(-1.046 -0.114)" fill="#cfcbef"/>
      <path id="패스_24651" data-name="패스 24651" d="M21.9,30.642h6.286A2.914,2.914,0,0,0,30.82,28.1H43.075V3.585A2.837,2.837,0,0,0,40.235.75H9.858A2.838,2.838,0,0,0,7.016,3.585V28.1H19.274A2.911,2.911,0,0,0,21.9,30.642Z" transform="translate(-1.046 -0.114)" fill="none" stroke="#5948b0" stroke-linecap="round" stroke-linejoin="round" stroke-width="1.5"/>
      <path id="패스_24652" data-name="패스 24652" d="M29.885,32.957A2.913,2.913,0,0,1,27.254,35.5H20.968a2.91,2.91,0,0,1-2.628-2.542H.75v3.627c0,2.072,1.346,3.751,3.006,3.751H44.468c1.659,0,3.005-1.679,3.005-3.751V32.957Z" transform="translate(-0.112 -4.971)" fill="#fff"/>
      <path id="패스_24653" data-name="패스 24653" d="M29.885,32.957A2.913,2.913,0,0,1,27.254,35.5H20.968a2.91,2.91,0,0,1-2.628-2.542H.75v3.627c0,2.072,1.346,3.751,3.006,3.751H44.468c1.659,0,3.005-1.679,3.005-3.751V32.957Z" transform="translate(-0.112 -4.971)" fill="none" stroke="#5948b0" stroke-linecap="round" stroke-linejoin="round" stroke-width="1.5"/>
      <line id="선_1572" data-name="선 1572" x2="4.461" transform="translate(21.769 6.3)" fill="#fff"/>
      <line id="선_1573" data-name="선 1573" x2="4.461" transform="translate(21.769 6.3)" fill="none" stroke="#5948b0" stroke-linecap="round" stroke-linejoin="round" stroke-width="1.5"/>
      <rect id="사각형_12661" data-name="사각형 12661" width="22.884" height="7.872" transform="translate(12.558 13.211)" fill="#fff"/>
      <rect id="사각형_12662" data-name="사각형 12662" width="22.884" height="7.872" transform="translate(12.558 13.211)" fill="none" stroke="#5948b0" stroke-width="1.5"/>
      <path id="패스_24654" data-name="패스 24654" d="M19.783,21.059l.538-.886-.931-.384.154-.435.973.239.085-1.031h.461l.086,1.022.973-.23.146.435-.931.384.546.886-.375.273-.674-.809-.676.809Z" transform="translate(-2.891 -2.8)" fill="#5948b0"/>
      <path id="패스_24655" data-name="패스 24655" d="M24.471,21.059l.538-.886-.931-.384.154-.435.973.239.085-1.031h.461l.085,1.022.973-.23.146.435-.931.384.546.886-.375.273-.674-.809-.676.809Z" transform="translate(-3.59 -2.8)" fill="#5948b0"/>
      <path id="패스_24656" data-name="패스 24656" d="M29.16,21.059l.538-.886-.931-.384.154-.435.973.239.085-1.031h.461l.086,1.022.973-.23.146.435-.931.384.546.886-.375.273-.674-.809-.676.809Z" transform="translate(-4.289 -2.8)" fill="#5948b0"/>
      <path id="패스_24657" data-name="패스 24657" d="M33.848,21.059l.538-.886-.931-.384.154-.435.973.239.085-1.031h.461l.085,1.022.973-.23.146.435-.931.384.546.886-.375.273-.674-.809-.676.809Z" transform="translate(-4.988 -2.8)" fill="#5948b0"/>
    </g>
  </g>
</svg>
