<svg xmlns="http://www.w3.org/2000/svg" xmlns:xlink="http://www.w3.org/1999/xlink" width="38" height="40" viewBox="0 0 38 40">
  <defs>
    <clipPath id="clip-path">
      <rect id="사각형_12313" data-name="사각형 12313" width="38" height="40" fill="none"/>
    </clipPath>
  </defs>
  <g id="그룹_13918" data-name="그룹 13918" transform="translate(0 0)">
    <rect id="사각형_12311" data-name="사각형 12311" width="27.925" height="28.964" transform="translate(0.75 0.75)" fill="#fff"/>
    <g id="그룹_13915" data-name="그룹 13915" transform="translate(0 0)">
      <g id="그룹_13914" data-name="그룹 13914" clip-path="url(#clip-path)">
        <rect id="사각형_12312" data-name="사각형 12312" width="26.672" height="27.62" transform="translate(0.716 0.716)" fill="none" stroke="#5948b0" stroke-width="1.5"/>
      </g>
    </g>
    <path id="패스_21407" data-name="패스 21407" d="M6.506,8.943h0Z" transform="translate(-0.497 -0.415)" fill="#fff"/>
    <line id="선_1561" data-name="선 1561" x2="16.415" transform="translate(6.009 8.528)" fill="none" stroke="#5948b0" stroke-width="1.5"/>
    <path id="패스_21408" data-name="패스 21408" d="M6.506,15.232h0Z" transform="translate(-0.497 -0.707)" fill="#fff"/>
    <line id="선_1562" data-name="선 1562" x2="16.415" transform="translate(6.009 14.525)" fill="none" stroke="#5948b0" stroke-width="1.5"/>
    <path id="패스_21409" data-name="패스 21409" d="M6.506,21.521h0Z" transform="translate(-0.383 -0.999)" fill="#fff"/>
    <line id="선_1563" data-name="선 1563" x2="9.473" transform="translate(6.123 20.522)" fill="none" stroke="#5948b0" stroke-width="1.5"/>
    <path id="패스_21413" data-name="패스 21413" d="M0,0H26.391V28.085H0Z" transform="translate(10.859 11.165)" fill="#cfcbef"/>
    <g id="그룹_13917" data-name="그룹 13917" transform="translate(0 0)">
      <g id="그룹_13916" data-name="그룹 13916" clip-path="url(#clip-path)">
        <rect id="사각형_12315" data-name="사각형 12315" width="26.672" height="27.621" transform="translate(10.612 11.664)" fill="none" stroke="#5948b0" stroke-linecap="round" stroke-linejoin="round" stroke-width="1.5"/>
      </g>
    </g>
    <path id="패스_21410" data-name="패스 21410" d="M16.867,20.424h0Z" transform="translate(-1.288 -0.948)" fill="#bceaff"/>
    <line id="선_1564" data-name="선 1564" x2="16.415" transform="translate(15.578 19.476)" fill="none" stroke="#5948b0" stroke-width="1.5"/>
    <path id="패스_21411" data-name="패스 21411" d="M16.867,26.714h0Z" transform="translate(-1.288 -1.24)" fill="#bceaff"/>
    <line id="선_1565" data-name="선 1565" x2="16.415" transform="translate(15.578 25.474)" fill="none" stroke="#5948b0" stroke-width="1.5"/>
    <path id="패스_21412" data-name="패스 21412" d="M16.867,33h0Z" transform="translate(-0.993 -1.532)" fill="#bceaff"/>
    <line id="선_1566" data-name="선 1566" x2="9.473" transform="translate(15.873 31.471)" fill="none" stroke="#5948b0" stroke-width="1.5"/>
  </g>
</svg>
