<svg xmlns="http://www.w3.org/2000/svg" xmlns:xlink="http://www.w3.org/1999/xlink" width="38" height="42" viewBox="0 0 38 42">
  <defs>
    <clipPath id="clip-path">
      <rect id="사각형_12310" data-name="사각형 12310" width="38" height="42" fill="none"/>
    </clipPath>
  </defs>
  <g id="그룹_13913" data-name="그룹 13913" transform="translate(0 0)">
    <g id="그룹_13912" data-name="그룹 13912" transform="translate(0 0)" clip-path="url(#clip-path)">
      <path id="패스_21401" data-name="패스 21401" d="M11.8,34.773v-.485H27.334V7.434H.75V34.773a7.048,7.048,0,0,0,4.339,6.505H7.463a7.048,7.048,0,0,0,4.34-6.505" transform="translate(-0.002 -0.025)" fill="#cfcbef"/>
      <path id="패스_21402" data-name="패스 21402" d="M11.8,34.773v-.485H27.334V7.434H.75V34.773a7.048,7.048,0,0,0,4.339,6.505H7.463A7.048,7.048,0,0,0,11.8,34.773Z" transform="translate(-0.002 -0.025)" fill="none" stroke="#5948b0" stroke-linecap="round" stroke-linejoin="round" stroke-width="1.5"/>
      <path id="패스_21403" data-name="패스 21403" d="M27.408,41.368h.474a7.047,7.047,0,0,0,4.341-6.505v-.485H27.408" transform="translate(-0.076 -0.116)" fill="#fff"/>
      <path id="패스_21404" data-name="패스 21404" d="M27.408,41.368h.474a7.047,7.047,0,0,0,4.341-6.505v-.485H27.408" transform="translate(-0.076 -0.116)" fill="none" stroke="#5948b0" stroke-width="1.5"/>
      <path id="패스_21405" data-name="패스 21405" d="M27.353,34.378H11.822v.485a7.048,7.048,0,0,1-4.34,6.505H27.353" transform="translate(-0.021 -0.116)" fill="#fff"/>
      <path id="패스_21406" data-name="패스 21406" d="M27.353,34.378H11.822v.485a7.048,7.048,0,0,1-4.34,6.505H27.353" transform="translate(-0.021 -0.116)" fill="none" stroke="#5948b0" stroke-width="1.5"/>
      <rect id="사각형_12308" data-name="사각형 12308" width="18.247" height="22.912" transform="translate(19.005 0.747)" fill="#fff"/>
      <rect id="사각형_12309" data-name="사각형 12309" width="18.247" height="22.912" transform="translate(19.005 0.747)" fill="none" stroke="#5948b0" stroke-width="1.5"/>
      <line id="선_1555" data-name="선 1555" x2="7.952" transform="translate(23.918 6.126)" fill="#fff"/>
      <line id="선_1556" data-name="선 1556" x2="7.952" transform="translate(23.918 7.126)" fill="none" stroke="#5948b0" stroke-width="1.5"/>
      <line id="선_1557" data-name="선 1557" x2="7.952" transform="translate(23.918 11.034)" fill="#fff"/>
      <line id="선_1558" data-name="선 1558" x2="7.952" transform="translate(23.918 12.034)" fill="none" stroke="#5948b0" stroke-width="1.5"/>
      <line id="선_1559" data-name="선 1559" x2="7.952" transform="translate(23.918 15.945)" fill="#fff"/>
      <line id="선_1560" data-name="선 1560" x2="7.952" transform="translate(23.918 16.945)" fill="none" stroke="#5948b0" stroke-width="1.5"/>
    </g>
  </g>
</svg>
