<svg xmlns="http://www.w3.org/2000/svg" xmlns:xlink="http://www.w3.org/1999/xlink" width="44" height="36" viewBox="0 0 44 36">
  <defs>
    <clipPath id="clip-path">
      <rect id="사각형_12400" data-name="사각형 12400" width="44" height="36" fill="none"/>
    </clipPath>
  </defs>
  <g id="아이콘02" transform="translate(0 0)">
    <g id="그룹_13965" data-name="그룹 13965" transform="translate(0 0)" clip-path="url(#clip-path)">
      <path id="패스_21448" data-name="패스 21448" d="M.75,31.983A4.931,4.931,0,0,0,5.665,36.93H38.492a4.932,4.932,0,0,0,4.916-4.947V16.141H.75Z" transform="translate(-0.079 -1.606)" fill="#fff"/>
      <path id="패스_21449" data-name="패스 21449" d="M.75,31.983A4.931,4.931,0,0,0,5.665,36.93H38.492a4.932,4.932,0,0,0,4.916-4.947V16.141H.75Z" transform="translate(-0.079 -1.606)" fill="none" stroke="#5948b0" stroke-width="1.5"/>
      <rect id="사각형_12398" data-name="사각형 12398" width="42.658" height="6.237" transform="translate(0.671 8.298)" fill="#cfcbef"/>
      <rect id="사각형_12399" data-name="사각형 12399" width="42.658" height="6.237" transform="translate(0.671 8.298)" fill="none" stroke="#5948b0" stroke-linecap="round" stroke-linejoin="round" stroke-width="1.5"/>
      <path id="패스_21450" data-name="패스 21450" d="M43.408,5.7A4.932,4.932,0,0,0,38.492.75H5.665A4.931,4.931,0,0,0,.75,5.7V8.373H43.408Z" transform="translate(-0.079 -0.075)" fill="#fff"/>
      <path id="패스_21451" data-name="패스 21451" d="M43.408,5.7A4.932,4.932,0,0,0,38.492.75H5.665A4.931,4.931,0,0,0,.75,5.7V8.373H43.408Z" transform="translate(-0.079 -0.075)" fill="none" stroke="#5948b0" stroke-width="1.5"/>
      <path id="패스_21452" data-name="패스 21452" d="M40.455,25.242a1.891,1.891,0,0,1-1.885,1.9H28.338a1.9,1.9,0,0,1,0-3.793H38.57a1.891,1.891,0,0,1,1.885,1.9" transform="translate(-2.782 -2.322)" fill="#cfcbef"/>
      <path id="패스_21453" data-name="패스 21453" d="M40.455,25.242a1.891,1.891,0,0,1-1.885,1.9H28.338a1.9,1.9,0,0,1,0-3.793H38.57A1.891,1.891,0,0,1,40.455,25.242Z" transform="translate(-2.782 -2.322)" fill="none" stroke="#5948b0" stroke-linecap="round" stroke-linejoin="round" stroke-width="1.5"/>
    </g>
  </g>
</svg>
