<svg xmlns="http://www.w3.org/2000/svg" xmlns:xlink="http://www.w3.org/1999/xlink" width="46" height="40" viewBox="0 0 46 40">
  <defs>
    <clipPath id="clip-path">
      <rect id="사각형_12394" data-name="사각형 12394" width="46" height="40" fill="none"/>
    </clipPath>
  </defs>
  <g id="아이콘01" transform="translate(0 0)">
    <g id="그룹_13961" data-name="그룹 13961" transform="translate(0 0)" clip-path="url(#clip-path)">
      <path id="패스_21437" data-name="패스 21437" d="M45.219,18.52A17.813,17.813,0,1,1,27.4.75,17.792,17.792,0,0,1,45.219,18.52" transform="translate(0.029 0)" fill="#cfcbef"/>
      <path id="패스_21438" data-name="패스 21438" d="M45.219,18.52A17.813,17.813,0,1,1,27.4.75,17.792,17.792,0,0,1,45.219,18.52Z" transform="translate(0.029 0)" fill="none" stroke="#5948b0" stroke-linecap="round" stroke-linejoin="round" stroke-width="1.5"/>
      <path id="패스_21439" data-name="패스 21439" d="M36.377,21.478A17.813,17.813,0,1,1,18.563,3.707,17.792,17.792,0,0,1,36.377,21.478" transform="translate(0.002 0.002)" fill="#fff"/>
      <path id="패스_21440" data-name="패스 21440" d="M36.377,21.478A17.813,17.813,0,1,1,18.563,3.707,17.792,17.792,0,0,1,36.377,21.478Z" transform="translate(0.002 0.002)" fill="none" stroke="#5948b0" stroke-width="1.5"/>
      <path id="패스_21441" data-name="패스 21441" d="M10.178,15.294l4.35,13.476,4.35-13.247L22.541,28.77l3.893-13.019" transform="translate(0.031 0.009)" fill="none" stroke="#5948b0" stroke-linecap="round" stroke-linejoin="round" stroke-width="1.5"/>
      <line id="선_1567" data-name="선 1567" x1="18.087" transform="translate(9.522 21.698)" fill="none" stroke="#5948b0" stroke-linecap="round" stroke-linejoin="round" stroke-width="1.5"/>
    </g>
  </g>
</svg>
