<svg xmlns="http://www.w3.org/2000/svg" xmlns:xlink="http://www.w3.org/1999/xlink" width="65" height="65" viewBox="0 0 65 65">
  <defs>
    <clipPath id="clip-path">
      <circle id="타원_580" data-name="타원 580" cx="32.5" cy="32.5" r="32.5" transform="translate(408 779)" fill="#ebeff5"/>
    </clipPath>
    <clipPath id="clip-path-2">
      <rect id="사각형_3538" data-name="사각형 3538" width="41" height="71" fill="none"/>
    </clipPath>
  </defs>
  <g id="마스크_그룹_260" data-name="마스크 그룹 260" transform="translate(-408 -779)" clip-path="url(#clip-path)">
    <g id="그룹_2143" data-name="그룹 2143" transform="translate(418.958 784.788)">
      <g id="그룹_2142" data-name="그룹 2142" transform="translate(1.042 0.212)" clip-path="url(#clip-path-2)">
        <path id="패스_5144" data-name="패스 5144" d="M37.959,21.714v-5.7S38.448,9.4,32.2,8.864C32.2,8.864,18.391,6.481,18,1,18,1,2.2,8.889,7.7,21.767" transform="translate(-2.09 -0.325)" fill="#adadad"/>
        <path id="패스_5145" data-name="패스 5145" d="M7.382,22.118a.681.681,0,0,1-.627-.412C1.072,8.4,17.217.154,17.381.072a.688.688,0,0,1,.643.016.676.676,0,0,1,.342.539C18.652,4.688,28.3,7.235,32,7.874c5.415.461,6.509,5.344,6.324,7.861l0,5.654a.68.68,0,0,1-1.361,0v-5.7c.018-.291.355-6-5.141-6.474-.607-.1-12.865-2.279-14.615-7.506-3.089,1.769-13.75,8.812-9.2,19.472a.673.673,0,0,1-.361.885.686.686,0,0,1-.266.054" transform="translate(-1.772 0)" fill="#999"/>
        <path id="패스_5146" data-name="패스 5146" d="M40.639,80.475A11.477,11.477,0,0,0,28.933,69.242H12.7A11.475,11.475,0,0,0,1,80.475V92.82H40.639Z" transform="translate(-0.32 -22.496)" fill="#fff"/>
        <path id="패스_5147" data-name="패스 5147" d="M40.32,93.171H.68A.678.678,0,0,1,0,92.5V80.15A12.167,12.167,0,0,1,12.384,68.242H28.613A12.169,12.169,0,0,1,41,80.15V92.5a.678.678,0,0,1-.68.675M1.361,91.82H39.639V80.15A10.812,10.812,0,0,0,28.613,69.592H12.384A10.81,10.81,0,0,0,1.361,80.15Z" transform="translate(0 -22.171)" fill="#999"/>
        <path id="패스_5148" data-name="패스 5148" d="M32.771,66.177V69c0,2.035-2.082,3.685-4.651,3.685S23.471,71.031,23.471,69V66.035" transform="translate(-7.503 -21.454)" fill="#fff"/>
        <path id="패스_5149" data-name="패스 5149" d="M27.8,73.031c-2.938,0-5.328-1.956-5.328-4.361V65.71a.68.68,0,0,1,1.361,0v2.96c0,1.66,1.78,3.01,3.968,3.01s3.971-1.35,3.971-3.01V65.853a.68.68,0,0,1,1.361,0v2.818c0,2.4-2.392,4.361-5.332,4.361" transform="translate(-7.183 -21.129)" fill="#999"/>
        <path id="패스_5150" data-name="패스 5150" d="M53.65,43.281a4.232,4.232,0,0,1-8.464,0v-.8a4.232,4.232,0,0,1,8.464,0Z" transform="translate(-14.444 -12.437)" fill="#fff"/>
        <path id="패스_5151" data-name="패스 5151" d="M49.1,47.829a4.9,4.9,0,0,1-4.913-4.874v-.8a4.913,4.913,0,0,1,9.825,0v.8A4.9,4.9,0,0,1,49.1,47.829m0-9.2a3.542,3.542,0,0,0-3.552,3.523v.8a3.552,3.552,0,0,0,7.1,0v-.8A3.541,3.541,0,0,0,49.1,38.631" transform="translate(-14.125 -12.112)" fill="#999"/>
        <path id="패스_5152" data-name="패스 5152" d="M4.018,43.281a4.232,4.232,0,0,0,8.463,0v-.8a4.232,4.232,0,0,0-8.463,0Z" transform="translate(-1.284 -12.437)" fill="#fff"/>
        <path id="패스_5153" data-name="패스 5153" d="M7.928,47.829a4.9,4.9,0,0,1-4.911-4.874v-.8a4.912,4.912,0,0,1,9.824,0v.8a4.9,4.9,0,0,1-4.913,4.874m0-9.2a3.541,3.541,0,0,0-3.551,3.523v.8a3.551,3.551,0,0,0,7.1,0v-.8a3.542,3.542,0,0,0-3.552-3.523" transform="translate(-0.964 -12.112)" fill="#999"/>
        <path id="패스_5154" data-name="패스 5154" d="M26.658,23.4c3.636-1.231,9.311,1.408,11.894,5.456,0,.7.01,1.039.01,1.121v7.733a14.96,14.96,0,0,1-29.92,0V28.859A35.991,35.991,0,0,0,26.658,23.4" transform="translate(-2.762 -7.504)" fill="#fff"/>
        <path id="패스_5155" data-name="패스 5155" d="M23.283,52.908A15.6,15.6,0,0,1,7.641,37.388V28.534a.672.672,0,0,1,.205-.483.613.613,0,0,1,.491-.192h.117a35.784,35.784,0,0,0,17.524-5.355.647.647,0,0,1,.14-.066,6.857,6.857,0,0,1,2.2-.341c3.768,0,8.277,2.611,10.487,6.075a.669.669,0,0,1,.106.361c0,.518.005.835.008,1v7.858a15.6,15.6,0,0,1-15.639,15.52M9,29.2v8.189a14.28,14.28,0,0,0,28.56,0V29.552c0-.143-.007-.406-.008-.818-2.016-3.025-5.948-5.285-9.232-5.285a5.539,5.539,0,0,0-1.691.245A37.732,37.732,0,0,1,9,29.2" transform="translate(-2.443 -7.179)" fill="#999"/>
        <path id="패스_5156" data-name="패스 5156" d="M42.518,41.808a1.324,1.324,0,1,1-1.325-1.316,1.319,1.319,0,0,1,1.325,1.316" transform="translate(-12.745 -13.155)" fill="#999"/>
        <path id="패스_5157" data-name="패스 5157" d="M21.141,41.808a1.324,1.324,0,1,1-1.322-1.316,1.322,1.322,0,0,1,1.322,1.316" transform="translate(-5.911 -13.155)" fill="#999"/>
        <path id="패스_5158" data-name="패스 5158" d="M29.642,56.278a4.191,4.191,0,0,1-3.9-2.129A.505.505,0,0,1,26,53.481a.513.513,0,0,1,.674.259,3.219,3.219,0,0,0,2.969,1.526,3.222,3.222,0,0,0,2.945-1.475.512.512,0,0,1,.68-.239.505.505,0,0,1,.241.675,4.242,4.242,0,0,1-3.866,2.052" transform="translate(-8.214 -17.361)" fill="#999"/>
        <path id="패스_5159" data-name="패스 5159" d="M32.188,47.244H30.336a.508.508,0,0,1-.51-.506V42.143a.51.51,0,0,1,1.021,0v4.088h1.342a.506.506,0,1,1,0,1.013" transform="translate(-9.534 -13.527)" fill="#999"/>
        <path id="패스_5160" data-name="패스 5160" d="M26.623,75.5H30.9l1.212,2.27L30.5,80.8H27.074l-1.51-3.247Z" transform="translate(-8.172 -24.529)" fill="#adadad"/>
        <path id="패스_5161" data-name="패스 5161" d="M30.554,81.152h-4.27l-1.831-3.937,1.4-2.714h5.107l1.572,2.945Zm-3.4-1.35h2.58l1.256-2.355-.851-1.6H26.685l-.719,1.394Z" transform="translate(-7.817 -24.204)" fill="#999"/>
        <path id="패스_5162" data-name="패스 5162" d="M36.046,66.339,30.6,72.221l4.2,5.513,5.108-8.944Z" transform="translate(-9.781 -21.553)" fill="#fff"/>
        <path id="패스_5163" data-name="패스 5163" d="M34.478,78.085a.683.683,0,0,1-.543-.268l-4.2-5.513a.672.672,0,0,1,.042-.864l5.447-5.882a.684.684,0,0,1,.867-.112l3.86,2.451a.672.672,0,0,1,.225.9L35.07,77.742a.682.682,0,0,1-.548.341h-.044m-3.315-6.146L34.4,76.183l4.28-7.493-2.836-1.8Z" transform="translate(-9.461 -21.228)" fill="#999"/>
        <path id="패스_5164" data-name="패스 5164" d="M20.284,66.339l5.447,5.882-4.2,5.513L16.426,68.79Z" transform="translate(-5.251 -21.553)" fill="#fff"/>
        <path id="패스_5165" data-name="패스 5165" d="M21.212,78.085h-.045a.683.683,0,0,1-.547-.342L15.514,68.8a.672.672,0,0,1,.225-.9L19.6,65.446a.685.685,0,0,1,.867.111l5.447,5.882a.672.672,0,0,1,.042.864l-4.2,5.514a.684.684,0,0,1-.543.268m-4.2-9.4,4.277,7.494,3.234-4.245L19.85,66.889Z" transform="translate(-4.931 -21.228)" fill="#999"/>
        <path id="패스_5166" data-name="패스 5166" d="M27.129,83.8h3.424l1.31,7.812-3.023,5.141-3.423-5.192Z" transform="translate(-8.125 -27.224)" fill="#adadad"/>
        <path id="패스_5167" data-name="패스 5167" d="M28.521,97.1a.683.683,0,0,1-.569-.305L24.529,91.6a.67.67,0,0,1-.1-.514l1.712-7.761a.678.678,0,0,1,.664-.531h3.424a.679.679,0,0,1,.671.564l1.31,7.812a.662.662,0,0,1-.084.451l-3.023,5.141a.681.681,0,0,1-.57.335h-.017m-2.7-6,2.664,4.041,2.344-3.987-1.175-7.008h-2.3Z" transform="translate(-7.805 -26.899)" fill="#999"/>
      </g>
    </g>
  </g>
</svg>
