<svg xmlns="http://www.w3.org/2000/svg" xmlns:xlink="http://www.w3.org/1999/xlink" width="91" height="91" viewBox="0 0 91 91">
  <defs>
    <clipPath id="clip-path">
      <circle id="타원_190" data-name="타원 190" cx="45.5" cy="45.5" r="45.5" transform="translate(1 1)" fill="#fff"/>
    </clipPath>
    <clipPath id="clip-path-2">
      <rect id="사각형_4355" data-name="사각형 4355" width="67.247" height="93.314" fill="none"/>
    </clipPath>
  </defs>
  <g id="그룹_3260" data-name="그룹 3260" transform="translate(-780 -452)">
    <circle id="타원_189" data-name="타원 189" cx="45.5" cy="45.5" r="45.5" transform="translate(780 452)" fill="#fff"/>
    <g id="마스크_그룹_2" data-name="마스크 그룹 2" transform="translate(779 451)" clip-path="url(#clip-path)">
      <g id="그룹_3089" data-name="그룹 3089" transform="translate(11.861 6.163)">
        <g id="그룹_3086" data-name="그룹 3086" transform="translate(0 0)">
          <g id="그룹_3085" data-name="그룹 3085" clip-path="url(#clip-path-2)">
            <path id="패스_5518" data-name="패스 5518" d="M90.656,315.489c.589-11.689-5-24.453-22.618-25.344-10.591-.534-24.237,6.756-25.049,22.941q-.023.454-.027.893c-.033,2.757-.182,5.507-.421,8.255q-.029.338-.047.681c-.352,7.079,3.016,13,23.19,14.019s24.12-4.538,24.481-11.62c.012-.229.019-.458.022-.684.038-2.756.166-5.506.411-8.253.026-.292.047-.589.063-.893" transform="translate(-35.827 -244.736)" fill="#277380"/>
            <path id="패스_5519" data-name="패스 5519" d="M90.656,315.489c.589-11.689-5-24.453-22.618-25.344-10.591-.534-24.237,6.756-25.049,22.941q-.023.454-.027.893c-.033,2.757-.182,5.507-.421,8.255q-.029.338-.047.681c-.352,7.079,3.016,13,23.19,14.019s24.12-4.538,24.481-11.62c.012-.229.019-.458.022-.684.038-2.756.166-5.506.411-8.253C90.62,316.09,90.64,315.793,90.656,315.489Z" transform="translate(-35.827 -244.736)" fill="none" stroke="#131212" stroke-linecap="round" stroke-linejoin="round" stroke-width="2"/>
            <path id="패스_5520" data-name="패스 5520" d="M128.761,386.9l-3.489,3.154L112.656,376.1l6.409.077Z" transform="translate(-95.034 -317.268)" fill="#fef3ee"/>
            <path id="패스_5521" data-name="패스 5521" d="M128.761,386.9l-3.489,3.154L112.656,376.1l6.409.077Z" transform="translate(-95.034 -317.268)" fill="none" stroke="#131212" stroke-linecap="round" stroke-linejoin="round" stroke-width="2"/>
            <rect id="사각형_4353" data-name="사각형 4353" width="15.574" height="4.703" transform="matrix(0.742, -0.671, 0.671, 0.742, 27.304, 70.099)" fill="#fef3ee"/>
            <rect id="사각형_4354" data-name="사각형 4354" width="15.574" height="4.703" transform="matrix(0.742, -0.671, 0.671, 0.742, 27.304, 70.099)" fill="none" stroke="#131212" stroke-linecap="round" stroke-linejoin="round" stroke-width="2"/>
            <path id="패스_5522" data-name="패스 5522" d="M153.63,376.585l14.824.747-7.786,7.042Z" transform="translate(-129.598 -317.677)" fill="#fff"/>
            <path id="패스_5523" data-name="패스 5523" d="M153.63,376.585l14.824.747-7.786,7.042Z" transform="translate(-129.598 -317.677)" fill="none" stroke="#131212" stroke-linecap="round" stroke-linejoin="round" stroke-width="2"/>
            <path id="패스_5524" data-name="패스 5524" d="M190.935,446.049s2.039.88,2.67,4.431.944,6.592.944,6.592,5.849-.528,6.659-5.21c0,0-4.861-9.392-9.131-9.909Z" transform="translate(-161.068 -372.82)" fill="#8497a0"/>
            <path id="패스_5525" data-name="패스 5525" d="M190.935,446.049s2.039.88,2.67,4.431.944,6.592.944,6.592,5.849-.528,6.659-5.21c0,0-4.861-9.392-9.131-9.909Z" transform="translate(-161.068 -372.82)" fill="none" stroke="#131212" stroke-linecap="round" stroke-linejoin="round" stroke-width="2"/>
            <path id="패스_5526" data-name="패스 5526" d="M97.55,434.2s-2.569-1.356-4.433.281-9.762,21.847-9.762,21.847l6.475,1.971,5.011-20.012Z" transform="translate(-70.315 -365.836)" fill="#8497a0"/>
            <path id="패스_5527" data-name="패스 5527" d="M97.55,434.2s-2.569-1.356-4.433.281-9.762,21.847-9.762,21.847l6.475,1.971,5.011-20.012Z" transform="translate(-70.315 -365.836)" fill="none" stroke="#131212" stroke-linecap="round" stroke-linejoin="round" stroke-width="2"/>
            <path id="패스_5528" data-name="패스 5528" d="M161.9,437.742l-3.7-.937a1.3,1.3,0,0,1-.945-1.585l.936-3.705a1.3,1.3,0,0,1,1.583-.945h0l3.7.936a1.3,1.3,0,0,1,.945,1.583h0l-.936,3.705a1.3,1.3,0,0,1-1.584.944" transform="translate(-132.619 -363.184)" fill="#8497a0"/>
            <path id="패스_5529" data-name="패스 5529" d="M157.312,435.241l.914-3.614a1.35,1.35,0,0,1,1.64-.978l3.614.914a1.35,1.35,0,0,1,.978,1.64l-.914,3.614a1.35,1.35,0,0,1-1.64.978l-3.614-.914A1.35,1.35,0,0,1,157.312,435.241Z" transform="translate(-132.669 -363.249)" fill="none" stroke="#131212" stroke-linecap="round" stroke-linejoin="round" stroke-width="2"/>
            <path id="패스_5530" data-name="패스 5530" d="M173.113,530.956s4.5-.765,7.659,1.165a6.315,6.315,0,0,1,2.984,5.39s-2.04,1.8-4.115-.753c-.954-1.174-5.172,1.276-6.81-.222Z" transform="translate(-145.796 -447.774)" fill="#fff"/>
            <path id="패스_5531" data-name="패스 5531" d="M173.113,530.956s4.5-.765,7.659,1.165a6.315,6.315,0,0,1,2.984,5.39s-2.04,1.8-4.115-.753c-.954-1.174-5.172,1.276-6.81-.222Z" transform="translate(-145.796 -447.774)" fill="none" stroke="#131212" stroke-linecap="round" stroke-linejoin="round" stroke-width="2"/>
            <path id="패스_5532" data-name="패스 5532" d="M18.181,344.447s-8.531,2.188-11.5,13.72-1.117,23.143,11.1,23.759,15.488-1.291,15.488-1.291l.4-7.959-3.41-.448-10.279-5.484,1.073-5.327" transform="translate(-4.588 -290.566)" fill="#277380"/>
            <path id="패스_5533" data-name="패스 5533" d="M18.181,344.447s-8.531,2.188-11.5,13.72-1.117,23.143,11.1,23.759,15.488-1.291,15.488-1.291l.4-7.959-3.41-.448-10.279-5.484,1.073-5.327" transform="translate(-4.588 -290.566)" fill="none" stroke="#131212" stroke-linecap="round" stroke-linejoin="round" stroke-width="2"/>
            <path id="패스_5534" data-name="패스 5534" d="M89.925,97.51c-3.335,15.863-18.008,22.5-33.694,19.206S29.786,101.434,33.12,85.571A29.025,29.025,0,1,1,90.058,96.88q-.063.316-.132.631" transform="translate(-27.427 -52.466)" fill="#fff"/>
            <path id="패스_5535" data-name="패스 5535" d="M89.925,97.51c-3.335,15.863-18.008,22.5-33.694,19.206S29.786,101.434,33.12,85.571A29.025,29.025,0,1,1,90.058,96.88Q90,97.2,89.925,97.51Z" transform="translate(-27.427 -52.466)" fill="none" stroke="#141313" stroke-width="2"/>
            <path id="패스_5536" data-name="패스 5536" d="M74.881,84.784a32.184,32.184,0,0,0,10.855-2.8c3.285-1.639,6.049-4.256,7.049-7.513.4,3.651,2.993,7.023,6.409,9.179A24.985,24.985,0,0,0,110.87,87.1a24.188,24.188,0,0,0,5.551-.226c-3.521-8.922-12.862-15.636-23.976-16.239s-20.726,5.085-24.64,13.6a14.621,14.621,0,0,0,7.076.547" transform="translate(-57.198 -59.55)" fill="#131210"/>
            <path id="패스_5537" data-name="패스 5537" d="M61.265,78.978a10.36,10.36,0,0,1-1.859-.568,1.294,1.294,0,0,1-.809-1.641q.012-.035.026-.069c4.232-9.206,14.689-14.979,26.026-14.364s21.513,7.506,25.321,17.151a1.159,1.159,0,0,1-.094,1.056,1.382,1.382,0,0,1-.952.608A25.726,25.726,0,0,1,103,81.4a26.586,26.586,0,0,1-12.443-3.7,16.11,16.11,0,0,1-5.942-6.419,16.521,16.521,0,0,1-5.95,4.842,33.16,33.16,0,0,1-11.373,2.952,19.414,19.414,0,0,1-6.026-.1m5.789-1.2h0ZM88.717,65.475a27.347,27.347,0,0,0-4.129-.541c-9.588-.52-18.474,4.073-22.6,11.543a16.893,16.893,0,0,0,4.83.012,30.268,30.268,0,0,0,10.336-2.65c3.237-1.615,5.567-4.08,6.391-6.762a1.4,1.4,0,0,1,1.532-.9,1.458,1.458,0,0,1,1.335,1.217c.341,3.071,2.5,6.137,5.768,8.2a23.337,23.337,0,0,0,10.91,3.206,24.871,24.871,0,0,0,3.485,0c-3.253-6.69-10.011-11.681-17.855-13.322" transform="translate(-49.373 -52.547)" fill="#131210"/>
            <path id="패스_5538" data-name="패스 5538" d="M309.57,35.355q1.277,1.536,2.564,3.066a3.741,3.741,0,0,0,.287.3c.144.143.3.276.456.4l.176.143a10.334,10.334,0,0,0,1.993,1.2q.421.194.858.358.218.082.44.157,1.068.359,2.138.7l.951.313a.976.976,0,0,0,.187.051.257.257,0,0,0,.132-.016c.073-.143,0-.29-.023-.435q-.568-3.248-1.14-6.5c-.05-.284-.1-.567-.151-.851a.77.77,0,0,0-.079-.232.853.853,0,0,0-.205-.264,1.125,1.125,0,0,0-.118-.1,1.27,1.27,0,0,0-.909-.235,1.384,1.384,0,0,0-.141.024c-1.233.264-2.465.507-3.7.759-1.144.235-2.289.467-3.433.7a.849.849,0,0,0-.452.148.477.477,0,0,0,.165.289" transform="translate(-261.005 -28.192)" fill="#47494b"/>
            <path id="패스_5539" data-name="패스 5539" d="M265.647,21q-.27-.088-.528-.193a7.675,7.675,0,0,1-3.143-2.253c-2.439-2.95-4.9-5.882-7.357-8.821-.079-.1-.157-.193-.24-.283a.2.2,0,0,0-.141-.079.107.107,0,0,0-.062.021.213.213,0,0,0-.057.062,1.112,1.112,0,0,0-.088.156q-.486,1.073-.968,2.147-.861,1.882-1.724,3.762c-.289.634-.565,1.273-.863,1.9-.131.277-.02.311.206.364.184.044.369.083.555.123l.169.038a30.991,30.991,0,0,1,4.078,1.261c.352.136.7.275,1.043.423q.823.352,1.626.759A29.635,29.635,0,0,1,261,22.03q.289.188.574.383c.57.388,1.13.792,1.7,1.179l.042.031a21.844,21.844,0,0,1,2.553,2.1q.643.606,1.249,1.244a30.413,30.413,0,0,1,3.282,4.1c.06.088.122.176.19.264a.112.112,0,0,0,.037.033.125.125,0,0,0,.129-.005.454.454,0,0,0,.058-.042.869.869,0,0,0,.077-.071q.931-.954,1.862-1.911.566-.585,1.135-1.167,1.277-1.314,2.548-2.632a4.874,4.874,0,0,0,.5-.519,1.4,1.4,0,0,0,.14-.234c-.187-.069-.328-.129-.474-.176l-10.956-3.6" transform="translate(-211.246 -7.909)" fill="#47494b"/>
            <path id="패스_5540" data-name="패스 5540" d="M270.782,16.708a.806.806,0,0,0-.376-.589,1.223,1.223,0,0,0-.176-.1,2.721,2.721,0,0,0-.342-.128l-.924-.306c-.763-.252-1.552-.513-2.33-.762a13.206,13.206,0,0,1-1.754-.668c-.415-.2-.781-.4-1.116-.594a.953.953,0,0,1-.5-.728c-.239-1.445-.5-2.91-.748-4.328q-.218-1.226-.431-2.452a2.783,2.783,0,0,0-.358-1,1.821,1.821,0,0,0-1.711-.937,4.406,4.406,0,0,0-.666.088l-1.388.282c-1.784.363-3.63.737-5.443,1.122a.958.958,0,0,1-.851-.21,12.576,12.576,0,0,1-1.842-1.754c-.459-.56-.927-1.12-1.342-1.615L248.21,1.7c-.36-.43-.731-.88-1.108-1.308a.87.87,0,0,0-.9-.337.905.905,0,0,0-.57.546l-.225.5q-.264.58-.522,1.16-.333.731-.667,1.461c-.44.968-.9,1.967-1.342,2.955-.088.2-.188.392-.293.587l-1.3,2.905h.012a30.625,30.625,0,0,1,7.113,1.917,25.947,25.947,0,0,1,3.058,1.384,18.934,18.934,0,0,1,2.866,1.754q.331.26.687.486a16.1,16.1,0,0,1,2.328,1.937,33.8,33.8,0,0,1,4.564,5.327q.7,1.019,1.285,2.082l1.708-1.739a8.635,8.635,0,0,1,.978-1.164q.272-.27.54-.544l3.315-3.412.313-.317c.157-.159.315-.319.47-.481a.857.857,0,0,0,.264-.692M252.4,6.756l3.433-.7c1.232-.253,2.465-.5,3.7-.76a1.356,1.356,0,0,1,.142-.023,1.264,1.264,0,0,1,.909.235,1.376,1.376,0,0,1,.119.1.9.9,0,0,1,.205.264.782.782,0,0,1,.078.232c.047.284.1.567.151.851q.571,3.248,1.14,6.5c.026.143.1.291.023.435a.257.257,0,0,1-.132.015.932.932,0,0,1-.187-.05l-.951-.313q-1.07-.351-2.138-.7-.221-.074-.44-.157-.44-.164-.858-.358a10.252,10.252,0,0,1-1.992-1.2c-.061-.047-.121-.095-.176-.143-.158-.128-.312-.264-.456-.4-.1-.1-.2-.2-.287-.3q-1.292-1.532-2.57-3.069a.479.479,0,0,1-.165-.289.833.833,0,0,1,.455-.147m16.838,10.379a5.146,5.146,0,0,1-.5.519q-1.269,1.321-2.548,2.631l-1.136,1.167q-.929.957-1.861,1.912c-.024.025-.05.048-.077.071a.533.533,0,0,1-.059.042.125.125,0,0,1-.128.005.133.133,0,0,1-.038-.033c-.067-.088-.13-.176-.189-.264a30.532,30.532,0,0,0-3.282-4.1q-.606-.637-1.249-1.243a21.952,21.952,0,0,0-2.553-2.1l-.042-.031c-.568-.39-1.129-.792-1.7-1.178-.189-.129-.381-.258-.574-.383a29.657,29.657,0,0,0-2.851-1.641q-.8-.406-1.626-.76c-.344-.148-.692-.288-1.043-.423a30.886,30.886,0,0,0-4.074-1.26l-.17-.038c-.185-.04-.37-.079-.554-.122-.226-.054-.337-.088-.206-.364.3-.629.575-1.269.864-1.9q.851-1.879,1.713-3.76.488-1.071.968-2.147a1.16,1.16,0,0,1,.088-.156.21.21,0,0,1,.057-.062.108.108,0,0,1,.062-.022.2.2,0,0,1,.141.079,3.715,3.715,0,0,1,.24.284c2.454,2.938,4.916,5.871,7.357,8.82a7.667,7.667,0,0,0,3.143,2.253q.264.1.528.194,5.474,1.812,10.956,3.6c.146.048.289.107.475.176a1.439,1.439,0,0,1-.14.234" transform="translate(-203.54 -0.029)" fill="#141313"/>
            <path id="패스_5541" data-name="패스 5541" d="M127.736,245.766a28.258,28.258,0,0,0,.535-7.819c-10.475,17.342-24.831,25.128-49.925,17.285a31.7,31.7,0,0,0,16.792,8.94c15.191,3.187,29.39-3.169,32.6-18.407" transform="translate(-66.091 -200.726)" fill="#e7e6e3"/>
            <path id="패스_5542" data-name="패스 5542" d="M93.446,242.683c-.352,2.1-3.162,3.379-6.284,2.861s-5.37-2.641-5.018-4.739,3.162-3.38,6.284-2.861,5.37,2.641,5.018,4.739" transform="translate(-69.265 -200.625)" fill="#edc8de"/>
            <path id="패스_5543" data-name="패스 5543" d="M279.71,277.072c-.352,2.1-3.162,3.379-6.284,2.861s-5.37-2.641-5.018-4.739,3.162-3.381,6.284-2.861,5.37,2.641,5.018,4.739" transform="translate(-226.392 -229.635)" fill="#edc8de"/>
            <path id="패스_5544" data-name="패스 5544" d="M193.956,232.737c-.462,2.154-3.311,3.371-6.364,2.716s-5.154-2.931-4.693-5.085,3.311-3.371,6.364-2.717,5.154,2.931,4.693,5.085" transform="translate(-154.235 -191.891)" fill="#36925c"/>
            <path id="패스_5545" data-name="패스 5545" d="M118.853,163.815c-1.516,3.9-5.377,6.03-8.627,4.768s-4.65-5.446-3.134-9.342,5.377-6.031,8.627-4.768,4.65,5.446,3.134,9.342" transform="translate(-89.824 -130.002)" fill="#131210"/>
            <path id="패스_5546" data-name="패스 5546" d="M160.063,174.915a1.242,1.242,0,1,1-1.376-1.092h0a1.242,1.242,0,0,1,1.375,1.093" transform="translate(-132.936 -146.625)" fill="#fff"/>
            <path id="패스_5547" data-name="패스 5547" d="M265.276,194.172c.221,4.175,3.221,7.41,6.7,7.225s6.119-3.717,5.9-7.893-3.222-7.41-6.7-7.225-6.121,3.717-5.9,7.893" transform="translate(-223.769 -157.134)" fill="#131210"/>
            <path id="패스_5548" data-name="패스 5548" d="M287.03,205.6a1.242,1.242,0,1,1-1.376-1.092h0a1.242,1.242,0,0,1,1.375,1.092" transform="translate(-240.042 -172.512)" fill="#fff"/>
            <path id="패스_5549" data-name="패스 5549" d="M23.475,508.532c11.592.566,14.691-1.187,14.691-1.187l.3-5.823c-8.443,1.522-19,4.779-26.7-5.966.16,7.009,3.42,12.573,11.7,12.976" transform="translate(-9.931 -418.038)" fill="#205f65"/>
            <path id="패스_5550" data-name="패스 5550" d="M161.624,522.044l-.47,9.331a16.049,16.049,0,0,0,3.475-.928l.4-7.959Z" transform="translate(-135.945 -440.382)" fill="#fef3ee"/>
            <path id="패스_5551" data-name="패스 5551" d="M161.624,522.044l-.47,9.331a16.049,16.049,0,0,0,3.475-.928l.4-7.959Z" transform="translate(-135.945 -440.382)" fill="none" stroke="#131212" stroke-linecap="round" stroke-linejoin="round" stroke-width="2"/>
          </g>
        </g>
        <g id="그룹_3088" data-name="그룹 3088">
          <g id="그룹_3087" data-name="그룹 3087" clip-path="url(#clip-path-2)">
            <path id="패스_5552" data-name="패스 5552" d="M167.355,298.129a35,35,0,0,1-8.641-1.158,37.087,37.087,0,0,1-8.407-2.8s-.987,6.158,7.187,8.053,9.86-4.1,9.86-4.1" transform="translate(-126.763 -248.159)" fill="#e16049"/>
            <path id="패스_5553" data-name="패스 5553" d="M167.355,298.129a35,35,0,0,1-8.641-1.158,37.087,37.087,0,0,1-8.407-2.8s-.987,6.158,7.187,8.053S167.355,298.129,167.355,298.129Z" transform="translate(-126.763 -248.159)" fill="none" stroke="#131212" stroke-linecap="round" stroke-linejoin="round" stroke-width="2"/>
            <path id="패스_5554" data-name="패스 5554" d="M297.382,384.579l7.089,3.991a7.691,7.691,0,0,1,3.592,5.741,7.393,7.393,0,0,1-.982,5.007c-2.765,4.413-6.574,2.522-8.417,1.026s-5.253-7.024-5.253-7.024Z" transform="translate(-247.513 -324.42)" fill="#277380"/>
            <path id="패스_5555" data-name="패스 5555" d="M297.382,384.579l7.089,3.991a7.691,7.691,0,0,1,3.592,5.741,7.393,7.393,0,0,1-.982,5.007c-2.765,4.413-6.574,2.522-8.417,1.026s-5.253-7.024-5.253-7.024Z" transform="translate(-247.513 -324.42)" fill="none" stroke="#131212" stroke-linecap="round" stroke-linejoin="round" stroke-width="2"/>
            <path id="패스_5556" data-name="패스 5556" d="M328.744,427.436c1.492,1.3,4.574,2.95,6.81-.892a7.409,7.409,0,0,0-1.977-9.269c-.05,4.168-.918,9.506-5.508,9.447a6.618,6.618,0,0,0,.676.714" transform="translate(-276.758 -351.989)" fill="#205f65"/>
            <path id="패스_5557" data-name="패스 5557" d="M315.012,301.423s-1.283-5.782.206-10.667c0,0,.348-1.944-1.914-1.929s-4.81,3.064-4.737,8.851" transform="translate(-260.297 -243.646)" fill="#fff"/>
            <path id="패스_5558" data-name="패스 5558" d="M315.012,301.423s-1.283-5.782.206-10.667c0,0,.348-1.944-1.914-1.929s-4.81,3.064-4.737,8.851" transform="translate(-260.297 -243.646)" fill="none" stroke="#131212" stroke-linecap="round" stroke-linejoin="round" stroke-width="2"/>
            <path id="패스_5559" data-name="패스 5559" d="M244.2,335.687a3.1,3.1,0,0,1,3.164-2.045A3.1,3.1,0,0,1,246.4,330a3.054,3.054,0,0,1,3.606-1.967l6.968,2.11a3.88,3.88,0,0,1,.638.183c3.152,1.222,4.113,6.328,2.147,11.4s-6.116,8.194-9.268,6.972a3.888,3.888,0,0,1-.6-.294l-6.569-3.138a3.054,3.054,0,0,1-1.338-3.883,3.1,3.1,0,0,1,3.164-2.045,3.1,3.1,0,0,1-.96-3.645" transform="translate(-203.924 -276.643)" fill="#fff"/>
            <path id="패스_5560" data-name="패스 5560" d="M244.2,335.687a3.1,3.1,0,0,1,3.164-2.045A3.1,3.1,0,0,1,246.4,330a3.054,3.054,0,0,1,3.606-1.967l6.968,2.11a3.88,3.88,0,0,1,.638.183c3.152,1.222,4.113,6.328,2.147,11.4s-6.116,8.194-9.268,6.972a3.888,3.888,0,0,1-.6-.294l-6.569-3.138a3.054,3.054,0,0,1-1.338-3.883,3.1,3.1,0,0,1,3.164-2.045A3.1,3.1,0,0,1,244.2,335.687Z" transform="translate(-203.924 -276.643)" fill="none" stroke="#131212" stroke-linecap="round" stroke-linejoin="round" stroke-width="2"/>
            <path id="패스_5561" data-name="패스 5561" d="M272.518,379.2c2.775,1.109,6.427-1.721,8.158-6.331,1.171-3.115,1.159-6.24.17-8.282-.868,4.528-4.894,12.435-13.843,11.886l4.991,2.46a3.325,3.325,0,0,0,.524.268" transform="translate(-225.772 -308.122)" fill="#e5e6e6"/>
          </g>
        </g>
      </g>
    </g>
  </g>
</svg>
