<svg xmlns="http://www.w3.org/2000/svg" width="21" height="21" viewBox="0 0 21 21">
  <g id="그룹_3825" data-name="그룹 3825" transform="translate(-777.131 -237.13)">
    <path id="패스_5700" data-name="패스 5700" d="M11.082,15.436c.125-.151-.472-.85-1.333-1.561s-1.661-1.164-1.786-1.013a.073.073,0,0,0-.008.018l-.019-.016-.18,1.963L7.612,16.4l1.545-.416,1.927-.52-.019-.016A.075.075,0,0,0,11.082,15.436Z" transform="translate(776.532 235.487)" fill="none" stroke="#8c9197" stroke-linecap="round" stroke-linejoin="round" stroke-width="1.5"/>
    <path id="패스_5701" data-name="패스 5701" d="M14.807,8.328a6.337,6.337,0,0,0-1.429-1.179,5.356,5.356,0,0,0-1.066-.5Q10.149,9.269,7.988,11.89a5.388,5.388,0,0,1,1.067.5,6.347,6.347,0,0,1,1.428,1.179,5.364,5.364,0,0,1,.692.953L15.5,9.281A5.39,5.39,0,0,0,14.807,8.328Z" transform="translate(776.332 236.606)" fill="none" stroke="#8c9197" stroke-linecap="round" stroke-linejoin="round" stroke-width="1.5"/>
    <g id="패스_5702" data-name="패스 5702" transform="translate(777.881 237.88)" fill="none" stroke-linecap="round" stroke-linejoin="round">
      <path d="M18.75,9.75a9,9,0,1,1-9-9A9,9,0,0,1,18.75,9.75Z" stroke="none"/>
      <path d="M 9.749607086181641 18.7500171661377 C 14.72010707855225 18.7500171661377 18.7500171661377 14.72091674804688 18.7500171661377 9.750406265258789 C 18.7500171661377 4.779906749725342 14.72010707855225 0.7499966621398926 9.749607086181641 0.7499966621398926 C 4.779096603393555 0.7499966621398926 0.7499966621398926 4.779906749725342 0.7499966621398926 9.750406265258789 C 0.7499966621398926 14.72091674804688 4.779096603393555 18.7500171661377 9.749607086181641 18.7500171661377 M 9.749607086181641 20.2500171661377 C 6.944976806640625 20.2500171661377 4.308276653289795 19.15788650512695 2.325196743011475 17.1748161315918 C 0.3421266674995422 15.19173622131348 -0.7500033378601074 12.5550365447998 -0.7500033378601074 9.750406265258789 C -0.7500033378601074 3.960456609725952 3.960106611251831 -0.7500033378601074 9.749607086181641 -0.7500033378601074 C 15.5395565032959 -0.7500033378601074 20.2500171661377 3.960456609725952 20.2500171661377 9.750406265258789 C 20.2500171661377 15.53990650177002 15.5395565032959 20.2500171661377 9.749607086181641 20.2500171661377 Z" stroke="none" fill="#8c9197"/>
    </g>
  </g>
</svg>
