<svg id="logo_eduvation" xmlns="http://www.w3.org/2000/svg" xmlns:xlink="http://www.w3.org/1999/xlink" width="160" height="49" viewBox="0 0 160 49">
  <defs>
    <clipPath id="clip-path">
      <rect id="사각형_2631" data-name="사각형 2631" width="160" height="49" fill="none"/>
    </clipPath>
  </defs>
  <g id="그룹_1541" data-name="그룹 1541" clip-path="url(#clip-path)">
    <path id="패스_2068" data-name="패스 2068" d="M63.81,1.4A2.142,2.142,0,0,0,61.761,0H60.323L65,10.849a2.144,2.144,0,0,0,2.05,1.4h1.437Z" transform="translate(-10.784)"/>
    <path id="패스_2069" data-name="패스 2069" d="M121.946,46.4A2.142,2.142,0,0,0,119.9,45h-1.438l4.679,10.849a2.144,2.144,0,0,0,2.05,1.4h1.437Z" transform="translate(-21.177 -8.25)"/>
    <path id="패스_2070" data-name="패스 2070" d="M14.269,28.683V25.817H2.882v-7.95h9.876a1.474,1.474,0,0,0,1.511-1.433V15H1.51A1.473,1.473,0,0,0,0,16.433V38.068A1.473,1.473,0,0,0,1.51,39.5H14.269V38.068a1.474,1.474,0,0,0-1.511-1.433H2.882V28.683Z" transform="translate(0 -2.75)"/>
    <path id="패스_2071" data-name="패스 2071" d="M61.794,15a1.472,1.472,0,0,0-1.5,1.432V31.347a5.317,5.317,0,0,1-10.633,0V16.432A1.472,1.472,0,0,0,48.17,15H46.784V31.347a8.2,8.2,0,0,0,16.4,0V15Z" transform="translate(-8.363 -2.75)"/>
    <path id="패스_2072" data-name="패스 2072" d="M82.131,39.009,92.49,15H91.1A2.5,2.5,0,0,0,89,16.4L81.378,34.076,73.754,16.4a2.5,2.5,0,0,0-2.1-1.4H70.267L80.626,39.009a.822.822,0,0,0,1.505,0" transform="translate(-12.561 -2.75)"/>
    <path id="패스_2073" data-name="패스 2073" d="M151.481,39.511a12.23,12.23,0,1,1,12.3-12.23,12.278,12.278,0,0,1-12.3,12.23m0-21.593a9.364,9.364,0,1,0,9.415,9.363,9.4,9.4,0,0,0-9.415-9.363" transform="translate(-24.881 -2.759)"/>
    <path id="패스_2074" data-name="패스 2074" d="M116.86,15a1.474,1.474,0,0,0-1.511,1.433v1.433h5.438V39.5h1.372a1.473,1.473,0,0,0,1.51-1.433v-20.2H127.6a1.473,1.473,0,0,0,1.511-1.433V15Z" transform="translate(-20.621 -2.75)"/>
    <path id="패스_2075" data-name="패스 2075" d="M136.783,38.477V15H135.4a1.472,1.472,0,0,0-1.5,1.432V39.5h1.441a1.5,1.5,0,0,0,1.441-1.025" transform="translate(-23.937 -2.75)"/>
    <path id="패스_2076" data-name="패스 2076" d="M103.263,15.49a.822.822,0,0,0-.743-.49H102.5a.82.82,0,0,0-.743.49L91.4,39.5h1.372a2.5,2.5,0,0,0,2.114-1.4l7.625-17.673L110.135,38.1a2.5,2.5,0,0,0,2.114,1.4h1.371Z" transform="translate(-16.339 -2.75)"/>
    <path id="패스_2077" data-name="패스 2077" d="M189.175,15a1.472,1.472,0,0,0-1.5,1.432v17.69L172.423,15.488a1.306,1.306,0,0,0-.94-.487h-.521V39.5h1.371a1.474,1.474,0,0,0,1.512-1.433V20.744L188.8,39.011a1.307,1.307,0,0,0,.944.488h.82V15Z" transform="translate(-30.562 -2.75)"/>
    <path id="패스_2078" data-name="패스 2078" d="M28.227,15H20.767a1.473,1.473,0,0,0-1.51,1.432V38.068a1.473,1.473,0,0,0,1.51,1.433h7.459a12.251,12.251,0,1,0,0-24.5m0,21.634H22.139V17.867h6.088a9.384,9.384,0,1,1,0,18.768" transform="translate(-3.443 -2.75)"/>
  </g>
</svg>
