<svg xmlns="http://www.w3.org/2000/svg" width="68" height="96" viewBox="0 0 68 96">
  <g id="그룹_3277" data-name="그룹 3277" transform="translate(-1191 -288)">
    <ellipse id="타원_221" data-name="타원 221" cx="30" cy="7.5" rx="30" ry="7.5" transform="translate(1195 369)" fill="rgba(0,0,0,0.05)"/>
    <g id="그룹_3114" data-name="그룹 3114" transform="translate(1191 288)">
      <g id="그룹_1224" data-name="그룹 1224" transform="translate(0 0)">
        <g id="그룹_1222" data-name="그룹 1222" transform="translate(36.596)">
          <path id="패스_1359" data-name="패스 1359" d="M1339.526,190.508a6.46,6.46,0,0,1-2.918-1.45c-2.428-2.124-4.872-4.231-7.309-6.345,2.437,2.114,4.881,4.221,7.309,6.345A6.462,6.462,0,0,0,1339.526,190.508Z" transform="translate(-1325.741 -181.251)" fill="none"/>
          <path id="패스_1360" data-name="패스 1360" d="M1388.158,217.238l.833.132a.789.789,0,0,0,.162.017.787.787,0,0,1-.162-.017Z" transform="translate(-1371.287 -207.968)" fill="none"/>
          <path id="패스_1361" data-name="패스 1361" d="M1328.045,181.852c-.079-.069-.156-.14-.239-.2a.17.17,0,0,0-.128-.047.17.17,0,0,1,.128.047C1327.89,181.713,1327.967,181.783,1328.045,181.852Z" transform="translate(-1324.487 -180.39)" fill="none"/>
          <path id="패스_1362" data-name="패스 1362" d="M1366,211.144l.168.1a8.688,8.688,0,0,0,1.819.73,8.687,8.687,0,0,1-1.819-.73Z" transform="translate(-1354.144 -203.252)" fill="none"/>
          <path id="패스_1363" data-name="패스 1363" d="M1371.988,230a18.421,18.421,0,0,0-2.409-1.4A18.489,18.489,0,0,1,1371.988,230Z" transform="translate(-1356.91 -216.759)" fill="none"/>
          <path id="패스_1364" data-name="패스 1364" d="M1401.089,252.474a.105.105,0,0,0,.106-.021.428.428,0,0,0,.042-.043.4.4,0,0,1-.042.043A.1.1,0,0,1,1401.089,252.474Z" transform="translate(-1381.294 -235.185)" fill="none"/>
          <path id="패스_1365" data-name="패스 1365" d="M1321.751,214.793l.146.008a26.114,26.114,0,0,1,3.559.5,26.118,26.118,0,0,0-3.559-.5Z" transform="translate(-1319.9 -206.076)" fill="none"/>
          <path id="패스_1366" data-name="패스 1366" d="M1350.99,190.121q1.27,1.105,2.547,2.2c.089.077.183.147.279.215.14.1.285.19.434.275l.168.095a8.687,8.687,0,0,0,1.819.73q.377.105.762.182.193.039.387.071c.624.1,1.249.2,1.874.3l.833.132a.785.785,0,0,0,.161.017.216.216,0,0,0,.107-.031h0c.042-.128-.037-.242-.077-.358q-.91-2.626-1.824-5.251c-.08-.229-.163-.458-.24-.688a.666.666,0,0,0-.1-.183.744.744,0,0,0-.206-.193,1.109,1.109,0,0,0-.111-.064,1.069,1.069,0,0,0-.788-.072,1.19,1.19,0,0,0-.115.038c-.988.383-1.983.754-2.974,1.13q-1.38.523-2.759,1.049a.708.708,0,0,0-.355.184C1350.838,190.015,1350.924,190.063,1350.99,190.121Z" transform="translate(-1342.39 -184.923)" fill="#4d4d4d"/>
          <path id="패스_1367" data-name="패스 1367" d="M1331.686,189.736c-.158-.025-.314-.055-.468-.089a6.465,6.465,0,0,1-2.918-1.45c-2.427-2.124-4.871-4.231-7.309-6.345-.079-.069-.156-.14-.239-.2a.17.17,0,0,0-.128-.047.094.094,0,0,0-.049.026.189.189,0,0,0-.039.059.963.963,0,0,0-.05.141c-.173.639-.344,1.278-.519,1.917q-.458,1.68-.921,3.361c-.155.566-.3,1.136-.461,1.7-.072.248.024.261.22.275.159.012.319.019.478.028l.146.008a26.119,26.119,0,0,1,3.559.5c.309.065.617.134.924.211q.732.184,1.455.412a25.137,25.137,0,0,1,2.593.98q.266.118.529.241c.526.246,1.047.5,1.572.751l.039.02a18.42,18.42,0,0,1,2.409,1.4q.617.418,1.207.866a25.629,25.629,0,0,1,3.283,2.971c.062.066.126.132.194.193a.1.1,0,0,0,.035.022.1.1,0,0,0,.106-.021.4.4,0,0,0,.042-.043.88.88,0,0,0,.055-.07q.646-.92,1.29-1.841l.787-1.124q.885-1.264,1.764-2.533a4.227,4.227,0,0,0,.346-.5,1.158,1.158,0,0,0,.085-.214c-.164-.033-.29-.063-.418-.083C1338.085,190.747,1334.885,190.248,1331.686,189.736Z" transform="translate(-1317.432 -180.39)" fill="#4d4d4d"/>
          <path id="패스_1368" data-name="패스 1368" d="M1338.985,186.845a.679.679,0,0,0-.392-.439,1.092,1.092,0,0,0-.156-.058,2.284,2.284,0,0,0-.3-.061l-.81-.129c-.669-.107-1.36-.217-2.042-.32a11.2,11.2,0,0,1-1.55-.319c-.372-.112-.7-.225-1.008-.344a.8.8,0,0,1-.511-.539c-.394-1.169-.808-2.354-1.206-3.5q-.346-.99-.689-1.98a2.369,2.369,0,0,0-.432-.784,1.536,1.536,0,0,0-1.55-.548,3.729,3.729,0,0,0-.542.166l-1.116.422c-1.436.542-2.921,1.1-4.376,1.668a.806.806,0,0,1-.737-.06,10.548,10.548,0,0,1-1.768-1.211c-.457-.4-.923-.807-1.334-1.163l-.278-.241c-.357-.31-.726-.63-1.1-.939a.733.733,0,0,0-.791-.158.761.761,0,0,0-.4.531l-.12.447c-.092.345-.184.691-.279,1.035q-.178.653-.358,1.306c-.237.864-.483,1.757-.717,2.639-.047.176-.1.351-.165.527l-.691,2.594h.01a25.825,25.825,0,0,1,6.175.632,21.876,21.876,0,0,1,2.729.739,16.017,16.017,0,0,1,2.619,1.074,6.957,6.957,0,0,0,.637.311,13.547,13.547,0,0,1,2.2,1.3,28.453,28.453,0,0,1,4.515,3.815q.719.754,1.35,1.558l1.186-1.677a7.312,7.312,0,0,1,.656-1.1q.19-.261.375-.526l2.3-3.289.216-.306c.11-.154.22-.308.327-.464A.722.722,0,0,0,1338.985,186.845Zm-16.639-5.8q1.378-.528,2.759-1.049c.992-.376,1.986-.747,2.974-1.13a1.187,1.187,0,0,1,.115-.038,1.069,1.069,0,0,1,.788.072,1.086,1.086,0,0,1,.111.064.738.738,0,0,1,.206.193.656.656,0,0,1,.1.183c.078.23.161.458.24.688q.913,2.625,1.824,5.251c.04.116.119.23.077.358h0a.216.216,0,0,1-.107.031.792.792,0,0,1-.162-.017l-.833-.132c-.625-.1-1.25-.2-1.874-.3q-.194-.032-.387-.071c-.257-.052-.511-.112-.762-.182a8.686,8.686,0,0,1-1.819-.73l-.169-.1c-.149-.085-.294-.176-.433-.275-.1-.068-.19-.138-.279-.215q-1.277-1.1-2.547-2.2c-.066-.057-.152-.106-.176-.218A.708.708,0,0,1,1322.346,181.046Zm15.405,6.362a4.243,4.243,0,0,1-.346.5q-.877,1.27-1.764,2.533l-.787,1.124q-.644.921-1.29,1.841a.822.822,0,0,1-.055.07.411.411,0,0,1-.042.043.105.105,0,0,1-.106.021.1.1,0,0,1-.035-.022c-.068-.061-.132-.126-.194-.193a25.628,25.628,0,0,0-3.283-2.971q-.59-.448-1.207-.866a18.476,18.476,0,0,0-2.409-1.4l-.04-.02c-.525-.248-1.045-.506-1.572-.751q-.263-.123-.529-.241a25.135,25.135,0,0,0-2.593-.98q-.723-.229-1.455-.412c-.307-.077-.615-.146-.924-.211a26.114,26.114,0,0,0-3.559-.5l-.146-.008c-.159-.009-.318-.016-.478-.028-.2-.014-.292-.027-.22-.275.163-.564.307-1.133.461-1.7q.459-1.681.921-3.361c.175-.639.346-1.278.519-1.917a.964.964,0,0,1,.05-.141.189.189,0,0,1,.039-.059.094.094,0,0,1,.049-.026.17.17,0,0,1,.128.047c.083.064.16.135.238.2,2.437,2.114,4.881,4.221,7.309,6.345a6.46,6.46,0,0,0,2.918,1.45c.154.034.31.064.468.089,3.2.512,6.4,1.011,9.6,1.516.128.02.254.05.418.083A1.141,1.141,0,0,1,1337.751,187.408Z" transform="translate(-1313.566 -176.25)"/>
        </g>
        <g id="그룹_1223" data-name="그룹 1223" transform="translate(0 8.118)">
          <path id="패스_1369" data-name="패스 1369" d="M1170.613,288.309a1.8,1.8,0,0,0,.041.791c.165.958.335,1.915.5,2.874a3.5,3.5,0,0,1-.059,1.358,2,2,0,0,1-1.527,1.6,3.322,3.322,0,0,1-1.807-.082,7.4,7.4,0,0,1-2.6-1.456,15.576,15.576,0,0,1-2.756-2.978,30.576,30.576,0,0,1-2.314-3.8,88.778,88.778,0,0,1-5.118-11.81c-.262-.74-.512-1.484-.77-2.226-.556-1.6-1.126-3.194-1.778-4.758a67.47,67.47,0,0,1-3.556-11.279c-.217-.969-.476-1.93-.631-2.909-.207-1.307-.338-2.627-.486-3.943-.068-.6-.089-1.2-.147-1.8a20.933,20.933,0,0,1,.125-4.4c.147-1.3.315-2.59.537-3.875a38.165,38.165,0,0,1,2.874-9.531,29.215,29.215,0,0,1,8.208-10.515,32.144,32.144,0,0,1,10.879-5.738,36.1,36.1,0,0,1,5.827-1.332,25.451,25.451,0,0,1,3.406-.28c.854,0,1.708-.1,2.561-.078a35.161,35.161,0,0,1,14.658,3.06,30.786,30.786,0,0,1,7.058,4.281,29.4,29.4,0,0,1,9.265,12.947,43.848,43.848,0,0,1,1.845,6.88,38.379,38.379,0,0,1,.644,8.778,38.419,38.419,0,0,1-.679,5.1,77.534,77.534,0,0,1-3.9,13.7c-.631,1.573-1.155,3.183-1.676,4.8a91.747,91.747,0,0,1-6.5,15.517,24.831,24.831,0,0,1-2.83,4.268,12.573,12.573,0,0,1-2.973,2.652,4.953,4.953,0,0,1-2.4.84,3.531,3.531,0,0,1-1.028-.09,2.053,2.053,0,0,1-1.508-1.965,8.268,8.268,0,0,1,.176-2.161c.126-.671.254-1.342.376-2.014.025-.141.031-.285.046-.434a1.034,1.034,0,0,0-.66-.087q-4.031-.015-8.061-.017-6.321.009-12.642.037A1.078,1.078,0,0,0,1170.613,288.309Zm-20.238-29.8c-.036.1-.051.124-.048.141.017.1.033.2.059.3a68.139,68.139,0,0,0,3.01,8.856,17.219,17.219,0,0,1,.616,1.62,99.411,99.411,0,0,0,5.355,13.927,47.606,47.606,0,0,0,2.93,5.447,17.231,17.231,0,0,0,2.757,3.392,9.214,9.214,0,0,0,2.034,1.47,3.929,3.929,0,0,0,1.63.482,1.387,1.387,0,0,0,1.652-1.518,8.565,8.565,0,0,0-.181-1.665c-.125-.692-.27-1.381-.382-2.076a5.436,5.436,0,0,1-.059-.989c.007-.3.132-.4.427-.409s.611,0,.916,0q4.978,0,9.956,0,5.925-.005,11.85-.014a2.88,2.88,0,0,1,.334.035,1.01,1.01,0,0,1,.164.911c-.161.938-.337,1.874-.492,2.813a5.944,5.944,0,0,0-.1,1.729,1.262,1.262,0,0,0,1.184,1.132,3.305,3.305,0,0,0,1.149-.1,5.874,5.874,0,0,0,1.751-.86,11.956,11.956,0,0,0,2.059-1.845,22.41,22.41,0,0,0,2.938-4.266,75.67,75.67,0,0,0,3.723-7.825,96.084,96.084,0,0,0,3.672-10.333,29.647,29.647,0,0,1,.956-2.816,53.756,53.756,0,0,0,2.068-6.235c.542-2.1,1.052-4.213,1.556-6.325a29.125,29.125,0,0,0,.644-3.413,33.277,33.277,0,0,0,.039-6.455c-.06-.764-.119-1.53-.229-2.288a44.487,44.487,0,0,0-2.045-8.429,27.816,27.816,0,0,0-5.637-9.515,30.5,30.5,0,0,0-10.9-7.7,41.072,41.072,0,0,0-8.776-2.575,20.889,20.889,0,0,0-4.185-.419c-.956.023-1.914.007-2.87.035-.63.019-1.261.057-1.886.137a40.842,40.842,0,0,0-6.854,1.489,34.44,34.44,0,0,0-8.089,3.591,28.74,28.74,0,0,0-12.882,17.085,46.855,46.855,0,0,0-1.435,6.8c-.111.82-.188,1.646-.273,2.47-.009.088-.053.208.106.277.073-.087.151-.176.224-.269s.144-.2.223-.3a2.545,2.545,0,0,1,3.191-.731,5.8,5.8,0,0,1,1.365.928,1.225,1.225,0,0,1,.127.171c-.063.02-.088.036-.1.029a4.962,4.962,0,0,0-1.987-.546,3.615,3.615,0,0,0-2.9,1.04,1.182,1.182,0,0,0-.391.99c.045.93.011,1.865.14,2.792.06.43.088.865.141,1.3.1.781.163,1.568.308,2.34a15.832,15.832,0,0,0,.963,3.072,9.233,9.233,0,0,0,2.1,3.171c.707.687,1.4,1.394,2.116,2.066a16.806,16.806,0,0,0,3.031,2.4c.159.091.3.215.455.313a8.047,8.047,0,0,0,.787.472,46.959,46.959,0,0,0,5.949,2.412,69.969,69.969,0,0,0,8.766,2.175,27.34,27.34,0,0,0,3.578.4,28.142,28.142,0,0,0,5.846-.24,24.834,24.834,0,0,0,4.1-.944,22.773,22.773,0,0,0,6.872-3.833,24.621,24.621,0,0,0,6.6-7.894,16.965,16.965,0,0,0,1.724-4.762,6.188,6.188,0,0,0,.076-2.285,2.826,2.826,0,0,0-1.53-2.118,4.8,4.8,0,0,0-.794-.316,6.764,6.764,0,0,0-3.385-.074,11.781,11.781,0,0,0-6.884,4.074c-.435.519-.809,1.09-1.211,1.638a4.027,4.027,0,0,1-.292.4.224.224,0,0,1-.215.03.231.231,0,0,1-.088-.2,4.757,4.757,0,0,1,.279-.686,11.646,11.646,0,0,1,2.747-3.46c.135-.117.323-.19.37-.462-.162-.234-.336-.513-.538-.769a1,1,0,0,0-1.207-.342,3.912,3.912,0,0,0-.862.455,4.62,4.62,0,0,0-1.413,1.688,9.426,9.426,0,0,0-.76,2.026c-.21.777-.423,1.554-.622,2.334a1.533,1.533,0,0,1-.65.944,10.169,10.169,0,0,1-2.146,1.171,11.678,11.678,0,0,1-2.62.566,33.4,33.4,0,0,1-4.21.133,7.425,7.425,0,0,1-.853-.049c-1.049-.139-2.1-.276-3.144-.442a40.49,40.49,0,0,1-6.347-1.524,24.812,24.812,0,0,1-5.863-2.742,17.283,17.283,0,0,1-2.825-2.266c-.109-.11-.276-.193-.255-.4.239-.133.42,0,.614.122a21.609,21.609,0,0,0,1.867,1.176c1.452.746,2.915,1.475,4.4,2.142a33.209,33.209,0,0,0,7.009,2.1.686.686,0,0,0,.477.016,1.8,1.8,0,0,0,0-.316c-.327-1.73-.583-3.47-.744-5.225-.038-.413-.057-.829-.13-1.236a19.19,19.19,0,0,1-.251-3.094,2.211,2.211,0,0,1,.021-.372.446.446,0,0,1,.487-.448c.183,0,.366.022.548.032,1.077.063,2.153.163,3.231.179,1.954.029,3.909.01,5.864,0q1.465,0,2.932-.031,3.511-.071,7.022-.155c.732-.017,1.464-.05,2.2-.077.1,0,.2-.02.3-.014a.409.409,0,0,1,.434.358,2.127,2.127,0,0,1,.029.553c-.052.7-.119,1.4-.175,2.1a2.086,2.086,0,0,0,.03.32c.161-.072.271-.118.379-.17a11.811,11.811,0,0,1,3.243-1.057,7.137,7.137,0,0,1,4.53.535.856.856,0,0,0,.187.046c.085-.046.173-.1.264-.142a1.859,1.859,0,0,1,1.972.112c.222.145.427.318.639.478a4.187,4.187,0,0,0,1.33.734,3.069,3.069,0,0,1,1.453.989,4.561,4.561,0,0,1,.993,1.971,6.6,6.6,0,0,1-.068,3.2,14.606,14.606,0,0,1-2.851,5.509,6.078,6.078,0,0,1-3.3,2.11,8.222,8.222,0,0,1-1.081.165c-.06.007-.128-.053-.2-.086.051-.069.068-.113.1-.13a1.442,1.442,0,0,1,.278-.124,5.457,5.457,0,0,0,2.607-1.656c.11-.122.232-.233.345-.353a13.523,13.523,0,0,0,3.038-5.187,6.476,6.476,0,0,0,.3-2.7,3.9,3.9,0,0,0-.743-1.944,2.574,2.574,0,0,0-1.142-.9,2,2,0,0,0-1.257-.083,1.078,1.078,0,0,0-.678.492,1.13,1.13,0,0,0-.177.757,6.55,6.55,0,0,1,0,1.176,12.241,12.241,0,0,1-.726,3.2,23.571,23.571,0,0,1-5.044,8.216,27,27,0,0,1-5.27,4.412c-.168.108-.33.228-.474.328-.02.172-.036.3-.047.419a3.367,3.367,0,0,0,1.334,3.158,5.814,5.814,0,0,0,.931.589,6.774,6.774,0,0,0,3.377.681,9.016,9.016,0,0,0,3.413-.865,15.985,15.985,0,0,0,5.881-4.645,25.055,25.055,0,0,0,3.8-6.774,44.407,44.407,0,0,0,1.338-4.387,22.049,22.049,0,0,0,.761-4.146c.037-.5.086-.99.133-1.485a.4.4,0,0,1,.191-.369,2.918,2.918,0,0,1,.128,1.013,27.006,27.006,0,0,1-.147,3.353,21.664,21.664,0,0,1-.408,2.762,27,27,0,0,1-4.44,9.874,17.706,17.706,0,0,1-2.955,3.217,15.135,15.135,0,0,1-5.123,2.946,8.784,8.784,0,0,1-4.875.208c-1.605-.394-3.95-2.016-4.4-3.709a.377.377,0,0,0-.019-.06.677.677,0,0,0-.393-.367,1.05,1.05,0,0,0-.66-.053,13.857,13.857,0,0,0-1.407.4,23.909,23.909,0,0,1-3.817,1.076,38.152,38.152,0,0,1-4.173.565,17.7,17.7,0,0,1-2.378.094,38.742,38.742,0,0,1-5.088-.629c-1.3-.248-2.588-.549-3.871-.872-1.342-.338-2.672-.725-4-1.1a9.85,9.85,0,0,1-1.395-.449c-2.1-.949-4.28-1.7-6.305-2.828a13.338,13.338,0,0,1-2.346-1.557c-1.158-1.012-2.279-2.069-3.411-3.111a1.284,1.284,0,0,1-.465-.711C1150.535,258.658,1150.453,258.6,1150.375,258.506Zm21.513-4.262c.267.05.485.1.7.132.463.072.924.154,1.39.2,1.114.11,2.228.221,3.344.3a14.6,14.6,0,0,0,3.993-.427,7.474,7.474,0,0,0,2.909-1.384,1.146,1.146,0,0,0,.481-.69c.058-.262.132-.521.194-.783a15.913,15.913,0,0,1,.849-2.783,6.577,6.577,0,0,1,1.434-2.143,4.163,4.163,0,0,1,1.711-1.044,1.851,1.851,0,0,1,2.162.729c.169.231.287.5.433.747a1.593,1.593,0,0,0,.159.19,1.033,1.033,0,0,0,.184-.736c.016-.269.011-.539.018-.808.007-.249.025-.5.026-.746a2.781,2.781,0,0,0,.03-.793,2.069,2.069,0,0,0-.27-.023q-2.56.143-5.119.292a.1.1,0,0,0-.052.031.571.571,0,0,0-.055.069c0,.058.01.139.017.219a2.975,2.975,0,0,1-1.646,3,4.066,4.066,0,0,1-1.754.485q-1.555.04-3.113,0a4.049,4.049,0,0,1-1.81-.5,2.937,2.937,0,0,1-1.627-2.714c0-.16,0-.321,0-.51-.134-.017-.23-.036-.328-.041q-2.561-.134-5.123-.261a.764.764,0,0,0-.211.048A51.179,51.179,0,0,0,1171.888,254.244Zm5.227-9.65a2.478,2.478,0,0,0,1.474,2.489,3.515,3.515,0,0,0,.574.206,6.949,6.949,0,0,0,1.99.267c.387-.016.774,0,1.16-.021a6.048,6.048,0,0,0,1.9-.4,2.508,2.508,0,0,0,1.6-2.6.584.584,0,0,0-.168-.051q-4.183.021-8.366.051A.567.567,0,0,0,1177.115,244.594Zm24.684,1.88.866,1.326.648-.614A1.473,1.473,0,0,0,1201.8,246.473Z" transform="translate(-1147.527 -212.141)" fill-rule="evenodd"/>
          <path id="패스_1370" data-name="패스 1370" d="M1153.2,260.375c.079.1.16.153.172.221a1.283,1.283,0,0,0,.465.711c1.132,1.042,2.253,2.1,3.41,3.111a13.34,13.34,0,0,0,2.345,1.557c2.025,1.125,4.205,1.879,6.3,2.828a9.86,9.86,0,0,0,1.394.449c1.332.375,2.661.762,4,1.1,1.282.323,2.571.624,3.869.872a38.712,38.712,0,0,0,5.086.629,17.665,17.665,0,0,0,2.377-.094,38.122,38.122,0,0,0,4.171-.565,23.9,23.9,0,0,0,3.816-1.076,13.828,13.828,0,0,1,1.406-.4,1.05,1.05,0,0,1,.659.053.678.678,0,0,1,.392.367.365.365,0,0,1,.018.06c.446,1.693,2.789,3.316,4.394,3.71a8.778,8.778,0,0,0,4.874-.208,15.127,15.127,0,0,0,5.122-2.946,17.7,17.7,0,0,0,2.954-3.217,27.006,27.006,0,0,0,4.439-9.875,21.643,21.643,0,0,0,.408-2.763,26.962,26.962,0,0,0,.147-3.353,2.912,2.912,0,0,0-.128-1.013.4.4,0,0,0-.191.369c-.047.495-.1.989-.133,1.485a22.072,22.072,0,0,1-.76,4.146,44.465,44.465,0,0,1-1.337,4.387,25.058,25.058,0,0,1-3.795,6.775,15.979,15.979,0,0,1-5.879,4.645,9.009,9.009,0,0,1-3.412.865,6.771,6.771,0,0,1-3.376-.681,5.8,5.8,0,0,1-.93-.589,3.367,3.367,0,0,1-1.333-3.158c.011-.123.028-.247.047-.419.145-.1.307-.22.474-.328a26.987,26.987,0,0,0,5.268-4.412,23.573,23.573,0,0,0,5.043-8.217,12.257,12.257,0,0,0,.726-3.2,6.573,6.573,0,0,0,0-1.176,1.131,1.131,0,0,1,.177-.757,1.078,1.078,0,0,1,.678-.492,2,2,0,0,1,1.257.083,2.572,2.572,0,0,1,1.142.9,3.9,3.9,0,0,1,.743,1.945,6.479,6.479,0,0,1-.3,2.7,13.524,13.524,0,0,1-3.037,5.187c-.113.119-.234.231-.344.353a5.454,5.454,0,0,1-2.605,1.656,1.444,1.444,0,0,0-.278.124c-.031.017-.048.061-.1.13.074.033.141.093.2.086a8.218,8.218,0,0,0,1.081-.165,6.076,6.076,0,0,0,3.3-2.11,14.616,14.616,0,0,0,2.85-5.51,6.61,6.61,0,0,0,.068-3.2,4.558,4.558,0,0,0-.993-1.971A3.067,3.067,0,0,0,1208.1,249a4.19,4.19,0,0,1-1.33-.734c-.212-.161-.417-.333-.638-.479a1.858,1.858,0,0,0-1.971-.112c-.091.046-.179.1-.264.142a.864.864,0,0,1-.187-.046,7.131,7.131,0,0,0-4.529-.535,11.8,11.8,0,0,0-3.242,1.057c-.108.052-.218.1-.379.17a2.109,2.109,0,0,1-.03-.32c.056-.7.124-1.4.176-2.105a2.128,2.128,0,0,0-.029-.553.409.409,0,0,0-.434-.358c-.1-.006-.2.01-.3.014-.732.027-1.464.06-2.2.077q-3.511.083-7.02.155-1.465.029-2.93.031c-1.954.005-3.908.025-5.862,0-1.077-.016-2.153-.116-3.23-.179-.183-.011-.366-.036-.548-.032a.446.446,0,0,0-.487.448,2.225,2.225,0,0,0-.021.372,19.208,19.208,0,0,0,.251,3.094c.073.406.092.823.13,1.236.162,1.754.417,3.495.744,5.225a1.791,1.791,0,0,1,0,.316.685.685,0,0,1-.476-.016,33.188,33.188,0,0,1-7.007-2.1c-1.488-.667-2.95-1.4-4.4-2.143a21.585,21.585,0,0,1-1.867-1.177c-.194-.126-.375-.255-.614-.122-.022.2.146.286.255.4a17.292,17.292,0,0,0,2.824,2.267,24.8,24.8,0,0,0,5.861,2.742,40.454,40.454,0,0,0,6.345,1.524c1.045.165,2.094.3,3.142.442a7.423,7.423,0,0,0,.853.049,33.375,33.375,0,0,0,4.208-.133,11.668,11.668,0,0,0,2.62-.566,10.173,10.173,0,0,0,2.146-1.171,1.534,1.534,0,0,0,.65-.944c.2-.78.412-1.557.622-2.334a9.428,9.428,0,0,1,.76-2.027,4.618,4.618,0,0,1,1.412-1.688,3.907,3.907,0,0,1,.862-.455,1,1,0,0,1,1.207.342c.2.256.375.535.537.769-.047.271-.235.345-.369.462a11.643,11.643,0,0,0-2.746,3.461,4.741,4.741,0,0,0-.279.686.231.231,0,0,0,.088.2.223.223,0,0,0,.214-.03,4.029,4.029,0,0,0,.292-.4c.4-.548.776-1.119,1.21-1.638a11.776,11.776,0,0,1,6.882-4.074,6.759,6.759,0,0,1,3.385.074,4.8,4.8,0,0,1,.793.316,2.825,2.825,0,0,1,1.529,2.119,6.184,6.184,0,0,1-.076,2.285,16.969,16.969,0,0,1-1.723,4.762,24.618,24.618,0,0,1-6.6,7.895,22.758,22.758,0,0,1-6.87,3.833,24.819,24.819,0,0,1-4.1.944,28.124,28.124,0,0,1-5.845.24,27.327,27.327,0,0,1-3.577-.4,69.918,69.918,0,0,1-8.763-2.175,46.936,46.936,0,0,1-5.947-2.413,8.06,8.06,0,0,1-.787-.472c-.156-.1-.3-.221-.455-.313a16.806,16.806,0,0,1-3.03-2.4c-.72-.672-1.408-1.38-2.115-2.067a9.231,9.231,0,0,1-2.1-3.172,15.834,15.834,0,0,1-.962-3.072c-.145-.771-.212-1.559-.308-2.34-.053-.431-.081-.866-.14-1.3-.129-.927-.1-1.862-.14-2.792a1.183,1.183,0,0,1,.391-.99,3.613,3.613,0,0,1,2.9-1.041,4.959,4.959,0,0,1,1.987.546c.012.007.036-.01.1-.029a1.245,1.245,0,0,0-.127-.171,5.8,5.8,0,0,0-1.364-.928,2.544,2.544,0,0,0-3.19.731c-.078.095-.146.2-.223.3s-.151.182-.224.269c-.159-.068-.115-.188-.106-.277.085-.824.162-1.65.273-2.47a46.861,46.861,0,0,1,1.435-6.8,28.739,28.739,0,0,1,12.877-17.087,34.426,34.426,0,0,1,8.086-3.592,40.814,40.814,0,0,1,6.852-1.489c.625-.079,1.256-.118,1.885-.137.956-.029,1.913-.013,2.869-.035a20.881,20.881,0,0,1,4.184.419,41.042,41.042,0,0,1,8.773,2.575,30.491,30.491,0,0,1,10.9,7.7,27.822,27.822,0,0,1,5.635,9.516,44.51,44.51,0,0,1,2.044,8.429c.11.758.169,1.524.228,2.288a33.272,33.272,0,0,1-.039,6.455,29.129,29.129,0,0,1-.644,3.413c-.5,2.112-1.013,4.224-1.555,6.326a53.753,53.753,0,0,1-2.067,6.235,29.578,29.578,0,0,0-.956,2.816,96.116,96.116,0,0,1-3.671,10.334,75.675,75.675,0,0,1-3.722,7.825,22.415,22.415,0,0,1-2.937,4.267A11.958,11.958,0,0,1,1199.7,295a5.871,5.871,0,0,1-1.75.86,3.3,3.3,0,0,1-1.149.1,1.261,1.261,0,0,1-1.183-1.132,5.954,5.954,0,0,1,.1-1.729c.155-.939.331-1.875.492-2.814a1.011,1.011,0,0,0-.164-.912,2.875,2.875,0,0,0-.333-.035q-5.923.005-11.847.014-4.976,0-9.952,0c-.305,0-.611-.006-.916,0s-.419.114-.426.409a5.459,5.459,0,0,0,.059.989c.112.695.256,1.384.382,2.076a8.576,8.576,0,0,1,.181,1.665,1.387,1.387,0,0,1-1.651,1.519,3.926,3.926,0,0,1-1.629-.482,9.2,9.2,0,0,1-2.033-1.47,17.209,17.209,0,0,1-2.757-3.392,47.646,47.646,0,0,1-2.929-5.448,99.4,99.4,0,0,1-5.353-13.928,17.246,17.246,0,0,0-.615-1.62,68.109,68.109,0,0,1-3.009-8.857c-.026-.1-.042-.2-.059-.3C1153.151,260.5,1153.166,260.478,1153.2,260.375Zm20.159-22.648c-.212-.109-.425-.216-.636-.326a8.179,8.179,0,0,0-5.029-.889,9.33,9.33,0,0,0-5.994,3.506,3.286,3.286,0,0,0-.482.786c-.3.708-.039,1.085.709,1.057a2.138,2.138,0,0,0,1.325-.56,7.344,7.344,0,0,1,3.043-1.507,9.041,9.041,0,0,1,1.871-.249,6.959,6.959,0,0,1,5.654,2.264c.069.076.142.149.215.22a1.529,1.529,0,0,0,1.415.394,1.017,1.017,0,0,0,.878-.971,2.317,2.317,0,0,0-.137-1.039,7.035,7.035,0,0,0-2.257-3.326,5.048,5.048,0,0,0-1.374-.793c-.114-.041-.2-.021-.208.041.2.235.37.44.544.642A1.367,1.367,0,0,1,1173.361,237.727Zm23.186-1.243a.86.86,0,0,0-.27-.022,3.026,3.026,0,0,0-.448.191,6.615,6.615,0,0,0-3.18,4,2.628,2.628,0,0,0-.092.98.933.933,0,0,0,.83.929,1.528,1.528,0,0,0,1.467-.408c.116-.117.225-.24.338-.358a6.58,6.58,0,0,1,2.833-1.76,8.374,8.374,0,0,1,4.342-.137,7.348,7.348,0,0,1,3.275,1.58,2.221,2.221,0,0,0,1.151.53.858.858,0,0,0,.85-.214.775.775,0,0,0-.016-.88,4.9,4.9,0,0,0-.531-.829,9.689,9.689,0,0,0-3.518-2.722,8.325,8.325,0,0,0-4.828-.677,9.123,9.123,0,0,0-2.98,1.058c-.114.063-.21.2-.4.131a2.94,2.94,0,0,1,.522-.681A4.792,4.792,0,0,0,1196.548,236.484Zm-12.538,8.343a10.269,10.269,0,0,0,4.528-.868,3.214,3.214,0,0,0,1.482-1.42,2,2,0,0,0,.182-1.444,3.751,3.751,0,0,0-.47-1.14,5.346,5.346,0,0,0-3.033-2.361,8.116,8.116,0,0,0-2.475-.279,6.938,6.938,0,0,0-2.741.51,5.237,5.237,0,0,0-2.822,2.78,2.283,2.283,0,0,0,.493,2.679,4.61,4.61,0,0,0,2.269,1.264A10.887,10.887,0,0,0,1184.01,244.827Zm30.6,2a1.3,1.3,0,0,0-.029-.253,3.628,3.628,0,0,0-5.371-1.405.576.576,0,0,0-.215.211c-.031.067.014.17.028.287A4.66,4.66,0,0,1,1214.611,246.829Z" transform="translate(-1150.345 -214.009)" fill="#fff" fill-rule="evenodd"/>
          <path id="패스_1371" data-name="패스 1371" d="M1253.038,363.249a50.153,50.153,0,0,1-1.085-9.909.793.793,0,0,1,.214-.048q2.6.126,5.195.26c.1,0,.2.024.332.041,0,.189,0,.349,0,.508a2.921,2.921,0,0,0,1.65,2.7,4.163,4.163,0,0,0,1.836.5q1.577.038,3.157,0a4.181,4.181,0,0,0,1.779-.483,2.952,2.952,0,0,0,1.669-2.993c-.006-.08-.013-.16-.017-.218a.594.594,0,0,1,.055-.068.106.106,0,0,1,.053-.031q2.6-.148,5.191-.291a2.143,2.143,0,0,1,.274.023,2.728,2.728,0,0,1-.031.79c0,.248-.02.5-.026.743-.008.268,0,.537-.018.8a1.015,1.015,0,0,1-.187.733,1.621,1.621,0,0,1-.161-.189c-.148-.247-.268-.514-.439-.744a1.9,1.9,0,0,0-2.192-.726,4.234,4.234,0,0,0-1.735,1.04,6.544,6.544,0,0,0-1.454,2.135,15.637,15.637,0,0,0-.861,2.772c-.063.261-.138.518-.2.779a1.142,1.142,0,0,1-.488.687,7.638,7.638,0,0,1-2.949,1.379,15.064,15.064,0,0,1-4.05.426c-1.132-.074-2.262-.185-3.391-.294-.472-.046-.94-.128-1.409-.2C1253.53,363.347,1253.309,363.3,1253.038,363.249Z" transform="translate(-1228.811 -321.167)" fill="#ae0721" fill-rule="evenodd"/>
          <path id="패스_1372" data-name="패스 1372" d="M1280.176,354.7a.582.582,0,0,1,.168-.055q4.242-.03,8.484-.051a.6.6,0,0,1,.171.051,2.5,2.5,0,0,1-1.621,2.589,6.232,6.232,0,0,1-1.931.395c-.391.021-.785.006-1.177.021a7.167,7.167,0,0,1-2.017-.266,3.6,3.6,0,0,1-.582-.2A2.463,2.463,0,0,1,1280.176,354.7Z" transform="translate(-1250.651 -322.241)" fill="#fff" fill-rule="evenodd"/>
          <path id="패스_1373" data-name="패스 1373" d="M1390.862,363.3a1.5,1.5,0,0,1,1.536.709l-.657.612Z" transform="translate(-1336.608 -328.966)" fill="#fff" fill-rule="evenodd"/>
          <path id="패스_1374" data-name="패스 1374" d="M1279.1,322.258a11.24,11.24,0,0,1-2.624-.277,4.7,4.7,0,0,1-2.3-1.259,2.244,2.244,0,0,1-.5-2.668,5.268,5.268,0,0,1,2.863-2.769,7.153,7.153,0,0,1,2.781-.508,8.38,8.38,0,0,1,2.51.278,5.409,5.409,0,0,1,3.076,2.351,3.694,3.694,0,0,1,.477,1.135,1.957,1.957,0,0,1-.184,1.438,3.235,3.235,0,0,1-1.5,1.415A10.584,10.584,0,0,1,1279.1,322.258Zm.124-.633a9.874,9.874,0,0,0,2.5-.276,5.015,5.015,0,0,0,2.424-1.291,1.484,1.484,0,0,0,.357-1.752,4.073,4.073,0,0,0-.714-1.15,5.386,5.386,0,0,0-4.536-1.818,6.567,6.567,0,0,0-1.882.332,4.831,4.831,0,0,0-2.974,2.617,1.431,1.431,0,0,0,.35,1.85,4.238,4.238,0,0,0,.475.394,5.138,5.138,0,0,0,1.843.842A8.673,8.673,0,0,0,1279.224,321.624Z" transform="translate(-1245.439 -291.461)" fill-rule="evenodd"/>
          <path id="패스_1375" data-name="패스 1375" d="M1416.2,348.761a4.788,4.788,0,0,0-5.667-1.155c-.015-.116-.06-.219-.029-.286a.58.58,0,0,1,.218-.211,3.714,3.714,0,0,1,5.448,1.4A1.259,1.259,0,0,1,1416.2,348.761Z" transform="translate(-1351.975 -315.947)" fill-rule="evenodd"/>
          <path id="패스_1376" data-name="패스 1376" d="M1281.859,323.529a8.673,8.673,0,0,1-2.153-.252,5.14,5.14,0,0,1-1.843-.842,4.257,4.257,0,0,1-.475-.394,1.43,1.43,0,0,1-.35-1.85,4.831,4.831,0,0,1,2.974-2.618,6.567,6.567,0,0,1,1.882-.332,5.386,5.386,0,0,1,4.536,1.818,4.071,4.071,0,0,1,.714,1.15,1.484,1.484,0,0,1-.357,1.752,5.016,5.016,0,0,1-2.424,1.291A9.874,9.874,0,0,1,1281.859,323.529Z" transform="translate(-1248.074 -293.364)" fill="#44aa54" fill-rule="evenodd"/>
        </g>
      </g>
      <g id="그룹_1225" data-name="그룹 1225" transform="translate(0.001 8.118)">
        <path id="패스_1377" data-name="패스 1377" d="M1357.572,400.956a6.178,6.178,0,0,1-3.348,2.1,8.476,8.476,0,0,1-1.1.164c-.061.007-.129-.052-.2-.085.051-.069.068-.113.1-.129a1.464,1.464,0,0,1,.283-.123,5.548,5.548,0,0,0,2.643-1.65c.112-.122.235-.232.349-.351a13.227,13.227,0,0,0,2.3-3.269c-.29.016-.582.026-.877.026a15.791,15.791,0,0,1-3.452-.377,24.013,24.013,0,0,1-4.491,6.633,27.272,27.272,0,0,1-5.344,4.394c-.17.108-.334.227-.481.327-.02.171-.036.294-.048.417a3.327,3.327,0,0,0,1.352,3.146,5.9,5.9,0,0,0,.944.587,6.977,6.977,0,0,0,3.424.678,9.275,9.275,0,0,0,3.461-.862,16.169,16.169,0,0,0,5.964-4.626,24.84,24.84,0,0,0,3.849-6.747,43.687,43.687,0,0,0,1.357-4.37q.1-.377.2-.755a14.07,14.07,0,0,1-4.718,1.429A15.586,15.586,0,0,1,1357.572,400.956Z" transform="translate(-1300.43 -354.271)" fill="none"/>
        <path id="패스_1378" data-name="패스 1378" d="M1208.475,241.407c4.07,0,7.628,1.551,9.566,3.863-.057-.731-.116-1.463-.221-2.188a44.191,44.191,0,0,0-2.044-8.4,27.687,27.687,0,0,0-5.635-9.478,30.487,30.487,0,0,0-10.895-7.667,41.163,41.163,0,0,0-8.772-2.565,20.961,20.961,0,0,0-4.184-.418c-.956.023-1.913.007-2.869.035-.629.019-1.26.057-1.885.136a40.95,40.95,0,0,0-6.851,1.483,34.493,34.493,0,0,0-8.086,3.577,28.633,28.633,0,0,0-12.876,17.018,46.508,46.508,0,0,0-1.435,6.769c-.085.628-.15,1.258-.214,1.889,1.9-2.421,5.541-4.059,9.725-4.059,6.142,0,11.121,3.529,11.121,7.881a6.848,6.848,0,0,1-3.016,5.394c1.343.412,2.714.735,4.095,1.016a.688.688,0,0,0,.477.016,1.8,1.8,0,0,0,0-.315c-.327-1.723-.582-3.457-.744-5.2-.038-.411-.056-.826-.13-1.231a19.055,19.055,0,0,1-.251-3.082,2.22,2.22,0,0,1,.021-.37.446.446,0,0,1,.487-.446c.183,0,.366.021.548.032,1.076.062,2.152.163,3.229.178,1.953.029,3.908.01,5.862,0q1.465,0,2.93-.031,3.51-.07,7.019-.154c.732-.017,1.464-.05,2.2-.077.1,0,.2-.02.3-.014a.409.409,0,0,1,.434.356,2.121,2.121,0,0,1,.029.551c-.052.7-.119,1.4-.175,2.1a2.072,2.072,0,0,0,.03.318c.161-.071.271-.118.379-.169.3-.147.612-.28.923-.4C1198.572,244.137,1203.073,241.407,1208.475,241.407Z" transform="translate(-1151.048 -214.009)" fill="none"/>
        <path id="패스_1379" data-name="패스 1379" d="M1153.4,368.609c.028.189.059.377.094.565a15.567,15.567,0,0,0,.976,3.06,9.182,9.182,0,0,0,2.132,3.159c.717.684,1.415,1.389,2.145,2.058a17,17,0,0,0,3.074,2.389c.161.091.3.214.462.311a8.174,8.174,0,0,0,.8.47,48.111,48.111,0,0,0,6.032,2.4,72.024,72.024,0,0,0,8.889,2.166,28.205,28.205,0,0,0,3.629.4,29.05,29.05,0,0,0,5.929-.239,25.573,25.573,0,0,0,4.158-.941,23.211,23.211,0,0,0,6.969-3.818,24.634,24.634,0,0,0,6.7-7.863q.275-.516.521-1.044c-4.037-1.2-6.869-4-6.869-7.255,0-.174.011-.346.027-.517a11.841,11.841,0,0,0-4.625,3.357c-.441.517-.82,1.086-1.228,1.632a4.077,4.077,0,0,1-.3.395.231.231,0,0,1-.218.03.228.228,0,0,1-.089-.2,4.676,4.676,0,0,1,.283-.683,11.638,11.638,0,0,1,2.786-3.447c.137-.116.327-.19.375-.46-.165-.233-.341-.511-.545-.766a1.025,1.025,0,0,0-1.224-.34,4,4,0,0,0-.874.453,4.623,4.623,0,0,0-1.433,1.681,9.3,9.3,0,0,0-.771,2.018c-.213.774-.429,1.548-.631,2.325a1.528,1.528,0,0,1-.66.94,10.379,10.379,0,0,1-2.176,1.166,12.033,12.033,0,0,1-2.657.564,34.482,34.482,0,0,1-4.269.132,7.667,7.667,0,0,1-.865-.049c-1.064-.138-2.128-.275-3.188-.44a41.677,41.677,0,0,1-6.437-1.518c-.109-.035-.217-.074-.326-.11a14.534,14.534,0,0,1-7.031,1.72C1158.932,372.314,1155.394,370.833,1153.4,368.609Z" transform="translate(-1152.073 -328.968)" fill="none"/>
        <path id="패스_1380" data-name="패스 1380" d="M1222.125,389.031a19.871,19.871,0,0,1-.367,2.363,26.849,26.849,0,0,1-4.436,9.835,17.645,17.645,0,0,1-2.953,3.2,15.128,15.128,0,0,1-5.118,2.934,8.8,8.8,0,0,1-4.871.207c-1.6-.392-3.946-2.008-4.392-3.695a.362.362,0,0,0-.018-.059.677.677,0,0,0-.392-.366,1.052,1.052,0,0,0-.659-.053,13.892,13.892,0,0,0-1.405.4,23.945,23.945,0,0,1-3.813,1.071,38.227,38.227,0,0,1-4.169.562,17.741,17.741,0,0,1-2.376.093,38.816,38.816,0,0,1-5.083-.627c-1.3-.247-2.586-.547-3.867-.869-1.341-.336-2.669-.722-4-1.1a9.887,9.887,0,0,1-1.394-.447c-2.1-.945-4.276-1.7-6.3-2.817a13.336,13.336,0,0,1-2.344-1.55c-1.157-1.008-2.277-2.061-3.408-3.1a1.278,1.278,0,0,1-.465-.708c-.012-.068-.093-.122-.172-.22-.036.1-.051.123-.048.141.017.1.033.2.059.3a67.712,67.712,0,0,0,3.008,8.821,17.137,17.137,0,0,1,.615,1.613,98.841,98.841,0,0,0,5.349,13.872,47.416,47.416,0,0,0,2.927,5.426,17.153,17.153,0,0,0,2.755,3.378,9.193,9.193,0,0,0,2.032,1.464,3.936,3.936,0,0,0,1.628.48,1.384,1.384,0,0,0,1.65-1.512,8.518,8.518,0,0,0-.181-1.658c-.125-.69-.27-1.376-.381-2.068a5.426,5.426,0,0,1-.059-.985c.007-.294.132-.4.426-.408s.61,0,.916,0q4.973,0,9.946,0,5.919-.005,11.84-.014a2.881,2.881,0,0,1,.333.035,1,1,0,0,1,.164.908c-.161.935-.336,1.867-.492,2.8a5.906,5.906,0,0,0-.1,1.722,1.259,1.259,0,0,0,1.183,1.127,3.314,3.314,0,0,0,1.148-.1,5.873,5.873,0,0,0,1.749-.857,11.928,11.928,0,0,0,2.057-1.837,22.324,22.324,0,0,0,2.936-4.25,75.259,75.259,0,0,0,3.72-7.794,95.532,95.532,0,0,0,3.669-10.292,29.408,29.408,0,0,1,.955-2.8,53.428,53.428,0,0,0,2.066-6.21c.541-2.093,1.051-4.2,1.554-6.3.119-.5.231-1,.332-1.5A9.556,9.556,0,0,1,1222.125,389.031Z" transform="translate(-1157.237 -347.582)" fill="none"/>
        <path id="패스_1381" data-name="패스 1381" d="M1281.671,357.179a3.6,3.6,0,0,0,.582.2,7.167,7.167,0,0,0,2.017.266c.392-.016.785,0,1.177-.021a6.232,6.232,0,0,0,1.931-.395,2.5,2.5,0,0,0,1.621-2.589.6.6,0,0,0-.171-.051q-4.242.021-8.484.051a.582.582,0,0,0-.168.055A2.463,2.463,0,0,0,1281.671,357.179Z" transform="translate(-1250.652 -322.241)" fill="none"/>
        <path id="패스_1382" data-name="패스 1382" d="M1257.362,353.553q-2.6-.133-5.195-.26a.793.793,0,0,0-.214.048,50.153,50.153,0,0,0,1.085,9.909c.271.05.492.1.715.132.469.071.937.154,1.409.2,1.129.109,2.259.22,3.391.294a15.064,15.064,0,0,0,4.05-.426,7.638,7.638,0,0,0,2.949-1.379,1.142,1.142,0,0,0,.488-.687c.059-.261.134-.519.2-.779a15.637,15.637,0,0,1,.861-2.772,6.544,6.544,0,0,1,1.454-2.135,4.234,4.234,0,0,1,1.735-1.04,1.9,1.9,0,0,1,2.192.726c.171.23.291.5.439.744a1.621,1.621,0,0,0,.161.189,1.015,1.015,0,0,0,.187-.733c.016-.268.011-.537.018-.8.007-.248.026-.5.026-.743a2.728,2.728,0,0,0,.031-.79,2.143,2.143,0,0,0-.274-.023q-2.6.143-5.191.291a.106.106,0,0,0-.053.031.594.594,0,0,0-.055.068c0,.058.01.138.017.218a2.952,2.952,0,0,1-1.669,2.993,4.181,4.181,0,0,1-1.779.483q-1.577.04-3.157,0a4.163,4.163,0,0,1-1.836-.5,2.921,2.921,0,0,1-1.65-2.7c0-.16,0-.32,0-.508C1257.559,353.577,1257.461,353.558,1257.362,353.553Z" transform="translate(-1228.812 -321.167)" fill="none"/>
        <path id="패스_1383" data-name="패스 1383" d="M1376.553,345.561c.129-.629.24-1.261.316-1.9a32.542,32.542,0,0,0,.039-6.429q0-.046-.007-.091c-1.966-2.312-5.576-3.863-9.705-3.863-5.48,0-10.047,2.73-11.067,6.349a11.559,11.559,0,0,1,2.352-.649,7.357,7.357,0,0,1,4.594.533.885.885,0,0,0,.19.045c.086-.046.176-.1.268-.141a1.914,1.914,0,0,1,2,.112c.225.145.433.316.647.477a4.273,4.273,0,0,0,1.349.731,3.114,3.114,0,0,1,1.473.985,4.51,4.51,0,0,1,1.007,1.963,6.464,6.464,0,0,1-.069,3.186,13,13,0,0,1-.73,2.045,14.07,14.07,0,0,0,4.718-1.429,20.244,20.244,0,0,0,.574-3.374c.037-.494.087-.986.135-1.479a.394.394,0,0,1,.193-.367,2.845,2.845,0,0,1,.13,1.009,26.356,26.356,0,0,1-.149,3.339c-.012.129-.027.259-.041.389A9.66,9.66,0,0,0,1376.553,345.561Z" transform="translate(-1309.908 -305.744)" fill="#f1878d"/>
        <path id="패스_1384" data-name="패스 1384" d="M1390.862,363.3l.878,1.321.657-.612A1.5,1.5,0,0,0,1390.862,363.3Z" transform="translate(-1336.609 -328.966)" fill="#fff"/>
        <path id="패스_1385" data-name="패스 1385" d="M1362.048,370.6a15.685,15.685,0,0,0,1.227-3.7,6.05,6.05,0,0,0,.077-2.276,2.818,2.818,0,0,0-1.551-2.11,4.911,4.911,0,0,0-.8-.315,6.98,6.98,0,0,0-3.433-.073,13.059,13.059,0,0,0-2.356.7c-.016.171-.027.343-.027.517C1355.179,366.6,1358.01,369.4,1362.048,370.6Z" transform="translate(-1308.956 -327.913)" fill="#fff"/>
        <path id="패스_1386" data-name="패스 1386" d="M1394.127,376.957a14.119,14.119,0,0,0,.783-1.9,6.34,6.34,0,0,0,.3-2.687,3.84,3.84,0,0,0-.754-1.937,2.6,2.6,0,0,0-1.158-.9,2.058,2.058,0,0,0-1.275-.082,1.093,1.093,0,0,0-.687.49,1.111,1.111,0,0,0-.179.754,6.421,6.421,0,0,1,0,1.172,12.024,12.024,0,0,1-.737,3.185c-.189.529-.4,1.045-.624,1.551a15.792,15.792,0,0,0,3.452.377C1393.546,376.983,1393.837,376.972,1394.127,376.957Z" transform="translate(-1335.962 -333.667)" fill="#fff"/>
        <path id="패스_1387" data-name="패스 1387" d="M1215.486,248.088a27.944,27.944,0,0,0,0-3.1c-.025-.539-.06-1.078-.1-1.617a34.763,34.763,0,0,0-.55-4.059,43.822,43.822,0,0,0-1.845-6.88,29.4,29.4,0,0,0-9.264-12.947,30.782,30.782,0,0,0-7.058-4.281,35.161,35.161,0,0,0-14.658-3.06c-.853-.018-1.707.074-2.561.078a25.453,25.453,0,0,0-3.406.28,36.094,36.094,0,0,0-5.827,1.332,32.147,32.147,0,0,0-10.879,5.738,29.222,29.222,0,0,0-8.208,10.515,38.17,38.17,0,0,0-2.873,9.531c-.221,1.284-.39,2.579-.537,3.875-.073.646-.133,1.294-.166,1.943a16.676,16.676,0,0,0,.04,2.461c.058.6.08,1.2.148,1.8q.031.277.061.554c.125,1.132.247,2.266.425,3.389.155.979.415,1.941.631,2.909a67.493,67.493,0,0,0,3.556,11.279c.653,1.563,1.223,3.158,1.779,4.758.258.741.507,1.486.77,2.226a88.778,88.778,0,0,0,5.118,11.81,30.634,30.634,0,0,0,2.313,3.8,15.588,15.588,0,0,0,2.756,2.978,7.4,7.4,0,0,0,2.6,1.456,3.322,3.322,0,0,0,1.807.082,2,2,0,0,0,1.527-1.6,3.5,3.5,0,0,0,.059-1.358c-.161-.959-.331-1.916-.5-2.874a1.8,1.8,0,0,1-.041-.791,1.078,1.078,0,0,1,.606-.075q6.322-.023,12.642-.037,4.031-.005,8.061.017a1.034,1.034,0,0,1,.66.087c-.015.149-.021.293-.046.434-.122.672-.25,1.342-.376,2.014a8.263,8.263,0,0,0-.176,2.161,2.053,2.053,0,0,0,1.508,1.965,3.528,3.528,0,0,0,1.028.09,4.955,4.955,0,0,0,2.4-.84,12.57,12.57,0,0,0,2.973-2.652,24.831,24.831,0,0,0,2.831-4.268,91.746,91.746,0,0,0,6.5-15.517c.521-1.613,1.046-3.222,1.676-4.8a77.534,77.534,0,0,0,3.9-13.7q.257-1.285.43-2.582Q1215.4,249.356,1215.486,248.088Zm-3.177,11.721a53.755,53.755,0,0,1-2.068,6.235,29.613,29.613,0,0,0-.956,2.816,96.03,96.03,0,0,1-3.672,10.333,75.569,75.569,0,0,1-3.723,7.825,22.4,22.4,0,0,1-2.938,4.266,11.955,11.955,0,0,1-2.059,1.845,5.872,5.872,0,0,1-1.751.86,3.3,3.3,0,0,1-1.149.1,1.261,1.261,0,0,1-1.184-1.132,5.952,5.952,0,0,1,.1-1.729c.155-.939.331-1.875.492-2.813a1.012,1.012,0,0,0-.164-.911,2.88,2.88,0,0,0-.334-.035q-5.925.005-11.851.014-4.978,0-9.955,0c-.305,0-.611-.006-.916,0s-.42.114-.427.409a5.5,5.5,0,0,0,.059.989c.112.695.257,1.384.382,2.076a8.565,8.565,0,0,1,.181,1.665,1.387,1.387,0,0,1-1.652,1.518,3.929,3.929,0,0,1-1.63-.482,9.213,9.213,0,0,1-2.034-1.47,17.208,17.208,0,0,1-2.757-3.392,47.585,47.585,0,0,1-2.93-5.447,99.366,99.366,0,0,1-5.355-13.927,17.186,17.186,0,0,0-.616-1.62,68.157,68.157,0,0,1-3.01-8.856c-.026-.1-.042-.2-.059-.3,0-.017.012-.038.048-.141.079.1.16.153.172.221a1.283,1.283,0,0,0,.465.711c1.133,1.042,2.253,2.1,3.411,3.111a13.333,13.333,0,0,0,2.346,1.557c2.026,1.125,4.206,1.879,6.305,2.828a9.857,9.857,0,0,0,1.395.449c1.333.375,2.663.762,4,1.1,1.282.323,2.572.624,3.87.872a38.742,38.742,0,0,0,5.088.629,17.7,17.7,0,0,0,2.378-.094,38.156,38.156,0,0,0,4.173-.565,23.917,23.917,0,0,0,3.817-1.076,13.853,13.853,0,0,1,1.406-.4,1.051,1.051,0,0,1,.66.053.678.678,0,0,1,.393.367.364.364,0,0,1,.019.06c.446,1.693,2.79,3.315,4.4,3.709a8.784,8.784,0,0,0,4.875-.208,15.133,15.133,0,0,0,5.123-2.946,17.688,17.688,0,0,0,2.955-3.217,26.992,26.992,0,0,0,4.44-9.874,20.024,20.024,0,0,0,.368-2.372c.014-.13.028-.26.041-.39a27.006,27.006,0,0,0,.147-3.353,2.915,2.915,0,0,0-.128-1.013.4.4,0,0,0-.191.369c-.047.495-.1.989-.133,1.485a20.653,20.653,0,0,1-.565,3.388c-.062.253-.126.506-.2.758a44.5,44.5,0,0,1-1.338,4.387,25.058,25.058,0,0,1-3.8,6.774,15.988,15.988,0,0,1-5.881,4.645,9.018,9.018,0,0,1-3.413.865,6.774,6.774,0,0,1-3.377-.681,5.807,5.807,0,0,1-.931-.589,3.366,3.366,0,0,1-1.334-3.158c.011-.123.027-.247.047-.419.145-.1.307-.22.475-.328a27,27,0,0,0,5.27-4.412,24.14,24.14,0,0,0,4.429-6.659q.334-.761.616-1.557a12.256,12.256,0,0,0,.726-3.2,6.561,6.561,0,0,0,0-1.176,1.13,1.13,0,0,1,.177-.757,1.078,1.078,0,0,1,.678-.492,2,2,0,0,1,1.257.083,2.573,2.573,0,0,1,1.143.9,3.9,3.9,0,0,1,.743,1.944,6.48,6.48,0,0,1-.3,2.7,14.355,14.355,0,0,1-.772,1.905,13.283,13.283,0,0,1-2.266,3.282c-.113.119-.234.231-.344.353a5.459,5.459,0,0,1-2.606,1.656,1.437,1.437,0,0,0-.279.124c-.031.017-.048.061-.1.13.074.033.141.093.2.086a8.228,8.228,0,0,0,1.082-.165,6.078,6.078,0,0,0,3.3-2.11,15.7,15.7,0,0,0,2.131-3.457,13.216,13.216,0,0,0,.72-2.053,6.6,6.6,0,0,0,.068-3.2,4.556,4.556,0,0,0-.993-1.971,3.068,3.068,0,0,0-1.452-.989,4.187,4.187,0,0,1-1.33-.734c-.212-.161-.417-.333-.638-.478a1.859,1.859,0,0,0-1.972-.112c-.091.046-.179.1-.264.142a.853.853,0,0,1-.187-.046,7.137,7.137,0,0,0-4.53-.535,11.24,11.24,0,0,0-2.32.652c-.312.123-.62.258-.924.4-.108.052-.218.1-.379.17a2.139,2.139,0,0,1-.03-.32c.056-.7.124-1.4.176-2.1a2.138,2.138,0,0,0-.029-.553.409.409,0,0,0-.434-.358c-.1-.006-.2.01-.3.014-.732.027-1.464.06-2.2.077q-3.511.083-7.023.155-1.465.029-2.931.031c-1.955.005-3.91.025-5.864,0-1.078-.016-2.154-.116-3.231-.179-.183-.011-.366-.036-.548-.032a.446.446,0,0,0-.487.448,2.212,2.212,0,0,0-.021.372,19.2,19.2,0,0,0,.251,3.094c.073.406.092.823.13,1.236.161,1.754.417,3.494.744,5.225a1.814,1.814,0,0,1,0,.316.686.686,0,0,1-.477-.016c-1.382-.282-2.753-.607-4.1-1.02a25.228,25.228,0,0,1-2.912-1.082c-1.488-.667-2.951-1.4-4.4-2.142a21.629,21.629,0,0,1-1.867-1.176c-.194-.126-.375-.255-.614-.122-.022.2.146.286.255.4a17.277,17.277,0,0,0,2.825,2.266,24.484,24.484,0,0,0,5.541,2.632c.107.036.214.075.321.11a40.5,40.5,0,0,0,6.347,1.524c1.045.165,2.095.3,3.144.442a7.427,7.427,0,0,0,.853.049,33.406,33.406,0,0,0,4.21-.133,11.682,11.682,0,0,0,2.62-.566A10.175,10.175,0,0,0,1184.85,254a1.534,1.534,0,0,0,.65-.944c.2-.78.412-1.557.622-2.334a9.426,9.426,0,0,1,.76-2.026,4.618,4.618,0,0,1,1.413-1.688,3.912,3.912,0,0,1,.862-.455,1,1,0,0,1,1.207.342c.2.256.375.535.538.769-.047.271-.235.345-.37.462a11.648,11.648,0,0,0-2.747,3.46,4.771,4.771,0,0,0-.279.686.231.231,0,0,0,.088.2.224.224,0,0,0,.215-.03,4.107,4.107,0,0,0,.292-.4c.4-.548.776-1.119,1.211-1.638a11.686,11.686,0,0,1,4.56-3.37,12.7,12.7,0,0,1,2.324-.7,6.765,6.765,0,0,1,3.386.074,4.8,4.8,0,0,1,.794.316,2.825,2.825,0,0,1,1.53,2.118,6.183,6.183,0,0,1-.076,2.285,15.931,15.931,0,0,1-1.21,3.714q-.242.53-.514,1.048a24.618,24.618,0,0,1-6.6,7.894,22.768,22.768,0,0,1-6.872,3.833,24.833,24.833,0,0,1-4.1.944,28.144,28.144,0,0,1-5.847.24,27.343,27.343,0,0,1-3.578-.4,69.965,69.965,0,0,1-8.766-2.175,46.943,46.943,0,0,1-5.948-2.412,8.058,8.058,0,0,1-.787-.472c-.156-.1-.3-.221-.455-.313a16.8,16.8,0,0,1-3.031-2.4c-.72-.672-1.408-1.38-2.115-2.066a9.236,9.236,0,0,1-2.1-3.171,15.848,15.848,0,0,1-.962-3.072c-.035-.188-.066-.377-.093-.567-.086-.588-.142-1.182-.215-1.773-.053-.431-.081-.866-.141-1.3-.129-.927-.095-1.862-.14-2.792a1.182,1.182,0,0,1,.391-.99,3.615,3.615,0,0,1,2.9-1.04,4.963,4.963,0,0,1,1.987.546c.012.007.036-.01.1-.029a1.244,1.244,0,0,0-.127-.171,5.806,5.806,0,0,0-1.365-.928,2.546,2.546,0,0,0-3.191.731c-.078.095-.146.2-.223.3s-.151.182-.224.269c-.159-.068-.115-.188-.106-.277q.029-.287.058-.574c.064-.633.129-1.266.214-1.9a46.839,46.839,0,0,1,1.435-6.8,28.74,28.74,0,0,1,12.882-17.085,34.444,34.444,0,0,1,8.089-3.591,40.838,40.838,0,0,1,6.854-1.489c.625-.079,1.256-.118,1.886-.137.956-.029,1.914-.013,2.87-.035a20.889,20.889,0,0,1,4.185.419,41.07,41.07,0,0,1,8.776,2.575,30.5,30.5,0,0,1,10.9,7.7,27.815,27.815,0,0,1,5.637,9.515,44.506,44.506,0,0,1,2.045,8.429c.105.727.164,1.462.221,2.2l.007.091a33.268,33.268,0,0,1-.039,6.455c-.074.644-.184,1.279-.312,1.91-.1.5-.213,1-.332,1.5C1213.361,255.6,1212.851,257.708,1212.309,259.81ZM1201.8,246.473a1.473,1.473,0,0,1,1.514.712l-.648.614Zm-25.319-1.413a2.938,2.938,0,0,0,1.627,2.714,4.047,4.047,0,0,0,1.81.5q1.555.038,3.113,0a4.064,4.064,0,0,0,1.754-.485,2.975,2.975,0,0,0,1.646-3c-.006-.08-.013-.161-.017-.219a.612.612,0,0,1,.055-.069.106.106,0,0,1,.052-.031q2.56-.148,5.119-.292a2.07,2.07,0,0,1,.27.023,2.781,2.781,0,0,1-.03.793c0,.249-.019.5-.026.746-.008.269,0,.539-.018.808a1.033,1.033,0,0,1-.185.736,1.588,1.588,0,0,1-.159-.19c-.146-.248-.265-.516-.434-.747a1.851,1.851,0,0,0-2.162-.729,4.162,4.162,0,0,0-1.711,1.044,6.578,6.578,0,0,0-1.434,2.143,15.924,15.924,0,0,0-.849,2.783c-.062.262-.135.52-.194.783a1.147,1.147,0,0,1-.48.69,7.477,7.477,0,0,1-2.909,1.384,14.6,14.6,0,0,1-3.993.427c-1.116-.075-2.23-.186-3.344-.3-.465-.046-.927-.129-1.39-.2-.219-.034-.437-.082-.7-.132a51.189,51.189,0,0,1-1.07-9.948.763.763,0,0,1,.211-.048q2.562.126,5.123.261c.1,0,.194.024.328.041C1176.483,244.739,1176.48,244.9,1176.484,245.06Zm.635-.466a.565.565,0,0,1,.166-.055q4.183-.03,8.366-.051a.583.583,0,0,1,.168.051,2.508,2.508,0,0,1-1.6,2.6,6.047,6.047,0,0,1-1.9.4c-.386.021-.774.006-1.16.021a6.949,6.949,0,0,1-1.989-.267,3.511,3.511,0,0,1-.574-.206A2.478,2.478,0,0,1,1177.119,244.594Z" transform="translate(-1147.533 -212.141)"/>
      </g>
      <path id="패스_1388" data-name="패스 1388" d="M1340.827,311.02a4.806,4.806,0,0,1-.663.707,2.939,2.939,0,0,0-.53.678c.193.069.289-.068.405-.131a9.369,9.369,0,0,1,3.023-1.053,8.586,8.586,0,0,1,4.9.674,9.807,9.807,0,0,1,3.568,2.711,4.858,4.858,0,0,1,.539.825.76.76,0,0,1,.017.876.882.882,0,0,1-.862.214,2.272,2.272,0,0,1-1.167-.528,7.512,7.512,0,0,0-3.322-1.573,8.647,8.647,0,0,0-4.4.137,6.7,6.7,0,0,0-2.874,1.753c-.115.118-.226.241-.343.357a1.57,1.57,0,0,1-1.488.406.935.935,0,0,1-.842-.925,2.57,2.57,0,0,1,.094-.976,6.611,6.611,0,0,1,3.226-3.982,3.1,3.1,0,0,1,.455-.19A.886.886,0,0,1,1340.827,311.02Z" transform="translate(-1294.735 -280.398)" fill-rule="evenodd"/>
      <g id="그룹_1226" data-name="그룹 1226" transform="translate(0.823 35.671)">
        <path id="패스_1389" data-name="패스 1389" d="M1161.7,333.276c-4.245,0-7.941,1.639-9.867,4.059-.02.19-.039.381-.059.571-.009.088-.054.207.108.275.074-.086.153-.175.228-.268s.147-.2.226-.295a2.611,2.611,0,0,1,3.236-.729,5.89,5.89,0,0,1,1.384.924,1.251,1.251,0,0,1,.129.171l-.009,0a6.709,6.709,0,0,1,1.579,1.658,15.247,15.247,0,0,0,3,3.2c.276.175.555.343.845.489,1.472.743,2.956,1.469,4.465,2.134a25.868,25.868,0,0,0,2.953,1.078,6.824,6.824,0,0,0,3.06-5.394C1172.978,336.8,1167.927,333.276,1161.7,333.276Z" transform="translate(-1151.624 -333.276)" fill="#f1878d"/>
        <path id="패스_1390" data-name="패스 1390" d="M1160.4,349.231a5.1,5.1,0,0,1,2.015.544c.011.006.035-.008.092-.026-1.593-1.208-3.489-1.7-3.725-.854l.56.391A3.788,3.788,0,0,1,1160.4,349.231Z" transform="translate(-1157.059 -345.035)" fill="none"/>
        <path id="패스_1391" data-name="패스 1391" d="M1200.992,379.824c.114.081.179.125.179.125Z" transform="translate(-1189.723 -369.296)" fill="none"/>
        <path id="패스_1392" data-name="패스 1392" d="M1189.7,371.933l2.555,1.785c-.238-.169-.694-.5-1.238-.955-.352-.223-.7-.458-1.049-.682A1.452,1.452,0,0,0,1189.7,371.933Z" transform="translate(-1180.982 -363.19)" fill="none"/>
        <path id="패스_1393" data-name="패스 1393" d="M1162.651,359a17.478,17.478,0,0,1-2.865-2.257c-.111-.109-.281-.192-.259-.394a.4.4,0,0,1,.354-.026,1.452,1.452,0,0,1,.268.147c.351.224.7.459,1.049.682a15.25,15.25,0,0,1-3-3.2,6.712,6.712,0,0,0-1.58-1.658c-.057.018-.081.033-.092.026a5.1,5.1,0,0,0-2.015-.544,3.788,3.788,0,0,0-1.057.054,3.839,3.839,0,0,0-1.883.982,1.167,1.167,0,0,0-.4.986c.046.927.012,1.857.142,2.781.06.429.089.861.142,1.291.074.588.131,1.18.218,1.766,1.994,2.225,5.532,3.706,9.567,3.706a14.534,14.534,0,0,0,7.031-1.72A25.029,25.029,0,0,1,1162.651,359Z" transform="translate(-1151.168 -347.581)" fill="#fff"/>
      </g>
      <path id="패스_1394" data-name="패스 1394" d="M1208.142,311.631a1.358,1.358,0,0,0-.469-.749c-.177-.2-.35-.4-.553-.639.013-.062.095-.082.211-.041a5.149,5.149,0,0,1,1.394.79,7.005,7.005,0,0,1,2.289,3.313,2.267,2.267,0,0,1,.139,1.035,1.021,1.021,0,0,1-.891.967,1.571,1.571,0,0,1-1.435-.392c-.074-.071-.148-.144-.218-.219a7.127,7.127,0,0,0-5.736-2.255,9.332,9.332,0,0,0-1.9.248,7.5,7.5,0,0,0-3.087,1.5,2.188,2.188,0,0,1-1.344.557c-.759.028-1.028-.348-.72-1.053a3.264,3.264,0,0,1,.489-.783,9.5,9.5,0,0,1,6.08-3.492,8.429,8.429,0,0,1,5.1.886C1207.711,311.416,1207.927,311.523,1208.142,311.631Z" transform="translate(-1185 -279.771)" fill-rule="evenodd"/>
    </g>
  </g>
</svg>
