<svg xmlns="http://www.w3.org/2000/svg" width="28" height="24" viewBox="0 0 28 24">
  <g id="다각형_363" data-name="다각형 363" fill="none">
    <path d="M19.277,0a3,3,0,0,1,2.591,1.488l5.25,9a3,3,0,0,1,0,3.023l-5.25,9A3,3,0,0,1,19.277,24H8.723a3,3,0,0,1-2.591-1.488l-5.25-9a3,3,0,0,1,0-3.023l5.25-9A3,3,0,0,1,8.723,0Z" stroke="none"/>
    <path d="M 8.723110198974609 3 L 3.473110198974609 12 L 8.723110198974609 21 L 19.27688026428223 20.99999046325684 L 24.52688980102539 12.00000953674316 L 19.27688980102539 3 L 8.723110198974609 3 M 8.723110198974609 0 L 19.27688980102539 0 C 20.34389114379883 0 21.33058929443359 0.5667304992675781 21.86821937561035 1.48838996887207 L 27.11823081970215 10.48838996887207 C 27.66311073303223 11.42247009277344 27.66311073303223 12.57752990722656 27.11823081970215 13.51161003112793 L 21.86821937561035 22.51161003112793 C 21.33058929443359 23.43326950073242 20.34389114379883 24 19.27688980102539 24 L 8.723110198974609 24 C 7.656110763549805 24 6.669399261474609 23.43326950073242 6.131769180297852 22.51161003112793 L 0.8817691802978516 13.51161003112793 C 0.3368892669677734 12.57752990722656 0.3368892669677734 11.42247009277344 0.8817691802978516 10.48838996887207 L 6.131769180297852 1.48838996887207 C 6.669410705566406 0.5667304992675781 7.656110763549805 0 8.723110198974609 0 Z" stroke="none" fill="#606ab7"/>
  </g>
</svg>
