<svg xmlns="http://www.w3.org/2000/svg" width="72" height="52.75" viewBox="0 0 72 52.75">
  <g id="그룹_2692" data-name="그룹 2692" transform="translate(-238 -638.25)">
    <ellipse id="타원_204" data-name="타원 204" cx="36" cy="8.5" rx="36" ry="8.5" transform="translate(238 674)" fill="rgba(0,0,0,0.05)"/>
    <g id="그룹_2691" data-name="그룹 2691" transform="translate(253 639)">
      <g id="그룹_929" data-name="그룹 929" transform="translate(0.003 17.51)">
        <path id="패스_1065" data-name="패스 1065" d="M664.455,331.222h-41.88l3.61-6.959h34.659Z" transform="translate(-622.575 -324.263)" fill="#d99f43" stroke="#000" stroke-linecap="round" stroke-linejoin="round" stroke-width="1.5"/>
      </g>
      <g id="그룹_932" data-name="그룹 932" transform="translate(3.097 0)">
        <g id="그룹_931" data-name="그룹 931">
          <g id="그룹_930" data-name="그룹 930">
            <path id="패스_1066" data-name="패스 1066" d="M666.264,313.065c0,.769-.443,1.562-1.2,1.562H633.02a1.7,1.7,0,0,1-1.552-1.562v-39.3c0-.769.791-1.223,1.552-1.223h32.039a1.11,1.11,0,0,1,1.2,1.223Z" transform="translate(-631.468 -272.539)" fill="#fff" stroke="#000" stroke-linecap="round" stroke-width="1.5"/>
            <line id="선_66" data-name="선 66" x2="13.918" transform="translate(17.05 4.523)" fill="#ffeb02" stroke="#000" stroke-width="1.5"/>
            <line id="선_67" data-name="선 67" x2="9.047" transform="translate(17.05 8.351)" fill="#ffeb02" stroke="#000" stroke-width="1.5"/>
            <line id="선_68" data-name="선 68" x2="9.047" transform="translate(17.05 11.697)" fill="#ffeb02" stroke="#000" stroke-width="1.5"/>
          </g>
          <rect id="사각형_1654" data-name="사각형 1654" width="26.445" height="4.175" transform="translate(4.378 15.727)" fill="#e7e9ed"/>
          <rect id="사각형_1655" data-name="사각형 1655" width="26.445" height="17.398" transform="translate(4.378 21.371)" fill="#e7e9ed"/>
        </g>
        <path id="패스_1067" data-name="패스 1067" d="M653.22,291.993a4.962,4.962,0,0,0-2.984-3.927.252.252,0,0,1-.024-.477,2.611,2.611,0,0,0,1.577-2.395A2.654,2.654,0,1,0,648,287.588c.269.128.26.415.028.477-1.716.484-2.975,2.873-2.975,3.927Z" transform="translate(-640.324 -279.059)" fill="#afdae9" stroke="#000" stroke-linecap="round" stroke-linejoin="round" stroke-width="1.5"/>
      </g>
      <path id="패스_1068" data-name="패스 1068" d="M663.748,343.908h-14.21a6.3,6.3,0,0,1-12.6,0H623.271a.816.816,0,0,0-.7.819v19.71a.668.668,0,0,0,.7.7h40.477c.686,0,.861-.311.861-.7v-19.71A.966.966,0,0,0,663.748,343.908Z" transform="translate(-622.568 -320.133)" fill="#8ee4ff" stroke="#000" stroke-linecap="round" stroke-linejoin="round" stroke-width="1.5"/>
      <g id="그룹_933" data-name="그룹 933" transform="translate(23.257 20.419)">
        <path id="패스_1069" data-name="패스 1069" d="M698.092,388.229l-5.765,5.765a3.449,3.449,0,0,0,4.878,4.878l5.765-5.765a3.449,3.449,0,0,0-4.878-4.878Zm3.548,3.548-5.765,5.765a1.568,1.568,0,0,1-2.217-2.217l5.765-5.765a1.568,1.568,0,0,1,2.217,2.217Z" transform="translate(-691.32 -376.135)" fill="#afdae9" stroke="#000" stroke-linecap="round" stroke-linejoin="round" stroke-width="1.2"/>
        <path id="패스_1070" data-name="패스 1070" d="M733.448,352.873l-5.765,5.765a3.449,3.449,0,0,0,4.878,4.878l5.765-5.765a3.45,3.45,0,0,0-4.878-4.878ZM737,356.42l-5.765,5.765a1.568,1.568,0,0,1-2.217-2.217l5.765-5.765A1.568,1.568,0,0,1,737,356.42Z" transform="translate(-715.589 -351.866)" fill="#afdae9" stroke="#000" stroke-linecap="round" stroke-linejoin="round" stroke-width="1.2"/>
        <path id="패스_1071" data-name="패스 1071" d="M723.552,379.969l-5.543,5.544a1.1,1.1,0,0,1-1.552,0h0a1.1,1.1,0,0,1,0-1.552L722,378.416a1.1,1.1,0,0,1,1.552,0h0A1.1,1.1,0,0,1,723.552,379.969Z" transform="translate(-708.354 -369.871)" fill="#ffeb02" stroke="#000" stroke-width="1.2"/>
      </g>
    </g>
  </g>
</svg>
