<svg xmlns="http://www.w3.org/2000/svg" width="20" height="22" viewBox="0 0 20 22">
  <path id="패스_499" data-name="패스 499" d="M9.667,10.9v2.2H7.444V10.9H9.667m4.444,0v2.2H11.889V10.9h2.222m4.444,0v2.2H16.333V10.9h2.222m2.222-7.7A2.211,2.211,0,0,1,23,5.4V20.8A2.211,2.211,0,0,1,20.778,23H5.222A2.211,2.211,0,0,1,3,20.8V5.4A2.211,2.211,0,0,1,5.222,3.2H6.333V1H8.556V3.2h8.889V1h2.222V3.2h1.111m0,17.6V8.7H5.222V20.8H20.778M9.667,15.3v2.2H7.444V15.3H9.667m4.444,0v2.2H11.889V15.3h2.222m4.444,0v2.2H16.333V15.3Z" transform="translate(-3 -1)" fill="#8c9197"/>
</svg>
