<svg id="그룹_3272" data-name="그룹 3272" xmlns="http://www.w3.org/2000/svg" xmlns:xlink="http://www.w3.org/1999/xlink" width="161.103" height="240.863" viewBox="0 0 161.103 240.863">
  <defs>
    <clipPath id="clip-path">
      <rect id="사각형_4845" data-name="사각형 4845" width="161.103" height="240.863" fill="none"/>
    </clipPath>
    <clipPath id="clip-path-2">
      <path id="패스_5954" data-name="패스 5954" d="M107.174.973s-3.075.378-3.837.917-.355.745-.355.745a4.732,4.732,0,0,0-4.11,3.977,6.071,6.071,0,0,0-.064,1.441c.193,2.079,2.783,8.639,2.783,8.639l1.1,9.6,11.719-1.57-2.676-7.88c4.05-2.445,4.823-9.632,4.428-11.12A2.017,2.017,0,0,0,114,4.146S113.3.727,112.374.269a1.786,1.786,0,0,0-1.849.4A1.4,1.4,0,0,0,109.347,0c-.034,0-.067,0-.1,0a4.365,4.365,0,0,0-2.072.973" transform="translate(-98.789)" fill="none"/>
    </clipPath>
    <clipPath id="clip-path-4">
      <path id="패스_5991" data-name="패스 5991" d="M40.84,249.332l1.09,3.894,16.557,59.039,15.28-3.417s-2.908-22.953-4.41-33.2c-1.148-7.795-4.616-17.5-6.215-21.689-.5-1.315-.812-2.089-.812-2.089l-1.567-7Z" transform="translate(-40.84 -244.87)" fill="none"/>
    </clipPath>
    <clipPath id="clip-path-6">
      <path id="패스_6003" data-name="패스 6003" d="M48.872,73.537c.006.359.948,6.689-1.776,8.529-.542,3.481,14.251.245,17.5-5.914a23.814,23.814,0,0,1-4.9-11.394v0S57.222,73.3,48.872,73.537" transform="translate(-47.082 -64.756)" fill="none"/>
    </clipPath>
  </defs>
  <path id="패스_5934" data-name="패스 5934" d="M226.371,321.953l-3.5-6.545-16.22,8.035,3.22,8.044Z" transform="translate(-73.414 -112.053)" fill="#f5c7b6"/>
  <g id="그룹_3259" data-name="그룹 3259">
    <g id="그룹_3258" data-name="그룹 3258" clip-path="url(#clip-path)">
      <path id="패스_5935" data-name="패스 5935" d="M221.655,325.56a11.336,11.336,0,0,1,3.337,2.983c1,1.617,2.46,4.258,2.46,4.258l-34.02,19.655s-.694-3.213,2.707-6.6,5.3-4.226,6.641-5.709,2.372-5.055,2.372-5.055Z" transform="translate(-68.698 -115.659)" fill="#1d1a37"/>
      <rect id="사각형_4843" data-name="사각형 4843" width="39.29" height="4.694" transform="matrix(0.866, -0.5, 0.5, 0.866, 124.734, 236.798)" fill="#fff"/>
      <line id="선_55" data-name="선 55" x1="34.042" y2="19.668" transform="translate(125.31 218.127)" fill="none" stroke="#2b3c27" stroke-width="0.821"/>
      <path id="패스_5936" data-name="패스 5936" d="M206.967,351.429l.05-.069a.588.588,0,0,0-.13-.822l-.917-.668a.589.589,0,0,0-.823.129l-.05.069a.588.588,0,0,0,.129.822l.917.668a.589.589,0,0,0,.823-.129" transform="translate(-72.824 -124.255)" fill="#fff"/>
      <path id="패스_5937" data-name="패스 5937" d="M209.37,348.383l.05-.069a.588.588,0,0,0-.13-.822l-.917-.668a.589.589,0,0,0-.823.129l-.05.069a.588.588,0,0,0,.129.822l.917.668a.589.589,0,0,0,.823-.129" transform="translate(-73.677 -123.173)" fill="#fff"/>
      <path id="패스_5938" data-name="패스 5938" d="M211.773,345.338l.05-.069a.588.588,0,0,0-.13-.822l-.917-.668a.589.589,0,0,0-.823.129l-.05.069a.588.588,0,0,0,.129.822l.917.668a.589.589,0,0,0,.823-.129" transform="translate(-74.531 -122.091)" fill="#fff"/>
      <line id="선_56" data-name="선 56" x2="2.614" y2="4.524" transform="translate(130.556 227.399)" fill="none" stroke="#fff" stroke-width="0.582"/>
      <path id="패스_5939" data-name="패스 5939" d="M155.858,345.507a11.337,11.337,0,0,1,1.4,4.252c.056,1.9,0,4.918,0,4.918h-39.29s1.006-3.13,5.645-4.359,6.707-1.006,8.607-1.621,4.583-3.19,4.583-3.19Z" transform="translate(-41.908 -122.746)" fill="#1d1a37"/>
      <rect id="사각형_4844" data-name="사각형 4844" width="39.29" height="4.694" transform="translate(76.057 231.932)" fill="#fff"/>
      <line id="선_57" data-name="선 57" x1="39.315" transform="translate(76.057 233.083)" fill="none" stroke="#2b3c27" stroke-width="0.821"/>
      <path id="패스_5940" data-name="패스 5940" d="M137.361,352.895l.078-.034a.588.588,0,0,0,.3-.777l-.46-1.037a.588.588,0,0,0-.777-.3l-.077.034a.589.589,0,0,0-.3.777l.46,1.037a.589.589,0,0,0,.777.3" transform="translate(-48.342 -124.589)" fill="#fff"/>
      <path id="패스_5941" data-name="패스 5941" d="M140.965,351.461l.078-.034a.588.588,0,0,0,.3-.777l-.46-1.037a.588.588,0,0,0-.777-.3l-.077.034a.589.589,0,0,0-.3.777l.46,1.037a.589.589,0,0,0,.777.3" transform="translate(-49.622 -124.08)" fill="#fff"/>
      <path id="패스_5942" data-name="패스 5942" d="M144.569,350.026l.078-.034a.588.588,0,0,0,.3-.777l-.46-1.037a.588.588,0,0,0-.777-.3l-.077.034a.589.589,0,0,0-.3.777l.46,1.037a.589.589,0,0,0,.777.3" transform="translate(-50.903 -123.57)" fill="#fff"/>
      <line id="선_58" data-name="선 58" y2="5.225" transform="translate(85.799 226.707)" fill="none" stroke="#fff" stroke-width="0.582"/>
      <path id="패스_5943" data-name="패스 5943" d="M142.74,162.847h39.551c12.108,19.85,4.2,58.884,4.2,58.884l16.792,41.788-21.8,12.393-13.805-25.554.237,30.257H142.74V192.537l.258-.047h-.258Z" transform="translate(-50.71 -57.853)" fill="#424e87"/>
      <path id="패스_5944" data-name="패스 5944" d="M174,261.856l-4.731-10.763a38.5,38.5,0,0,1-3.251-14.979l-.387-37.83-5.1-3.075" transform="translate(-57.027 -69.35)" fill="none" stroke="#8992ce" stroke-width="0.821"/>
      <path id="패스_5945" data-name="패스 5945" d="M166.745,342.752H142.521a1.5,1.5,0,0,1-1.5-1.5v-2.481a1.5,1.5,0,0,1,1.5-1.5h24.224a1.5,1.5,0,0,1,1.5,1.5v2.481a1.5,1.5,0,0,1-1.5,1.5" transform="translate(-50.099 -119.818)" fill="#8992ce"/>
      <path id="패스_5946" data-name="패스 5946" d="M223.483,315.95,202.5,328.062a1.5,1.5,0,0,1-2.052-.55l-1.241-2.149a1.5,1.5,0,0,1,.55-2.052L220.74,311.2a1.5,1.5,0,0,1,2.052.549l1.241,2.15a1.5,1.5,0,0,1-.55,2.052" transform="translate(-70.701 -110.486)" fill="#8992ce"/>
      <path id="패스_5947" data-name="패스 5947" d="M141.413,67.781l-18.9-8.306-16.76,4.393s-2.7,15.637,30.655,30.441Z" transform="translate(-37.551 -21.129)" fill="#fff"/>
      <path id="패스_5948" data-name="패스 5948" d="M102.7,26.3l-1.1-9.6S99,10.132,98.808,8.053a6.131,6.131,0,0,1,.064-1.44,4.733,4.733,0,0,1,4.111-3.979s-.407-.2.354-.744,3.837-.918,3.837-.918A4.117,4.117,0,0,1,109.347,0a1.4,1.4,0,0,1,1.177.663,1.786,1.786,0,0,1,1.849-.4C113.3.726,114,4.145,114,4.145a2.016,2.016,0,0,1,2.169,1.58c.4,1.488-.378,8.675-4.428,11.119l2.676,7.881Z" transform="translate(-35.096 0)" fill="#f5c7b6"/>
    </g>
  </g>
  <g id="그룹_3261" data-name="그룹 3261" transform="translate(63.693)">
    <g id="그룹_3260" data-name="그룹 3260" clip-path="url(#clip-path-2)">
      <path id="패스_5949" data-name="패스 5949" d="M104.184,6.527a40.837,40.837,0,0,0,.116,4.349c.366.584,1.609,1.144,3-.16.937-.878.8-3.725.612-5.492a1.5,1.5,0,0,0-1.626-1.333l-1.39.124" transform="translate(-100.704 -1.38)" fill="none" stroke="#f08f7b" stroke-linecap="round" stroke-linejoin="round" stroke-width="0.783"/>
      <path id="패스_5950" data-name="패스 5950" d="M110.978,1.508c.913.166,1.1.651,1.191,1.807s-.037,5.075-.339,5.5c0,0-.514,1.244-2.331.706" transform="translate(-102.594 -0.536)" fill="none" stroke="#f08f7b" stroke-linecap="round" stroke-linejoin="round" stroke-width="0.783"/>
      <path id="패스_5951" data-name="패스 5951" d="M119.479,3.027c.368,2.366-.117,6.055-1.093,6.378a4.021,4.021,0,0,1-2.025.046" transform="translate(-105.032 -1.075)" fill="none" stroke="#f08f7b" stroke-linecap="round" stroke-linejoin="round" stroke-width="0.783"/>
      <path id="패스_5952" data-name="패스 5952" d="M115.531,1.284c.775,1.554-.042,7.289-.721,7.753s-2.171.09-2.171.09" transform="translate(-103.709 -0.456)" fill="none" stroke="#f08f7b" stroke-linecap="round" stroke-linejoin="round" stroke-width="0.783"/>
      <path id="패스_5953" data-name="패스 5953" d="M114.493,18.5a7.194,7.194,0,0,1,2.7-5.4" transform="translate(-104.368 -4.655)" fill="none" stroke="#f08f7b" stroke-linecap="round" stroke-linejoin="round" stroke-width="0.783"/>
    </g>
  </g>
  <g id="그룹_3263" data-name="그룹 3263">
    <g id="그룹_3262" data-name="그룹 3262" clip-path="url(#clip-path)">
      <path id="패스_5955" data-name="패스 5955" d="M115.137,58.454h0a9.309,9.309,0,0,1-6.024-.431,6.987,6.987,0,0,1-4.1-6l-1.386-23.243,9.828-2.651L121.4,48.783a6.284,6.284,0,0,1,.361,1.621c.257,3.538-2.5,7-6.623,8.05" transform="translate(-36.816 -9.282)" fill="#f5c7b6"/>
      <path id="패스_5956" data-name="패스 5956" d="M142.7,92.168l.023,36.534h39.551l4.648-49.19L169.374,66.735l-14.142,5.451-8.166,8.831A16.411,16.411,0,0,0,142.7,92.168" transform="translate(-50.697 -23.708)" fill="#fff"/>
      <line id="선_59" data-name="선 59" x1="0.847" y2="49.286" transform="translate(103.495 55.804)" fill="#fff"/>
      <line id="선_60" data-name="선 60" x1="0.847" y2="49.286" transform="translate(103.495 55.804)" fill="none" stroke="#ced3f4" stroke-width="0.821"/>
      <path id="패스_5957" data-name="패스 5957" d="M155.231,75.19l-8.166,8.831A16.411,16.411,0,0,0,142.7,95.172" transform="translate(-50.697 -26.712)" fill="none" stroke="#ced3f4" stroke-width="0.766"/>
      <line id="선_61" data-name="선 61" x2="0.002" y2="2.823" transform="translate(92.007 68.46)" fill="none" stroke="#ced3f4" stroke-width="0.766"/>
      <line id="선_62" data-name="선 62" x1="0.847" y2="49.286" transform="translate(103.495 55.804)" fill="none" stroke="#ced3f4" stroke-width="0.766"/>
      <path id="패스_5958" data-name="패스 5958" d="M188.5,118.341l1.6.248s-8.156-30.2,11.979-32.036c4.135,4.28,7.589,6.587,7.7,18.925s.006,28.2-6.932,29.885c-2.754.668-13.167.535-17.508-1.033,3.645-5.919,3.413-13.23,3.162-15.988" transform="translate(-65.842 -30.749)" fill="#fff"/>
      <path id="패스_5959" data-name="패스 5959" d="M185.335,134.329c3.645-5.919,3.413-13.23,3.162-15.988l1.6.247s-8.156-30.2,11.979-32.036" transform="translate(-65.842 -30.749)" fill="none" stroke="#ced3f4" stroke-width="0.766"/>
      <path id="패스_5960" data-name="패스 5960" d="M139.5,136.446h14.685a.829.829,0,0,0,.758-1.163L145.536,114a.827.827,0,0,0-.758-.494H130.094a.829.829,0,0,0-.758,1.163l9.4,21.287a.827.827,0,0,0,.758.494" transform="translate(-45.923 -40.323)" fill="#8992ce"/>
      <path id="패스_5961" data-name="패스 5961" d="M133.385,112.657h9.607l-.9-1.685a.776.776,0,0,0-.685-.411h-7.846a.777.777,0,0,0-.685,1.142Z" transform="translate(-47.173 -39.278)" fill="#d3dbe5"/>
      <path id="패스_5962" data-name="패스 5962" d="M147.1,129.088l5.7,3.1,1.587-3.28a7.63,7.63,0,0,1-1.587-3s4.407.529,4.995.973a26.408,26.408,0,0,1,2.441,3.764l12.569,1.144c.25,3.165.484,11.555-3.162,18.347a113.5,113.5,0,0,1-11.011-5.367H146.748l-5.581-5.581Z" transform="translate(-50.151 -44.733)" fill="#f5c7b6"/>
      <path id="패스_5963" data-name="패스 5963" d="M145.836,134.278l-3.724-2.7a1.784,1.784,0,0,0-2.631.827,1.308,1.308,0,0,0-.046.156c-.154.7,4.54,4.7,4.54,4.7Z" transform="translate(-49.535 -46.644)" fill="#f5c7b6"/>
      <path id="패스_5964" data-name="패스 5964" d="M145.177,139.431l-3.724-2.7a1.784,1.784,0,0,0-2.631.827,1.309,1.309,0,0,0-.046.156c-.154.7,4.54,4.7,4.54,4.7Z" transform="translate(-49.301 -48.475)" fill="#f5c7b6"/>
      <path id="패스_5965" data-name="패스 5965" d="M144.142,143.326l-3.724-2.7a1.784,1.784,0,0,0-2.631.827,1.308,1.308,0,0,0-.046.156c-.154.7,4.54,4.7,4.54,4.7Z" transform="translate(-48.933 -49.859)" fill="#f5c7b6"/>
      <path id="패스_5966" data-name="패스 5966" d="M149.4,130.952l-3.724-2.7a1.784,1.784,0,0,0-2.631.827,1.311,1.311,0,0,0-.046.156c-.154.7,4.54,4.7,4.54,4.7Z" transform="translate(-50.801 -45.463)" fill="#f5c7b6"/>
      <path id="패스_5967" data-name="패스 5967" d="M165.69,66.139l-3.308-1.475-9.681,10.6,3.456,3.879Z" transform="translate(-54.249 -22.973)" fill="#fff"/>
      <path id="패스_5968" data-name="패스 5968" d="M165.69,66.139l-3.308-1.475-9.681,10.6,3.456,3.879Z" transform="translate(-54.249 -22.973)" fill="none" stroke="#ced3f4" stroke-width="0.821"/>
      <path id="패스_5969" data-name="패스 5969" d="M164.219,20.107c-.906-1.375-6.493-.951-7.793,0-4.019,2.939-3.358,13.3,2.584,12.387,1.538-.238,2.2,1.715,2.2,1.715l14.471,5.041,3.14-5.951a6.311,6.311,0,0,0-1.115-7.416c-5.414-5.385-10.594-5.966-13.488-5.775" transform="translate(-54.669 -6.831)" fill="#39281c"/>
      <path id="패스_5970" data-name="패스 5970" d="M174.869,42.064a3.6,3.6,0,0,0-3.107-3.634l1.4-9.211-12.467-1.992a6.069,6.069,0,0,0-6.8,4.35l-2.114,9.837s-1.788,9.268,5.691,10.162l.725,13.873L172.8,55.4l-.646-9.771a3.626,3.626,0,0,0,2.71-3.562" transform="translate(-53.855 -9.645)" fill="#f5c7b6"/>
      <path id="패스_5971" data-name="패스 5971" d="M160.71,63.906s5.4.638,8.434-2.05c-1.024,4.662-8.188,6.771-8.188,6.771Z" transform="translate(-57.094 -21.975)" fill="#f08f7b"/>
      <path id="패스_5972" data-name="패스 5972" d="M182.583,47.024a1.951,1.951,0,0,1,1.25,1.8,2,2,0,0,1-2.047,1.949" transform="translate(-64.582 -16.706)" fill="none" stroke="#272525" stroke-linecap="round" stroke-linejoin="round" stroke-width="1.163"/>
      <path id="패스_5973" data-name="패스 5973" d="M166.98,42.1a.952.952,0,1,1,.74,1.125.952.952,0,0,1-.74-1.125" transform="translate(-59.315 -14.685)" fill="#272525"/>
      <path id="패스_5974" data-name="패스 5974" d="M154.9,40.925a.9.9,0,1,1,.7,1.065.9.9,0,0,1-.7-1.065" transform="translate(-55.023 -14.284)" fill="#272525"/>
      <path id="패스_5975" data-name="패스 5975" d="M167.362,37.316a3.725,3.725,0,0,1,2.7,1.428.277.277,0,0,1-.417.36,2.909,2.909,0,0,0-2.262-.663.566.566,0,1,1-.018-1.125" transform="translate(-59.238 -13.256)" fill="#272525"/>
      <path id="패스_5976" data-name="패스 5976" d="M159.247,41.6l-2.618,2.2a2.715,2.715,0,0,0,1.393,1.547" transform="translate(-55.644 -14.78)" fill="none" stroke="#e37669" stroke-linecap="round" stroke-linejoin="round" stroke-width="1.163"/>
      <path id="패스_5977" data-name="패스 5977" d="M156.894,37.615a1.34,1.34,0,0,0-1.44.247.341.341,0,0,1-.526-.431,2.24,2.24,0,0,1,2.289-.894.57.57,0,1,1-.323,1.078" transform="translate(-55.019 -12.964)" fill="#272525"/>
      <path id="패스_5978" data-name="패스 5978" d="M155.177,49.188a6.272,6.272,0,0,0,.229.932,3.331,3.331,0,0,0,2.017,2.362c1.184.314,2.4-.789,3.123-1.628a8.532,8.532,0,0,0,.662-.867,8.614,8.614,0,0,0-6.032-.8" transform="translate(-55.128 -17.386)" fill="#e37669"/>
      <path id="패스_5979" data-name="패스 5979" d="M155.177,49.188a6.272,6.272,0,0,0,.229.932,9.688,9.688,0,0,1,5.141.734,8.532,8.532,0,0,0,.662-.867,8.614,8.614,0,0,0-6.032-.8" transform="translate(-55.128 -17.386)" fill="#fff"/>
      <path id="패스_5980" data-name="패스 5980" d="M166.956,27.367a34.844,34.844,0,0,1,6.277,1.97,2.465,2.465,0,0,1,1.377,2.734l-.681,3.3a2.461,2.461,0,0,0,2.008,2.925l1.282.213,2.554-9.491Z" transform="translate(-59.313 -9.722)" fill="#39281c"/>
      <path id="패스_5981" data-name="패스 5981" d="M168.863,23.818c-1.43,3.185,3.986,9.275,6.89,9.786l2.382-6.727Z" transform="translate(-59.907 -8.462)" fill="#39281c"/>
      <path id="패스_5982" data-name="패스 5982" d="M179.869,66.047l-2.786-6.035-11.414,13.8,4.667,5.238Z" transform="translate(-58.856 -21.32)" fill="#fff"/>
      <path id="패스_5983" data-name="패스 5983" d="M179.869,66.047l-2.786-6.035-11.414,13.8,4.667,5.238Z" transform="translate(-58.856 -21.32)" fill="none" stroke="#ced3f4" stroke-width="0.821"/>
      <path id="패스_5984" data-name="패스 5984" d="M164.307,81.422l-2.472,3.309h5.034Z" transform="translate(-57.494 -28.926)" fill="#ced3f4"/>
      <path id="패스_5985" data-name="패스 5985" d="M121.932,272.91,111.01,284.135l-41.727-36.5L61.81,241.1l8.478-8.7,5.764-5.925,4.384,4.268.748.729s3.875,2.676,8.478,6.409a90.785,90.785,0,0,1,10.413,9.658c6.86,7.756,21.857,25.377,21.857,25.377" transform="translate(-21.959 -80.456)" fill="#f5c7b6"/>
      <path id="패스_5986" data-name="패스 5986" d="M140.259,291.635l12.764,2.837-12.688,30.776-1.74-8.533-1.346-10.153Z" transform="translate(-48.759 -103.607)" fill="#f5c7b6"/>
      <path id="패스_5987" data-name="패스 5987" d="M145.61,329.166a.667.667,0,0,0,.043-.086l12.321-27.191a3.572,3.572,0,0,0-1.745-4.712l-2.464-1.148v0l-8.736,20.17a15.678,15.678,0,0,0-5.692,2.073l1.559,10.148a2.5,2.5,0,0,0,4.715.742" transform="translate(-49.501 -105.168)" fill="#c87777"/>
      <path id="패스_5988" data-name="패스 5988" d="M89.663,240.227a37.332,37.332,0,0,1-20.38,9.761l-7.473-6.538,8.478-8.7,10.148-1.657.748.729s3.875,2.676,8.478,6.409" transform="translate(-21.959 -82.808)" fill="#f08f7b"/>
      <path id="패스_5989" data-name="패스 5989" d="M73.767,308.847l-15.28,3.417L41.93,253.226l-1.09-3.894,19.922-4.462,1.567,7s.316.774.812,2.089c1.6,4.191,5.068,13.894,6.215,21.689,1.5,10.251,4.41,33.2,4.41,33.2" transform="translate(-14.509 -86.993)" fill="#f5c7b6"/>
    </g>
  </g>
  <g id="그룹_3265" data-name="그룹 3265" transform="translate(26.331 157.877)">
    <g id="그룹_3264" data-name="그룹 3264" clip-path="url(#clip-path-4)">
      <path id="패스_5990" data-name="패스 5990" d="M35.133,250.447s27.39,7.258,33.278,26.984l-5.663-33.752-26.09,2.878Z" transform="translate(-38.813 -244.447)" fill="#f08f7b"/>
    </g>
  </g>
  <g id="그룹_3267" data-name="그룹 3267">
    <g id="그룹_3266" data-name="그룹 3266" clip-path="url(#clip-path)">
      <path id="패스_5992" data-name="패스 5992" d="M75.058,340.6l2.684,12.8-33.269,1.145,7.054-5.107,8.25-5.417Z" transform="translate(-15.799 -121.001)" fill="#f5c7b6"/>
      <path id="패스_5993" data-name="패스 5993" d="M42.716,364.509a.766.766,0,0,0,.1,0H72.664a3.572,3.572,0,0,0,3.572-3.534l.029-2.718h0l-21.978.368a15.682,15.682,0,0,0-4.237-4.329l-8.6,5.609a2.5,2.5,0,0,0,1.27,4.6" transform="translate(-14.318 -125.869)" fill="#c87777"/>
      <path id="패스_5994" data-name="패스 5994" d="M30.99,158.679c-4.8,26.34,5.911,60.029,5.911,60.029,15.774.294,25.89.666,39.609-6.377,0,0,5.311-45.881-7.208-53.414" transform="translate(-10.569 -56.373)" fill="#dddbbc"/>
      <path id="패스_5995" data-name="패스 5995" d="M67.07,191.661q-4.313,8.813-16.242,17.626" transform="translate(-18.057 -68.09)" fill="none" stroke="#bab690" stroke-width="0.831"/>
      <path id="패스_5996" data-name="패스 5996" d="M38.728,46.3s.233-9.753,10.18-11.05,13.4,7.035,14.438,10.9,3.6,12.214,11.566,14.514S85.943,72.227,83.7,78.184c0,0-49.96,3.657-50.019,3.421s.3-9,3.952-12.05,4.174-5.845,3.68-7.515S38.728,46.3,38.728,46.3" transform="translate(-11.964 -12.475)" fill="#272525"/>
      <path id="패스_5997" data-name="패스 5997" d="M32.476,101.7a24.865,24.865,0,0,0-1.938,7.814,21.978,21.978,0,0,0,.585,6.276" transform="translate(-10.834 -36.13)" fill="none" stroke="#c87777" stroke-width="0.831"/>
      <path id="패스_5998" data-name="패스 5998" d="M35.842,89.368A26.42,26.42,0,0,0,30.538,103c-.591,7.966,5.341,18.654,5.341,18.654l-4.625,10.268c7.373,5.9,21.545,4.469,38.313.238l.7-43.52L59.825,83.369Z" transform="translate(-10.834 -29.618)" fill="#f4a8a8"/>
      <path id="패스_5999" data-name="패스 5999" d="M48.65,162.471l-1.329,7.006A2.242,2.242,0,0,1,45.1,171.3c-8.318-.081-13.507-1.737-15.935-2.766a1.965,1.965,0,0,1-1.1-2.433l2.288-7.424c4.176,3.34,10.527,4.331,18.294,3.79" transform="translate(-9.936 -56.373)" fill="#fff"/>
      <path id="패스_6000" data-name="패스 6000" d="M84.433,164.2a42.792,42.792,0,0,1-19.312,6.85A2.252,2.252,0,0,1,62.6,168.91l-.268-6.427a123.425,123.425,0,0,0,18.546-3.436l3.816,2.106a1.974,1.974,0,0,1-.262,3.044" transform="translate(-22.145 -56.503)" fill="#fff"/>
      <path id="패스_6001" data-name="패스 6001" d="M47.1,82.067c-.542,3.481,14.251.245,17.5-5.914a23.821,23.821,0,0,1-4.9-11.4h0S57.222,73.3,48.872,73.537c.006.359.948,6.689-1.776,8.529" transform="translate(-16.726 -23.005)" fill="#f5c7b6"/>
    </g>
  </g>
  <g id="그룹_3269" data-name="그룹 3269" transform="translate(30.355 41.751)">
    <g id="그룹_3268" data-name="그룹 3268" clip-path="url(#clip-path-6)">
      <path id="패스_6002" data-name="패스 6002" d="M49.858,71.636s6.1,3.814,14.626-.106c1.527-11.648.032-12.126.032-12.126Z" transform="translate(-48.068 -62.855)" fill="#f08f7b"/>
    </g>
  </g>
  <g id="그룹_3271" data-name="그룹 3271">
    <g id="그룹_3270" data-name="그룹 3270" clip-path="url(#clip-path)">
      <path id="패스_6004" data-name="패스 6004" d="M58.583,61.94a19.014,19.014,0,0,0,.816-2.046,4.753,4.753,0,0,0,1.22.082l.059.008a3.184,3.184,0,1,0,.533-6.346c-.021,0-.04,0-.061,0a6.477,6.477,0,0,0-.745.006l.563-3.449c-.81-2.77-4.877-7.4-11.371-7a19.3,19.3,0,0,0-3.338.5,6.9,6.9,0,0,0-5.149,5.472c-.939,5.17-2.217,14.611,5.123,17.118a11.25,11.25,0,0,0,12.349-4.34" transform="translate(-14.346 -15.335)" fill="#f5c7b6"/>
      <path id="패스_6005" data-name="패스 6005" d="M72.906,61.372a1.714,1.714,0,0,1-.843,2.859" transform="translate(-25.601 -21.803)" fill="none" stroke="#272525" stroke-linecap="round" stroke-linejoin="round" stroke-width="0.825"/>
      <path id="패스_6006" data-name="패스 6006" d="M58.8,58.016a1.007,1.007,0,1,1,.521,1.325,1.007,1.007,0,0,1-.521-1.325" transform="translate(-20.858 -20.396)" fill="#272525"/>
      <path id="패스_6007" data-name="패스 6007" d="M45.154,55.151a1.007,1.007,0,1,1,.521,1.325,1.007,1.007,0,0,1-.521-1.325" transform="translate(-16.012 -19.378)" fill="#272525"/>
      <path id="패스_6008" data-name="패스 6008" d="M51.278,58.241s-1.614,1.19-1.5,1.651A2.69,2.69,0,0,0,50.9,61.108" transform="translate(-17.681 -20.691)" fill="none" stroke="#e37669" stroke-linecap="round" stroke-linejoin="round" stroke-width="0.825"/>
      <path id="패스_6009" data-name="패스 6009" d="M59.287,53.7a3.2,3.2,0,0,1,2.375.737" transform="translate(-21.062 -19.073)" fill="none" stroke="#272525" stroke-linecap="round" stroke-linejoin="round" stroke-width="0.825"/>
      <path id="패스_6010" data-name="패스 6010" d="M45.73,51.14a3.2,3.2,0,0,1,2.467.311" transform="translate(-16.246 -18.125)" fill="none" stroke="#272525" stroke-linecap="round" stroke-linejoin="round" stroke-width="0.825"/>
      <path id="패스_6011" data-name="패스 6011" d="M46.308,59.632c-.113.538-1.072.792-2.141.568s-1.845-.843-1.732-1.381,1.072-.792,2.141-.568,1.844.843,1.731,1.381" transform="translate(-15.072 -20.665)" fill="#f08f7b"/>
      <path id="패스_6012" data-name="패스 6012" d="M60.635,62.641c-.113.538-1.072.792-2.141.568s-1.845-.843-1.732-1.381,1.072-.792,2.141-.568,1.844.843,1.731,1.381" transform="translate(-20.162 -21.734)" fill="#f08f7b"/>
      <path id="패스_6013" data-name="패스 6013" d="M53.578,65.828a6.642,6.642,0,0,1-.459.983c-.567.98-1.641,2.315-3.28,2.1A2.241,2.241,0,0,1,48.258,68a4.322,4.322,0,0,1-.6-2.67Z" transform="translate(-16.925 -23.21)" fill="#272525"/>
      <path id="패스_6014" data-name="패스 6014" d="M53.459,67.549c-.566.98-1.641,2.315-3.28,2.1a2.244,2.244,0,0,1-1.58-.907,5.264,5.264,0,0,1,4.86-1.19" transform="translate(-17.265 -23.947)" fill="#a54952"/>
      <path id="패스_6015" data-name="패스 6015" d="M52.9,42.849c-1.266,1.6-1.652,6.594,3.126,7.106,0,0-1.3-4.148.62-6.507,0,0,1.816,9.783,7.912,9.875l1.063-5.983s-10.657-7.1-12.721-4.493" transform="translate(-18.499 -15.019)" fill="#272525"/>
      <path id="패스_6016" data-name="패스 6016" d="M60.813,91.932,56.4,87.776a47.71,47.71,0,0,0,9.071-9.616.876.876,0,0,1,1.338-.1l3.5,3.6Z" transform="translate(-20.037 -27.639)" fill="#fff"/>
      <path id="패스_6017" data-name="패스 6017" d="M51.906,90.858s-3.592-1.657-4.252-4.383l-3.9,4,5.409,5.155Z" transform="translate(-15.542 -30.721)" fill="#fff"/>
      <path id="패스_6018" data-name="패스 6018" d="M12.971,117.239l1.746-19.744,14.9-4.82,5.231,17.376Z" transform="translate(-4.608 -32.924)" fill="#f4a8a8"/>
      <path id="패스_6019" data-name="패스 6019" d="M6.64,78.638.3,101.557a7.94,7.94,0,0,0,2.5,8.271c4.446,3.633,10.638.48,13.011-4.87L18.48,76.211Z" transform="translate(0 -27.075)" fill="#f5c7b6"/>
      <path id="패스_6020" data-name="패스 6020" d="M19.024,67.411,8.838,71.15S3.732,65.6,2.747,63.595a6.744,6.744,0,0,1-.494-1.465,5.064,5.064,0,0,1,2.582-5.549.225.225,0,0,1-.188-.177c-.029-.125.015-.338.257-.7.553-.83,3.475-2.383,3.475-2.383s.87-1.534,1.8-1.8a1.494,1.494,0,0,1,1.433.206,1.909,1.909,0,0,1,1.7-1.1c1.1.1,3.1,3.244,3.1,3.244a2.159,2.159,0,0,1,2.772.747c.965,1.335,2.95,8.8-.157,12.8" transform="translate(-0.759 -17.982)" fill="#f5c7b6"/>
      <path id="패스_6021" data-name="패스 6021" d="M6.572,62.2a43.715,43.715,0,0,0,1.783,4.3c.589.444,2.045.525,2.934-1.309.6-1.236-.628-4.026-1.493-5.718a1.605,1.605,0,0,0-2.135-.707l-1.34.656" transform="translate(-2.246 -20.818)" fill="none" stroke="#f08f7b" stroke-linecap="round" stroke-linejoin="round" stroke-width="0.595"/>
      <path id="패스_6022" data-name="패스 6022" d="M11.822,54.782c.975-.184,1.347.228,1.882,1.348s1.908,5.081,1.77,5.619c0,0-.037,1.438-2.057,1.6" transform="translate(-4.2 -19.447)" fill="none" stroke="#f08f7b" stroke-linecap="round" stroke-linejoin="round" stroke-width="0.595"/>
      <path id="패스_6023" data-name="패스 6023" d="M21.435,52.715c1.274,2.221,2.2,6.09,1.354,6.786a4.293,4.293,0,0,1-2,.823" transform="translate(-7.384 -18.728)" fill="none" stroke="#f08f7b" stroke-linecap="round" stroke-linejoin="round" stroke-width="0.595"/>
      <path id="패스_6024" data-name="패스 6024" d="M17.059,52.537c1.369,1.255,2.752,7.293,2.253,8.017s-2.133.922-2.133.922" transform="translate(-6.06 -18.664)" fill="none" stroke="#f08f7b" stroke-linecap="round" stroke-linejoin="round" stroke-width="0.595"/>
      <path id="패스_6025" data-name="패스 6025" d="M21.938,70.166a7.692,7.692,0,0,1,.627-6.428" transform="translate(-7.642 -22.644)" fill="none" stroke="#f08f7b" stroke-linecap="round" stroke-linejoin="round" stroke-width="0.595"/>
      <path id="패스_6026" data-name="패스 6026" d="M106.283,108.049s-.418,14.074-.9,19.208a9.29,9.29,0,0,1-4.371,7.2l.427-26.407Z" transform="translate(-35.886 -38.386)" fill="#f4a8a8"/>
      <path id="패스_6027" data-name="패스 6027" d="M94.953,101.591l.372,23.775a7.94,7.94,0,0,1-4.5,7.378c-5.217,2.4-10.418-2.21-11.369-7.984l4.643-28.5Z" transform="translate(-28.229 -34.199)" fill="#f5c7b6"/>
      <path id="패스_6028" data-name="패스 6028" d="M86.756,91.743l6.17,8.926s7.373-1.6,9.331-2.663a6.754,6.754,0,0,0,1.248-.913,5.064,5.064,0,0,0,1.088-6.022.225.225,0,0,0,.256-.035c.1-.086.182-.286.194-.721.027-1-1.467-3.95-1.467-3.95a4.427,4.427,0,0,0-.431-2.509,1.5,1.5,0,0,0-1.289-.657,1.911,1.911,0,0,0-.75-1.877c-.957-.551-4.407.863-4.407.863a2.16,2.16,0,0,0-2.7-.988c-1.558.536-7.485,5.5-7.247,10.549" transform="translate(-30.819 -28.792)" fill="#f5c7b6"/>
      <path id="패스_6029" data-name="패스 6029" d="M108.517,97.546a43.887,43.887,0,0,1-3.933,2.484c-.737.023-1.974-.749-1.643-2.762.222-1.355,2.834-2.928,4.516-3.811a1.6,1.6,0,0,1,2.152.652l.717,1.308" transform="translate(-36.551 -33.136)" fill="none" stroke="#f08f7b" stroke-linecap="round" stroke-linejoin="round" stroke-width="0.595"/>
      <path id="패스_6030" data-name="패스 6030" d="M108.879,89.02c-.691-.712-1.233-.59-2.315.017s-4.487,3.052-4.685,3.571c0,0-.8,1.2.759,2.493" transform="translate(-36.121 -31.452)" fill="none" stroke="#f08f7b" stroke-linecap="round" stroke-linejoin="round" stroke-width="0.595"/>
      <path id="패스_6031" data-name="패스 6031" d="M103.129,81.834c-2.321,1.081-5.311,3.707-5.017,4.765a4.289,4.289,0,0,0,1.163,1.827" transform="translate(-34.848 -29.073)" fill="none" stroke="#f08f7b" stroke-linecap="round" stroke-linejoin="round" stroke-width="0.595"/>
      <path id="패스_6032" data-name="패스 6032" d="M106.316,84.417c-1.842.236-6.453,4.373-6.462,5.253s1.213,1.983,1.213,1.983" transform="translate(-35.474 -29.99)" fill="none" stroke="#f08f7b" stroke-linecap="round" stroke-linejoin="round" stroke-width="0.595"/>
      <path id="패스_6033" data-name="패스 6033" d="M93.5,95.676a7.693,7.693,0,0,0,3.192-5.614" transform="translate(-33.215 -31.996)" fill="none" stroke="#f08f7b" stroke-linecap="round" stroke-linejoin="round" stroke-width="0.595"/>
    </g>
  </g>
</svg>
