<svg id="그룹_1501" data-name="그룹 1501" xmlns="http://www.w3.org/2000/svg" xmlns:xlink="http://www.w3.org/1999/xlink" width="26" height="26" viewBox="0 0 26 26">
  <defs>
    <clipPath id="clip-path">
      <rect id="사각형_2647" data-name="사각형 2647" width="26" height="26" fill="none" stroke="#c3cad4" stroke-width="1.5"/>
    </clipPath>
  </defs>
  <g id="그룹_731" data-name="그룹 731" clip-path="url(#clip-path)">
    <path id="사각형_2643" data-name="사각형 2643" d="M4.167,0H20.833A4.167,4.167,0,0,1,25,4.167V20.834A4.166,4.166,0,0,1,20.834,25H4.166A4.166,4.166,0,0,1,0,20.834V4.167A4.167,4.167,0,0,1,4.167,0Z" transform="translate(0.5 0.5)" fill="none" stroke="#c3cad4" stroke-width="1.5"/>
    <line id="선_1" data-name="선 1" x2="8.333" transform="translate(11.958 6.792)" fill="none" stroke="#c3cad4" stroke-width="1.5"/>
    <line id="선_2" data-name="선 2" x2="8.333" transform="translate(11.958 13)" fill="none" stroke="#c3cad4" stroke-width="1.5"/>
    <line id="선_3" data-name="선 3" x2="8.333" transform="translate(11.958 19.208)" fill="none" stroke="#c3cad4" stroke-width="1.5"/>
    <rect id="사각형_2644" data-name="사각형 2644" width="3.125" height="3.125" transform="translate(6.229 5.229)" fill="none" stroke="#c3cad4" stroke-width="1.5"/>
    <rect id="사각형_2645" data-name="사각형 2645" width="3.125" height="3.125" transform="translate(6.229 11.437)" fill="none" stroke="#c3cad4" stroke-width="1.5"/>
    <rect id="사각형_2646" data-name="사각형 2646" width="3.125" height="3.125" transform="translate(6.229 17.646)" fill="none" stroke="#c3cad4" stroke-width="1.5"/>
  </g>
</svg>
