<svg xmlns="http://www.w3.org/2000/svg" xmlns:xlink="http://www.w3.org/1999/xlink" width="25" height="26" viewBox="0 0 25 26">
  <defs>
    <clipPath id="clip-path">
      <rect id="사각형_2642" data-name="사각형 2642" width="25" height="26" fill="none" stroke="#c3cad4" stroke-width="1.5"/>
    </clipPath>
  </defs>
  <g id="그룹_734" data-name="그룹 734" transform="translate(0 0)">
    <g id="그룹_729" data-name="그룹 729" transform="translate(0 0)" clip-path="url(#clip-path)">
      <path id="패스_1226" data-name="패스 1226" d="M17.509,9.209A5.04,5.04,0,1,1,12.47,4.256,5,5,0,0,1,17.509,9.209Z" transform="translate(0.031 -0.047)" fill="none" stroke="#c3cad4" stroke-width="1.5"/>
      <path id="패스_1227" data-name="패스 1227" d="M21.725,9.58A9.243,9.243,0,0,0,3.256,9.2a8.924,8.924,0,0,0,1.3,5.04,7.635,7.635,0,0,0,1.435,1.684l5.338,4.8a1.7,1.7,0,0,0,2.314,0l5.274-4.7a7.411,7.411,0,0,0,1.049-1.123A8.933,8.933,0,0,0,21.725,9.58Z" transform="translate(0.013 -0.005)" fill="none" stroke="#c3cad4" stroke-width="1.5"/>
      <path id="패스_1228" data-name="패스 1228" d="M21.351,16.579c1.924.873,3.1,2.031,3.1,3.3,0,2.719-5.372,4.431-12,4.431" transform="translate(0.051 -0.183)" fill="none" stroke="#c3cad4" stroke-width="1.5"/>
      <path id="패스_1229" data-name="패스 1229" d="M10.465,24.241C4.807,23.844.5,22.315.5,19.879c0-1.254,1.144-2.4,3.027-3.269" transform="translate(0.002 -0.184)" fill="none" stroke="#c3cad4" stroke-width="1.5"/>
      <path id="패스_1230" data-name="패스 1230" d="M8.466,22.9l2,1.477-2,1.476" transform="translate(0.035 -0.253)" fill="none" stroke="#c3cad4" stroke-width="1.5"/>
    </g>
  </g>
</svg>
