<svg id="그룹_2974" data-name="그룹 2974" xmlns="http://www.w3.org/2000/svg" xmlns:xlink="http://www.w3.org/1999/xlink" width="15" height="16" viewBox="0 0 15 16">
  <defs>
    <clipPath id="clip-path">
      <rect id="사각형_4123" data-name="사각형 4123" width="15" height="16" fill="none" stroke="#c3cad4" stroke-width="1"/>
    </clipPath>
  </defs>
  <g id="그룹_2973" data-name="그룹 2973" transform="translate(0 0)" clip-path="url(#clip-path)">
    <path id="패스_5709" data-name="패스 5709" d="M14.424,8.628,8.856,14.087a4.816,4.816,0,0,1-6.714,0,4.591,4.591,0,0,1,0-6.585l.006-.011L8.112,1.643a3.155,3.155,0,0,1,4.4,0,3.008,3.008,0,0,1,0,4.311L6.543,11.8l-.016.01a1.659,1.659,0,0,1-2.314,0,1.58,1.58,0,0,1,0-2.269L9.326,4.528" transform="translate(-0.087 -0.1)" fill="none" stroke="#c3cad4" stroke-linecap="round" stroke-linejoin="round" stroke-width="1.5"/>
  </g>
</svg>
