<svg xmlns="http://www.w3.org/2000/svg" width="140" height="140" viewBox="0 0 140 140">
  <g id="그룹_3248" data-name="그룹 3248" transform="translate(-765 -875)">
    <g id="패스_1228" data-name="패스 1228" transform="translate(765 875)" fill="#fff">
      <path d="M 70 139.5 C 60.61734390258789 139.5 51.51559829711914 137.6625061035156 42.94761657714844 134.0385437011719 C 38.82956314086914 132.2967681884766 34.85767364501953 130.140869140625 31.14223670959473 127.6307830810547 C 27.46198272705078 125.1444549560547 24.00121879577637 122.2890548706055 20.8560733795166 119.143928527832 C 17.71094512939453 115.998779296875 14.85554504394531 112.5380172729492 12.36921787261963 108.8577651977539 C 9.859127044677734 105.1423263549805 7.70323657989502 101.1704330444336 5.961454391479492 97.05238342285156 C 2.337490797042847 88.48439788818359 0.5 79.38265228271484 0.5 70 C 0.5 60.61734390258789 2.337490797042847 51.51559829711914 5.961454391479492 42.94761657714844 C 7.70323657989502 38.82956314086914 9.859127044677734 34.85767364501953 12.36921787261963 31.14223670959473 C 14.85554504394531 27.46198272705078 17.71094512939453 24.00121879577637 20.8560733795166 20.8560733795166 C 24.00121879577637 17.71094512939453 27.46198272705078 14.85554504394531 31.14223670959473 12.36921787261963 C 34.85767364501953 9.859127044677734 38.82956314086914 7.70323657989502 42.94761657714844 5.961454391479492 C 51.51559829711914 2.337490797042847 60.61734390258789 0.5 70 0.5 C 79.38265228271484 0.5 88.48439788818359 2.337490797042847 97.05238342285156 5.961454391479492 C 101.1704330444336 7.70323657989502 105.1423263549805 9.859127044677734 108.8577651977539 12.36921787261963 C 112.5380172729492 14.85554504394531 115.998779296875 17.71094512939453 119.143928527832 20.8560733795166 C 122.2890548706055 24.00121879577637 125.1444549560547 27.46198272705078 127.6307830810547 31.14223670959473 C 130.140869140625 34.85767364501953 132.2967681884766 38.82956314086914 134.0385437011719 42.94761657714844 C 137.6625061035156 51.51559829711914 139.5 60.61734390258789 139.5 70 C 139.5 79.38265228271484 137.6625061035156 88.48439788818359 134.0385437011719 97.05238342285156 C 132.2967681884766 101.1704330444336 130.140869140625 105.1423263549805 127.6307830810547 108.8577651977539 C 125.1444549560547 112.5380172729492 122.2890548706055 115.998779296875 119.143928527832 119.143928527832 C 115.998779296875 122.2890548706055 112.5380172729492 125.1444549560547 108.8577651977539 127.6307830810547 C 105.1423263549805 130.140869140625 101.1704330444336 132.2967681884766 97.05238342285156 134.0385437011719 C 88.48439788818359 137.6625061035156 79.38265228271484 139.5 70 139.5 Z" stroke="none"/>
      <path d="M 70 1 C 60.68461608886719 1 51.64841461181641 2.824203491210938 43.14240264892578 6.421951293945312 C 39.05406951904297 8.151168823242188 35.11081695556641 10.29150390625 31.42214202880859 12.78352355957031 C 27.76825714111328 15.25203704833984 24.332275390625 18.08699798583984 21.20963287353516 21.20963287353516 C 18.08699798583984 24.332275390625 15.25203704833984 27.76825714111328 12.78352355957031 31.42214202880859 C 10.29150390625 35.11081695556641 8.151168823242188 39.05406951904297 6.421951293945312 43.14240264892578 C 2.824203491210938 51.64841461181641 1 60.68461608886719 1 70 C 1 79.31538391113281 2.824203491210938 88.35157775878906 6.421951293945312 96.85760498046875 C 8.151168823242188 100.9459228515625 10.29150390625 104.8891830444336 12.78352355957031 108.5778503417969 C 15.25203704833984 112.2317428588867 18.08699798583984 115.667724609375 21.20963287353516 118.7903594970703 C 24.332275390625 121.9130020141602 27.76825714111328 124.7479629516602 31.42214202880859 127.2164764404297 C 35.11081695556641 129.70849609375 39.05406951904297 131.8488311767578 43.14240264892578 133.5780487060547 C 51.64841461181641 137.1757965087891 60.68461608886719 139 70 139 C 79.31538391113281 139 88.35157775878906 137.1757965087891 96.85760498046875 133.5780487060547 C 100.9459228515625 131.8488311767578 104.8891830444336 129.70849609375 108.5778503417969 127.2164764404297 C 112.2317428588867 124.7479629516602 115.667724609375 121.9130020141602 118.7903594970703 118.7903594970703 C 121.9130020141602 115.667724609375 124.7479629516602 112.2317428588867 127.2164764404297 108.5778503417969 C 129.70849609375 104.8891830444336 131.8488311767578 100.9459228515625 133.5780487060547 96.85760498046875 C 137.1757965087891 88.35157775878906 139 79.31538391113281 139 70 C 139 60.68461608886719 137.1757965087891 51.64841461181641 133.5780487060547 43.14240264892578 C 131.8488311767578 39.05406951904297 129.70849609375 35.11081695556641 127.2164764404297 31.42214202880859 C 124.7479629516602 27.76825714111328 121.9130020141602 24.332275390625 118.7903594970703 21.20963287353516 C 115.667724609375 18.08699798583984 112.2317428588867 15.25203704833984 108.5778503417969 12.78352355957031 C 104.8891830444336 10.29150390625 100.9459228515625 8.151168823242188 96.85760498046875 6.421951293945312 C 88.35157775878906 2.824203491210938 79.31538391113281 1 70 1 M 70 0 C 108.6599273681641 0 140 31.34007263183594 140 70 C 140 108.6599273681641 108.6599273681641 140 70 140 C 31.34007263183594 140 0 108.6599273681641 0 70 C 0 31.34007263183594 31.34007263183594 0 70 0 Z" stroke="none" fill="#ccd1d7"/>
    </g>
    <g id="그룹_1189" data-name="그룹 1189" transform="translate(2.482 -354)">
      <g id="그룹_1181" data-name="그룹 1181" transform="translate(800.518 1266)">
        <path id="패스_1212" data-name="패스 1212" d="M110.222,105.106H68.776a1.975,1.975,0,0,1,0-3.95h39.471V39.977h-52.3V88.031a1.975,1.975,0,1,1-3.95,0V38a1.976,1.976,0,0,1,1.975-1.975h56.248A1.976,1.976,0,0,1,112.2,38v65.129A1.975,1.975,0,0,1,110.222,105.106Z" transform="translate(-51.999 -36.027)" fill="#c3cad4"/>
        <path id="패스_1213" data-name="패스 1213" d="M68.768,105.732a1.974,1.974,0,0,1-1.416-.6L52.707,90.043a1.974,1.974,0,0,1,1.416-3.348h14.72a1.974,1.974,0,0,1,1.974,1.984l-.074,15.09a1.971,1.971,0,0,1-1.974,1.964Zm-9.979-15.09,8.03,8.274.04-8.274Z" transform="translate(-52.001 -36.653)" fill="#c3cad4"/>
        <rect id="사각형_1676" data-name="사각형 1676" width="33.467" height="2.961" transform="translate(13.279 15.937)" fill="#c3cad4"/>
        <rect id="사각형_1677" data-name="사각형 1677" width="33.245" height="2.961" transform="translate(13.279 26.891)" fill="#c3cad4"/>
        <rect id="사각형_1678" data-name="사각형 1678" width="33.234" height="2.961" transform="translate(13.438 37.845)" fill="#c3cad4"/>
        <rect id="사각형_1679" data-name="사각형 1679" width="20.144" height="2.961" transform="translate(26.295 49.39)" fill="#c3cad4"/>
      </g>
      <g id="그룹_1184" data-name="그룹 1184" transform="translate(843.939 1312.382)">
        <circle id="타원_156" data-name="타원 156" cx="14.5" cy="14.5" r="14.5" transform="translate(-0.421 -0.382)" fill="#fff"/>
        <path id="패스_1214" data-name="패스 1214" d="M238.373,552.4a12.336,12.336,0,1,0,12.337,12.339A12.341,12.341,0,0,0,238.373,552.4Zm6.779,14.145H240.7v4.63h-3.892v-4.63h-4.419v-3.9h4.419v-4.23H240.7v4.23h4.452Z" transform="translate(-224.065 -550.425)" fill="#c3cad4"/>
      </g>
    </g>
  </g>
</svg>
