<svg id="printer-outline" xmlns="http://www.w3.org/2000/svg" xmlns:xlink="http://www.w3.org/1999/xlink" width="20" height="18" viewBox="0 0 20 18">
  <defs>
    <clipPath id="clip-path">
      <rect id="사각형_1687" data-name="사각형 1687" width="20" height="18" fill="#fff"/>
    </clipPath>
  </defs>
  <g id="그룹_724" data-name="그룹 724" clip-path="url(#clip-path)">
    <path id="패스_1222" data-name="패스 1222" d="M17,5a3,3,0,0,1,3,3v6H16v4H4V14H0V8A3,3,0,0,1,3,5H4V0H16V5ZM6,5h8V2H6Zm8,7H6v4h8Zm2,0h2V8a1,1,0,0,0-1-1H3A1,1,0,0,0,2,8v4H4V10H16v2m1-3.5a1,1,0,1,1-1-1,1,1,0,0,1,1,1" fill="#fff"/>
  </g>
</svg>
