<svg xmlns="http://www.w3.org/2000/svg" width="72" height="96" viewBox="0 0 72 96">
  <g id="그룹_3276" data-name="그룹 3276" transform="translate(-963 -288)">
    <ellipse id="타원_220" data-name="타원 220" cx="30" cy="7.5" rx="30" ry="7.5" transform="translate(969 369)" fill="rgba(0,0,0,0.05)"/>
    <g id="그룹_3113" data-name="그룹 3113" transform="translate(963 288)">
      <g id="그룹_1213" data-name="그룹 1213" transform="translate(37.147 0)">
        <path id="패스_1298" data-name="패스 1298" d="M175.23,15.257a7.286,7.286,0,0,1-3.289-1.634c-2.736-2.394-5.492-4.771-8.241-7.152,2.749,2.384,5.5,4.758,8.241,7.152A7.286,7.286,0,0,0,175.23,15.257Z" transform="translate(-159.692 -4.814)" fill="none"/>
        <path id="패스_1299" data-name="패스 1299" d="M222.56,40.99l.938.148a.747.747,0,0,0,.184.018,1.063,1.063,0,0,1-.181-.018c-.314-.051-.627-.1-.938-.148Z" transform="translate(-203.543 -30.532)" fill="none"/>
        <path id="패스_1300" data-name="패스 1300" d="M162.493,5.628c-.089-.076-.176-.158-.268-.229a.192.192,0,0,0-.145-.054.192.192,0,0,1,.145.054C162.32,5.47,162.406,5.552,162.493,5.628Z" transform="translate(-158.485 -3.974)" fill="none"/>
        <path id="패스_1301" data-name="패스 1301" d="M200.41,34.89,200.6,35a9.907,9.907,0,0,0,2.05.824A9.849,9.849,0,0,1,200.6,35Z" transform="translate(-187.041 -25.987)" fill="none"/>
        <path id="패스_1302" data-name="패스 1302" d="M206.7,53.918a20.989,20.989,0,0,0-2.716-1.578A20.418,20.418,0,0,1,206.7,53.918Z" transform="translate(-189.701 -38.987)" fill="none"/>
        <path id="패스_1303" data-name="패스 1303" d="M235.49,76.241a.122.122,0,0,0,.12-.023.436.436,0,0,0,.048-.048.436.436,0,0,1-.048.048.123.123,0,0,1-.12.025Z" transform="translate(-213.176 -56.741)" fill="none"/>
        <path id="패스_1304" data-name="패스 1304" d="M156.143,38.54c.054,0,.11.005.166.01a29.54,29.54,0,0,1,4.011.561,29.18,29.18,0,0,0-4.013-.561c-.054,0-.11-.005-.166-.01Z" transform="translate(-154.059 -28.706)" fill="none"/>
        <path id="패스_1305" data-name="패스 1305" d="M185.426,14.207q1.431,1.247,2.871,2.486c.1.087.207.166.316.242.158.112.321.214.49.311l.191.107a9.906,9.906,0,0,0,2.05.824c.283.079.569.148.859.2.145.028.291.056.436.079.7.117,1.408.227,2.114.339l.938.148a.739.739,0,0,0,.181.018.212.212,0,0,0,.12-.036h0c.046-.145-.041-.273-.087-.4q-1.025-2.96-2.058-5.921c-.089-.258-.184-.515-.27-.775a.7.7,0,0,0-.11-.207.82.82,0,0,0-.232-.217,1.235,1.235,0,0,0-1.012-.153,1.3,1.3,0,0,0-.13.043c-1.114.431-2.236.849-3.353,1.275q-1.557.589-3.111,1.183a.8.8,0,0,0-.4.207c.028.127.125.181.2.245Z" transform="translate(-175.732 -8.341)" fill="#4d4d4d"/>
        <path id="패스_1306" data-name="패스 1306" d="M167.76,14.524q-.268-.042-.528-.1a7.287,7.287,0,0,1-3.289-1.634C161.207,10.4,158.45,8.02,155.7,5.638c-.089-.076-.176-.158-.268-.229a.192.192,0,0,0-.145-.054.1.1,0,0,0-.056.031.23.23,0,0,0-.043.066,1.166,1.166,0,0,0-.056.158c-.2.719-.388,1.441-.584,2.16-.344,1.262-.694,2.524-1.038,3.789-.173.637-.337,1.28-.52,1.915-.082.28.028.3.247.311.178.013.36.02.538.031.054,0,.11.005.166.01a29.634,29.634,0,0,1,4.013.561c.349.074.7.15,1.043.237q.826.207,1.64.464a27.994,27.994,0,0,1,2.922,1.107c.2.089.4.178.6.27.594.278,1.181.569,1.772.847l.043.023a20.414,20.414,0,0,1,2.716,1.578q.7.47,1.359.977a28.62,28.62,0,0,1,3.7,3.35c.069.074.143.148.219.217a.167.167,0,0,0,.038.025.117.117,0,0,0,.12-.025.436.436,0,0,0,.048-.048.594.594,0,0,0,.061-.079q.727-1.037,1.456-2.076l.887-1.267c.666-.951,1.331-1.9,1.989-2.856a4.958,4.958,0,0,0,.39-.564,1.344,1.344,0,0,0,.1-.24c-.186-.038-.326-.071-.472-.094Q173.169,15.38,167.76,14.524Z" transform="translate(-151.693 -3.982)" fill="#4d4d4d"/>
        <path id="패스_1307" data-name="패스 1307" d="M176.635,11.924a.761.761,0,0,0-.441-.495,1.1,1.1,0,0,0-.176-.066,2.533,2.533,0,0,0-.342-.069l-.913-.145c-.755-.12-1.532-.245-2.3-.362a12.683,12.683,0,0,1-1.747-.36c-.421-.127-.793-.255-1.137-.388A.9.9,0,0,1,169,9.432c-.444-1.318-.91-2.654-1.359-3.945-.26-.745-.52-1.489-.775-2.234a2.68,2.68,0,0,0-.487-.885,1.724,1.724,0,0,0-1.747-.617,4.31,4.31,0,0,0-.612.186l-1.257.474c-1.619.612-3.292,1.242-4.934,1.879A.906.906,0,0,1,157,4.223,11.93,11.93,0,0,1,155,2.859c-.515-.454-1.04-.91-1.5-1.311l-.314-.273c-.4-.349-.818-.711-1.239-1.058a.824.824,0,0,0-.892-.178.866.866,0,0,0-.451.6l-.135.5-.314,1.168q-.2.738-.4,1.471c-.268.974-.543,1.981-.808,2.976-.054.2-.117.4-.186.594l-.778,2.925h.01a29.28,29.28,0,0,1,6.961.711,24.708,24.708,0,0,1,3.078.834,18.008,18.008,0,0,1,2.953,1.211,7.5,7.5,0,0,0,.719.352,15.231,15.231,0,0,1,2.478,1.466,32.1,32.1,0,0,1,5.089,4.3c.541.566,1.045,1.153,1.522,1.757l1.336-1.889a8.161,8.161,0,0,1,.739-1.239c.143-.2.283-.4.423-.592l2.591-3.707c.082-.115.161-.229.245-.344.122-.173.247-.347.367-.523a.806.806,0,0,0,.143-.688ZM157.876,5.386c1.035-.4,2.073-.788,3.111-1.183,1.117-.423,2.239-.841,3.353-1.275a1.3,1.3,0,0,1,.13-.043,1.2,1.2,0,0,1,.887.082.841.841,0,0,1,.125.071.822.822,0,0,1,.232.217.759.759,0,0,1,.11.207c.087.26.181.518.27.775l2.058,5.921c.046.13.135.26.087.4h0a.248.248,0,0,1-.12.036,1.119,1.119,0,0,1-.184-.018c-.314-.051-.627-.1-.938-.148-.7-.11-1.41-.222-2.114-.339-.145-.025-.291-.051-.436-.079-.291-.059-.576-.125-.859-.2a9.657,9.657,0,0,1-2.05-.824l-.191-.107c-.168-.1-.331-.2-.49-.311-.107-.076-.214-.156-.316-.242q-1.438-1.239-2.871-2.486c-.074-.064-.171-.12-.2-.245a.786.786,0,0,1,.4-.207Zm17.367,7.173a4.653,4.653,0,0,1-.39.564q-.987,1.43-1.989,2.856l-.887,1.267q-.727,1.04-1.456,2.076a.936.936,0,0,1-.061.079.433.433,0,0,1-.048.048.116.116,0,0,1-.12.023.092.092,0,0,1-.038-.025c-.077-.069-.148-.143-.219-.217a29.168,29.168,0,0,0-3.7-3.35q-.666-.5-1.359-.977a20.984,20.984,0,0,0-2.716-1.578l-.043-.023c-.592-.28-1.178-.571-1.772-.847-.2-.092-.4-.184-.6-.27a28.581,28.581,0,0,0-2.922-1.107q-.815-.256-1.64-.464c-.347-.087-.694-.163-1.043-.237a29.2,29.2,0,0,0-4.011-.561c-.054-.005-.11-.008-.166-.01-.178-.01-.36-.018-.538-.031-.219-.015-.329-.031-.247-.311.184-.635.347-1.277.52-1.915.344-1.262.694-2.524,1.038-3.789.2-.719.39-1.441.584-2.16a1.17,1.17,0,0,1,.056-.158.23.23,0,0,1,.043-.066.122.122,0,0,1,.056-.031.192.192,0,0,1,.145.054c.094.071.181.153.268.229,2.749,2.384,5.5,4.758,8.241,7.152a7.287,7.287,0,0,0,3.289,1.634q.26.057.528.1c3.605.579,7.213,1.14,10.821,1.708.145.023.286.056.472.094a1.206,1.206,0,0,1-.1.24Z" transform="translate(-147.98 0.026)"/>
      </g>
      <g id="그룹_1214" data-name="그룹 1214" transform="translate(0 9.775)">
        <path id="패스_1308" data-name="패스 1308" d="M4.693,80.066c-.081-.36-.154-.743-.253-1.118a26.092,26.092,0,0,1-.534-2.932c-.21-1.47-.334-2.945-.435-4.425a13.257,13.257,0,0,1-.015-1.521A42.665,42.665,0,0,1,5.5,58.705a27.935,27.935,0,0,1,12.682-15.77,32.948,32.948,0,0,1,8.568-3.492,33.535,33.535,0,0,1,6.095-1.019c.116-.008.233-.018.349-.023.817-.033,1.634-.094,2.451-.091,1.244.008,2.493.015,3.735.1a31.007,31.007,0,0,1,4.84.753A35.571,35.571,0,0,1,51.8,41.82a29.147,29.147,0,0,1,7.819,5.568,27.527,27.527,0,0,1,6.444,10.066,40.494,40.494,0,0,1,1.76,6.48,31.923,31.923,0,0,1,.529,3.88,26.435,26.435,0,0,1,.071,4.384,2.013,2.013,0,0,0,.018.248c.018.013.086.053.149.1a6.529,6.529,0,0,1,1.94,2.309,12.642,12.642,0,0,1,1.249,3.817,13.078,13.078,0,0,1,.109,3.325,13.41,13.41,0,0,1-.592,2.8c-.311,1.006-.609,2.015-.883,3.031a24.476,24.476,0,0,1-1.8,4.871,19.822,19.822,0,0,1-1.055,1.751,5.7,5.7,0,0,1-.632.765,3.624,3.624,0,0,1-4.332.816c-.177-.076-.349-.167-.554-.266a13.481,13.481,0,0,0-.64,1.622c-.212.545-.4,1.1-.609,1.662.023.061.04.137.073.205a6.234,6.234,0,0,1,.314,4.886,12.812,12.812,0,0,1-2.8,4.81,16.582,16.582,0,0,1-4.562,3.51,24.7,24.7,0,0,1-2.875,1.285,6.312,6.312,0,0,1-4.458.015,4.317,4.317,0,0,1-1.51-.976,5.951,5.951,0,0,1-1.591-2.618,5.684,5.684,0,0,1-.225-1.5c-.008-.332,0-.664,0-1a2.743,2.743,0,0,0-.028-.3c-.159,0-.293-.013-.422,0a24.716,24.716,0,0,1-4.782,0c-.271-.023-.544-.048-.814-.074a.975.975,0,0,0-1.128,1.031,3.269,3.269,0,0,0,.119.748c.314,1.247.652,2.486,1,3.72a15.294,15.294,0,0,1,.506,2.7,5.28,5.28,0,0,1-.2,2.141,3.591,3.591,0,0,1-.46.938,2.182,2.182,0,0,1-1.73.948,4.189,4.189,0,0,1-1.717-.284,10.657,10.657,0,0,1-1.99-.976,23.475,23.475,0,0,1-2.787-2.025,60.109,60.109,0,0,1-5.667-5.489,109.472,109.472,0,0,1-9.9-12.734c-.645-.95-1.325-1.875-1.97-2.788-.187-.02-.2.1-.22.18a2.153,2.153,0,0,0-.061.4,13.864,13.864,0,0,0,.137,2.8c.068.441.157.879.228,1.267A4.014,4.014,0,0,1,13,103.211a2.605,2.605,0,0,1-.116.748,1.667,1.667,0,0,1-1.5,1.3c-.076.142-.157.294-.238.449a4.459,4.459,0,0,1-1.024,1.338,3.667,3.667,0,0,1-3.75.8,6.547,6.547,0,0,1-2.592-1.642,10.852,10.852,0,0,1-2.327-3.48A17.281,17.281,0,0,1,.267,98.515,25.313,25.313,0,0,1,.042,92.5a22.512,22.512,0,0,1,4.38-12.032c.071-.094.139-.188.2-.284a.83.83,0,0,0,.053-.127ZM60.182,98.122c.223-.73.435-1.358.607-2a2.4,2.4,0,0,0-.367-2.06,16.492,16.492,0,0,1-2.387-5.431c-.187-.755-.369-1.51-.612-2.253a10.377,10.377,0,0,1-.407-3.528A4.517,4.517,0,0,0,57,82.213c-.048-.446-.116-.89-.174-1.333a1.745,1.745,0,0,0-.273-.763,3.239,3.239,0,0,1-.427-1.082,5.762,5.762,0,0,1-.083-2.21,7.335,7.335,0,0,1,3.546-5.38,5.1,5.1,0,0,1,1.664-.689,2.794,2.794,0,0,1,1.935.188,2.3,2.3,0,0,0,.544.2,9.4,9.4,0,0,0,1.72.322,6.45,6.45,0,0,1,1.436.241c.238.068.48.124.751.193.013-.177.038-.327.035-.479-.025-.917-.04-1.835-.1-2.747-.058-.953-.121-1.911-.255-2.854a40.3,40.3,0,0,0-1.983-8.049,26.084,26.084,0,0,0-5.106-8.594,29.138,29.138,0,0,0-10.652-7.522,39.419,39.419,0,0,0-8.449-2.44,19.8,19.8,0,0,0-3.829-.39c-.526.013-1.052.005-1.578.01a25.136,25.136,0,0,0-3.148.147,41.7,41.7,0,0,0-6.441,1.379,33.246,33.246,0,0,0-7.847,3.416A27.056,27.056,0,0,0,5.982,59.871a43.648,43.648,0,0,0-1.7,9.655A16.683,16.683,0,0,0,4.3,72.04c.137,1.513.341,3.023.529,4.531.111.884.354,1.741.534,2.651a1.616,1.616,0,0,0,.5-.438.333.333,0,0,1,.483-.025,1.012,1.012,0,0,1-.349.76A21.621,21.621,0,0,0,2.2,86.26,24.222,24.222,0,0,0,.937,92.547a24.976,24.976,0,0,0,.384,6.64,14.249,14.249,0,0,0,1.533,4.275,8.979,8.979,0,0,0,2.023,2.478,5.3,5.3,0,0,0,1.646.981,2.8,2.8,0,0,0,3.156-.73,3.99,3.99,0,0,0,1.113-2.636,9.344,9.344,0,0,0-.174-2.154c-.192-1.115-.41-2.225-.559-3.345a14.007,14.007,0,0,1,.432-5.39,1.229,1.229,0,0,1,.116-.231,2.206,2.206,0,0,1,.152.205c.26.436.5.884.776,1.305,1.1,1.657,2.193,3.317,3.326,4.952a102.714,102.714,0,0,0,9.129,11.483,58.717,58.717,0,0,0,5.164,5,22.562,22.562,0,0,0,3.025,2.195,8.7,8.7,0,0,0,1.8.836,3.3,3.3,0,0,0,1.206.18,1.306,1.306,0,0,0,1.07-.616,2.419,2.419,0,0,0,.268-.58,4.621,4.621,0,0,0,.167-1.794,13.811,13.811,0,0,0-.478-2.585c-.531-1.855-1.075-3.705-1.616-5.558a5.652,5.652,0,0,1-.273-1.133,2.04,2.04,0,0,1,.883-.018q1.453.118,2.908.256a23.988,23.988,0,0,0,4.433-.056,2.316,2.316,0,0,0,.731-.147c.04-.147.073-.279.111-.411.152-.525.273-1.059.46-1.569a15.213,15.213,0,0,1,3.844-5.727,12.253,12.253,0,0,1,2.979-2.141,8.528,8.528,0,0,1,3.7-.966,7.126,7.126,0,0,1,5.419,2.185c.106.109.217.21.4.385ZM57.413,79.374c.051-.033.071-.038.076-.051.056-.185.109-.373.162-.56a12.294,12.294,0,0,1,1.669-3.715,8.651,8.651,0,0,1,.625-.77.74.74,0,0,1,.24-.155.113.113,0,0,1,.109.018c.038.038.094.109.078.142a2.645,2.645,0,0,1-.215.411,11.984,11.984,0,0,0-1.333,2.724A16.391,16.391,0,0,0,58,84.448a7.418,7.418,0,0,0,1.148,3.34,5.028,5.028,0,0,0,2.681,2.06,5.48,5.48,0,0,0,3.717-.119,7.37,7.37,0,0,0,3.664-3.046,10.613,10.613,0,0,0,1.626-4.891,11.8,11.8,0,0,0-.7-5.175,8.279,8.279,0,0,0-1.1-2.121,4.44,4.44,0,0,0-2.769-1.814,7.785,7.785,0,0,0-4.259.228c-.083.033-.192.162-.316-.005a1.441,1.441,0,0,1,.187-.205c.263-.2.534-.39.8-.59a1.438,1.438,0,0,0,.177-.193,1.171,1.171,0,0,0-.812-.2,3.484,3.484,0,0,0-1.659.507,6.3,6.3,0,0,0-3.3,4.9,4.136,4.136,0,0,0,.195,2.02,1.7,1.7,0,0,0,.131.238ZM43.924,108.389a6.358,6.358,0,0,0,.126,1.31,6.662,6.662,0,0,0,.956,1.863,3.868,3.868,0,0,0,2.395,1.546,6.148,6.148,0,0,0,3.389-.246,14.46,14.46,0,0,0,3.975-2.055c.2-.155.42-.284.617-.441.44-.352.893-.692,1.3-1.077a20.618,20.618,0,0,0,1.95-2.172,9.545,9.545,0,0,0,1.758-3.6,5.566,5.566,0,0,0,.106-2.491,5.09,5.09,0,0,0-1.57-2.81,6.312,6.312,0,0,0-5.839-1.579,8.84,8.84,0,0,0-3.755,1.8,14.935,14.935,0,0,0-4.5,5.735,10.4,10.4,0,0,0-.918,4.217ZM69.187,88.535c-.144.127-.26.218-.364.322a8.48,8.48,0,0,1-1.361,1.1,7.232,7.232,0,0,1-3.551,1.206,6.085,6.085,0,0,1-4.474-1.5c-.094-.079-.154-.228-.334-.188a1.353,1.353,0,0,0,.04.167,15.874,15.874,0,0,0,2.026,3.933,7.938,7.938,0,0,0,.8.928,3.188,3.188,0,0,0,1.386.831,2.592,2.592,0,0,0,2.529-.433,4.747,4.747,0,0,0,.766-.8,12.284,12.284,0,0,0,.862-1.318,20.411,20.411,0,0,0,1.669-4.04,1.03,1.03,0,0,0,0-.22ZM11.665,104.491a1.216,1.216,0,0,0,.526-1,2.565,2.565,0,0,0-.539-1.845A12.454,12.454,0,0,1,11.665,104.491Z" transform="translate(0.042 -38.31)" fill-rule="evenodd"/>
        <path id="패스_1309" data-name="패스 1309" d="M62.819,99.645c-.182-.175-.3-.279-.4-.385A7.119,7.119,0,0,0,57,97.075a8.519,8.519,0,0,0-3.7.965,12.111,12.111,0,0,0-2.977,2.141,15.211,15.211,0,0,0-3.841,5.727c-.187.509-.308,1.044-.46,1.569-.038.132-.071.264-.111.41a2.258,2.258,0,0,1-.73.147,23.963,23.963,0,0,1-4.43.056q-1.452-.141-2.906-.256a2.037,2.037,0,0,0-.882.018,5.656,5.656,0,0,0,.273,1.133c.538,1.852,1.084,3.7,1.615,5.557a13.778,13.778,0,0,1,.478,2.585,4.721,4.721,0,0,1-.167,1.794,2.369,2.369,0,0,1-.268.58,1.3,1.3,0,0,1-1.069.616,3.25,3.25,0,0,1-1.206-.18,8.7,8.7,0,0,1-1.794-.836,22.549,22.549,0,0,1-3.023-2.194,58.33,58.33,0,0,1-5.161-5,102.756,102.756,0,0,1-9.123-11.481c-1.132-1.634-2.224-3.294-3.323-4.951-.281-.421-.516-.872-.776-1.3-.038-.063-.088-.122-.152-.205a1.516,1.516,0,0,0-.116.231,14.066,14.066,0,0,0-.432,5.39c.152,1.12.369,2.23.559,3.345a9.325,9.325,0,0,1,.174,2.154,3.967,3.967,0,0,1-1.112,2.635,2.8,2.8,0,0,1-3.154.73,5.221,5.221,0,0,1-1.645-.981,9.014,9.014,0,0,1-2.022-2.478,14.228,14.228,0,0,1-1.532-4.275,24.98,24.98,0,0,1-.384-6.639,24.231,24.231,0,0,1,1.261-6.287,21.679,21.679,0,0,1,3.793-6.74,1.008,1.008,0,0,0,.349-.76.331.331,0,0,0-.483.025,1.615,1.615,0,0,1-.5.438c-.179-.91-.422-1.766-.533-2.651-.19-1.51-.394-3.018-.528-4.531a16.688,16.688,0,0,1-.015-2.514A43.786,43.786,0,0,1,8.65,61.4a27.052,27.052,0,0,1,12.3-16.091A33.067,33.067,0,0,1,28.792,41.9a41.355,41.355,0,0,1,6.437-1.378,25.086,25.086,0,0,1,3.146-.147c.526-.005,1.051,0,1.577-.01a19.391,19.391,0,0,1,3.826.39,39.378,39.378,0,0,1,8.444,2.44,29.12,29.12,0,0,1,10.645,7.521,26.041,26.041,0,0,1,5.1,8.593,40.268,40.268,0,0,1,1.981,8.048c.134.945.2,1.9.255,2.853.058.915.071,1.832.1,2.747a4.238,4.238,0,0,1-.035.479c-.273-.071-.513-.124-.751-.193A6.142,6.142,0,0,0,68.081,73a9.648,9.648,0,0,1-1.719-.322,2.417,2.417,0,0,1-.543-.2,2.791,2.791,0,0,0-1.933-.188,5.076,5.076,0,0,0-1.663.689,7.328,7.328,0,0,0-3.543,5.38,5.763,5.763,0,0,0,.083,2.21,3.4,3.4,0,0,0,.427,1.082,1.767,1.767,0,0,1,.273.763c.058.443.126.887.174,1.333a4.941,4.941,0,0,1,.013.641,10.381,10.381,0,0,0,.407,3.527c.243.742.425,1.5.612,2.253a16.442,16.442,0,0,0,2.386,5.43,2.4,2.4,0,0,1,.366,2.06c-.172.639-.382,1.267-.607,2ZM38.985,86.177a21.345,21.345,0,0,0,4.185-.489A8.142,8.142,0,0,0,49,80.754a12.075,12.075,0,0,0,.778-2.628,2.17,2.17,0,0,1,.7-1.434.728.728,0,0,0,.169-.91,1.127,1.127,0,0,0-1.14-.651.638.638,0,0,0-.366.15,1.215,1.215,0,0,1-1.006.36c-.215,0-.427.01-.642.013-1.772.028-3.541.053-5.312.086-.953.018-1.906.068-2.858.076-2.161.018-4.322.03-6.48.018-1.127-.008-2.254-.076-3.382-.119a1.1,1.1,0,0,1-.852-.309.452.452,0,0,0-.432-.129,1.27,1.27,0,0,0-.993.73.491.491,0,0,0,.3.745.613.613,0,0,1,.425.436,6.812,6.812,0,0,1,.243,1.021,10.174,10.174,0,0,0,1.471,3.91,7.3,7.3,0,0,0,2.618,2.534,9.443,9.443,0,0,0,2.143.907,21.155,21.155,0,0,0,4.6.611ZM28.421,67.824l-.083.073c-.278-.177-.551-.36-.834-.53a6.689,6.689,0,0,0-7.036-.028,9.972,9.972,0,0,0-3.4,3.385,3.561,3.561,0,0,0-.366.791,2.168,2.168,0,0,0-.083.689.476.476,0,0,0,.422.484,1.428,1.428,0,0,0,.91-.1,2.34,2.34,0,0,0,.7-.517,6.68,6.68,0,0,1,4.041-2.017A6.042,6.042,0,0,1,27.4,71.265a6.2,6.2,0,0,1,1.266,1.282,3.4,3.4,0,0,0,.45.537,1.229,1.229,0,0,0,1.3.258,1.062,1.062,0,0,0,.708-.981,3.759,3.759,0,0,0-.227-1.723,17.875,17.875,0,0,0-.776-1.824,6,6,0,0,0-1.878-2.2,6.473,6.473,0,0,0-.594-.37c-.094-.053-.215-.147-.306-.013-.066.1.028.175.086.251.281.35.561.7.831,1.052a1.747,1.747,0,0,1,.147.291Zm20.994.286a6.156,6.156,0,0,1,1.069-1.647c-.111-.165-.23-.109-.329-.058a4.868,4.868,0,0,0-1.221.892,8.38,8.38,0,0,0-2.272,4.518,2.284,2.284,0,0,0,.051.986,1.032,1.032,0,0,0,.533.661,1.215,1.215,0,0,0,1.451-.226,6.937,6.937,0,0,0,.518-.631,6.3,6.3,0,0,1,2.661-2.025A6.515,6.515,0,0,1,56,70.4a6.613,6.613,0,0,1,3.055,1.741,4.244,4.244,0,0,0,.475.431,1.537,1.537,0,0,0,1.089.337.575.575,0,0,0,.589-.654,2.556,2.556,0,0,0-.182-.788,4.989,4.989,0,0,0-.478-.867,10.506,10.506,0,0,0-2.3-2.468A7.755,7.755,0,0,0,56.6,67.14a6.609,6.609,0,0,0-3.639-.55,7.227,7.227,0,0,0-2.967,1.145c-.192.124-.384.251-.576.378ZM38.762,75.289a10.042,10.042,0,0,0,4.248-.806,3.23,3.23,0,0,0,1.372-1.224,1.824,1.824,0,0,0,.281-1,2.641,2.641,0,0,0-.366-1.338,5.057,5.057,0,0,0-3-2.438,7.762,7.762,0,0,0-2.366-.269,6.81,6.81,0,0,0-2.676.494,4.945,4.945,0,0,0-2.659,2.582,2.125,2.125,0,0,0,.49,2.569,4.4,4.4,0,0,0,2.179,1.171,11.022,11.022,0,0,0,2.5.256ZM34.216,112.6c-.243.074-.409.112-.566.175a6.182,6.182,0,0,1-1.913.474c-.6.038-1.2.063-1.8.091-.136.008-.273,0-.407.013a.178.178,0,0,0-.116.117.169.169,0,0,0,.051.15,1.862,1.862,0,0,0,.427.165,4.6,4.6,0,0,0,1.736.02,6.635,6.635,0,0,0,2.186-.765.677.677,0,0,0,.4-.441Z" transform="translate(-2.626 -39.836)" fill="#fff" fill-rule="evenodd"/>
        <path id="패스_1310" data-name="패스 1310" d="M226.056,177.827a2.025,2.025,0,0,1-.133-.24,4.121,4.121,0,0,1-.2-2.032,6.343,6.343,0,0,1,3.325-4.926,3.518,3.518,0,0,1,1.673-.51,1.2,1.2,0,0,1,.818.2,1.449,1.449,0,0,1-.178.194c-.265.2-.538.393-.8.594a1.605,1.605,0,0,0-.189.207c.128.168.235.038.319.005a7.841,7.841,0,0,1,4.294-.229,4.478,4.478,0,0,1,2.792,1.826,8.325,8.325,0,0,1,1.107,2.134,11.884,11.884,0,0,1,.7,5.207,10.663,10.663,0,0,1-1.64,4.921,7.449,7.449,0,0,1-3.695,3.065,5.522,5.522,0,0,1-3.748.12,5.069,5.069,0,0,1-2.7-2.073,7.484,7.484,0,0,1-1.158-3.361,16.45,16.45,0,0,1,.834-7.073,12.047,12.047,0,0,1,1.344-2.741,2.77,2.77,0,0,0,.217-.413c.013-.031-.041-.1-.079-.143a.114.114,0,0,0-.11-.018.79.79,0,0,0-.242.156,8.274,8.274,0,0,0-.63.775,12.386,12.386,0,0,0-1.683,3.738c-.051.189-.107.375-.163.564,0,.013-.025.018-.076.051Z" transform="translate(-168.722 -136.775)" fill="#fff" fill-rule="evenodd"/>
        <path id="패스_1311" data-name="패스 1311" d="M173.82,279.848a10.4,10.4,0,0,1,.926-4.243,15.013,15.013,0,0,1,4.536-5.77,8.936,8.936,0,0,1,3.786-1.808,6.367,6.367,0,0,1,5.888,1.589,5.133,5.133,0,0,1,1.583,2.828,5.589,5.589,0,0,1-.107,2.506,9.69,9.69,0,0,1-1.772,3.618,20.5,20.5,0,0,1-1.966,2.185c-.413.388-.869.729-1.316,1.084-.2.158-.421.291-.622.444a14.735,14.735,0,0,1-4.008,2.068,6.211,6.211,0,0,1-3.417.247,3.894,3.894,0,0,1-2.415-1.555,6.667,6.667,0,0,1-.964-1.874,6.2,6.2,0,0,1-.128-1.318Zm14.6-7.117a1.026,1.026,0,0,0,.033-.156.369.369,0,0,0-.013-.117,3.369,3.369,0,0,0-2.282-2.481,5.429,5.429,0,0,0-2.958-.135,6.748,6.748,0,0,0-4.182,2.828,1.242,1.242,0,0,0-.14.314c-.008.023.025.074.054.1s.084.036.1.02a3.336,3.336,0,0,0,.349-.306,8.387,8.387,0,0,1,1.239-1.168,5.822,5.822,0,0,1,4.638-1.2,4.113,4.113,0,0,1,2.932,1.958C188.255,272.484,188.321,272.579,188.42,272.732Z" transform="translate(-129.962 -209.838)" fill="#fff" fill-rule="evenodd"/>
        <path id="패스_1312" data-name="패스 1312" d="M244.028,236.5a1.033,1.033,0,0,1,0,.222,20.512,20.512,0,0,1-1.683,4.064,13.038,13.038,0,0,1-.87,1.326,4.882,4.882,0,0,1-.773.8,2.617,2.617,0,0,1-2.55.436,3.241,3.241,0,0,1-1.4-.836,7.992,7.992,0,0,1-.8-.933,15.915,15.915,0,0,1-2.042-3.957c-.018-.051-.026-.107-.041-.168.181-.041.242.11.337.189a6.144,6.144,0,0,0,4.511,1.5,7.294,7.294,0,0,0,3.58-1.214,8.664,8.664,0,0,0,1.372-1.107c.1-.1.224-.2.367-.324Z" transform="translate(-174.822 -186.303)" fill="#fff" fill-rule="evenodd"/>
        <path id="패스_1313" data-name="패스 1313" d="M46.213,291.083a12.5,12.5,0,0,0-.013-2.863,2.569,2.569,0,0,1,.543,1.856A1.226,1.226,0,0,1,46.213,291.083Z" transform="translate(-34.409 -224.901)" fill="#fff" fill-rule="evenodd"/>
        <path id="패스_1314" data-name="패스 1314" d="M108.789,188.7a21.4,21.4,0,0,1-4.638-.615,9.541,9.541,0,0,1-2.162-.913,7.361,7.361,0,0,1-2.642-2.55,10.2,10.2,0,0,1-1.484-3.934,6.839,6.839,0,0,0-.245-1.028.617.617,0,0,0-.428-.439.494.494,0,0,1-.306-.75,1.281,1.281,0,0,1,1-.734.456.456,0,0,1,.436.13,1.1,1.1,0,0,0,.859.311c1.137.043,2.274.112,3.412.12,2.18.013,4.36,0,6.538-.018.961-.008,1.923-.059,2.884-.076,1.787-.033,3.572-.059,5.36-.087.217,0,.431-.015.648-.013a1.238,1.238,0,0,0,1.015-.362.628.628,0,0,1,.37-.15,1.137,1.137,0,0,1,1.15.655.733.733,0,0,1-.171.915,2.175,2.175,0,0,0-.709,1.443,12.169,12.169,0,0,1-.785,2.644,8.209,8.209,0,0,1-5.882,4.964,21.563,21.563,0,0,1-4.223.492Zm-8.542-4.166c.127-.043.235-.082.344-.117a14,14,0,0,1,2.917-.673,24.351,24.351,0,0,1,3.529-.12c.862.023,1.729.089,2.588.059a34.582,34.582,0,0,1,3.707.033,15.232,15.232,0,0,1,3.621.742l.342.107a10.08,10.08,0,0,0,1.655-4.082,2.569,2.569,0,0,0-.209-1.576c-1.668.082-3.328.181-4.993.237s-3.338.084-5.005.094-3.338.005-5.005-.036-3.33-.138-5.018-.212a3,3,0,0,0-.133.4,3.981,3.981,0,0,0,.056,1.637,10.862,10.862,0,0,0,1.379,3.233,3.433,3.433,0,0,0,.222.28Zm.581.666a1.662,1.662,0,0,0,.469.528,8.366,8.366,0,0,0,3.677,1.764,34.348,34.348,0,0,0,3.855.462,1.411,1.411,0,0,0,.293-.01c.683-.064,1.367-.127,2.05-.2a10.809,10.809,0,0,0,2.688-.622,7.4,7.4,0,0,0,2.547-1.553c.094-.089.229-.163.2-.329a.329.329,0,0,0-.074-.089,1.153,1.153,0,0,0-.214-.1,14.025,14.025,0,0,0-3.687-.724,64.383,64.383,0,0,0-7.652-.033,15.316,15.316,0,0,0-3.8.732,3.146,3.146,0,0,0-.354.173Z" transform="translate(-72.419 -142.326)" fill-rule="evenodd"/>
        <path id="패스_1315" data-name="패스 1315" d="M67.205,143.871a1.751,1.751,0,0,0-.148-.293c-.275-.357-.558-.709-.839-1.058-.061-.076-.153-.156-.087-.252.092-.135.214-.041.309.013a6.325,6.325,0,0,1,.6.372,6.042,6.042,0,0,1,1.895,2.216,16.888,16.888,0,0,1,.783,1.836,3.807,3.807,0,0,1,.229,1.734,1.069,1.069,0,0,1-.714.987,1.247,1.247,0,0,1-1.316-.26,3.311,3.311,0,0,1-.454-.541,6.316,6.316,0,0,0-1.277-1.29,6.1,6.1,0,0,0-4.761-1.219,6.76,6.76,0,0,0-4.077,2.03,2.318,2.318,0,0,1-.7.52,1.462,1.462,0,0,1-.918.1.475.475,0,0,1-.426-.487,2.341,2.341,0,0,1,.084-.694,3.476,3.476,0,0,1,.37-.8,10.07,10.07,0,0,1,3.435-3.407,6.764,6.764,0,0,1,7.1.028c.286.168.561.354.841.533.028-.023.056-.048.084-.074Z" transform="translate(-41.334 -115.886)" fill-rule="evenodd"/>
        <path id="패스_1316" data-name="패스 1316" d="M176.841,144.71l.581-.38a7.276,7.276,0,0,1,2.993-1.152,6.7,6.7,0,0,1,3.672.553,7.767,7.767,0,0,1,1.66.994,10.583,10.583,0,0,1,2.32,2.484,5.29,5.29,0,0,1,.482.872,2.567,2.567,0,0,1,.184.793.579.579,0,0,1-.594.658,1.545,1.545,0,0,1-1.1-.339,5.148,5.148,0,0,1-.479-.433,6.686,6.686,0,0,0-3.083-1.752,6.59,6.59,0,0,0-4.156.186,6.353,6.353,0,0,0-2.685,2.037,6.584,6.584,0,0,1-.523.635,1.228,1.228,0,0,1-1.464.227,1.039,1.039,0,0,1-.538-.666,2.253,2.253,0,0,1-.051-.992,8.425,8.425,0,0,1,2.292-4.546,4.911,4.911,0,0,1,1.232-.9c.1-.051.217-.1.331.059a6.154,6.154,0,0,0-1.079,1.657Z" transform="translate(-130.1 -116.44)" fill-rule="evenodd"/>
        <path id="패스_1317" data-name="패스 1317" d="M126.981,157.425a11.148,11.148,0,0,1-2.522-.258,4.479,4.479,0,0,1-2.2-1.178,2.141,2.141,0,0,1-.495-2.586,4.991,4.991,0,0,1,2.682-2.6,6.878,6.878,0,0,1,2.7-.5,7.852,7.852,0,0,1,2.387.27,5.116,5.116,0,0,1,3.032,2.453,2.671,2.671,0,0,1,.37,1.346,1.832,1.832,0,0,1-.283,1,3.273,3.273,0,0,1-1.385,1.232,10.116,10.116,0,0,1-4.286.811Zm.1-.564c.6-.064,1.211-.1,1.81-.194a5.313,5.313,0,0,0,2.137-.785,3.58,3.58,0,0,0,.847-.722,1.313,1.313,0,0,0,.25-1.321,3.4,3.4,0,0,0-.518-.984,5.07,5.07,0,0,0-4.585-2.009,6.291,6.291,0,0,0-1.731.309,4.642,4.642,0,0,0-2.761,2.323,1.461,1.461,0,0,0,.38,2.045,4.8,4.8,0,0,0,2.017,1.045,10.06,10.06,0,0,0,2.157.3Z" transform="translate(-90.835 -121.942)" fill-rule="evenodd"/>
        <path id="패스_1318" data-name="패스 1318" d="M110.746,325.45a.67.67,0,0,1-.405.444,6.764,6.764,0,0,1-2.206.77,4.652,4.652,0,0,1-1.752-.02,1.928,1.928,0,0,1-.431-.166.166.166,0,0,1-.051-.15.185.185,0,0,1,.117-.117c.135-.018.273-.008.411-.013.607-.028,1.211-.054,1.818-.092a6.252,6.252,0,0,0,1.93-.477c.158-.064.326-.1.571-.176Z" transform="translate(-79.123 -252.734)" fill-rule="evenodd"/>
        <path id="패스_1319" data-name="패스 1319" d="M203.2,278.074c-.1-.153-.166-.245-.224-.344a4.108,4.108,0,0,0-2.932-1.958,5.824,5.824,0,0,0-4.638,1.2,8.257,8.257,0,0,0-1.239,1.168,3.085,3.085,0,0,1-.349.306c-.018.015-.076,0-.1-.02s-.061-.071-.054-.1a1.242,1.242,0,0,1,.14-.314,6.748,6.748,0,0,1,4.182-2.828,5.429,5.429,0,0,1,2.958.135,3.36,3.36,0,0,1,2.282,2.481.59.59,0,0,1,.013.117A1.531,1.531,0,0,1,203.2,278.074Z" transform="translate(-144.733 -215.066)" fill-rule="evenodd"/>
        <path id="패스_1320" data-name="패스 1320" d="M105.26,188.4a2.6,2.6,0,0,1-.222-.28,10.863,10.863,0,0,1-1.379-3.233,3.938,3.938,0,0,1-.056-1.637,2.769,2.769,0,0,1,.133-.4c1.691.074,3.353.168,5.018.212s3.338.046,5.005.036,3.338-.038,5.005-.094,3.325-.156,4.993-.237a2.551,2.551,0,0,1,.209,1.576,10.116,10.116,0,0,1-1.655,4.082c-.127-.041-.235-.071-.342-.107a15.23,15.23,0,0,0-3.621-.742,33.931,33.931,0,0,0-3.707-.033c-.862.031-1.726-.036-2.588-.059a24.357,24.357,0,0,0-3.529.12,13.84,13.84,0,0,0-2.917.673l-.344.117Z" transform="translate(-77.432 -146.177)" fill="#be1e2d" fill-rule="evenodd"/>
        <path id="패스_1321" data-name="패스 1321" d="M112.56,204.526a3.152,3.152,0,0,1,.354-.173,15.432,15.432,0,0,1,3.8-.732,64.917,64.917,0,0,1,7.652.033,14.026,14.026,0,0,1,3.687.724,1.34,1.34,0,0,1,.214.1.329.329,0,0,1,.074.089c.028.166-.107.24-.2.329a7.4,7.4,0,0,1-2.547,1.553,10.923,10.923,0,0,1-2.688.622c-.683.071-1.367.135-2.05.2a1.411,1.411,0,0,1-.293.01,34.349,34.349,0,0,1-3.855-.462,8.352,8.352,0,0,1-3.677-1.764,1.636,1.636,0,0,1-.469-.528Z" transform="translate(-84.15 -161.666)" fill="#f69c9f" fill-rule="evenodd"/>
        <path id="패스_1322" data-name="패스 1322" d="M129.251,158.4a10.014,10.014,0,0,1-2.157-.3,4.768,4.768,0,0,1-2.017-1.045,1.46,1.46,0,0,1-.38-2.045,4.642,4.642,0,0,1,2.761-2.323,6.309,6.309,0,0,1,1.731-.309,5.076,5.076,0,0,1,4.585,2.009,3.4,3.4,0,0,1,.518.984,1.307,1.307,0,0,1-.25,1.321,3.64,3.64,0,0,1-.847.722,5.376,5.376,0,0,1-2.137.785c-.6.089-1.206.133-1.81.194Z" transform="translate(-93 -123.482)" fill="#3cb769" fill-rule="evenodd"/>
      </g>
      <ellipse id="타원_165" data-name="타원 165" cx="8.185" cy="6.007" rx="8.185" ry="6.007" transform="translate(7.862 44.11)" fill="#f69c9f"/>
      <g id="그룹_1215" data-name="그룹 1215" transform="translate(0.01 9.777)">
        <path id="패스_1323" data-name="패스 1323" d="M243.639,236.816a8.553,8.553,0,0,1-1.372,1.107,7.3,7.3,0,0,1-3.58,1.214,6.144,6.144,0,0,1-4.511-1.5c-.094-.079-.156-.229-.337-.189a1.358,1.358,0,0,0,.041.168,15.96,15.96,0,0,0,2.042,3.957,7.992,7.992,0,0,0,.8.933,3.216,3.216,0,0,0,1.4.836,2.617,2.617,0,0,0,2.55-.436,4.782,4.782,0,0,0,.773-.8,12.358,12.358,0,0,0,.87-1.326A20.512,20.512,0,0,0,244,236.712a1.033,1.033,0,0,0,0-.222c-.145.127-.263.219-.367.324Z" transform="translate(-174.81 -186.298)" fill="none"/>
        <path id="패스_1324" data-name="패스 1324" d="M60.689,90.144c-.187-.755-.369-1.51-.612-2.253a8.258,8.258,0,0,1-.356-1.759c-.268.02-.538.03-.814.03-4.481,0-8.113-2.673-8.113-5.97s3.632-5.97,8.113-5.97a11.2,11.2,0,0,1,1.64.122,8,8,0,0,1,1.7-1.389,5.1,5.1,0,0,1,1.663-.689,2.791,2.791,0,0,1,1.933.188,2.3,2.3,0,0,0,.543.2,9.388,9.388,0,0,0,1.719.322,6.442,6.442,0,0,1,1.435.241c.238.068.48.124.751.193.013-.177.038-.327.035-.479-.025-.917-.04-1.835-.1-2.747-.058-.953-.121-1.911-.255-2.853a40.311,40.311,0,0,0-1.981-8.048,26.084,26.084,0,0,0-5.1-8.593,29.12,29.12,0,0,0-10.645-7.521,39.377,39.377,0,0,0-8.444-2.44,19.781,19.781,0,0,0-3.826-.39c-.526.013-1.051.005-1.577.01a25.108,25.108,0,0,0-3.146.147,41.649,41.649,0,0,0-6.437,1.378,33.215,33.215,0,0,0-7.842,3.416A27.052,27.052,0,0,0,8.67,61.384a43.665,43.665,0,0,0-1.7,9.654,16.69,16.69,0,0,0,.015,2.514c.136,1.513.341,3.023.528,4.531.111.884.354,1.741.533,2.65a1.615,1.615,0,0,0,.5-.438.333.333,0,0,1,.483-.025,1.012,1.012,0,0,1-.349.76,21.622,21.622,0,0,0-3.793,6.74,24.231,24.231,0,0,0-1.261,6.287,24.986,24.986,0,0,0,.384,6.639,14.252,14.252,0,0,0,1.532,4.275,8.977,8.977,0,0,0,2.022,2.478,5.3,5.3,0,0,0,1.645.981,2.8,2.8,0,0,0,3.154-.73,3.991,3.991,0,0,0,1.112-2.635,9.347,9.347,0,0,0-.174-2.154c-.192-1.115-.409-2.225-.559-3.345a14.012,14.012,0,0,1,.432-5.39,1.229,1.229,0,0,1,.116-.231,2.206,2.206,0,0,1,.152.205c.26.436.5.884.776,1.3,1.1,1.657,2.191,3.317,3.323,4.951a102.694,102.694,0,0,0,9.123,11.481,58.692,58.692,0,0,0,5.161,5,22.547,22.547,0,0,0,3.023,2.194,8.7,8.7,0,0,0,1.794.836,3.3,3.3,0,0,0,1.206.18,1.3,1.3,0,0,0,1.069-.616,2.42,2.42,0,0,0,.268-.58,4.622,4.622,0,0,0,.167-1.794,13.816,13.816,0,0,0-.478-2.585c-.531-1.855-1.074-3.7-1.615-5.557a5.654,5.654,0,0,1-.273-1.133,2.038,2.038,0,0,1,.882-.018q1.452.118,2.906.256a23.959,23.959,0,0,0,4.43-.056,2.315,2.315,0,0,0,.73-.147c.04-.147.073-.279.111-.411.152-.525.273-1.059.46-1.568a15.211,15.211,0,0,1,3.841-5.727,12.244,12.244,0,0,1,2.977-2.141,8.519,8.519,0,0,1,3.7-.965,7.119,7.119,0,0,1,5.416,2.184c.106.109.217.21.4.385.222-.73.435-1.358.607-2a2.4,2.4,0,0,0-.366-2.06,16.5,16.5,0,0,1-2.386-5.43Z" transform="translate(-2.651 -39.824)" fill="none"/>
        <path id="패스_1325" data-name="패스 1325" d="M188.956,269.607a6.374,6.374,0,0,0-5.888-1.589,8.921,8.921,0,0,0-3.786,1.808,15.031,15.031,0,0,0-4.536,5.77,10.449,10.449,0,0,0-.926,4.243,6.385,6.385,0,0,0,.127,1.318,6.7,6.7,0,0,0,.964,1.874,3.9,3.9,0,0,0,2.415,1.555,6.212,6.212,0,0,0,3.417-.247,14.59,14.59,0,0,0,4.008-2.068c.2-.156.423-.286.622-.444.444-.354.9-.7,1.316-1.084a20.764,20.764,0,0,0,1.966-2.185,9.6,9.6,0,0,0,1.772-3.618,5.588,5.588,0,0,0,.107-2.506,5.118,5.118,0,0,0-1.583-2.828Z" transform="translate(-129.972 -209.834)" fill="none"/>
        <path id="패스_1326" data-name="패스 1326" d="M46.213,291.083a1.223,1.223,0,0,0,.53-1.007,2.577,2.577,0,0,0-.543-1.856A12.5,12.5,0,0,1,46.213,291.083Z" transform="translate(-34.419 -224.904)" fill="none"/>
        <path id="패스_1327" data-name="패스 1327" d="M240.632,172.913a4.477,4.477,0,0,0-2.792-1.826,7.865,7.865,0,0,0-4.294.229c-.084.033-.194.163-.319-.005a1.456,1.456,0,0,1,.189-.207c.265-.2.538-.393.8-.594a1.447,1.447,0,0,0,.178-.194,1.183,1.183,0,0,0-.818-.2,3.519,3.519,0,0,0-1.673.51,7.146,7.146,0,0,0-1.252.887c3.08.862,5.271,3.05,5.271,5.615,0,2.871-2.746,5.27-6.415,5.865a7.437,7.437,0,0,0,1.147,3.294,5.069,5.069,0,0,0,2.7,2.073,5.537,5.537,0,0,0,3.748-.12,7.428,7.428,0,0,0,3.695-3.065,10.663,10.663,0,0,0,1.64-4.921,11.847,11.847,0,0,0-.7-5.207A8.325,8.325,0,0,0,240.632,172.913Z" transform="translate(-171.584 -136.775)" fill="none"/>
        <path id="패스_1328" data-name="패스 1328" d="M190.46,180.067c0,3.317,3.664,6.007,8.185,6.007.278,0,.551-.01.821-.031a14.3,14.3,0,0,1-.051-1.782,4.533,4.533,0,0,0-.013-.645c-.048-.449-.117-.895-.176-1.341a1.754,1.754,0,0,0-.275-.768,3.255,3.255,0,0,1-.431-1.089,5.786,5.786,0,0,1-.084-2.223,7.367,7.367,0,0,1,1.864-4.013,10.942,10.942,0,0,0-1.655-.122C194.124,174.06,190.46,176.75,190.46,180.067Z" transform="translate(-142.357 -139.697)" fill="#f69c9f"/>
        <path id="패스_1329" data-name="패스 1329" d="M71.812,78.679a12.6,12.6,0,0,0-1.249-3.817,6.551,6.551,0,0,0-1.94-2.309c-.063-.046-.132-.086-.149-.1a2.044,2.044,0,0,1-.018-.248,26.434,26.434,0,0,0-.071-4.384,32.428,32.428,0,0,0-.529-3.88,40.494,40.494,0,0,0-1.76-6.48A27.5,27.5,0,0,0,59.653,47.4a29.148,29.148,0,0,0-7.819-5.568,35.572,35.572,0,0,0-7.587-2.656,31.007,31.007,0,0,0-4.84-.753c-1.242-.086-2.491-.1-3.735-.1-.817-.005-1.634.058-2.451.091q-.174.008-.349.023a33.533,33.533,0,0,0-6.095,1.019,32.948,32.948,0,0,0-8.568,3.492A27.939,27.939,0,0,0,5.527,58.715,42.766,42.766,0,0,0,3.486,70.081,13.257,13.257,0,0,0,3.5,71.6c.1,1.477.225,2.955.435,4.425a25.535,25.535,0,0,0,.534,2.932c.1.375.172.758.253,1.118a.731.731,0,0,1-.053.127c-.066.1-.134.19-.2.284A22.487,22.487,0,0,0,.082,92.519,25.313,25.313,0,0,0,.307,98.53a17.312,17.312,0,0,0,1.184,4.212,10.852,10.852,0,0,0,2.327,3.479,6.529,6.529,0,0,0,2.592,1.642,3.668,3.668,0,0,0,3.75-.8,4.481,4.481,0,0,0,1.024-1.338c.078-.155.162-.307.238-.449a1.664,1.664,0,0,0,1.5-1.3,2.508,2.508,0,0,0,.116-.748,4.014,4.014,0,0,0-1.735-3.335c-.071-.385-.159-.824-.228-1.267a13.666,13.666,0,0,1-.137-2.8,2.185,2.185,0,0,1,.061-.4c.02-.084.033-.2.22-.18.645.91,1.325,1.837,1.97,2.788a109.687,109.687,0,0,0,9.9,12.734,58.9,58.9,0,0,0,5.667,5.489,23.2,23.2,0,0,0,2.787,2.025,10.817,10.817,0,0,0,1.99.976,4.224,4.224,0,0,0,1.717.284,2.178,2.178,0,0,0,1.73-.948,3.755,3.755,0,0,0,.46-.938,5.279,5.279,0,0,0,.2-2.141,15.528,15.528,0,0,0-.506-2.7c-.352-1.237-.69-2.476-1-3.72a3.413,3.413,0,0,1-.119-.748.977.977,0,0,1,1.128-1.031c.271.023.544.048.814.073a24.512,24.512,0,0,0,4.782,0c.129-.013.263,0,.422,0,.01.112.025.205.028.3,0,.332-.005.664,0,1a5.583,5.583,0,0,0,.225,1.5,5.928,5.928,0,0,0,1.591,2.618,4.34,4.34,0,0,0,1.51.976,6.34,6.34,0,0,0,4.458-.015,24.057,24.057,0,0,0,2.875-1.285,16.619,16.619,0,0,0,4.562-3.51,12.832,12.832,0,0,0,2.8-4.81,6.234,6.234,0,0,0-.314-4.886,1.693,1.693,0,0,1-.073-.205c.207-.568.4-1.12.609-1.662a13.074,13.074,0,0,1,.64-1.622c.2.1.374.19.554.266a3.631,3.631,0,0,0,4.332-.816,5.519,5.519,0,0,0,.632-.765c.369-.57.741-1.145,1.055-1.751a24.321,24.321,0,0,0,1.8-4.871c.273-1.016.572-2.025.883-3.031a13.409,13.409,0,0,0,.592-2.8,13.068,13.068,0,0,0-.109-3.325ZM12.221,103.5a1.219,1.219,0,0,1-.526,1,12.454,12.454,0,0,0-.013-2.846A2.557,2.557,0,0,1,12.221,103.5Zm48.211.03a9.64,9.64,0,0,1-1.758,3.6,20.365,20.365,0,0,1-1.95,2.172c-.41.385-.862.725-1.3,1.077-.2.157-.417.289-.617.441a14.6,14.6,0,0,1-3.975,2.055,6.149,6.149,0,0,1-3.389.246,3.861,3.861,0,0,1-2.395-1.546,6.63,6.63,0,0,1-.956-1.863,6.172,6.172,0,0,1-.126-1.31,10.353,10.353,0,0,1,.918-4.217,14.916,14.916,0,0,1,4.5-5.735,8.854,8.854,0,0,1,3.755-1.8,6.306,6.306,0,0,1,5.839,1.579,5.105,5.105,0,0,1,1.57,2.81,5.566,5.566,0,0,1-.106,2.491Zm.387-7.395c-.172.639-.382,1.267-.607,2-.182-.175-.3-.279-.4-.385a7.126,7.126,0,0,0-5.419-2.185,8.528,8.528,0,0,0-3.7.966,12.119,12.119,0,0,0-2.979,2.141,15.212,15.212,0,0,0-3.844,5.727c-.187.509-.309,1.044-.46,1.569-.038.132-.071.264-.111.411a2.262,2.262,0,0,1-.731.147,23.991,23.991,0,0,1-4.433.056q-1.453-.141-2.908-.256a2.039,2.039,0,0,0-.883.018,5.652,5.652,0,0,0,.273,1.133c.539,1.853,1.085,3.7,1.616,5.558a13.772,13.772,0,0,1,.478,2.585,4.719,4.719,0,0,1-.167,1.794,2.369,2.369,0,0,1-.268.58,1.3,1.3,0,0,1-1.07.616,3.253,3.253,0,0,1-1.206-.18,8.7,8.7,0,0,1-1.8-.836,22.563,22.563,0,0,1-3.025-2.195,58.354,58.354,0,0,1-5.164-5A102.774,102.774,0,0,1,14.886,98.91c-1.133-1.635-2.225-3.295-3.326-4.952-.281-.421-.516-.872-.776-1.305-.038-.063-.089-.122-.152-.205a1.517,1.517,0,0,0-.116.231,14.06,14.06,0,0,0-.432,5.39c.152,1.12.369,2.23.559,3.345a9.321,9.321,0,0,1,.174,2.154A3.966,3.966,0,0,1,9.7,106.2a2.8,2.8,0,0,1-3.156.73,5.225,5.225,0,0,1-1.646-.981,9.016,9.016,0,0,1-2.023-2.478A14.224,14.224,0,0,1,1.347,99.2a24.97,24.97,0,0,1-.384-6.64,24.222,24.222,0,0,1,1.262-6.287,21.678,21.678,0,0,1,3.8-6.741,1.008,1.008,0,0,0,.349-.76.331.331,0,0,0-.483.025,1.616,1.616,0,0,1-.5.438c-.18-.91-.422-1.766-.534-2.651-.19-1.51-.395-3.018-.529-4.531a16.681,16.681,0,0,1-.015-2.514,43.77,43.77,0,0,1,1.7-9.655A27.056,27.056,0,0,1,18.315,43.791a33.1,33.1,0,0,1,7.847-3.416A41.4,41.4,0,0,1,32.6,39a25.113,25.113,0,0,1,3.148-.147c.526-.005,1.052,0,1.578-.01a19.414,19.414,0,0,1,3.829.39,39.42,39.42,0,0,1,8.449,2.44A29.138,29.138,0,0,1,60.26,49.191a26.041,26.041,0,0,1,5.106,8.594,40.255,40.255,0,0,1,1.983,8.049c.134.945.2,1.9.255,2.854.058.915.071,1.832.1,2.747a4.236,4.236,0,0,1-.035.479c-.273-.071-.513-.124-.751-.193a6.149,6.149,0,0,0-1.436-.241,9.66,9.66,0,0,1-1.72-.322,2.42,2.42,0,0,1-.544-.2,2.794,2.794,0,0,0-1.935-.188,5.08,5.08,0,0,0-1.664.689,8.1,8.1,0,0,0-1.7,1.389,7.336,7.336,0,0,0-1.849,3.989,5.76,5.76,0,0,0,.083,2.21,3.4,3.4,0,0,0,.427,1.082,1.766,1.766,0,0,1,.273.763c.058.443.126.887.174,1.333a4.933,4.933,0,0,1,.013.641,13.778,13.778,0,0,0,.051,1.771,8.318,8.318,0,0,0,.357,1.759c.243.743.425,1.5.612,2.253a16.44,16.44,0,0,0,2.387,5.431,2.4,2.4,0,0,1,.367,2.06Zm8.4-7.369a20.411,20.411,0,0,1-1.669,4.04,12.96,12.96,0,0,1-.862,1.318,4.85,4.85,0,0,1-.766.8,2.592,2.592,0,0,1-2.529.433A3.212,3.212,0,0,1,62,94.518a7.935,7.935,0,0,1-.8-.928,15.83,15.83,0,0,1-2.026-3.933c-.018-.051-.025-.106-.04-.167.18-.041.24.109.334.188a6.085,6.085,0,0,0,4.474,1.5A7.224,7.224,0,0,0,67.5,89.967a8.6,8.6,0,0,0,1.361-1.1c.1-.1.223-.2.364-.322a1.029,1.029,0,0,1,0,.22ZM70.869,81.8a10.613,10.613,0,0,1-1.626,4.891,7.392,7.392,0,0,1-3.664,3.046,5.465,5.465,0,0,1-3.717.119,5.028,5.028,0,0,1-2.681-2.06,7.392,7.392,0,0,1-1.138-3.274.6.6,0,0,0-.01-.066,16.381,16.381,0,0,1,.827-7.03A11.984,11.984,0,0,1,60.192,74.7a2.754,2.754,0,0,0,.215-.411c.013-.03-.04-.1-.078-.142a.113.113,0,0,0-.109-.018.784.784,0,0,0-.24.155,8.228,8.228,0,0,0-.625.77,12.323,12.323,0,0,0-1.669,3.715c-.051.188-.106.373-.162.56,0,.013-.025.018-.076.051a2.011,2.011,0,0,1-.132-.238,4.1,4.1,0,0,1-.195-2.02,6.3,6.3,0,0,1,2.056-4.014,7.088,7.088,0,0,1,1.242-.882,3.484,3.484,0,0,1,1.659-.507,1.192,1.192,0,0,1,.812.2,1.438,1.438,0,0,1-.177.193c-.263.2-.534.39-.8.59a1.593,1.593,0,0,0-.187.205c.126.167.233.038.316.005a7.761,7.761,0,0,1,4.259-.228A4.44,4.44,0,0,1,69.073,74.5a8.28,8.28,0,0,1,1.1,2.121,11.834,11.834,0,0,1,.7,5.175Z" transform="translate(0.002 -38.319)"/>
      </g>
    </g>
  </g>
</svg>
